<?xml version="1.0" encoding="utf-8"?>
<!-- Generator: Adobe Illustrator 23.0.2, SVG Export Plug-In . SVG Version: 6.00 Build 0)  -->
<svg version="1.1" id="Calque_1" xmlns="http://www.w3.org/2000/svg" xmlns:xlink="http://www.w3.org/1999/xlink" x="0px" y="0px"
	 viewBox="0 0 829 744.2" style="enable-background:new 0 0 829 744.2;" xml:space="preserve">
<style type="text/css">
	.st0{fill:url(#SVGID_1_);}
	.st1{fill:#1BE2A2;}
	.st2{opacity:5.000000e-02;enable-background:new    ;}
	.st3{fill:url(#SVGID_2_);}
	.st4{opacity:0.5;fill:none;stroke:#BDBDBD;stroke-width:3;stroke-miterlimit:10;enable-background:new    ;}
	.st5{fill:url(#SVGID_3_);}
	.st6{fill:none;stroke:#BDBDBD;stroke-width:3;stroke-miterlimit:10;}
	.st7{fill:url(#SVGID_4_);}
	.st8{opacity:0.5;}
	.st9{fill:#47E6B1;}
	.st10{opacity:0.5;fill:#4D8AF0;enable-background:new    ;}
	.st11{opacity:0.5;fill:#F55F44;enable-background:new    ;}
	.st12{opacity:0.5;fill:#47E6B1;enable-background:new    ;}
	.st13{fill:#4A5C81;}
	.st14{fill:#3F3D56;}
	.st15{fill:#6C63FF;}
	.st16{display:none;fill:#F2F2F2;}
	.st17{display:none;opacity:3.000000e-02;enable-background:new    ;}
</style>
<title>startman1</title>
<linearGradient id="SVGID_1_" gradientUnits="userSpaceOnUse" x1="382.9" y1="53.41" x2="382.9" y2="700.75" gradientTransform="matrix(1 0 0 -1 0 746)">
	<stop  offset="0" style="stop-color:#808080;stop-opacity:0.25"/>
	<stop  offset="0.54" style="stop-color:#808080;stop-opacity:0.12"/>
	<stop  offset="1" style="stop-color:#808080;stop-opacity:0.1"/>
</linearGradient>
<circle class="st0" cx="382.9" cy="368.9" r="323.7"/>
<circle class="st1" cx="382.9" cy="368.9" r="315.7"/>
<circle class="st2" cx="280.8" cy="186.4" r="39.2"/>
<circle class="st2" cx="400.8" cy="606.4" r="39.2"/>
<circle class="st2" cx="520.2" cy="272.2" r="80.2"/>
<linearGradient id="SVGID_2_" gradientUnits="userSpaceOnUse" x1="577.1916" y1="206.24" x2="577.1916" y2="362.65" gradientTransform="matrix(1 0 0 -1 -185 669.13)">
	<stop  offset="0" style="stop-color:#808080;stop-opacity:0.25"/>
	<stop  offset="0.54" style="stop-color:#808080;stop-opacity:0.12"/>
	<stop  offset="1" style="stop-color:#808080;stop-opacity:0.1"/>
</linearGradient>
<path class="st3" d="M509.7,462.9c-39.7,0-82-1.9-125.2-5.7c-96.1-8.5-185.6-25.4-252.1-47.7c-67-22.4-102.8-47.8-100.7-71.4
	c1.1-11.9,11.6-22.6,31.2-31.7l1,2.2c-18.8,8.7-28.9,18.6-29.8,29.6s7.4,22.8,24.8,34.8c17.1,11.8,42.1,23.2,74.3,34
	c66.4,22.2,155.7,39.1,251.6,47.5s186.8,7.5,256-2.7c33.6-5,60.2-11.8,79.1-20.4c19.2-8.7,29.5-18.8,30.5-30
	c1.1-12.7-10.3-26.6-33.1-40.2l1.3-2.1c24,14.3,35.5,28.6,34.3,42.5c-2.1,23.6-41.7,42.3-111.7,52.6
	C603,460,558.2,462.9,509.7,462.9z"/>
<path class="st4" d="M717.8,357.9c22.7,13.6,34.9,27.7,33.7,41.3c-4.2,47.5-168.5,71.8-366.9,54.2S28.7,383.2,32.9,335.8
	c1-11.7,11.9-22,30.5-30.7"/>
<linearGradient id="SVGID_3_" gradientUnits="userSpaceOnUse" x1="422.9955" y1="159.74" x2="422.9955" y2="461.07" gradientTransform="matrix(1 0 0 -1 -185 669.13)">
	<stop  offset="0" style="stop-color:#808080;stop-opacity:0.25"/>
	<stop  offset="0.54" style="stop-color:#808080;stop-opacity:0.12"/>
	<stop  offset="1" style="stop-color:#808080;stop-opacity:0.1"/>
</linearGradient>
<path class="st5" d="M423.4,509.4c-28.6-12.3-57.8-26.1-86.8-40.9c-85.9-43.9-162.5-93.2-215.8-138.8
	C67,283.7,43.4,246.8,54.2,225.7c5.5-10.7,19.2-16.6,40.8-17.6l0.1,2.5c-20.7,1-33.7,6.5-38.8,16.3s-1.8,23.9,9.9,41.6
	c11.4,17.3,30.3,37.3,56.1,59.4c53.2,45.5,129.6,94.7,215.3,138.5c28.9,14.8,58.1,28.5,86.7,40.9L423.4,509.4z"/>
<path class="st6" d="M428,508.2c-28.1-12.1-57.2-25.8-86.7-40.9C163.9,376.6,37.7,268.7,59.4,226.3c5.4-10.5,19.2-16,39.8-17"/>
<linearGradient id="SVGID_4_" gradientUnits="userSpaceOnUse" x1="809.5011" y1="88.94" x2="809.5011" y2="163.5701" gradientTransform="matrix(1 0 0 -1 -185 669.13)">
	<stop  offset="0" style="stop-color:#808080;stop-opacity:0.25"/>
	<stop  offset="0.54" style="stop-color:#808080;stop-opacity:0.12"/>
	<stop  offset="1" style="stop-color:#808080;stop-opacity:0.1"/>
</linearGradient>
<path class="st7" d="M655.7,580.2c-26,0-62.7-8.5-112.2-25.6l0.8-2.3c94.5,32.5,141.2,33.9,156.2,4.4c5.8-11.3,0.4-28.5-15.6-49.7
	l2-1.5c16.9,22.3,22.2,39.9,15.8,52.3C695.2,572.7,680.1,580.2,655.7,580.2z"/>
<path class="st6" d="M686,503.8c16,21.1,22,38.8,15.7,51c-14.4,28.1-56.6,31-157.8-3.8"/>
<g class="st8">
	<rect x="94.4" y="661.7" class="st9" width="3.2" height="18.2"/>
	<rect x="86.9" y="669.2" class="st9" width="18.2" height="3.2"/>
</g>
<g class="st8">
	<rect x="748.6" y="3.2" class="st9" width="3.2" height="18.2"/>
	<rect x="741.1" y="10.7" class="st9" width="18.2" height="3.2"/>
</g>
<g class="st8">
	<rect x="818.3" y="500.8" class="st9" width="3.2" height="18.2"/>
	<rect x="810.8" y="508.3" class="st9" width="18.2" height="3.2"/>
</g>
<g class="st8">
	<rect x="105.1" y="47.2" class="st9" width="3.2" height="18.2"/>
	<rect x="97.6" y="54.7" class="st9" width="18.2" height="3.2"/>
</g>
<path class="st10" d="M200.2,724.2c-1.8-0.8-2.8-2.8-2.2-4.8c0-0.1,0.1-0.3,0.1-0.4l0,0c0-1.1-0.8-2-2-2c-0.6,0-1.2,0.3-1.6,0.7l0,0
	c-0.1,0.1-0.2,0.3-0.2,0.4c-0.8,1.8-2.8,2.8-4.8,2.2c-0.1,0-0.3-0.1-0.4-0.1l0,0c-1.1,0-2,0.8-2,2c0,0.6,0.3,1.2,0.7,1.6l0,0
	c0.1,0.1,0.3,0.2,0.4,0.2c1.8,0.8,2.8,2.8,2.2,4.8c0,0.1-0.1,0.3-0.1,0.4l0,0c0,1.1,0.8,2,2,2c0.6,0,1.2-0.3,1.6-0.7l0,0
	c0.1-0.1,0.2-0.3,0.2-0.4c0.8-1.8,2.8-2.8,4.8-2.2c0.1,0,0.3,0.1,0.4,0.1l0,0c1.1,0,2-0.8,2-2c0-0.6-0.3-1.2-0.7-1.6l0,0
	C200.5,724.4,200.4,724.3,200.2,724.2z"/>
<path class="st10" d="M396.5,737.1c-1.8-0.8-2.8-2.8-2.2-4.8c0-0.1,0.1-0.3,0.1-0.4l0,0c0-1.1-0.8-2-2-2c-0.6,0-1.2,0.3-1.6,0.7l0,0
	c-0.1,0.1-0.2,0.3-0.2,0.4c-0.8,1.8-2.8,2.8-4.8,2.2c-0.1,0-0.3-0.1-0.4-0.1l0,0c-1.1,0-2,0.8-2,2c0,0.6,0.3,1.2,0.7,1.6l0,0
	c0.1,0.1,0.3,0.2,0.4,0.2c1.8,0.8,2.8,2.8,2.2,4.8c0,0.1-0.1,0.3-0.1,0.4l0,0c0,1.1,0.8,2,2,2c0.6,0,1.2-0.3,1.6-0.7l0,0
	c0.1-0.1,0.2-0.3,0.2-0.4c0.8-1.8,2.8-2.8,4.8-2.2c0.1,0,0.3,0.1,0.4,0.1l0,0c1.1,0,2-0.8,2-2c0-0.6-0.3-1.2-0.7-1.6l0,0
	C396.7,737.3,396.6,737.2,396.5,737.1z"/>
<path class="st10" d="M784.7,219.1c-1.8-0.8-2.8-2.8-2.2-4.8c0-0.1,0.1-0.3,0.1-0.4l0,0c0-1.1-0.8-2-2-2c-0.6,0-1.2,0.3-1.6,0.7l0,0
	c-0.1,0.1-0.2,0.3-0.2,0.4c-0.8,1.8-2.8,2.8-4.8,2.2c-0.1,0-0.3-0.1-0.4-0.1l0,0c-1.1,0-2,0.8-2,2c0,0.6,0.3,1.2,0.7,1.6l0,0
	c0.1,0.1,0.3,0.2,0.4,0.2c1.8,0.8,2.8,2.8,2.2,4.8c0,0.1-0.1,0.3-0.1,0.4l0,0c0,1.1,0.8,2,2,2c0.6,0,1.2-0.3,1.6-0.7l0,0
	c0.1-0.1,0.2-0.3,0.2-0.4c0.8-1.8,2.8-2.8,4.8-2.2c0.1,0,0.3,0.1,0.4,0.1l0,0c1.1,0,2-0.8,2-2c0-0.6-0.3-1.2-0.7-1.6l0,0
	C785,219.3,784.8,219.2,784.7,219.1z"/>
<path class="st10" d="M20.3,502.9c-1.8-0.8-2.8-2.8-2.2-4.8c0-0.1,0.1-0.3,0.1-0.4l0,0c0-1.1-0.8-2-2-2c-0.6,0-1.2,0.3-1.6,0.7l0,0
	c-0.1,0.1-0.2,0.3-0.2,0.4c-0.8,1.8-2.8,2.8-4.8,2.2c-0.1,0-0.3-0.1-0.4-0.1l0,0c-1.1,0-2,0.8-2,2c0,0.6,0.3,1.2,0.7,1.6l0,0
	c0.1,0.1,0.3,0.2,0.4,0.2c1.8,0.8,2.8,2.8,2.2,4.8c0,0.1-0.1,0.3-0.1,0.4l0,0c0,1.1,0.8,2,2,2c0.6,0,1.2-0.3,1.6-0.7l0,0
	c0.1-0.1,0.2-0.3,0.2-0.4c0.8-1.8,2.8-2.8,4.8-2.2c0.1,0,0.3,0.1,0.4,0.1l0,0c1.1,0,2-0.8,2-2c0-0.6-0.3-1.2-0.7-1.6l0,0
	C20.5,503.1,20.4,503,20.3,502.9z"/>
<circle class="st11" cx="6.4" cy="238.1" r="6.4"/>
<circle class="st10" cx="530.9" cy="22.5" r="6.4"/>
<circle class="st12" cx="176.9" cy="6.4" r="6.4"/>
<circle class="st11" cx="653.1" cy="691.7" r="6.4"/>
<path class="st13" d="M539,557.9L539,557.9L539,557.9z"/>
<path class="st2" d="M493.1,529.8l-1.1-5.3l0,0l6.3-1.3c2.3-0.5,4.6,1,5.1,3.4l0,0l0.2,1l0,0L493.1,529.8L493.1,529.8z"/>
<path class="st2" d="M499.7,534.1c1.6,0.8,2.9,2.2,3.7,3.9l-0.3,0.5l-9.6-5C495.6,532.9,497.8,533.1,499.7,534.1z"/>
<g>
	<title>aircraft</title>
	<path class="st14" d="M553.3,565.8c-2.3,0.1-6.1-0.4-10.4-1.3c-11.8-2.3-27.4-6.7-27.4-6.7s-81.8-18.9-133.7-62.6
		c0,0-7.2-7.3,2.8-10.9c1.5-0.5,3.1-0.9,4.7-1.1l0.1-0.1c1.2-0.6,2.4-1,3.7-1.3c3.7-1,9.7-1.7,15.7,1.4l148.8,75.6
		C557.6,558.7,561.8,565.4,553.3,565.8z"/>
	<path class="st14" d="M525.7,544.3l40.3-12.8l13.7,7.1l-22.1,20.1C557.6,558.7,524.7,548.5,525.7,544.3z"/>
	<polygon class="st14" points="447.5,503.7 518.8,506.2 528.6,511.8 494.8,515.6 482.3,523 	"/>
	<path class="st15" d="M542.9,564.5c-11.8-2.3-27.4-6.7-27.4-6.7s-81.8-18.9-133.7-62.6c0,0-7.2-7.3,2.8-10.9l0,0.1
		c0,0,10.1,12.8,69.4,39.8L542.9,564.5z"/>
	<path class="st14" d="M532.5,560.6l25.4,21.3l7.6,1.5l-13.3-18.7C552.3,564.7,532.5,553.4,532.5,560.6z"/>
	<path class="st15" d="M394.7,489.1c-1.4-0.4-3.9-3.8-5.3-6c1.2-0.6,2.4-1,3.7-1.3c1.2,1.7,3.4,4.6,5,5.1
		C400.4,487.5,396.8,489.7,394.7,489.1z"/>
	<path class="st14" d="M506.4,597.8l-19.1-5l-41.4-52.5l-7.7-9.7l-3.7-4.7c11.3-4.7,44.5,17.4,44.5,17.4c0.5,0.8,0.4,1.9,0,2.9
		c-0.7,2-2.4,4.1-3.1,4.8c-0.2,0.2-0.2,0.3-0.2,0.3L506.4,597.8z"/>
	<path class="st16" d="M450.5,559.6l-3.9,1l3.1-3c-0.4-0.6-1-1.1-1.7-1.3l-0.1,0c-0.2-0.1-0.4-0.2-0.7-0.3l-1.3,0.3l0.7-0.7
		c-0.7-0.5-1.2-1.3-1.5-2.1l-2.4,0.6l2-1.9c-0.7-1.8-2-3.1-3.7-3.6c-2.1-0.7-4.3,0-6.1,1.5c-1.1,0.9-2.6,1.2-3.9,0.7l-0.1,0
		c-2.3-0.7-4.9,1.3-5.9,4.4s0,6.3,2.3,7c0.5,0.2,1,0.2,1.5,0.1c1.8-0.3,3.6,0.3,5,1.5c1.2,1,2.7,1.5,4.2,1.3
		c1.8-0.2,3.6,0.4,4.9,1.7c0.4,0.4,0.8,0.6,1.3,0.8c2.3,0.7,4.9-1.3,5.9-4.4C450.6,562.1,450.7,560.8,450.5,559.6z"/>
	<path class="st17" d="M441.7,566c-1.1-0.6-2.4-0.9-3.6-0.7c-1.5,0.2-3.1-0.3-4.2-1.3c-1.4-1.2-3.2-1.8-5-1.5
		c-0.5,0.1-1,0.1-1.5-0.1c-2-0.6-3-3.2-2.5-6c0.5-0.2,1-0.4,1.4-0.8c1.8-1.5,4-2.2,6.1-1.5c2.1,0.7,3.5,2.4,4.1,4.7
		c0.3,1.4,1.4,2.5,2.8,2.9l0.1,0C440.6,562.2,441.6,563.9,441.7,566z"/>
	<path class="st16" d="M543.4,586.3l-3.9,1l3.1-3c-0.4-0.6-1-1.1-1.7-1.3l-0.1,0c-0.2-0.1-0.4-0.2-0.7-0.3l-1.3,0.3l0.7-0.7
		c-0.7-0.5-1.2-1.3-1.5-2.1l-2.4,0.6l2-1.9c-0.7-1.8-2-3.1-3.7-3.6c-2.1-0.7-4.3,0-6.1,1.5c-1.1,0.9-2.6,1.2-3.9,0.7l-0.1,0
		c-2.3-0.7-4.9,1.3-5.9,4.4c-1,3.2,0,6.3,2.3,7c0.5,0.2,1,0.2,1.5,0.1c1.8-0.3,3.6,0.3,5,1.5c1.2,1,2.7,1.5,4.2,1.3
		c1.8-0.2,3.6,0.4,4.9,1.7c0.4,0.4,0.8,0.6,1.3,0.8c2.3,0.7,4.9-1.3,5.9-4.4C543.5,588.8,543.6,587.5,543.4,586.3z"/>
	<path class="st17" d="M534.5,592.7c-1.1-0.6-2.4-0.9-3.6-0.7c-1.5,0.2-3.1-0.3-4.2-1.3c-1.4-1.2-3.2-1.8-5-1.5
		c-0.5,0.1-1,0.1-1.5-0.1c-2-0.6-3-3.2-2.5-6c0.5-0.2,1-0.4,1.4-0.8c1.8-1.5,4-2.2,6.1-1.5s3.5,2.4,4.1,4.7c0.3,1.4,1.4,2.5,2.8,2.9
		l0.1,0C533.5,588.9,534.5,590.6,534.5,592.7z"/>
	<path class="st16" d="M565.3,517.5l-3.9,1l3.1-3c-0.4-0.6-1-1.1-1.7-1.3l-0.1,0c-0.2-0.1-0.4-0.2-0.7-0.3l-1.3,0.3l0.7-0.7
		c-0.7-0.5-1.2-1.3-1.5-2.1l-2.4,0.6l2-1.9c-0.7-1.8-2-3.1-3.7-3.6c-2.1-0.7-4.3,0-6.1,1.5c-1.1,0.9-2.6,1.2-3.9,0.7l-0.1,0
		c-2.3-0.7-4.9,1.3-5.9,4.4c-1,3.2,0,6.3,2.3,7c0.5,0.2,1,0.2,1.5,0.1c1.8-0.3,3.6,0.3,5,1.5c1.1,1,2.7,1.5,4.2,1.4
		c1.8-0.2,3.6,0.4,4.9,1.7c0.4,0.4,0.8,0.6,1.3,0.8c2.3,0.7,4.9-1.3,5.9-4.4C565.5,520.1,565.6,518.8,565.3,517.5z"/>
	<path class="st17" d="M556.5,523.9c-1.1-0.6-2.4-0.9-3.6-0.7c-1.5,0.2-3.1-0.3-4.2-1.3c-1.4-1.2-3.2-1.8-5-1.5
		c-0.5,0.1-1,0.1-1.5-0.1c-2-0.6-3-3.2-2.5-6c0.5-0.2,1-0.4,1.4-0.8c1.8-1.5,4-2.2,6.1-1.5c2.1,0.7,3.5,2.4,4.1,4.7
		c0.3,1.4,1.4,2.5,2.8,2.9l0.1,0C555.5,520.1,556.4,521.9,556.5,523.9z"/>
	<path class="st16" d="M433.1,467.1l-2,0.5l1.6-1.5c-0.2-0.3-0.5-0.5-0.9-0.7l0,0c-0.1,0-0.2-0.1-0.3-0.1l-0.7,0.2l0.4-0.3
		c-0.3-0.3-0.6-0.6-0.7-1l-1.2,0.3l1-0.9c-0.3-0.9-1-1.5-1.8-1.8c-1-0.3-2.1,0-3,0.8c-0.5,0.5-1.3,0.6-2,0.4l-0.1,0
		c-1.1-0.4-2.5,0.6-3,2.2c-0.5,1.6,0,3.2,1.1,3.5c0.2,0.1,0.5,0.1,0.8,0c0.9-0.1,1.8,0.1,2.5,0.7c0.6,0.5,1.3,0.8,2.1,0.7
		c0.9-0.1,1.8,0.2,2.4,0.8c0.2,0.2,0.4,0.3,0.6,0.4c1.1,0.4,2.5-0.6,3-2.2C433.2,468.4,433.3,467.7,433.1,467.1z"/>
	<path class="st17" d="M428.7,470.3c-0.6-0.3-1.2-0.4-1.8-0.4c-0.4,0-0.8,0-1.1-0.1c-0.4-0.1-0.7-0.3-1-0.6
		c-0.7-0.6-1.6-0.9-2.5-0.7c-0.3,0-0.5,0-0.8,0c-1-0.3-1.5-1.6-1.3-3c0.2-0.1,0.5-0.2,0.7-0.4c0.9-0.8,2-1.1,3-0.8
		c1,0.3,1.7,1.2,2,2.3c0.2,0.7,0.7,1.2,1.4,1.5l0,0C428.2,468.4,428.7,469.2,428.7,470.3z"/>
	<path class="st16" d="M545,615.8l-2,0.5l1.6-1.5c-0.2-0.3-0.5-0.5-0.9-0.7l0,0c-0.1,0-0.2-0.1-0.3-0.1l-0.7,0.2l0.4-0.3
		c-0.3-0.3-0.6-0.6-0.7-1l-1.2,0.3l1-0.9c-0.3-0.9-1-1.5-1.8-1.8c-1-0.3-2.1,0-3,0.8c-0.5,0.5-1.3,0.6-2,0.4l-0.1,0
		c-1.1-0.4-2.5,0.6-3,2.2s0,3.2,1.1,3.5c0.2,0.1,0.5,0.1,0.8,0c0.9-0.1,1.8,0.1,2.5,0.7c0.6,0.5,1.3,0.8,2.1,0.7
		c0.9-0.1,1.8,0.2,2.4,0.8c0.2,0.2,0.4,0.3,0.6,0.4c1.1,0.4,2.5-0.6,3-2.2C545.1,617.1,545.1,616.4,545,615.8z"/>
	<path class="st17" d="M540.6,619c-0.6-0.3-1.2-0.4-1.8-0.4c-0.4,0-0.8,0-1.1-0.1c-0.4-0.1-0.7-0.3-1-0.6c-0.7-0.6-1.6-0.9-2.5-0.7
		c-0.3,0-0.5,0-0.8,0c-1-0.3-1.5-1.6-1.3-3c0.2-0.1,0.5-0.2,0.7-0.4c0.9-0.8,2-1.1,3-0.8c1,0.3,1.7,1.2,2,2.3
		c0.2,0.7,0.7,1.2,1.4,1.5l0,0C540.1,617.1,540.6,618,540.6,619z"/>
	<path class="st16" d="M392.4,573l-2,0.5l1.6-1.5c-0.2-0.3-0.5-0.5-0.9-0.7l0,0c-0.1,0-0.2-0.1-0.3-0.1l-0.7,0.2l0.4-0.3
		c-0.3-0.3-0.6-0.6-0.7-1l-1.2,0.3l1-0.9c-0.3-0.9-1-1.5-1.8-1.8c-1-0.3-2.1,0-3,0.8c-0.5,0.5-1.3,0.6-2,0.4l-0.1,0
		c-1.1-0.4-2.5,0.6-3,2.2c-0.5,1.6,0,3.2,1.1,3.5c0.2,0.1,0.5,0.1,0.8,0c0.9-0.1,1.8,0.1,2.5,0.7c0.6,0.5,1.3,0.8,2.1,0.7
		c0.9-0.1,1.8,0.2,2.4,0.8c0.2,0.2,0.4,0.3,0.6,0.4c1.1,0.4,2.5-0.6,3-2.2C392.4,574.3,392.5,573.6,392.4,573z"/>
	<path class="st17" d="M388,576.2c-0.6-0.3-1.2-0.4-1.8-0.4c-0.4,0-0.8,0-1.1-0.1c-0.4-0.1-0.7-0.3-1-0.6c-0.7-0.6-1.6-0.9-2.5-0.7
		c-0.3,0-0.5,0-0.8,0c-1-0.3-1.5-1.6-1.3-3c0.2-0.1,0.5-0.2,0.7-0.4c0.9-0.8,2-1.1,3-0.8s1.7,1.2,2,2.3c0.2,0.7,0.7,1.2,1.4,1.5l0,0
		C387.4,574.3,387.9,575.2,388,576.2z"/>
	<path class="st16" d="M508.7,467.8l-3.9,1l3.1-3c-0.4-0.6-1-1.1-1.7-1.3l-0.1,0c-0.2-0.1-0.4-0.2-0.7-0.3l-1.3,0.3l0.7-0.7
		c-0.7-0.5-1.2-1.3-1.5-2.1l-2.4,0.6l2-1.9c-0.7-1.8-2-3.1-3.7-3.6c-2.1-0.7-4.3,0-6.1,1.5c-1.1,0.9-2.6,1.2-3.9,0.7l-0.1,0
		c-2.3-0.7-4.9,1.3-5.9,4.4s0,6.3,2.3,7c0.5,0.2,1,0.2,1.5,0.1c1.8-0.3,3.6,0.3,5,1.5c1.1,1,2.7,1.5,4.2,1.4
		c1.8-0.2,3.6,0.4,4.9,1.7c0.4,0.4,0.8,0.6,1.3,0.8c2.3,0.7,4.9-1.3,5.9-4.4C508.8,470.3,508.9,469,508.7,467.8z"/>
	<path class="st17" d="M499.9,474.2c-1.1-0.6-2.4-0.9-3.6-0.7c-1.5,0.2-3.1-0.3-4.2-1.3c-1.4-1.2-3.2-1.8-5-1.5
		c-0.5,0.1-1,0.1-1.5-0.1c-2-0.6-3-3.2-2.5-6c0.5-0.2,1-0.4,1.4-0.8c1.8-1.5,4-2.2,6.1-1.5c2.1,0.7,3.5,2.4,4.1,4.7
		c0.3,1.4,1.4,2.5,2.8,2.9l0.1,0C498.8,470.4,499.8,472.1,499.9,474.2z"/>
	<path class="st16" d="M608.3,539.2l-2,0.5l1.6-1.5c-0.2-0.3-0.5-0.5-0.9-0.7l0,0c-0.1,0-0.2-0.1-0.3-0.1l-0.7,0.2l0.4-0.3
		c-0.3-0.3-0.6-0.6-0.7-1l-1.2,0.3l1-0.9c-0.3-0.9-1-1.5-1.8-1.8c-1-0.3-2.1,0-3,0.8c-0.5,0.5-1.3,0.6-2,0.4l-0.1,0
		c-1.1-0.4-2.5,0.6-3,2.2c-0.5,1.6,0,3.2,1.1,3.5c0.2,0.1,0.5,0.1,0.8,0c0.9-0.1,1.8,0.1,2.5,0.7c0.6,0.5,1.3,0.8,2.1,0.7
		c0.9-0.1,1.8,0.2,2.4,0.8c0.2,0.2,0.4,0.3,0.6,0.4c1.1,0.4,2.5-0.6,3-2.2C608.4,540.5,608.4,539.9,608.3,539.2z"/>
	<path class="st17" d="M603.9,542.4c-0.6-0.3-1.2-0.4-1.8-0.4c-0.4,0-0.8,0-1.1-0.1c-0.4-0.1-0.7-0.3-1-0.6
		c-0.7-0.6-1.6-0.9-2.5-0.7c-0.3,0-0.5,0-0.8,0c-1-0.3-1.5-1.6-1.3-3c0.2-0.1,0.5-0.2,0.7-0.4c0.9-0.8,2-1.1,3-0.8
		c1,0.3,1.7,1.2,2,2.3c0.2,0.7,0.7,1.2,1.4,1.4l0,0C603.4,540.5,603.8,541.4,603.9,542.4z"/>
</g>
</svg>
