<?xml version="1.0" encoding="utf-8"?>
<!-- Generator: Adobe Illustrator 23.0.2, SVG Export Plug-In . SVG Version: 6.00 Build 0)  -->
<svg version="1.1" id="Calque_1" xmlns="http://www.w3.org/2000/svg" xmlns:xlink="http://www.w3.org/1999/xlink" x="0px" y="0px"
	 viewBox="0 0 566.9 890.1" style="enable-background:new 0 0 566.9 890.1;" xml:space="preserve">
<style type="text/css">
	.st0{fill:#2498A0;}
	.st1{fill:#E2E2EC;}
	.st2{fill:#555562;}
	.st3{fill:none;stroke:#555562;stroke-width:2;stroke-miterlimit:10;}
	.st4{fill:#337A7C;}
	.st5{fill:none;}
	.st6{fill:#FFFFFF;}
	.st7{font-family:'Bungee-Regular';}
	.st8{font-size:41px;}
	.st9{font-size:37px;}
	.st10{enable-background:new    ;}
	.st11{font-size:26px;}
	.st12{letter-spacing:8;}
</style>
<rect class="st0" width="566.9" height="890.1"/>
<g>
	<title>gaming</title>
	<circle class="st1" cx="283.5" cy="126.3" r="87.1"/>
	<path class="st2" d="M298.6,106.9L287,117.1c-2,1.8-5.1,1.8-7.1,0l-11.6-10.3c-1.1-1-1.8-2.5-1.8-4V74.6c0-3,2.4-5.4,5.4-5.4h23.3
		c3,0,5.4,2.4,5.4,5.4l0,0v28.2C300.5,104.4,299.8,105.8,298.6,106.9z"/>
	<path class="st2" d="M298.6,145.7L287,135.4c-2-1.8-5.1-1.8-7.1,0l-11.6,10.3c-1.1,1-1.8,2.5-1.8,4V178c0,3,2.4,5.4,5.4,5.4l0,0
		h23.3c3,0,5.4-2.4,5.4-5.4l0,0v-28.3C300.5,148.2,299.8,146.7,298.6,145.7z"/>
	<path class="st2" d="M264.1,141.5l10.3-11.6c1.8-2,1.8-5.1,0-7.1l-10.3-11.6c-1-1.1-2.5-1.8-4-1.8h-28.2c-3,0-5.4,2.4-5.4,5.4V138
		c0,3,2.4,5.4,5.4,5.4l0,0h28.2C261.6,143.3,263,142.6,264.1,141.5z"/>
	<path class="st2" d="M302.9,141.5l-10.3-11.6c-1.8-2-1.8-5.1,0-7.1l10.3-11.6c1-1.1,2.5-1.8,4-1.8h28.2c3,0,5.4,2.4,5.4,5.4l0,0
		V138c0,3-2.4,5.4-5.4,5.4l0,0h-28.2C305.4,143.3,303.9,142.6,302.9,141.5z"/>
	<polygon class="st3" points="268.4,62.2 298.5,62.2 283.5,49.2 	"/>
	<polygon class="st3" points="268.4,190.4 298.5,190.4 283.5,203.4 	"/>
	<polygon class="st3" points="219.4,111.3 219.4,141.3 206.3,126.3 	"/>
	<polygon class="st3" points="347.6,111.3 347.6,141.3 360.6,126.3 	"/>
</g>
<rect x="75" y="247.3" class="st4" width="427.4" height="4.2"/>
<rect x="65.8" y="293.7" class="st5" width="439.2" height="99.7"/>
<text transform="matrix(1 0 0 1 147.8926 344.1748)" class="st6 st7 st8">Commandes</text>
<rect x="75" y="409.2" class="st4" width="427.4" height="4.2"/>
<rect x="69.1" y="429.3" class="st5" width="439.2" height="394.8"/>
<text transform="matrix(1 0 0 1 34.9689 505.0635)" class="st6 st7 st9">Utilisez les 4 flèches </text>
<text transform="matrix(1 0 0 1 92.0689 549.4635)" class="st6 st7 st9">directionnelles </text>
<text transform="matrix(1 0 0 1 93.3689 593.8635)" class="st10"><tspan x="0" y="0" class="st6 st7 st9">de votre clavier</tspan><tspan x="0" y="44.4" class="st6 st7 st9">et la barre espace </tspan></text>
<text transform="matrix(1 0 0 1 143.4615 448.064)" class="st6 st7 st11 st12"> </text>
<text transform="matrix(1 0 0 1 249.4615 448.064)" class="st6 st7 st11 st12"> </text>
<text transform="matrix(1 0 0 1 405.0615 448.064)" class="st6 st7 st11 st12"> </text>
<text transform="matrix(1 0 0 1 473.4614 448.064)" class="st6 st7 st11 st12"> </text>
<text transform="matrix(1 0 0 1 199.1615 479.264)" class="st6 st7 st11"> </text>
<text transform="matrix(1 0 0 1 401.9614 479.264)" class="st6 st7 st11"> </text>
<text transform="matrix(1 0 0 1 465.4614 479.264)" class="st6 st7 st11"> </text>
</svg>
