<svg id="Calque_1" data-name="Calque 1" xmlns="http://www.w3.org/2000/svg" xmlns:xlink="http://www.w3.org/1999/xlink" viewBox="0 0 566.93 891.44"><defs><style>.cls-1{fill:#2498a0;}.cls-2{fill:#f2f2f2;}.cls-3{fill:#403e56;}.cls-4{fill:#192534;}.cls-5{fill:#213043;}.cls-43,.cls-44,.cls-6{fill:#010101;}.cls-15,.cls-6{opacity:0.1;}.cls-41,.cls-43,.cls-44,.cls-6{isolation:isolate;}.cls-7{fill:#f7bebe;}.cls-8{fill:#e7ab25;}.cls-9{fill:#5fbdac;}.cls-10{fill:#474b60;}.cls-11{fill:url(#Dégradé_sans_nom_25);}.cls-12{fill:#555562;}.cls-13{fill:#d7d7e3;}.cls-14{fill:#a8a8a8;}.cls-16{fill:#fff;}.cls-17{fill:#585a88;}.cls-18{fill:#eb5a61;}.cls-19{fill:#ffd13b;}.cls-20{fill:url(#Dégradé_sans_nom_25-2);}.cls-21,.cls-43{opacity:0.08;}.cls-22{fill:url(#Dégradé_sans_nom_25-4);}.cls-23{fill:url(#Dégradé_sans_nom_25-5);}.cls-24,.cls-41,.cls-44{opacity:0.05;}.cls-25{fill:url(#Dégradé_sans_nom_25-7);}.cls-26{fill:url(#Dégradé_sans_nom_25-9);}.cls-27{fill:url(#Dégradé_sans_nom_25-10);}.cls-28{fill:url(#Dégradé_sans_nom_25-12);}.cls-29{fill:url(#Dégradé_sans_nom_25-13);}.cls-30{fill:url(#Dégradé_sans_nom_25-14);}.cls-31{fill:url(#Dégradé_sans_nom_25-15);}.cls-32{fill:url(#Dégradé_sans_nom_25-16);}.cls-33{fill:url(#Dégradé_sans_nom_25-17);}.cls-34{fill:url(#Dégradé_sans_nom_25-18);}.cls-35{fill:url(#Dégradé_sans_nom_25-19);}.cls-36{fill:url(#Dégradé_sans_nom_25-20);}.cls-37{fill:url(#Dégradé_sans_nom_25-21);}.cls-38{fill:url(#Dégradé_sans_nom_25-22);}.cls-39{fill:url(#Dégradé_sans_nom_25-23);}.cls-40{fill:url(#Dégradé_sans_nom_25-24);}.cls-41{fill:url(#Dégradé_sans_nom_25-25);}.cls-42{fill:#f7c4a7;}.cls-45{fill:#6a5d9a;}.cls-46{fill:#642652;}</style><linearGradient id="Dégradé_sans_nom_25" x1="341.22" y1="1626.49" x2="341.22" y2="1739.34" gradientTransform="matrix(1, 0, 0, -1, -58.53, 1772.37)" gradientUnits="userSpaceOnUse"><stop offset="0" stop-color="#808181" stop-opacity="0.25"/><stop offset="0.54" stop-color="#808181" stop-opacity="0.12"/><stop offset="1" stop-color="#808181" stop-opacity="0.1"/></linearGradient><linearGradient id="Dégradé_sans_nom_25-2" x1="326.49" y1="1676.48" x2="326.49" y2="1681.81" xlink:href="#Dégradé_sans_nom_25"/><linearGradient id="Dégradé_sans_nom_25-4" x1="321.64" y1="1677.58" x2="321.64" y2="1680.41" xlink:href="#Dégradé_sans_nom_25"/><linearGradient id="Dégradé_sans_nom_25-5" x1="313.25" y1="1677.02" x2="313.25" y2="1695.04" xlink:href="#Dégradé_sans_nom_25"/><linearGradient id="Dégradé_sans_nom_25-7" x1="304.82" y1="1613.57" x2="304.82" y2="1621.01" xlink:href="#Dégradé_sans_nom_25"/><linearGradient id="Dégradé_sans_nom_25-9" x1="321.34" y1="1612.8" x2="321.34" y2="1619.61" xlink:href="#Dégradé_sans_nom_25"/><linearGradient id="Dégradé_sans_nom_25-10" x1="305.26" y1="1616.68" x2="305.26" y2="1667.13" xlink:href="#Dégradé_sans_nom_25"/><linearGradient id="Dégradé_sans_nom_25-12" x1="313.4" y1="1615.76" x2="313.4" y2="1663.94" xlink:href="#Dégradé_sans_nom_25"/><linearGradient id="Dégradé_sans_nom_25-13" x1="308.98" y1="1698.2" x2="308.98" y2="1709.11" xlink:href="#Dégradé_sans_nom_25"/><linearGradient id="Dégradé_sans_nom_25-14" x1="310.44" y1="1659.81" x2="310.44" y2="1667.13" xlink:href="#Dégradé_sans_nom_25"/><linearGradient id="Dégradé_sans_nom_25-15" x1="309.37" y1="1660.12" x2="309.37" y2="1702.32" xlink:href="#Dégradé_sans_nom_25"/><linearGradient id="Dégradé_sans_nom_25-16" x1="313.07" y1="1673.89" x2="313.07" y2="1693.46" xlink:href="#Dégradé_sans_nom_25"/><linearGradient id="Dégradé_sans_nom_25-17" x1="312.22" y1="1701.77" x2="312.22" y2="1708.49" xlink:href="#Dégradé_sans_nom_25"/><linearGradient id="Dégradé_sans_nom_25-18" x1="269.3" y1="1734.15" x2="269.3" y2="1747.73" gradientTransform="matrix(1, 0, 0, -1, -14.04, 1804.2)" xlink:href="#Dégradé_sans_nom_25"/><linearGradient id="Dégradé_sans_nom_25-19" x1="313.6" y1="1703.96" x2="313.6" y2="1719.22" xlink:href="#Dégradé_sans_nom_25"/><linearGradient id="Dégradé_sans_nom_25-20" x1="313.49" y1="1704.07" x2="313.49" y2="1719.32" xlink:href="#Dégradé_sans_nom_25"/><linearGradient id="Dégradé_sans_nom_25-21" x1="311.65" y1="1660.12" x2="311.65" y2="1700.82" xlink:href="#Dégradé_sans_nom_25"/><linearGradient id="Dégradé_sans_nom_25-22" x1="327.33" y1="1670.85" x2="327.33" y2="1676.08" xlink:href="#Dégradé_sans_nom_25"/><linearGradient id="Dégradé_sans_nom_25-23" x1="322.52" y1="1673.43" x2="322.52" y2="1676.08" xlink:href="#Dégradé_sans_nom_25"/><linearGradient id="Dégradé_sans_nom_25-24" x1="316.26" y1="1673.1" x2="316.26" y2="1693.77" xlink:href="#Dégradé_sans_nom_25"/><linearGradient id="Dégradé_sans_nom_25-25" x1="305.92" y1="1674.59" x2="305.92" y2="1676.75" xlink:href="#Dégradé_sans_nom_25"/></defs><title>Sans titre - 3</title><rect class="cls-1" width="566.93" height="890.08"/><path class="cls-2" d="M215.22,788.41a16.7,16.7,0,0,1,2.08-2.75l-.32.23a5.25,5.25,0,0,0-1.44.91A2.88,2.88,0,0,0,215,788l-1.23,4.74c.24-.3.48-.6.73-.89A8.24,8.24,0,0,1,215.22,788.41Z" transform="translate(0)"/><path class="cls-2" d="M331,791.61a5.62,5.62,0,0,1-.48,1.54,21.36,21.36,0,0,1-.82,6,19.25,19.25,0,0,0-.5,2.49c-1.14,7.72-2.23,15.78-.29,23.27a2.8,2.8,0,0,1,.73-1.2,12.23,12.23,0,0,0,2.16-5.58c2-10.44,1.45-21.08,1-31.74a3.64,3.64,0,0,0-1.05-.78,9.26,9.26,0,0,1,0,1.39A45.89,45.89,0,0,1,331,791.61Z" transform="translate(0)"/><path class="cls-2" d="M263.54,788.42a5,5,0,0,0-.37-1.82,5.63,5.63,0,0,0-.94-1.28l-1-1.18c-.53,12.5-1.66,25,.68,37.27A12.23,12.23,0,0,0,264,827a2.82,2.82,0,0,1,.74,1.2c1.92-7.47.84-15.55-.3-23.27a17.71,17.71,0,0,0-.5-2.49,23.79,23.79,0,0,1-.59-9.61A21.58,21.58,0,0,0,263.54,788.42Z" transform="translate(0)"/><path class="cls-2" d="M269.49,762.05a32.52,32.52,0,0,1,3,7.55l.33,1.11c-.16-3.78-.24-7.56-.27-11.34-.75.66-1.5,1.32-2.26,2Z" transform="translate(0)"/><path class="cls-2" d="M280.67,889.58a25.37,25.37,0,0,0-.61-7.91,23,23,0,0,1-1.13-4.93,15.13,15.13,0,0,1,.41-3.35c2-10,2.83-20.52-.16-30.27-.81-2.61-1.87-5.13-2.69-7.74a18.81,18.81,0,0,1-1.35,2.83,2.92,2.92,0,0,0-1.64-1.92,10.71,10.71,0,0,1,0,1.39c-.15,1.57-.37,3.12-.67,4.66a4.71,4.71,0,0,1-.59,1.75,4,4,0,0,1-1.55,1.27c.28.63.56,1.26.83,1.92l-2,.56c1.32,2.87.23,6.15-.48,9.2-2.51,10.61-.25,22-1.44,32.69Z" transform="translate(0)"/><path class="cls-2" d="M273.39,737.69a18.23,18.23,0,0,1,2.08-2.75,2.43,2.43,0,0,1-.32.24,5.31,5.31,0,0,0-1.44.91,3,3,0,0,0-.52,1.22L272,742.05l.72-.9A8.4,8.4,0,0,1,273.39,737.69Z" transform="translate(0)"/><path class="cls-2" d="M321.72,737.71a4.94,4.94,0,0,0-.38-1.82,5.59,5.59,0,0,0-.93-1.28l-1-1.18c-.52,12.31-1.62,24.65.59,36.71l1.17-3.91a39.82,39.82,0,0,1,2.31-6.26c-.22-1.91-.5-3.86-.78-5.77a17.9,17.9,0,0,0-.51-2.48,23.61,23.61,0,0,1-.58-9.61A23.11,23.11,0,0,0,321.72,737.71Z" transform="translate(0)"/><path class="cls-2" d="M300.75,831.75l-1.64,57.63,4.32,0a179.52,179.52,0,0,1-1-21.12,29.16,29.16,0,0,0-.35-6.13c-.3-1.4-.83-2.75-1.12-4.15a24.21,24.21,0,0,1-.32-5.1Z" transform="translate(0)"/><path class="cls-2" d="M263.57,831.78c.06-.16.13-.31.19-.47.23-.59.43-1.18.62-1.77l0,.07c-.38.62-.79,1.22-1.22,1.81Z" transform="translate(0)"/><path class="cls-2" d="M132.77,767.37a5,5,0,0,0-.38-1.82,5.31,5.31,0,0,0-.93-1.28l-1-1.18c-.53,12.5-1.65,25,.69,37.27a12.23,12.23,0,0,0,2.16,5.58,2.92,2.92,0,0,1,.74,1.2c1.92-7.47.84-15.55-.3-23.27a17.65,17.65,0,0,0-.48-2.49,23.62,23.62,0,0,1-.61-9.61A23.11,23.11,0,0,0,132.77,767.37Z" transform="translate(0)"/><path class="cls-2" d="M132.79,810.73c.07-.16.14-.31.2-.47.23-.59.43-1.18.62-1.77l0,.07c-.38.62-.8,1.22-1.22,1.81C132.5,810.48,132.65,810.61,132.79,810.73Z" transform="translate(0)"/><path class="cls-2" d="M111.8,861.41q-.42,15-.85,30l2.06,0c-.31-1.28-.77-2.52-1-3.8a24.89,24.89,0,0,1-.32-5.1Z" transform="translate(0)"/><path class="cls-2" d="M142.69,890.31a4,4,0,0,1-1.55-1.27,4.71,4.71,0,0,1-.59-1.75,45.83,45.83,0,0,1-.66-4.66,9.23,9.23,0,0,1,0-1.39,2.92,2.92,0,0,0-1.64,1.91,22.29,22.29,0,0,1-2.7-8c-.14.48-.29,1-.48,1.51-1,3-2.45,5.82-2.74,8.93a17.54,17.54,0,0,0,.48,5.59l9.55-.1Z" transform="translate(0)"/><path class="cls-2" d="M149,874.51c.19.6.39,1.18.62,1.77.06.16.13.31.19.48.15-.13.3-.26.45-.37-.43-.59-.84-1.19-1.22-1.81Z" transform="translate(0)"/><path class="cls-2" d="M217.85,884.46a60.28,60.28,0,0,1-1.38-8.66q-1.14-10.53-2.29-21l-.06-.56c0,.09-.05.19-.08.28a15.21,15.21,0,0,1-2.88,4.53c-1.15,1.39-2.59,2.83-4.28,2.43a4.7,4.7,0,0,1-1.83-1.13L201.2,857c-.76-.64-1.51-1.29-2.26-2,0,4.61-.14,9.23-.38,13.84a10.17,10.17,0,0,1-.89,4.26A48.41,48.41,0,0,1,200,886.68c0,1.25,0,2.5,0,3.74l11.27-.11h.07l8.47-.1A56.23,56.23,0,0,1,217.85,884.46Z" transform="translate(0)"/><path class="cls-2" d="M198.81,836.84l.73.89L198.31,833a2.87,2.87,0,0,0-.51-1.22,5.18,5.18,0,0,0-1.45-.9l-.32-.24a17.13,17.13,0,0,1,2.08,2.75A8.12,8.12,0,0,1,198.81,836.84Z" transform="translate(0)"/><path class="cls-2" d="M212.75,815.82c.31,3.32.48,6.65.65,10s.34,6.58.51,9.87a48.39,48.39,0,0,1,1.78-7.5,10.08,10.08,0,0,1-.89-4.26c-.24-4.61-.35-9.22-.38-13.84-.74.65-1.48,1.3-2.23,1.91A26,26,0,0,1,212.75,815.82Z" transform="translate(0)"/><path class="cls-2" d="M148.88,849.91c-1.13,7.72-2.23,15.79-.29,23.27a2.8,2.8,0,0,1,.73-1.2,12.24,12.24,0,0,0,2.17-5.58c2.33-12.24,1.21-24.77.68-37.27l-1,1.18a6.18,6.18,0,0,0-1,1.26,5.05,5.05,0,0,0-.39,1.8,23,23,0,0,0,.15,4.39,23.64,23.64,0,0,1-.57,9.65A19,19,0,0,0,148.88,849.91Z" transform="translate(0)"/><path class="cls-2" d="M322.74,889.12l3.76,0c-2-11.52.89-23.88-1.84-35.4a36.4,36.4,0,0,1-1.09-5.5c-1,2.55-2.07,5.05-2.32,7.74-.43,4.66,1.77,9.12,2.59,13.72,1.12,6.35-.4,12.82-1.08,19.23C322.75,889,322.75,889,322.74,889.12Z" transform="translate(0)"/><path class="cls-2" d="M452.34,883.35c-4.36-13,0-27.38-3.15-40.67-.73-3-1.83-6.35-.48-9.19l-2-.61.83-1.91a5,5,0,0,1-1.07-.74L445,843.73a57.82,57.82,0,0,1-1.38,8.66c-.83,3.19-2.18,6.22-3.15,9.35-2.58,8.41-2.29,17.38-.9,26.11l14.42-.16C453.44,886.25,452.84,884.81,452.34,883.35Z" transform="translate(0)"/><path class="cls-2" d="M445.6,755.38l0-.13.17-.56a6,6,0,0,0-1.36-.85,3.33,3.33,0,0,1-.32-.24C444.61,754.2,445.14,754.77,445.6,755.38Z" transform="translate(0)"/><path class="cls-2" d="M397.05,797.49c.19.59.39,1.18.62,1.76.06.16.13.32.2.48.14-.13.29-.25.44-.37-.42-.59-.84-1.18-1.22-1.81Z" transform="translate(0)"/><path class="cls-2" d="M456.3,807.07c1.48-7.71,1.57-15.53,1.31-23.4a3.08,3.08,0,0,1-2.63.76l-.08,0a20.29,20.29,0,0,1-.7,3.7,17.57,17.57,0,0,0-.5,2.48c-1.14,7.72-2.24,15.79-.3,23.27a2.85,2.85,0,0,1,.74-1.19A12.27,12.27,0,0,0,456.3,807.07Z" transform="translate(0)"/><path class="cls-2" d="M242.53,890c0-2.51,0-5,.05-7.53q-.12,3.78-.22,7.53Z" transform="translate(0)"/><path class="cls-2" d="M542.14,682.45q-.5-2.72-1.14-5.32c-4.67-18.76-15.59-33.74-35.58-41.84q-2.58-1-5.35-1.92a91.77,91.77,0,0,0-12.86-3.06c-41.95-7-77.22-3.66-109,2.64-1.79.35-3.57.72-5.35,1.09-44.57,9.37-82.52,23.89-123,22.62-1.77,0-3.55-.13-5.34-.25a152,152,0,0,1-55.37-14.62c-23.05-10.8-46.49-7.17-67.64,5.7-11.94,7.25-23.15,17.45-33.14,29.66l0,0q-2.11,2.58-4.15,5.26c-32.53,43-50.58,107.3-35.77,157.13.53,1.79,1.11,3.57,1.73,5.32a96.29,96.29,0,0,0,19.37,33,41.69,41.69,0,0,0,18.8,11.84c1.24.38,2.5.69,3.78.95a50.54,50.54,0,0,0-1.83-17.87c-1-3.14-2.32-6.17-3.15-9.35a60.42,60.42,0,0,1-1.38-8.67q-1.14-10.51-2.29-21a93.26,93.26,0,0,1-.83-13,48.41,48.41,0,0,1,2.34-13.56,9.78,9.78,0,0,1-.89-4.26c-.24-4.61-.35-9.22-.38-13.84l-2.27,2-3.87,3.3a4.58,4.58,0,0,1-1.83,1.13c-1.69.41-3.18-1.09-4.27-2.43a16,16,0,0,1-2.89-4.53,14.24,14.24,0,0,1-.52-4.86c0-2.1.14-4.2.25-6.29l.93-17.49c.17-3.35.34-6.67.65-10A15.58,15.58,0,0,1,71.59,743c2.32-3.83,7.3-5.17,11.82-4.85a1.67,1.67,0,0,1,0-1.43,2.59,2.59,0,0,1,1.16-1l6.68-3.55a3.65,3.65,0,0,1,1.56-.55,1.82,1.82,0,0,1,.86.18l1.29-.9a3.35,3.35,0,0,1,1-.53,2.37,2.37,0,0,1,1.32.07,5.35,5.35,0,0,0,.55-2.08,7.37,7.37,0,0,0-.57-2.61,12.63,12.63,0,0,1-5-10c-1.44-.81-3.3-1.26-3.88-3-.4-1.14.08-2.42-.09-3.62a2.93,2.93,0,0,1-.71-1.12c-.41-1.19.13-2.52-.1-3.77a5.55,5.55,0,0,1-.34-2,3,3,0,0,1,.76-1.27l4.73-5.58a12.33,12.33,0,0,1,3.55-3.21c3.43-1.75,7.54,0,11.4,0a12.07,12.07,0,0,1,3.85.21,8,8,0,0,1,2.37,1.51l5.29,4.3c1.78,1.44,3.7,3.15,3.87,5.43a5,5,0,0,1-.3,2,5.1,5.1,0,0,1,1.09,2.71,7.15,7.15,0,0,1-1.53,4.4A23.48,23.48,0,0,1,117.3,718a12.48,12.48,0,0,1-3,6.09,40,40,0,0,0,1.36,4.93l0,.08a2.45,2.45,0,0,1,1.25.44,6.71,6.71,0,0,1,1,1,1.48,1.48,0,0,1,.7-.58,2.92,2.92,0,0,1,2.21.35,22.94,22.94,0,0,1,6,3.51,7.71,7.71,0,0,1,1.57,2,9.88,9.88,0,0,1,6.93,1.56c3.64,2.47,5.13,7,6.4,11.2l2.83,9.42a43,43,0,0,1,2,24.3c-.74,5.37,1,11.26,1,16.68,0,1.39,0,2.8,0,4.21a9.89,9.89,0,0,1,6.57-1.38,7.46,7.46,0,0,1,1.56-2,23,23,0,0,1,6-3.51,2.91,2.91,0,0,1,2.21-.35,1.47,1.47,0,0,1,.7.58,7.31,7.31,0,0,1,1-1,2.41,2.41,0,0,1,1.25-.43.19.19,0,0,1,0-.08,38.27,38.27,0,0,0,1.36-4.93,12.65,12.65,0,0,1-3-6.09,23.48,23.48,0,0,1-4.81-5.19,7.22,7.22,0,0,1-1.53-4.4A5.33,5.33,0,0,1,160,771.7a4.94,4.94,0,0,1-.3-2c.18-2.28,2.09-4,3.87-5.43l5.29-4.3a8,8,0,0,1,2.38-1.51,12,12,0,0,1,3.84-.21c3.85,0,8-1.74,11.4,0a12.24,12.24,0,0,1,3.56,3.21l4.72,5.58a2.91,2.91,0,0,1,.76,1.27,5.55,5.55,0,0,1-.34,2c-.22,1.25.32,2.58-.1,3.77a3,3,0,0,1-.71,1.12c-.16,1.2.31,2.47-.08,3.62-.59,1.7-2.44,2.15-3.89,3a12.64,12.64,0,0,1-5,9.91,7.32,7.32,0,0,0-.57,2.61,5.31,5.31,0,0,0,.55,2.07,2.25,2.25,0,0,1,1.31-.06,3.49,3.49,0,0,1,1,.52l1.29.9a1.82,1.82,0,0,1,.86-.18,3.79,3.79,0,0,1,1.56.55l6.68,3.56a4.39,4.39,0,0,1,.81.54c.06-1.29.11-2.58.18-3.87l.94-17.48c.17-3.35.35-6.67.65-10a15.62,15.62,0,0,1,1.76-6.86c2.32-3.83,7.3-5.17,11.82-4.84a1.73,1.73,0,0,1,0-1.44,2.56,2.56,0,0,1,1.17-1l6.67-3.55a3.65,3.65,0,0,1,1.57-.55,1.81,1.81,0,0,1,.85.18l1.29-.9a3.52,3.52,0,0,1,1-.53,2.34,2.34,0,0,1,1.31.07,5.35,5.35,0,0,0,.55-2.07,7.38,7.38,0,0,0-.57-2.62,12.6,12.6,0,0,1-5-9.95c-1.45-.81-3.3-1.26-3.89-3-.4-1.15.08-2.43-.09-3.63a2.93,2.93,0,0,1-.71-1.12c-.41-1.19.13-2.52-.09-3.77a11.15,11.15,0,0,1-.37-1.64,13.92,13.92,0,0,0-1.2,3.1c-.68,2.72-.56,5.56-1,8.32a3.4,3.4,0,0,1-1.23,2.49,15.26,15.26,0,0,1-2.12.64,3.59,3.59,0,0,0-1.93,2.93,28,28,0,0,0,0,3.66A9.25,9.25,0,0,1,206,753c-3.7,2-8.29.69-12.29-.71a10.93,10.93,0,0,0,4.59-3.16l-4.4-.89a28.34,28.34,0,0,0,7-4.63,6,6,0,0,0,1.79-2.33c.48-1.35,0-2.87.48-4.22.74-2.3,3.58-3.17,5-5.11,1.26-1.69,1.31-4,1.3-6.07l0-8c0-2.31.15-5,2-6.38,2.06-1.56,5-.67,7.58-.69s5.34-1.13,8.06-1.43c2.57-.29,6.85,1.5,6.78,3.53a30,30,0,0,0,4.33.44,11.71,11.71,0,0,1,3.84.22,7.79,7.79,0,0,1,2.38,1.5l5.29,4.3c1.78,1.44,3.69,3.15,3.84,5.43a5.19,5.19,0,0,1-.29,2,5.26,5.26,0,0,1,1.09,2.71,7.14,7.14,0,0,1-1.54,4.4,23.43,23.43,0,0,1-4.8,5.19,12.58,12.58,0,0,1-3,6.09,40,40,0,0,0,1.37,4.93l0,.08a2.45,2.45,0,0,1,1.25.44,6.71,6.71,0,0,1,1,.95,1.53,1.53,0,0,1,.7-.58,2.92,2.92,0,0,1,2.21.35,26.74,26.74,0,0,1,5.29,2.92V754c0-2.1.14-4.2.25-6.29l1-17.51c.18-3.35.35-6.67.65-10a15.94,15.94,0,0,1,1.76-6.87c2.32-3.82,7.31-5.16,11.83-4.84a1.63,1.63,0,0,1,0-1.43,2.54,2.54,0,0,1,1.16-1l6.67-3.55a3.69,3.69,0,0,1,1.57-.55,2,2,0,0,1,.86.17l1.29-.9a3.43,3.43,0,0,1,1-.52,2.34,2.34,0,0,1,1.31.06,5.15,5.15,0,0,0,.56-2.07,7.32,7.32,0,0,0-.57-2.61,12.58,12.58,0,0,1-5-10c-1.44-.8-3.3-1.25-3.88-3-.4-1.15.07-2.42-.09-3.62a3,3,0,0,1-.71-1.12c-.42-1.19.12-2.52-.1-3.77a5.55,5.55,0,0,1-.34-2,2.91,2.91,0,0,1,.76-1.27l4.73-5.58a12.33,12.33,0,0,1,3.55-3.21c3.43-1.75,7.54,0,11.4,0a12,12,0,0,1,3.84.21,8.19,8.19,0,0,1,2.38,1.5l5.29,4.31c1.78,1.44,3.69,3.15,3.84,5.43a5.11,5.11,0,0,1-.29,2,5.33,5.33,0,0,1,1.09,2.72,7.16,7.16,0,0,1-1.54,4.4,23.43,23.43,0,0,1-4.8,5.19,12.58,12.58,0,0,1-3.05,6.09,40,40,0,0,0,1.37,4.93l0,.08a2.44,2.44,0,0,1,1.25.43,6.77,6.77,0,0,1,1,1,1.47,1.47,0,0,1,.7-.58,2.92,2.92,0,0,1,2.21.35,22.51,22.51,0,0,1,6,3.51,7.71,7.71,0,0,1,1.57,2,10,10,0,0,1,7,1.55c3.63,2.48,5.13,7,6.39,11.21l2.83,9.42a57.64,57.64,0,0,1,2.78,12.59,53.63,53.63,0,0,1-.71,11,4.44,4.44,0,0,1,.38-.37,22.78,22.78,0,0,1,6-3.51,2.92,2.92,0,0,1,2.21-.35,1.47,1.47,0,0,1,.7.58,6.77,6.77,0,0,1,1-1,2.44,2.44,0,0,1,1.25-.43l0-.08a40,40,0,0,0,1.37-4.93,12.58,12.58,0,0,1-3.05-6.09,23.43,23.43,0,0,1-4.8-5.19,7.16,7.16,0,0,1-1.54-4.4,5.33,5.33,0,0,1,1.09-2.72,5.11,5.11,0,0,1-.29-2c.17-2.28,2.09-4,3.84-5.43l5.29-4.31a8.19,8.19,0,0,1,2.38-1.5,12,12,0,0,1,3.84-.21,31.47,31.47,0,0,0,4.33-.45c-.07-2,4.21-3.82,6.78-3.52s5.33,1.43,8.06,1.43,5.52-.87,7.58.69c1.85,1.4,2,4.07,2,6.38l0,8c0,2.11,0,4.38,1.31,6.08s4,2.73,4.89,4.78a14.45,14.45,0,0,1,5-7,9.9,9.9,0,0,1,6.9-1.59,7.71,7.71,0,0,1,1.57-2,22.78,22.78,0,0,1,6-3.51,2.87,2.87,0,0,1,2.21-.35,1.47,1.47,0,0,1,.7.58,6.3,6.3,0,0,1,1-1,2.35,2.35,0,0,1,1.25-.43l0-.08a40,40,0,0,0,1.37-4.93,12.63,12.63,0,0,1-3.05-6.09,23.43,23.43,0,0,1-4.8-5.19,7.16,7.16,0,0,1-1.54-4.4,5.33,5.33,0,0,1,1.09-2.72,5.16,5.16,0,0,1-.29-2c.17-2.28,2.09-4,3.84-5.43l5.29-4.31a8.19,8.19,0,0,1,2.38-1.5,12,12,0,0,1,3.84-.21,31.47,31.47,0,0,0,4.33-.45c-.07-2,4.21-3.83,6.78-3.52s5.33,1.43,8.06,1.43,5.52-.87,7.58.69c1.85,1.4,2,4.07,2,6.38l0,8c0,2.1,0,4.38,1.31,6.07,1.44,1.94,4.27,2.81,5,5.11.44,1.35,0,2.88.49,4.22a5.92,5.92,0,0,0,1.78,2.33,29.41,29.41,0,0,0,3.44,2.65,5.83,5.83,0,0,1,.91-1.77,5,5,0,0,1-.3-2c.18-2.28,2.09-4,3.85-5.42l5.29-4.31a7.94,7.94,0,0,1,2.37-1.5,12.07,12.07,0,0,1,3.85-.22c3.84,0,8-1.74,11.4,0a12.1,12.1,0,0,1,3.55,3.22l4.73,5.57a3.17,3.17,0,0,1,.76,1.27,5.62,5.62,0,0,1-.35,2c-.22,1.24.32,2.57-.09,3.77a2.9,2.9,0,0,1-.71,1.11c-.17,1.21.31,2.48-.09,3.63-.59,1.69-2.43,2.15-3.88,3a12.62,12.62,0,0,1-5,9.91,7.38,7.38,0,0,0-.57,2.62,5.2,5.2,0,0,0,.56,2.07,2.34,2.34,0,0,1,1.31-.07,3.22,3.22,0,0,1,1,.53l1.29.9a1.85,1.85,0,0,1,.86-.18,3.69,3.69,0,0,1,1.57.55l6.67,3.55a2.54,2.54,0,0,1,1.16,1,1.65,1.65,0,0,1,0,1.44c4.53-.33,9.51,1,11.83,4.84a16,16,0,0,1,1.76,6.86c.3,3.32.48,6.66.65,10l.91,17.53c.11,2.1.21,4.19.25,6.29a14.22,14.22,0,0,1-.52,4.86,15,15,0,0,1-2.89,4.53c-1.15,1.4-2.58,2.84-4.27,2.43a4.47,4.47,0,0,1-1.83-1.13l-3.87-3.3c-.76-.64-1.52-1.29-2.27-2,0,4.62-.14,9.24-.38,13.84a10.14,10.14,0,0,1-.89,4.26,48.48,48.48,0,0,1,2.34,13.56,86.15,86.15,0,0,1-.64,11.24c.41-.85.81-1.71,1.22-2.59C526.25,791.6,550.34,727.58,542.14,682.45Z" transform="translate(0)"/><path class="cls-2" d="M84.26,767,83,771.73l.72-.9a8.22,8.22,0,0,1,.69-3.45,17.21,17.21,0,0,1,2.08-2.76,3.33,3.33,0,0,1-.32.24,5.45,5.45,0,0,0-1.45.91A3.12,3.12,0,0,0,84.26,767Z" transform="translate(0)"/><path class="cls-2" d="M379.11,788.52l.72.89-1.22-4.72a3,3,0,0,0-.52-1.22,5.56,5.56,0,0,0-1.44-.91,3.88,3.88,0,0,1-.33-.23,16.76,16.76,0,0,1,2.09,2.75A8.44,8.44,0,0,1,379.11,788.52Z" transform="translate(0)"/><path class="cls-2" d="M454.6,817.43a5.54,5.54,0,0,1,.45-.37c-.43-.58-.84-1.18-1.22-1.8l0-.07c.18.59.39,1.18.61,1.76A4,4,0,0,0,454.6,817.43Z" transform="translate(0)"/><path class="cls-2" d="M329.26,826.19c.19.6.39,1.18.62,1.77.06.16.13.31.2.48a5.07,5.07,0,0,1,.44-.37c-.42-.59-.84-1.19-1.22-1.81Z" transform="translate(0)"/><path class="cls-2" d="M370.72,733.5a12.59,12.59,0,0,1-5,9.91,7.36,7.36,0,0,0-.56,2.61,5,5,0,0,0,.55,2.07A2.34,2.34,0,0,1,367,748a3.43,3.43,0,0,1,1,.52l1.3.9a1.9,1.9,0,0,1,.85-.17,3.65,3.65,0,0,1,1.57.55l6.67,3.55a2.62,2.62,0,0,1,1.17,1,1.67,1.67,0,0,1-.05,1.43,18.15,18.15,0,0,1,4.29.21,72.05,72.05,0,0,1,2-7.91,9.79,9.79,0,0,1-2.45-6.56,26.47,26.47,0,0,0,0-3.67,3.59,3.59,0,0,0-1.92-2.93,13.35,13.35,0,0,1-2.12-.64,3.32,3.32,0,0,1-1.23-2.48c-.42-2.77-.3-5.61-1-8.32a14.22,14.22,0,0,0-1.2-3.1,13.38,13.38,0,0,1-.37,1.64c-.22,1.24.32,2.57-.1,3.77a2.78,2.78,0,0,1-.71,1.11c-.16,1.21.32,2.48-.08,3.63C374,732.23,372.17,732.68,370.72,733.5Z" transform="translate(0)"/><path class="cls-2" d="M397,772.88c-1.13,7.72-2.23,15.79-.29,23.27a2.75,2.75,0,0,1,.74-1.19,12.42,12.42,0,0,0,2.16-5.59c2.34-12.24,1.21-24.76.68-37.26l-1,1.18a5.39,5.39,0,0,0-1,1.26,4.66,4.66,0,0,0-.39,1.8,21.51,21.51,0,0,0,.15,4.39,23.58,23.58,0,0,1-.58,9.64A19.37,19.37,0,0,0,397,772.88Z" transform="translate(0)"/><path class="cls-2" d="M389.65,812.5a3,3,0,0,1-2.46.63,4.58,4.58,0,0,1-1.83-1.13l-3.85-3.3c-.76-.64-1.51-1.3-2.26-2,0,4.62-.14,9.23-.38,13.84a10.14,10.14,0,0,1-.89,4.26,48.46,48.46,0,0,1,2.33,13.56,94.81,94.81,0,0,1-.83,13q-1.14,10.53-2.29,21.05a57.75,57.75,0,0,1-1.38,8.67c-.66,2.54-1.65,5-2.52,7.46l4.91-.05,6.25-.07h.77l10.58-.11v0c.81-4.6,3-9.06,2.58-13.72-.29-3.11-1.74-6-2.74-8.93-4.37-12.95,0-27.38-3.16-40.67-.73-3-1.82-6.35-.48-9.19l-2-.61c.28-.63.56-1.26.83-1.92A4.82,4.82,0,0,1,389.65,812.5Z" transform="translate(0)"/><path class="cls-2" d="M351.07,879.11l.06,9.71h.21Z" transform="translate(0)"/><path class="cls-2" d="M475.59,868.11q0,7.33.1,14.65l.31-.19Q475.79,875.34,475.59,868.11Z" transform="translate(0)"/><path class="cls-2" d="M463.94,716.86l-.82.16a10.41,10.41,0,0,0,1.51,1.46A8,8,0,0,1,463.94,716.86Z" transform="translate(0)"/><path class="cls-2" d="M418.86,850.41l.14,21.08a24.8,24.8,0,0,1-.32,5.09c-.29,1.41-.82,2.75-1.12,4.16a28.51,28.51,0,0,0-.36,6.13v1.23l2.73,0Q419.39,869.24,418.86,850.41Z" transform="translate(0)"/><path class="cls-2" d="M503.63,777.51l.73.9-1.23-4.74a3,3,0,0,0-.52-1.22,5.31,5.31,0,0,0-1.44-.91,2.43,2.43,0,0,1-.32-.24,18.23,18.23,0,0,1,2.08,2.75A8.24,8.24,0,0,1,503.63,777.51Z" transform="translate(0)"/><path class="cls-2" d="M438.51,704.79a12.62,12.62,0,0,1-5,9.92,7.27,7.27,0,0,0-.56,2.61,5,5,0,0,0,.55,2.07,2.25,2.25,0,0,1,1.31-.06,3.19,3.19,0,0,1,1,.52l1.3.9a1.78,1.78,0,0,1,.85-.18,3.65,3.65,0,0,1,1.57.55l6.67,3.56a2.53,2.53,0,0,1,1.17,1,1.69,1.69,0,0,1-.05,1.44c4.53-.33,9.51,1,11.83,4.84a15.83,15.83,0,0,1,1.76,6.87c0,.43.07.87.11,1.31a24.51,24.51,0,0,1,5.56-3.14,2.92,2.92,0,0,1,2.21-.36,1.49,1.49,0,0,1,.7.59,6.3,6.3,0,0,1,1-1,2.32,2.32,0,0,1,1.25-.43.32.32,0,0,1,0-.09,38.13,38.13,0,0,0,1.36-4.92,12.74,12.74,0,0,1-3-6.09,23.74,23.74,0,0,1-3.91-4c-3.59,1.16-7.5,2-10.72.17a9.21,9.21,0,0,1-4.33-8.07,28.13,28.13,0,0,0,0-3.67,3.62,3.62,0,0,0-1.93-2.93,13.67,13.67,0,0,1-2.12-.64,3.36,3.36,0,0,1-1.23-2.48c-.41-2.77-.29-5.61-1-8.32a13.27,13.27,0,0,0-1.2-3.1,11.76,11.76,0,0,1-.37,1.64c-.22,1.24.32,2.57-.09,3.77a2.9,2.9,0,0,1-.71,1.11c-.17,1.21.31,2.48-.09,3.63C441.81,703.53,440,704,438.51,704.79Z" transform="translate(0)"/><path class="cls-3" d="M360.77,880v11.48H113.16V880a3.36,3.36,0,0,1,3.37-3.35H357.4A3.36,3.36,0,0,1,360.77,880Z" transform="translate(0)"/><path class="cls-4" d="M266.9,709.3c1.84,1.88,3.6,4.06,4,6.65-3.91,1-7.92-.89-11.58-2.6a147.63,147.63,0,0,0-35.58-11.42,5.26,5.26,0,0,1-2.71-1c-1.37-1.25-1.12-4.4.15-5.69s3.92-1.2,5.77-1.3a52.82,52.82,0,0,1,40,15.39Z" transform="translate(0)"/><path class="cls-5" d="M348.43,891.42H250.08a52.74,52.74,0,0,1-3.08-9.24c-.25-1-.48-2-.71-3s-.4-1.75-.58-2.62q-.84-3.93-1.44-7.89c-.39-2.49-.71-5-1-7.49s-.45-4.8-.59-7.21v-.2a4.19,4.19,0,0,1,.79-3.2,4.15,4.15,0,0,1,2.74-.92c8.17-.55,16.11,2.39,24.27,2,2.21-.13,4-.48,6.05-.06a6.79,6.79,0,0,1,1,.25c.48.14.93.3,1.38.47,3.13,1.12,6,2.53,9.42,3.15,5.73,1.08,11.61.87,17.42,1.28.49,0,1,.07,1.45.12L309,857a66.67,66.67,0,0,1,14.58,3.64c2.54.91,5,1.94,7.51,3,.7.32,1.41.63,2.11,1,1.25.58,2.52,1.19,3.76,1.85.48.26,1,.51,1.41.79,3.74,2.16,7.11,4.83,9.08,8.47.15.27.28.54.41.82s.23.51.33.77C349.88,881.81,349.28,886.59,348.43,891.42Z" transform="translate(0)"/><path class="cls-6" d="M348.43,891.42H250.08a52.74,52.74,0,0,1-3.08-9.24c-.25-1-.48-2-.71-3s-.4-1.75-.58-2.62q-.84-3.93-1.44-7.89c-.39-2.49-.71-5-1-7.49s-.45-4.8-.59-7.21v-.2a4.19,4.19,0,0,1,.79-3.2,4.15,4.15,0,0,1,2.74-.92c8.17-.55,16.11,2.39,24.27,2,2.21-.13,4-.48,6.05-.06a6.79,6.79,0,0,1,1,.25c.48.14.93.3,1.38.47,3.13,1.12,6,2.53,9.42,3.15,5.73,1.08,11.61.87,17.42,1.28.49,0,1,.07,1.45.12L309,857a66.67,66.67,0,0,1,14.58,3.64c2.54.91,5,1.94,7.51,3,.7.32,1.41.63,2.11,1,1.25.58,2.52,1.19,3.76,1.85.48.26,1,.51,1.41.79,3.74,2.16,7.11,4.83,9.08,8.47.15.27.28.54.41.82s.23.51.33.77C349.88,881.81,349.28,886.59,348.43,891.42Z" transform="translate(0)"/><path class="cls-5" d="M258.67,891.42H147.83c-2.49-2.73-4.12-6.28-3.72-9.9a32.1,32.1,0,0,1,.76-4.47c0-.16.08-.31.13-.48a11.12,11.12,0,0,1,4.92-6.7c4.36-2.79,9.61-3.88,14.42-5.69,2.58-.95,5.07-2.16,7.66-3.13a61.69,61.69,0,0,1,11.44-2.9c.44-.08.87-.15,1.31-.21l1.33-.2c2.41-.35,4.81-.63,7.24-.91,5.29-.61,10.66-1.22,16-.76a54.91,54.91,0,0,1,12.47,2.79c3,1,6,2.18,9,3.35a71.43,71.43,0,0,1,13.49,6.44l1.06.73a31.72,31.72,0,0,1,7.17,7.18,33.6,33.6,0,0,1,3,5A34.81,34.81,0,0,1,258.67,891.42Z" transform="translate(0)"/><path class="cls-7" d="M227.07,698.54c-1.82,4-4.9,7.56-9,9-2.2.77-4.57.91-6.81,1.55s-4.5,1.95-5.29,4.13a9.42,9.42,0,0,0-.41,2.94c-.35,9.35-.62,19.07,3.13,27.66,3.25,7.4,9.19,13.25,15.07,18.83,6.87,6.53,14.15,13.14,23.2,16.06,5.28,1.7,11.51,1.89,15.89-1.49a23.46,23.46,0,0,0,4.44-5.13c2.89-4.09,5.82-8.24,7.64-12.92,3.72-9.57,2.47-20.23,1.16-30.39a2.49,2.49,0,0,0-.65-1.64,2.77,2.77,0,0,0-1.92-.33c-4.68.28-9.78-2.11-11.35-6.5a16.67,16.67,0,0,1-.62-6l.18-11.59a9.81,9.81,0,0,0-.44-3.7c-.82-2-2.88-3.2-4.86-4.18a120.61,120.61,0,0,0-19.84-7.77c-3-.88-5.27-2.34-6.6.86S228.61,695.16,227.07,698.54Z" transform="translate(0)"/><path class="cls-6" d="M227.07,698.54c-1.82,4-4.9,7.56-9,9-2.2.77-4.57.91-6.81,1.55s-4.5,1.95-5.29,4.13a9.42,9.42,0,0,0-.41,2.94c-.35,9.35-.62,19.07,3.13,27.66,3.25,7.4,9.19,13.25,15.07,18.83,6.87,6.53,14.15,13.14,23.2,16.06,5.28,1.7,11.51,1.89,15.89-1.49a23.46,23.46,0,0,0,4.44-5.13c2.89-4.09,5.82-8.24,7.64-12.92,3.72-9.57,2.47-20.23,1.16-30.39a2.49,2.49,0,0,0-.65-1.64,2.77,2.77,0,0,0-1.92-.33c-4.68.28-9.78-2.11-11.35-6.5a16.67,16.67,0,0,1-.62-6l.18-11.59a9.81,9.81,0,0,0-.44-3.7c-.82-2-2.88-3.2-4.86-4.18a120.61,120.61,0,0,0-19.84-7.77c-3-.88-5.27-2.34-6.6.86S228.61,695.16,227.07,698.54Z" transform="translate(0)"/><ellipse class="cls-7" cx="258.6" cy="672.55" rx="35.58" ry="35.4"/><path class="cls-8" d="M262,728.05l-4,9.83a31.5,31.5,0,0,1-3.19,6.42,16.07,16.07,0,0,1-17.63,5.78c-5.93-2-11.19-7.47-17.31-6.14a10.92,10.92,0,0,0-7.12,6.13,27.39,27.39,0,0,0-2.17,9.4,118.92,118.92,0,0,0,4.21,44.28,8.39,8.39,0,0,0,2.11,4.07c1.41,1.22,3.42,1.4,5.29,1.51q13,.76,26,.91a96.74,96.74,0,0,0,16-.78c5.27-.83,10.31-2.4,15.51-3.43,4.86-1,9.83-1.4,14.58-2.79a3.72,3.72,0,0,0,2.07-1.16,3.37,3.37,0,0,0,.48-2,24.17,24.17,0,0,0-1.79-8c-2.41-6.61-5.21-13.12-6.55-20-1.84-9.49-.76-19.28-1-29A31.37,31.37,0,0,0,286,732.79a13.09,13.09,0,0,0-6.65-7.65C273.86,722.71,264.61,721.61,262,728.05Z" transform="translate(0)"/><path class="cls-4" d="M243.7,774.53c-2.54-2.14-2.41-6-2.71-9.26-.55-6.2-3.26-12-5.92-17.59l-8-16.82c-3.33-7-6.73-15-4-22.27.92-2.45,2.49-4.63,3.3-7.12s.65-5.59-1.4-7.24c-2.61-2.08-6.46-.66-9.41.92A145.22,145.22,0,0,0,200,704.94c-1.35.95-2.78,2.09-3.22,3.69a28.48,28.48,0,0,1-.51,3.07c-.75,1.91-3.09,2.48-5.08,2.93a62.08,62.08,0,0,0-39.57,28.9,34.22,34.22,0,0,0-3.37,7.48,48.88,48.88,0,0,0-1.44,10.28Q145.85,774.64,145,788c-.25,3.93-.5,8,.58,11.76.69,2.44,1.92,4.72,2.44,7.21,1,5.17-1.17,10.45-3.94,14.95s-6.19,8.72-7.93,13.68a32.1,32.1,0,0,0-1.56,9.77A55.9,55.9,0,0,0,143.54,877c5.91.87,10.34-5,15.76-7.46,8-3.63,18-.72,25.49-5.21,1.82-1.1,3.4-2.59,5.34-3.49a19.88,19.88,0,0,1,5.62-1.39c7.08-1,14.26-2,21.38-1.2,10.1,1.09,20.54,5.55,30,1.95,2.34-.89,4.49-2.23,6.84-3.1,8.65-3.19,18.27.62,27.48-.08-1.44-.08-2.08-1.71-2.35-3.14-.61-3.17-1.14-6.36-1.61-9.56a22.46,22.46,0,0,1-.12-8.37c.59-2.54,2-4.79,3.17-7.11,3.72-7.32,5.29-15.53,8.48-23.1,1.51-3.61,3.36-7.05,5.16-10.52a216.49,216.49,0,0,0,16.86-44.77c-4.2-7.49-8-15.3-12.2-22.8a22.84,22.84,0,0,0-4.32-6.06c-2.67-2.43-6.28-3.49-9.75-4.47a34.07,34.07,0,0,0-9.14-1.7c-3.12,0-11.9-3.25-14-1s2.71,9.88,2.6,13.06.24,6.39-.29,9.53c-.76,4.57-3.36,8.66-4.54,13.14q-.69,3.2-1.07,6.43a73.72,73.72,0,0,1-3.79,14.15,9.82,9.82,0,0,1-1.39,2.69C250.9,776.17,247.23,775.12,243.7,774.53Z" transform="translate(0)"/><path class="cls-7" d="M314.33,824.94a20.75,20.75,0,0,0,3.29,2.76c4.45,3.47,7.07,8.74,11,12.79,2,2,4.28,3.75,6.39,5.66,4.91,4.45,8.71,9.94,12.47,15.39a16.41,16.41,0,0,1,2.41,4.42,10.23,10.23,0,0,1-1.38,8.26,18.22,18.22,0,0,1-6.34,5.77,30.58,30.58,0,0,1-4.06,2,3.22,3.22,0,0,1-4-4.63,56.67,56.67,0,0,0,2.82-5.12,7.22,7.22,0,0,0,.92-3.17,5.36,5.36,0,0,0-3.37-4.42,19.07,19.07,0,0,0-5.73-1.2,64.09,64.09,0,0,1-30.4-12c-5-3.73-9.92-9.2-9.11-15.4.59-4.63,4.27-8.32,8.32-10.69a31.07,31.07,0,0,1,10.65-3.83c1.06-.17,3.71-.89,4.66-.16S313.54,824,314.33,824.94Z" transform="translate(0)"/><path class="cls-6" d="M314.33,824.94a20.75,20.75,0,0,0,3.29,2.76c4.45,3.47,7.07,8.74,11,12.79,2,2,4.28,3.75,6.39,5.66,4.91,4.45,8.71,9.94,12.47,15.39a16.41,16.41,0,0,1,2.41,4.42,10.23,10.23,0,0,1-1.38,8.26,18.22,18.22,0,0,1-6.34,5.77,30.58,30.58,0,0,1-4.06,2,3.22,3.22,0,0,1-4-4.63,56.67,56.67,0,0,0,2.82-5.12,7.22,7.22,0,0,0,.92-3.17,5.36,5.36,0,0,0-3.37-4.42,19.07,19.07,0,0,0-5.73-1.2,64.09,64.09,0,0,1-30.4-12c-5-3.73-9.92-9.2-9.11-15.4.59-4.63,4.27-8.32,8.32-10.69a31.07,31.07,0,0,1,10.65-3.83c1.06-.17,3.71-.89,4.66-.16S313.54,824,314.33,824.94Z" transform="translate(0)"/><path class="cls-9" d="M274.25,652.54c-4.81,4.9-12.53,5.11-19.42,5l.23-2.68-9.68,3.45a26,26,0,0,0,6.35-6.76,4.32,4.32,0,0,0-4.71-.31,10,10,0,0,0-3.52,3.47A31.46,31.46,0,0,0,240,682.83a6.25,6.25,0,0,1-6.22-.4,11,11,0,0,1-4-5c-.57-1.3-1.17-2.84-2.54-3.24a2.82,2.82,0,0,0-3,1.36,5.8,5.8,0,0,0-.66,3.44c.17,2.79,2.22,5.43,2.63,8.18s4.54,4.9,2.4,6.7c-.61.52-6.93,1.94-7.73,1.82-1.08-.17-1.79-1.21-2.25-2.2-2.15-4.7-1.38-10.2-2.65-15.22-1-4-3.33-7.61-5.61-11.1a16.44,16.44,0,0,0-2.14-2.83,7.22,7.22,0,0,1-2.06-2.36c-.36-1,.31-2.39,1.35-2.23a43.44,43.44,0,0,0-5.41-4.44q2.85-3.6,5.58-7.28c.63-.85,1.28-1.92.82-2.88a3,3,0,0,0-1.09-1.05l-5-3.35c-.11-2.27,4.54-1.43,5.25-3.58a3,3,0,0,0-.12-1.71l-1.7-6.15,6.43,2.9a4.42,4.42,0,0,0,2.46.59c1.7-.24,2.52-2.24,2.6-4s-.18-3.54.67-5q4.36-.18,8.72.06a5.65,5.65,0,0,0-1.08-4.11l21.48-1.18c3.67-.2,7.44-.39,10.93.76a8.72,8.72,0,0,0,3.61.82c1.24-.14,2.49-1.28,2.14-2.47a39.06,39.06,0,0,1,8.74,6.7,8.75,8.75,0,0,0,2.49,2,2.67,2.67,0,0,0,3-.36c.58-.64.88-1.75,1.74-1.78a1.83,1.83,0,0,1,1.31.84,21.58,21.58,0,0,1,3,5.14,19.3,19.3,0,0,0,4.49-1.18c-1.5,1.26-1.54,3.6-.82,5.42s2,3.35,2.89,5.09a20.94,20.94,0,0,1,1.72,5.9c.44,2.55.44,5.77-1.84,7-2,1.09-4.43-.07-6.25-1.44C279.24,647.34,278.29,648.43,274.25,652.54Z" transform="translate(0)"/><path class="cls-10" d="M299.39,878.58l33.31-3a5.17,5.17,0,0,0,4.72-5.42l0-.48a5.17,5.17,0,0,0-3.69-4.68l-5.39-1.61a5.37,5.37,0,0,0-1.49-.22H314.61a5.45,5.45,0,0,0-1,.1c-2.59.5-14.47,2.83-14.91,3.25-.23.24-1.65,1.29-3,2.3a5.15,5.15,0,0,0-2,5.34l.1.44A5.19,5.19,0,0,0,299.39,878.58Z" transform="translate(0)"/><path class="cls-8" d="M283.12,868.22l13.46-3.83,25-3.35s15.87-4.31,17.31,9.09l-1.35,2.27s1.35-8.49-15-6.1c0,0-29.39-1-28.15,10.53C294.39,876.82,284.08,874.91,283.12,868.22Z" transform="translate(0)"/><ellipse class="cls-8" cx="301.39" cy="859.61" rx="3.37" ry="0.48"/><rect class="cls-8" x="329.03" y="859.85" width="2.4" height="4.31"/><rect class="cls-8" x="300.19" y="859.85" width="2.4" height="4.31"/><ellipse class="cls-8" cx="329.75" cy="858.87" rx="1.2" ry="3.84" transform="translate(-590.25 861.4) rotate(-69.15)"/><path class="cls-7" d="M193.71,867.51a13.32,13.32,0,0,0,3.4,2.83,13.71,13.71,0,0,0,4.12,1.08q21.86,3.35,43.54,7.49a62.8,62.8,0,0,1,12,3.18c2,.8,3.85,1.81,5.77,2.66,11.06,4.82,23.56,4.51,35.62,4.11a18,18,0,0,0,6.94-1.15,5,5,0,0,0,3.19-3.83c.25-3-3.19-4.78-5.93-6.08a34.53,34.53,0,0,1-15.72-14.43c-.61-1.11-1.11-2.62-.25-3.57a3.4,3.4,0,0,1,2.72-.67q6.06.23,12.11-.13c2.1-.13,4.87-1.11,4.53-3.17a3.76,3.76,0,0,0-1.56-2.1c-3.64-3.05-7.77-6.18-12.53-6.09a24.22,24.22,0,0,0-7.21,1.79c-12.59,4.25-26.14,4.49-39.42,4.4a47.76,47.76,0,0,1-9.71-.72,51.38,51.38,0,0,1-7.66-2.46c-8.06-3-16.15-6.13-23.61-10.42-3-1.7-6.27-3.68-9.58-2.8a10,10,0,0,0-4,2.39c-3.93,3.54-7.25,7.88-6.13,13.31C185.54,858.84,189.79,863.45,193.71,867.51Z" transform="translate(0)"/><path class="cls-4" d="M191.56,775.12c1.24,4,2,8.22,4.11,11.83,2.26,3.82,6,6.79,7.34,11,.92,3,.48,6.22.48,9.38a18.42,18.42,0,0,0,2.66,10.23c1,1.5,2.3,2.77,3.44,4.18,5.06,6.22,6.61,14.52,7.24,22.48-4.8-2.71-10.43-5.5-15.64-3.64a17.11,17.11,0,0,0-5.53,3.72,70.37,70.37,0,0,0-8.77,9.57c-1.37,1.8-2.73,4-2.13,6.19a99.54,99.54,0,0,1-7.94-12.79c-1.57-3.23-2.79-6.65-4.66-9.72-2.37-3.86-5.7-7-8.51-10.59-6.29-8-9.83-17.9-11.54-27.9s-1.79-20.23-1.74-30.39c0-3.35.07-6.83,1.49-9.88a23.93,23.93,0,0,1,3.4-4.93,21.9,21.9,0,0,1,5.48-5.26c7-4.09,14.49,2.69,19.16,7.34A46.68,46.68,0,0,1,191.56,775.12Z" transform="translate(0)"/><path class="cls-4" d="M312.08,752.16a6.63,6.63,0,0,1,1.54,2.09,7.17,7.17,0,0,1,.19,3,62.29,62.29,0,0,0,1.28,18.11c.78,3.59,1.78,7.75-.53,10.62a9.36,9.36,0,0,0-1,1.22c-1.07,2,.9,4.16,2.4,5.87a17.25,17.25,0,0,1,1.76,19.5,16.06,16.06,0,0,0-1.86,3.49,11.3,11.3,0,0,0-.3,3.17l0,8c-5.05-.68-10.7-1.2-14.76,1.86-3.43,2.59-4.79,7.08-7.7,10.21s-7.21,5-8.31,8.93l.06-16.54a38,38,0,0,0-.36-6.57c-.57-3.42-2.07-6.62-2.95-10-1.14-4.39-1.21-9-1.28-13.52-.11-7.5-.22-15.08,1.35-22.41.64-3,1.55-5.91,2.25-8.88,1.27-5.36,1.92-10.94,4.16-16s6.62-9.6,12.13-10.14C306,743.68,308.48,748.41,312.08,752.16Z" transform="translate(0)"/><ellipse class="cls-7" cx="330.47" cy="854.1" rx="3.36" ry="6.23" transform="translate(-385.01 282.44) rotate(-30.22)"/><ellipse class="cls-6" cx="330.47" cy="854.1" rx="3.36" ry="6.23" transform="translate(-385.01 282.44) rotate(-30.22)"/><path class="cls-11" d="M317.48,34.1l-10.86-.63L300.33,33h-.17l-33.79,2.59h-2.81l-.33,11.19,5.45,1.84L272,64.75l-15,28.5-9.07,6.59v6.28l5.44,5.06.33,23.13,1.65.31v-.25l.83.16v.09L288.35,145l1.35.88,2.84-1.69,22.8-12.64ZM282.86,106h0l8.82-7.17h0Zm-30.59,3,2.39,2.22v.13Z" transform="translate(0)"/><polygon class="cls-12" points="256.61 111.64 288.73 119.42 283.96 114.24 281.26 111.03 253.11 105.7 251.84 106.77 256.61 111.64"/><polygon class="cls-13" points="251.84 106.77 283.49 113.78 283.64 106.46 274.58 103.11 256.45 100.21 251.2 100.21 251.84 106.77"/><polygon class="cls-13" points="274.74 65.28 307.02 67.27 307.02 61.47 304.8 48.51 303.69 47.59 271.4 48.51 274.74 65.28"/><polygon class="cls-13" points="267.1 36.15 265.51 36.15 265.19 47.29 270.44 49.12 273.63 65.13 259.15 93.5 250.4 100.06 250.4 106.31 255.65 111.34 255.97 134.37 257.56 134.67 257.24 111.8 251.99 106.46 251.84 100.06 260.26 93.65 275.06 65.28 271.88 49.12 266.63 46.98 267.1 36.15 267.1 36.15"/><polygon class="cls-12" points="265.83 36.15 264.24 36.15 263.92 47.29 269.17 49.12 272.35 65.13 257.88 93.5 249.13 100.06 249.13 106.31 254.38 111.34 254.7 134.37 256.29 134.67 255.97 111.8 250.72 106.46 250.56 100.06 259.31 93.65 273.78 65.28 270.6 49.12 265.35 46.98 265.83 36.15 265.83 36.15"/><polygon class="cls-14" points="265.75 46.14 266.55 47.21 271 49.19 306.31 48.28 302.89 47.29 299.23 45.76 299.71 44.54 265.75 46.14"/><polygon class="cls-8" points="259.79 94.11 292.07 99.14 298.6 85.87 307.5 66.81 274.74 65.28 259.79 94.11"/><g class="cls-15"><polygon class="cls-16" points="276.49 70.77 298.28 72.45 286.99 93.8 265.83 90.75 276.49 70.77"/></g><g class="cls-15"><polygon class="cls-16" points="277.99 72.32 278.95 72.4 278.45 73.34 277.52 73.21 277.99 72.32"/></g><g class="cls-15"><polygon class="cls-16" points="278.15 81.17 279.11 81.24 278.61 82.19 277.68 82.05 278.15 81.17"/></g><g class="cls-15"><polygon class="cls-16" points="283.4 73.39 284.36 73.47 283.86 74.41 282.93 74.27 283.4 73.39"/></g><g class="cls-15"><polygon class="cls-16" points="293.42 73.85 294.38 73.92 293.88 74.86 292.95 74.73 293.42 73.85"/></g><g class="cls-15"><polygon class="cls-16" points="279.9 75.07 280.86 75.14 280.36 76.08 279.43 75.95 279.9 75.07"/></g><g class="cls-15"><polygon class="cls-16" points="283.4 84.37 284.36 84.45 283.86 85.39 282.93 85.25 283.4 84.37"/></g><g class="cls-15"><polygon class="cls-16" points="274.81 79.03 275.77 79.11 275.27 80.05 274.34 79.92 274.81 79.03"/></g><g class="cls-15"><polygon class="cls-16" points="289.44 73.39 290.4 73.47 289.91 74.41 288.97 74.27 289.44 73.39"/></g><g class="cls-15"><polygon class="cls-16" points="281.81 78.58 282.77 78.65 282.27 79.59 281.34 79.46 281.81 78.58"/></g><g class="cls-15"><polygon class="cls-16" points="280.69 72.78 281.66 72.86 281.16 73.8 280.23 73.66 280.69 72.78"/></g><g class="cls-15"><polygon class="cls-16" points="285.63 78.12 286.59 78.19 286.09 79.14 285.16 79 285.63 78.12"/></g><g class="cls-15"><polygon class="cls-16" points="286.74 73.39 287.7 73.47 287.2 74.41 286.27 74.27 286.74 73.39"/></g><g class="cls-15"><polygon class="cls-16" points="276.72 75.53 277.68 75.6 277.18 76.54 276.25 76.41 276.72 75.53"/></g><polygon class="cls-12" points="257.08 110.88 257.08 134.67 288.26 145.04 288.73 120.34 287.46 118.04 281.74 116.68 257.08 110.88"/><ellipse class="cls-17" cx="261.14" cy="96.09" rx="1.35" ry="0.76"/><ellipse class="cls-18" cx="262.25" cy="97.77" rx="1.35" ry="0.76"/><ellipse class="cls-19" cx="258.44" cy="97.31" rx="1.35" ry="0.76"/><ellipse class="cls-17" cx="275.61" cy="98.83" rx="1.35" ry="0.76"/><ellipse class="cls-19" cx="272.91" cy="100.21" rx="1.35" ry="0.76"/><ellipse class="cls-14" cx="267.82" cy="97.92" rx="1.99" ry="0.92"/><ellipse class="cls-18" cx="277.04" cy="100.51" rx="1.35" ry="0.76"/><path class="cls-14" d="M268.38,97.77h-1l-.82-3a.87.87,0,0,1,.65-1,.83.83,0,0,1,.22,0h0a.89.89,0,0,1,.91.86Z" transform="translate(0)"/><ellipse class="cls-14" cx="282.13" cy="100.36" rx="1.99" ry="0.92"/><path class="cls-14" d="M282.69,100.21h-.95l-.82-3a.85.85,0,0,1,.64-1,.91.91,0,0,1,.23,0h0a.88.88,0,0,1,.9.86Z" transform="translate(0)"/><polygon class="cls-12" points="266.94 36.15 299.71 33.56 298.91 45 266.15 46.52 266.94 36.15"/><polygon class="cls-13" points="299.55 33.56 314.66 34.63 312.59 131.62 289.45 145.88 287.86 144.82 287.78 119.42 282.69 113.93 282.69 106.31 291.6 98.83 306.71 66.66 304.56 48.28 305.67 48.28 298.6 45.91 299.55 33.56"/><polygon class="cls-12" points="300.98 33.71 316.25 34.63 314.18 131.62 289.37 145.81 289.37 119.42 284.28 113.93 284.28 106.31 293.19 98.83 308.3 66.66 305.59 48.2 300.19 45.91 300.98 33.71"/><path class="cls-20" d="M274.12,92.48c-2.23,4.42-7.71,3.27-7.71,3.27a15.74,15.74,0,0,0-3.4-1c-.86-.19-1.54-.32-1.54-.32L263.35,92l1.41.28,2.1.42S276.35,88.05,274.12,92.48Z" transform="translate(0)"/><g class="cls-21"><path class="cls-20" d="M274.12,92.48c-2.23,4.42-7.71,3.27-7.71,3.27a15.74,15.74,0,0,0-3.4-1c-.86-.19-1.54-.32-1.54-.32L263.35,92l1.41.28,2.1.42S276.35,88.05,274.12,92.48Z" transform="translate(0)"/></g><g class="cls-15"><path class="cls-22" d="M264.76,92.23,263,94.79c-.86-.19-1.55-.32-1.55-.32L263.34,92Z" transform="translate(0)"/></g><path class="cls-23" d="M245.2,83.09s8.2,12.29,17,12.26l2.39-3.51s-8-5.5-9.11-8.37a27,27,0,0,0-2.07-4c-2.67-4.39-9.86-1.52-8.28,3.31Z" transform="translate(0)"/><g class="cls-24"><path class="cls-23" d="M245.2,83.09s8.2,12.29,17,12.26l2.39-3.51s-8-5.5-9.11-8.37a27,27,0,0,0-2.07-4c-2.67-4.39-9.86-1.52-8.28,3.31Z" transform="translate(0)"/></g><path class="cls-25" d="M239.86,154.53l.39,4.27s12.59-2,12.48-6S239.86,154.53,239.86,154.53Z" transform="translate(0)"/><g class="cls-15"><path class="cls-25" d="M239.86,154.53l.39,4.27s12.59-2,12.48-6S239.86,154.53,239.86,154.53Z" transform="translate(0)"/></g><path class="cls-26" d="M254.6,155.87l-.22,3.7s17.5-1.23,16.84-4.73-9.9-1.55-9.9-1.55Z" transform="translate(0)"/><path class="cls-27" d="M254.82,119.65s-1,2.74-2.35,5.89a59.54,59.54,0,0,1-3.92,8.1c-2.31,3.5-2.64,14.3-2.64,14.3-.44,1.75,1.76,5.15,1.76,5.15-4.4,4.42-8.47,1.85-8.47,1.85.77-1.34-.55-5.14-.55-5.14s1.76-17.6,2.86-18.42,2-4.94,2-4.94l-1-14-.23-3.2,9.46-4,.69,3.19.67,3.16Z" transform="translate(0)"/><g class="cls-15"><path class="cls-27" d="M254.82,119.65s-1,2.74-2.35,5.89a59.54,59.54,0,0,1-3.92,8.1c-2.31,3.5-2.64,14.3-2.64,14.3-.44,1.75,1.76,5.15,1.76,5.15-4.4,4.42-8.47,1.85-8.47,1.85.77-1.34-.55-5.14-.55-5.14s1.76-17.6,2.86-18.42,2-4.94,2-4.94l-1-14-.23-3.2,9.46-4,.69,3.19.67,3.16Z" transform="translate(0)"/></g><path class="cls-28" d="M263.08,153.71c-2,3.29-8.91,2.88-8.91,2.88v-9.68s-2-10.8-.88-13.26-.44-7-.44-7l-.38-1.11L248,112.27l-1.3-3.85h14.86v1.73c0,4.12.1,14.32.54,16.69a6.48,6.48,0,0,1-1,4.94s.88,12.15.11,15.95A6.3,6.3,0,0,0,263.08,153.71Z" transform="translate(0)"/><path class="cls-29" d="M250.86,63.25s-2.31,6-6.93,8.13,7.59,2.78,7.59,2.78A20.76,20.76,0,0,1,258,66.44Z" transform="translate(0)"/><g class="cls-15"><path class="cls-30" d="M261.54,110.16c-1.84.34-5.1.92-8.44,1.43-1.75.26-3.52.51-5.12.68a21.79,21.79,0,0,1-5.47.18l-.23-3.21,9.46-4,.69,3.19h9.11Z" transform="translate(0)"/></g><path class="cls-31" d="M263.08,109.56s-18.6,3.6-20.91,2.47-2.86-4-2.2-7.2,0-11.12-1.21-21.2c-.61-5.08.73-8.49,2.22-10.62a7.12,7.12,0,0,1,5.88-3,9.11,9.11,0,0,1,5.55,1.83,4.15,4.15,0,0,0,1.32.74,4.38,4.38,0,0,1,1.27.81,11.13,11.13,0,0,1,4,7.46c.19,1.91.39,4.33.49,6.77a52.14,52.14,0,0,1-.07,6.25,19.86,19.86,0,0,0,.23,4.56A48.3,48.3,0,0,0,263.08,109.56Z" transform="translate(0)"/><g class="cls-15"><path class="cls-32" d="M259.67,98.48c-6.75-3.94-10.24-15-10.24-15a2.81,2.81,0,0,0,0-.29c-.15-5,7.61-6,8.93-1.12a27.14,27.14,0,0,1,.87,4.34,4.57,4.57,0,0,0,.29,1.2,52.14,52.14,0,0,1-.07,6.25A20,20,0,0,0,259.67,98.48Z" transform="translate(0)"/></g><g class="cls-15"><path class="cls-33" d="M249.71,66.8c1.09,1.75,2,3.5,4.19,3.79a20.43,20.43,0,0,1,3.78-3.53l-7.15-3.19S251,65,249.71,66.8Z" transform="translate(0)"/></g><ellipse class="cls-34" cx="255.26" cy="63.25" rx="7.26" ry="6.79"/><g class="cls-15"><path class="cls-35" d="M262.44,65.38a1.48,1.48,0,0,0,.85-.21,1.63,1.63,0,0,0,.54-1.08,5.21,5.21,0,0,0,0-2.85,13.31,13.31,0,0,0-.93-1.69c-.65-1.24-.76-2.74-1.69-3.82-.58-.68-2.62,0-3.48-.35-1.83-.73-2.62-2.23-4.62-2.23a6.55,6.55,0,0,0-4.58,1.57c-1.27,1-2.52,2.25-2.41,3.77a9.9,9.9,0,0,0,1.06,2.74,7.57,7.57,0,0,1,.06,4.82c-.19.67-.41,1.47.09,2a1.5,1.5,0,0,0,1.28.34,4.58,4.58,0,0,0,1.27-.49,8.61,8.61,0,0,0,2-1.27c.38-.35.69-.77,1-1.14a11.7,11.7,0,0,1,2.41-1.83,2.48,2.48,0,0,1,2.17.11C259.15,64.33,260.65,65.41,262.44,65.38Z" transform="translate(0)"/></g><path class="cls-36" d="M262.33,65.28a1.48,1.48,0,0,0,.85-.22,1.59,1.59,0,0,0,.54-1.07,5.21,5.21,0,0,0,0-2.85,14.6,14.6,0,0,0-.92-1.69c-.66-1.25-.77-2.75-1.7-3.83-.58-.68-2.51.11-3.37-.24C255.9,54.64,255,53,253,53.05a8,8,0,0,0-2.17.25,7.87,7.87,0,0,0-2.41,1.32c-1.27.94-2.52,2.25-2.41,3.77a9.72,9.72,0,0,0,1.06,2.73,7.57,7.57,0,0,1,.06,4.82c-.19.68-.4,1.48.09,2a1.48,1.48,0,0,0,1.28.35,4.58,4.58,0,0,0,1.27-.49,9.31,9.31,0,0,0,2-1.27c.38-.36.69-.77,1.05-1.14a11.35,11.35,0,0,1,2.41-1.83,2.45,2.45,0,0,1,2.17.11C259,64.23,260.54,65.31,262.33,65.28Z" transform="translate(0)"/><g class="cls-24"><path class="cls-37" d="M259.67,98.48a19.92,19.92,0,0,1-.23-4.56,52.14,52.14,0,0,0,.07-6.25c-.1-2.44-.3-4.86-.49-6.77a11.12,11.12,0,0,0-4-7.47,3.87,3.87,0,0,0-1.27-.8,4.22,4.22,0,0,1-1.32-.75c-1.56-1.19.42,1.13.94,1.55a11.11,11.11,0,0,1,4,7.47c.19,1.91.4,4.33.5,6.77a54.31,54.31,0,0,1-.07,6.25,19.91,19.91,0,0,0,.22,4.56,48.12,48.12,0,0,0,3.41,11.08S249,112,243.18,112.23c4.54.3,19.89-2.67,19.89-2.67A48.56,48.56,0,0,1,259.67,98.48Z" transform="translate(0)"/></g><path class="cls-38" d="M274.85,99.48c-3.41,3.7-8.36,1.23-8.36,1.23a15.47,15.47,0,0,0-3-1.77l-1.4-.7,2.53-1.95,1.28.62,1.91.92S278.26,95.77,274.85,99.48Z" transform="translate(0)"/><g class="cls-15"><path class="cls-39" d="M265.9,96.91l-2.41,2-1.4-.7,2.53-1.95Z" transform="translate(0)"/></g><path class="cls-40" d="M249.65,83.22s4.4,13.89,12.88,16l3.3-2.78s-6.18-7.31-6.39-10.34a26.93,26.93,0,0,0-.87-4.34c-1.32-4.9-9.08-3.93-8.93,1.12A2.81,2.81,0,0,1,249.65,83.22Z" transform="translate(0)"/><path class="cls-41" d="M241.13,96.75s2.86-2.16,5.5-.51,6.49,1.44,7,1.54" transform="translate(0)"/><path class="cls-42" d="M273.3,92.25c-2.13,4.31-7.34,3.2-7.34,3.2a15.58,15.58,0,0,0-3.23-.94c-.82-.18-1.48-.3-1.48-.3L263,91.75l1.35.28,2,.4S275.42,87.93,273.3,92.25Z" transform="translate(0)"/><path class="cls-43" d="M273.3,92.25c-2.13,4.31-7.34,3.2-7.34,3.2a15.58,15.58,0,0,0-3.23-.94c-.82-.18-1.48-.3-1.48-.3L263,91.75l1.35.28,2,.4S275.42,87.93,273.3,92.25Z" transform="translate(0)"/><path class="cls-6" d="M264.39,92l-1.66,2.49c-.82-.18-1.48-.3-1.48-.3L263,91.75Z" transform="translate(0)"/><path class="cls-17" d="M245.77,83.09s7.81,12,16.17,12l2.27-3.41s-7.65-5.37-8.67-8.18a26.73,26.73,0,0,0-2-3.86c-2.55-4.29-9.39-1.49-7.88,3.23Z" transform="translate(0)"/><path class="cls-44" d="M245.77,83.09s7.81,12,16.17,12l2.27-3.41s-7.65-5.37-8.67-8.18a26.73,26.73,0,0,0-2-3.86c-2.55-4.29-9.39-1.49-7.88,3.23Z" transform="translate(0)"/><path class="cls-12" d="M240.69,152.79l.37,4.17s12-2,11.88-5.87S240.69,152.79,240.69,152.79Z" transform="translate(0)"/><path class="cls-6" d="M240.69,152.79l.37,4.17s12-2,11.88-5.87S240.69,152.79,240.69,152.79Z" transform="translate(0)"/><path class="cls-12" d="M254.72,154.1l-.21,3.62s16.65-1.21,16-4.62-9.42-1.51-9.42-1.51Z" transform="translate(0)"/><path class="cls-45" d="M254.93,118.76s-1,2.67-2.24,5.74a58.32,58.32,0,0,1-3.73,7.91c-2.19,3.42-2.51,14-2.51,14-.42,1.7,1.68,5,1.68,5-4.19,4.32-8.06,1.81-8.06,1.81.73-1.31-.53-5-.53-5s1.68-17.17,2.73-18,1.88-4.82,1.88-4.82l-.94-13.64-.21-3.12,9-3.92.66,3.11.63,3.09Z" transform="translate(0)"/><path class="cls-6" d="M254.93,118.76s-1,2.67-2.24,5.74a58.32,58.32,0,0,1-3.73,7.91c-2.19,3.42-2.51,14-2.51,14-.42,1.7,1.68,5,1.68,5-4.19,4.32-8.06,1.81-8.06,1.81.73-1.31-.53-5-.53-5s1.68-17.17,2.73-18,1.88-4.82,1.88-4.82l-.94-13.64-.21-3.12,9-3.92.66,3.11.63,3.09Z" transform="translate(0)"/><path class="cls-45" d="M262.79,152c-1.89,3.21-8.49,2.81-8.49,2.81v-9.44s-1.88-10.54-.83-13-.42-6.83-.42-6.83l-.36-1.08-4.27-12.94-1.24-3.75h14.14v1.69c0,4,.1,14,.52,16.29a6.48,6.48,0,0,1-.94,4.82s.83,11.84.1,15.55A6.23,6.23,0,0,0,262.79,152Z" transform="translate(0)"/><path class="cls-42" d="M251.16,63.74s-2.2,5.82-6.59,7.93,7.22,2.71,7.22,2.71A20.23,20.23,0,0,1,258,66.85Z" transform="translate(0)"/><path class="cls-6" d="M261.32,109.5c-1.75.33-4.85.9-8,1.4-1.66.26-3.35.49-4.87.67a21.06,21.06,0,0,1-5.21.17l-.22-3.12,9-3.92.66,3.11h8.67S261.32,108.46,261.32,109.5Z" transform="translate(0)"/><path class="cls-17" d="M262.79,108.91s-17.7,3.51-19.9,2.41-2.72-3.91-2.09-7,0-10.85-1.15-20.69c-.58-5,.69-8.28,2.11-10.36a6.76,6.76,0,0,1,5.6-2.9,8.58,8.58,0,0,1,5.27,1.79,3.85,3.85,0,0,0,1.26.72,4,4,0,0,1,1.2.79,10.93,10.93,0,0,1,3.84,7.28c.18,1.87.37,4.23.46,6.61a51.73,51.73,0,0,1-.06,6.1,19.49,19.49,0,0,0,.22,4.45A47.31,47.31,0,0,0,262.79,108.91Z" transform="translate(0)"/><path class="cls-6" d="M259.54,98.11c-6.42-3.84-9.74-14.59-9.74-14.59a2.53,2.53,0,0,0,0-.28c-.14-4.93,7.24-5.88,8.49-1.09a24.93,24.93,0,0,1,.83,4.23,4.75,4.75,0,0,0,.28,1.17,51.73,51.73,0,0,1-.06,6.1A19.6,19.6,0,0,0,259.54,98.11Z" transform="translate(0)"/><path class="cls-6" d="M250.06,67.2c1.05,1.7,1.87,3.41,4,3.7a18.64,18.64,0,0,1,3.59-3.45l-6.8-3.11S251.24,65.4,250.06,67.2Z" transform="translate(0)"/><ellipse class="cls-42" cx="255.35" cy="63.74" rx="6.91" ry="6.63"/><path class="cls-6" d="M262.18,65.82a1.43,1.43,0,0,0,.81-.22,1.61,1.61,0,0,0,.52-1,5.35,5.35,0,0,0,0-2.78,14.68,14.68,0,0,0-.89-1.65c-.62-1.22-.73-2.68-1.61-3.73-.56-.66-2.5,0-3.31-.34-1.75-.72-2.5-2.18-4.4-2.17a6.87,6.87,0,0,0-2.07.25,7.17,7.17,0,0,0-2.29,1.28c-1.22.92-2.4,2.19-2.29,3.68a9.62,9.62,0,0,0,1,2.67,7.55,7.55,0,0,1,.06,4.7c-.18.65-.39,1.44.09,1.94a1.38,1.38,0,0,0,1.21.34,4.31,4.31,0,0,0,1.22-.48A8.53,8.53,0,0,0,252.15,67c.37-.34.66-.75,1-1.11a11.06,11.06,0,0,1,2.28-1.79,2.33,2.33,0,0,1,2.07.11C259.05,64.79,260.48,65.85,262.18,65.82Z" transform="translate(0)"/><path class="cls-46" d="M262.08,65.71a1.37,1.37,0,0,0,.81-.21,1.55,1.55,0,0,0,.51-1,5.25,5.25,0,0,0,0-2.78,16.39,16.39,0,0,0-.88-1.65c-.62-1.22-.73-2.67-1.62-3.73-.55-.66-2.38.1-3.2-.23-1.75-.72-2.61-2.29-4.5-2.29a7.21,7.21,0,0,0-2.07.25,7.54,7.54,0,0,0-2.3,1.28c-1.21.93-2.4,2.2-2.29,3.68a9.65,9.65,0,0,0,1,2.67,7.55,7.55,0,0,1,0,4.7c-.18.66-.38,1.44.09,2a1.4,1.4,0,0,0,1.22.33,3.88,3.88,0,0,0,1.22-.48,8.17,8.17,0,0,0,1.92-1.23c.36-.35.66-.76,1-1.12A11.12,11.12,0,0,1,255.36,64a2.33,2.33,0,0,1,2.07.11C259,64.69,260.38,65.75,262.08,65.71Z" transform="translate(0)"/><path class="cls-44" d="M259.54,98.11a20.07,20.07,0,0,1-.2-4.45,56.4,56.4,0,0,0,.06-6.1c-.1-2.38-.29-4.73-.47-6.61a10.89,10.89,0,0,0-3.83-7.28,3.8,3.8,0,0,0-1.21-.78,4,4,0,0,1-1.25-.73c-1.49-1.17.4,1.1.89,1.51A10.89,10.89,0,0,1,257.36,81c.18,1.87.37,4.23.47,6.61a54,54,0,0,1-.06,6.1,19.49,19.49,0,0,0,.21,4.45,48.11,48.11,0,0,0,3.24,10.81s-11.84,2.35-17.35,2.61c4.32.3,18.92-2.61,18.92-2.61A47.85,47.85,0,0,1,259.54,98.11Z" transform="translate(0)"/><path class="cls-42" d="M274,99.08c-3.25,3.61-7.95,1.2-7.95,1.2a14.66,14.66,0,0,0-2.87-1.73l-1.33-.67L264.25,96l1.22.61,1.82.9S277.24,95.47,274,99.08Z" transform="translate(0)"/><path class="cls-6" d="M265.47,96.57l-2.29,2c-.74-.38-1.34-.67-1.34-.67L264.25,96Z" transform="translate(0)"/><path class="cls-17" d="M250,83.22s4.19,13.55,12.25,15.66l3.14-2.71s-5.89-7.14-6.08-10.1a26.37,26.37,0,0,0-.83-4.23c-1.26-4.78-8.64-3.83-8.49,1.1C250,83,250,83.12,250,83.22Z" transform="translate(0)"/><path class="cls-44" d="M241.9,96.42s2.72-2.11,5.23-.5,6.18,1.4,6.7,1.5" transform="translate(0)"/><rect class="cls-12" x="81.18" y="178.4" width="416.06" height="4.13"/></svg>