<?xml version="1.0" encoding="utf-8"?>
<!-- Generator: Adobe Illustrator 23.0.2, SVG Export Plug-In . SVG Version: 6.00 Build 0)  -->
<svg version="1.1" id="Calque_1" xmlns="http://www.w3.org/2000/svg" xmlns:xlink="http://www.w3.org/1999/xlink" x="0px" y="0px"
	 viewBox="0 0 566.9 891.4" style="enable-background:new 0 0 566.9 891.4;" xml:space="preserve">
<style type="text/css">
	.st0{fill:#2498A0;}
	.st1{display:none;fill:url(#SVGID_1_);}
	.st2{fill:#555562;}
	.st3{opacity:0.1;fill:#E7AB24;enable-background:new    ;}
	.st4{fill:url(#SVGID_2_);}
	.st5{fill:#BE6F72;}
	.st6{fill:#3F3D56;}
	.st7{fill:#65617D;}
	.st8{opacity:0.1;enable-background:new    ;}
	.st9{fill:#E3E8F4;}
	.st10{opacity:0.1;}
	.st11{fill:#E7AB24;}
	.st12{opacity:0.1;fill:#FFFFFF;enable-background:new    ;}
	.st13{fill:url(#SVGID_3_);}
	.st14{fill:#F86D70;}
	.st15{fill:#FBBEBE;}
	.st16{fill:#444053;}
	.st17{fill:#E8E8F0;}
	.st18{fill:#F2F2F2;}
	.st19{fill:#2F2E41;}
	.st20{fill:#A0616A;}
	.st21{opacity:0.3;fill:#E7AB24;enable-background:new    ;}
	.st22{fill:#FF6584;}
</style>
<title>Sans titre - 3</title>
<rect y="1.4" class="st0" width="566.9" height="890.1"/>
<linearGradient id="SVGID_1_" gradientUnits="userSpaceOnUse" x1="316.2639" y1="-783.0212" x2="316.2639" y2="-803.6934" gradientTransform="matrix(1 0 0 1 -58.53 882.2913)">
	<stop  offset="0" style="stop-color:#808181;stop-opacity:0.25"/>
	<stop  offset="0.54" style="stop-color:#808181;stop-opacity:0.12"/>
	<stop  offset="1" style="stop-color:#808181;stop-opacity:0.1"/>
</linearGradient>
<path class="st1" d="M249.6,83.2c0,0,4.4,13.9,12.9,16l3.3-2.8c0,0-6.2-7.3-6.4-10.3c-0.2-1.5-0.5-2.9-0.9-4.3
	c-1.3-4.9-9.1-3.9-8.9,1.1C249.7,83,249.7,83.1,249.6,83.2z"/>
<rect x="82.7" y="188.6" class="st2" width="416.1" height="4.1"/>
<g>
	<title>winners</title>
	<path class="st3" d="M334.9,812.3c9.7-0.6,21.8-7.1,31.1-10.1c11.1-3.4,22.2-6.8,33.4-9.9c38.9-11.1,78.3-20.5,118-28.3
		c3.7-0.7,7.4-1.4,11.1-2.1c-5.8-12.5-14.8-23.3-26.1-31.3c0.3-2.7,0.4-5.5,0.4-8.3c0-43.6-34.8-78.9-77.8-78.9
		c-13.2,0-26.2,3.4-37.8,9.9c-30.4-20-70.1-32.1-113.6-32.1c-61.7,0-115.9,24.5-146.6,61.3l144.3,24.4l88.5,14.9
		c-100.9,3-202.1,6-302.7-1.1c-27.4,26.5-32.2,68.7-11.5,100.7l0,0c0,1.6,0.1,3.1,0.2,4.7c2.6,0.7,5,1.4,7.3,1.9
		c35.6,7.5,71.5,13.8,107.6,18.9c-26.6,16.4-59,18.7-89.7,25.7c14.9,12.3,35,19.8,57.3,19.8h331.1c35.9,0,64.9-25,64.9-55.7l0,0
		c5.4-8.9,9-18.7,10.6-29C468.7,814,401.5,808.5,334.9,812.3z"/>
	<path class="st3" d="M535.5,794.5c0.1-25.8-12.4-49.9-33.4-64.8c0.3-2.7,0.4-5.5,0.4-8.3c0-43.6-34.8-78.9-77.8-78.9
		c-13.2,0-26.2,3.4-37.8,9.9c-30.4-20-70.1-32.1-113.6-32.1c-70.7,0-131.5,32.1-158.5,78.1c-1.5-0.1-3-0.1-4.5-0.1
		c-43,0-77.8,35.3-77.8,78.9c0,15.4,4.4,30.5,12.8,43.4l0,0c0,39.2,37,71,82.7,71h331.1c35.8,0,64.9-25,64.9-55.8l0,0
		C531.5,823.3,535.5,809.1,535.5,794.5z"/>
	
		<linearGradient id="SVGID_2_" gradientUnits="userSpaceOnUse" x1="430.0164" y1="-35.0451" x2="430.0164" y2="141.8462" gradientTransform="matrix(1 0 0 -1 -42.035 792.42)">
		<stop  offset="0" style="stop-color:#808080;stop-opacity:0.25"/>
		<stop  offset="0.54" style="stop-color:#808080;stop-opacity:0.12"/>
		<stop  offset="1" style="stop-color:#808080;stop-opacity:0.1"/>
	</linearGradient>
	<path class="st4" d="M443.3,746.2c-0.6-0.5-1.4-0.8-2.1-0.9c-0.8-0.2-1.7-0.3-2.5-0.4l-10.8-1.6c-1.1-0.2-2.2-0.3-3.3-0.2
		c-1.1,0.1-2.2,0.6-2.9,1.5c-0.3,0.4-0.5,0.9-0.5,1.4c0.1,0.5,0.2,1,0.5,1.5c0.1,0.2,0.2,0.4,0.3,0.6c0.1,0.5,0.2,1,0.4,1.5
		c0,0.1,0.1,0.2,0.2,0.3c0,0,0,0,0,0.1c-0.1,0.6,0.3,1.2,0.1,1.8c-0.1,0.5-0.6,0.8-0.9,1.2c-0.4,0.6-0.4,1.4,0,2
		c0.3,0.5,0.9,0.9,1.1,1.4c0.2,0.8-0.4,1.5-0.9,2.1c-1,1.1-1.9,2.3-2.8,3.5c-0.2,0.3-0.4,0.7-0.4,1c0,0.8,0.7,1.4,0.6,2.2
		c-0.1,0.6-0.7,1-1.2,1.3c-1.9,1.2-3.4,3.2-3.5,5.4c-0.5-3.6-2-6.9-4.3-9.7c-0.6-0.8-1.3-1.5-1.6-2.5c-0.1-0.4-0.1-0.8-0.2-1.2
		c-0.4-1.2-1.8-1.7-2.4-2.7c-0.4-0.8-0.4-1.7-1-2.4c-0.5-0.7-1.4-0.8-1.9-1.5c-0.2-0.4-0.4-0.9-0.6-1.4c-0.2-0.4-0.5-0.7-0.8-1
		c-0.1-0.1-0.1-0.1-0.2-0.1c0.1-0.1,0.2-0.3,0.2-0.5c0-0.5-0.5-0.9-1-1.1c-0.6-0.3-1.1-0.7-1.7-1c0.6-0.3,1.1-0.7,1.5-1.2
		c0.5-0.8,0.7-1.7,0.6-2.6c0-0.7-0.3-1.5-0.8-2c-0.3-0.3-0.6-0.5-0.9-0.8c-0.8-0.7-1-1.8-1.3-2.8c-0.4-1.3-1.1-2.7-2.3-3.4
		c-0.6-0.3-1.3-0.5-1.8-0.9c-0.6-0.4-1-1-0.8-1.7c0.1-0.4,0.5-0.7,0.8-1.1c0.7-1,0.4-2.4-0.6-3.1c-0.3-0.2-0.7-0.4-0.8-0.8
		c-0.5-0.1-0.9-0.6-1-1.1c-0.1-0.5-0.1-1,0-1.6c0.1-0.8,0.2-1.6,0.3-2.4c0.4,0.2,0.8,0.2,1.2,0c0.4,0.6,0.8,1.2,1.3,1.7
		c1.3,1.6,2.4,3.4,3.1,5.3c0.3,0.7,0.5,1.5,1.2,1.9c0.2,0.1,0.5,0.2,0.7,0.3c0.3,0.2,0.5,0.4,0.7,0.7c0.5,0.7,1.1,1.4,1.6,2.1l0,0.1
		c0,0.1,0,0.1,0.1,0.2c0.1,0.1,0.2,0.2,0.4,0.2c1.6,0.4,3.4,0.7,4.8-0.2c1.3-0.8,1.8-2.4,2.9-3.4c0.8-0.7,1.8-1.3,2.1-2.4
		c-0.3-0.1-0.5-0.2-0.8-0.3c0.2-0.2,0.4-0.5,0.7-0.8c0.4-0.4,0.8-0.9,1.2-1.4c0.4-0.6,0.7-1.3,0.9-2c0.8-2.4,1.7-4.8,2.5-7.2
		c0.4-1.1,0.8-2.3,1.3-3.4c0.5-1.2,1.2-2.4,1.7-3.5c1.5-3.1,2.6-6.3,3.4-9.6c0.1-0.5,0.2-0.9,0.1-1.4c-0.1-0.8-0.7-1.4-1.2-1.9
		c-0.6-0.6-1.2-1.1-1.9-1.6c-0.7-0.4-1.5-0.6-2.3-0.4c-1.1,0.3-1.8,1.5-2.1,2.6s-0.2,2.3-0.3,3.5c-0.2,1.7-0.7,3.3-0.9,5
		c-0.1,1,0,2-0.1,3c-0.2,1.3-0.7,2.5-1.3,3.6c-1.4,2.7-3.4,5.1-5.7,7c-0.3,0.2-0.5,0.4-0.8,0.7c0-0.2,0-0.4,0.1-0.6
		c-0.2,0-0.4,0.1-0.6,0.2c0-0.2,0-0.4-0.1-0.7c-0.4-1.1-1.9-1.3-2.2-2.4c0-0.3-0.1-0.5-0.1-0.8c-0.1-0.9-0.7-1.7-0.9-2.6
		c-0.2-0.8,0-1.8-0.4-2.5c-0.3-0.5-0.7-0.9-1.2-1.3c-0.5-0.6-0.9-1.3-1.1-2.1c-0.1-0.2-0.1-0.4-0.2-0.7c0.1-0.5,0-1-0.2-1.4
		c-0.4-1-1.4-1.6-1.8-2.6c-0.3-0.8-0.2-1.8-0.7-2.4c-0.3-0.3-0.6-0.5-1-0.6c-2-0.8-4.1-1.3-6.3-1.5c-1.2-0.1-2.5-0.2-3.4-1
		c-1-1-1.1-2.8-2.2-3.5c-1-0.7-2.5-0.2-3.3,0.8c-0.1,0.1-0.2,0.3-0.3,0.4c-0.1-0.6-0.2-1.2-0.1-1.8c0-0.1,0-0.3,0-0.4
		c2-0.6,3.7-2,4.8-3.8c0,0,0,0,0,0l0.1,0.1c0.1,0.3,0.3,0.6,0.6,0.7l0,0c0.2,0,0.4-0.1,0.5-0.2c0.3-0.2,0.5-0.4,0.7-0.6
		c0.1-0.1,0.2-0.3,0.3-0.4c0.2-0.3,0.4-0.6,0.5-0.9c0.2-0.5,0.4-1,0.4-1.5c0.1-0.5,0.1-1,0.2-1.5c0.1-0.4,0.2-0.8,0.3-1.2
		c0-0.1,0.1-0.3,0.1-0.4c0-0.1,0.1-0.3,0.1-0.4c0.3-0.9,0.4-1.8,0.4-2.8c0-0.2,0-0.3,0-0.5c0-1.2-0.6-2.4-1.5-3.3
		c-0.8-0.6-1.8-0.9-2.3-1.7c-0.4-0.6-0.4-1.3-0.7-1.9c-0.5-1.6-1.8-2.8-3.5-3.1c-1-0.1-2,0.2-2.7,0.8l0,0l-0.1,0l0,0
		c-0.4,0.3-0.8,0.7-1.1,1.2c-0.6-0.2-1.1-0.5-1.5-0.9c-0.4-0.4-0.8-0.9-1.2-1.3c-0.8-0.8-2-1-3.1-0.7c-1.1,0.4-1.9,1.4-2.2,2.6
		c-0.2,0.9-0.2,1.9-0.7,2.7c-0.4,0.6-1,0.9-1.5,1.4c-0.3,0.3-0.5,0.7-0.6,1.2l0,0c-0.1,0.2-0.1,0.5-0.1,0.7l0,0c0,0.1,0,0.2,0,0.3
		c0,0,0,0,0,0.1c0,0.1,0,0.2,0.1,0.4l0,0c0.1,0.4,0.3,0.9,0.7,1.2c0.3,0.3,0.7,0.6,1.1,0.8c0.2,0.1,0.3,0.1,0.5,0.2l0.5,0.1l0.2,0
		c-1.3,2.4-1.4,5.3-0.2,7.7c0,0.1,0,0.2,0,0.4c-0.1,1.7,0,3.5,0.2,5.2c0.1,0.7,0.1,1.4-0.3,2c-0.2,0.2-0.4,0.4-0.6,0.6
		c0.2-0.3,0.5-0.6,0.7-0.9c-0.6-0.6-1.6-0.7-2.5-0.6c-1.7,0.1-3.4,0.6-4.8,1.5c-1,0.6-2,1.3-3.1,1.2c-0.7-0.1-1.3-0.4-2-0.3
		c-0.4,0.1-0.7,0.4-1,0.6c-0.2,0.2-0.5,0.3-0.8,0.3c-0.7-0.8-1.8-1.4-2.6-2.1c-0.9-0.8-1.8-1.8-2.6-2.8c-1.4-1.7-2.8-3.4-4.2-5.2
		c-1.2-1.5-2.4-3-2.6-4.9c0-0.2,0-0.4,0-0.6c0-0.9,0.1-1.8,0.3-2.6c0.1-0.2,0.1-0.4,0-0.6c-0.1-0.4-0.6-0.6-1.1-0.7l0,0
		c0.1-0.3,0.1-0.7,0.1-1c0.2-3.8,0-7.6,0.8-11.3c0.3-1.4,0.8-2.9,1.8-3.9c1.6-1.6,4.3-2,5.5-3.9c1-1.6,0.6-3.9-0.7-5.3
		c-1.3-1.4-3.3-2-5.2-1.9c-0.5,0-1.1,0.1-1.5,0.4c-0.4,0.4-0.7,0.9-0.9,1.4l-1.9,4.6c-0.5,1.2-1,2.4-1.4,3.7c-0.5,1.9-0.6,4-1.1,5.9
		c0,1.5-1,3.4-1.5,4.7c-0.6,1.5-1.2,3.1-1.8,4.7c-0.1,0.4-0.6,1.6-0.9,2.6c-0.1,0.1-0.2,0.1-0.3,0.2c-0.2,0.3-0.4,0.6-0.6,0.9
		c-0.4,0.5-1.1,0.8-1.5,1.3c-0.4,0.5-0.5,1.4,0.1,1.7c0.1,0,0.3,0.1,0.4,0.1c0.1,0,0.2,0,0.2,0c0.7,0.2,0.9,1,0.8,1.7
		c-0.1,0.7-0.4,1.3-0.5,2c-0.1,1.2,0.6,2.3,1.3,3.4c0.7,1.1,1.5,2.2,2.3,3.2c0.6,0.7,1.3,1.3,1.9,2c2.4,2.4,4.3,5.3,6.4,8
		c0.8,1,1.6,1.9,2.6,2.7c0.6,0.5,1.3,0.9,2,1.4l3.7,2.3c0.4,0.3,0.9,0.5,1.4,0.7c0.2,0,0.3,0,0.5,0c0,0.1,0,0.2,0.1,0.3
		c0.3,1.2,0.9,2.2,1,3.4c0.1,1.2,0,2.4,0,3.6c0.1,1.1,0.3,2.2,0.4,3.3c0.1,2.1-0.4,4.1-0.9,6.2c-0.7,3-1.2,6-2.6,8.7
		c-0.4,0.7-0.9,1.5-0.9,2.3c0,0.1,0,0.2,0,0.3l0,0l-0.7,0.4c-0.2,0.1-0.4,0.2-0.6,0.3c-0.8,0.5-1.7,1.1-2.1,2.1
		c-0.3,0.8-0.1,1.6-0.5,2.4c0,0,0,0.1-0.1,0.1c-0.4,0.7-1.1,1.2-1.2,1.9l0,0c-0.1,0.6,0.1,1.2,0,1.8c0,0,0,0,0,0
		c-0.1,0.3-0.2,0.6-0.2,0.9c0,0.1,0,0.2,0,0.3c0.1,0.3,0.3,0.6,0.5,0.9c0.2,0.2,0.3,0.3,0.5,0.4c0.2,0.1,0.4,0.2,0.6,0.3l0.1,0.1
		c0.2,0.1,0.3,0.2,0.5,0.3l0.1,0c0.2,0.1,0.4,0.2,0.6,0.2l0.1,0c0.2,0.1,0.3,0.1,0.5,0.1l0.1,0l0.1,0l0.4,0.1l0.2,0
		c0.2,0,0.4,0.1,0.6,0.1h0.2c0.1,0,0.3,0,0.4,0h0.2c0.2,0,0.3,0,0.4,0h0.2c0.2,0,0.4,0,0.6-0.1h0.1c0.2,0,0.4-0.1,0.6-0.1l0.1,0
		c0.2,0,0.3-0.1,0.5-0.1l0.1,0c0.2-0.1,0.4-0.1,0.6-0.2c0.7-0.3,1.4-0.6,2-1c0.4-0.2,0.9-0.5,1.3-0.7c0.3-0.2,0.7-0.3,1-0.4
		c0.8-0.4,1.7-0.5,2.6-0.4c0.4,0.1,0.9,0.2,1.3,0.3c0,0,0,0.1,0,0.1c0.4,2.1,0.7,4.2,1.1,6.3c0.6-0.4,1.2-0.8,1.8-1.1
		c-0.1,0.3-0.2,0.7-0.2,1c0,0.3,0,0.5,0,0.8c0,0.4,0.1,0.9-0.1,1.2c-0.2,0.2-0.4,0.3-0.5,0.5c-0.1,0.2-0.1,0.5,0,0.7
		c0,0.6-0.5,1-1,1.1c0.3,0.7,0,1.5-0.7,2c-0.2,0.1-0.4,0.2-0.5,0.3c-0.2,0.2-0.3,0.4-0.3,0.7c-0.6,2.2-1.8,4.1-3.4,5.7
		c-0.6,0.5-1.2,1-1.7,1.7c-0.3,0.5-0.6,1-0.8,1.5c-1.2,2.9-2.4,5.7-3.6,8.6c-0.7,1.6-1.3,3.2-1.5,5c-0.5,4.7-4.7,8.8-4,13.5
		c0.2,1.2,0.6,2.3,1.4,3.2c0.9,1.1,2.2,1.7,3.5,2.2c3.4,1.3,7,2,10.5,2.8l5.6,1.1c1.1,0.3,2.2,0.4,3.3,0.5c1.3,0.1,2.7,0,4,0.3
		c0.8,0.2,1.6,0.6,2.4,0.6c0.7,0,1.6-0.1,2,0.5s0.1,1.4,0.5,1.9c0.7,0.8,2.2,0,2.9,0.8c0.2,0.3,0.3,0.6,0.4,1
		c0.1,0.2,0.3,0.4,0.4,0.6c0,0.2,0.1,0.5,0.1,0.8c-0.1,1-0.3,2-0.6,3c-0.5,1.8-1.1,3.6-1.6,5.4c-0.2,0.6-0.3,1.3-0.4,1.9
		c0,0.3,0,0.6,0,1c0.1,1,0.7,2,1.6,2.3c0.7,0.2,1.5,0.1,2.1-0.3c0.6-0.3,1.2-0.7,1.8-1.2c1-0.7,1.8-1.6,2.5-2.6
		c2.2-3.3,1.5-7.7,3-11.4c1-2.4,3-4.4,3.7-7c0.2-0.5,0.2-1,0.1-1.5c-0.3-0.9-1.2-1.4-2.1-1.7h0c-0.7-0.3-1.5-0.5-2.2-0.6
		c-0.2,0-0.4-0.1-0.6-0.1c-0.4-0.3-0.8-0.8-1-1.3c0-0.3-0.1-0.5-0.2-0.8c-0.1-0.2-0.4-0.3-0.6-0.4c-0.4,0-1,0.1-1.5,0.1
		c-1-0.1-1.6-1-2.5-1.5s-1.8-0.3-2.8-0.3c-0.3,0-0.7,0-1-0.1c-0.4-0.2-0.7-0.4-1.1-0.7c-1.1-0.9-2.5-1.1-3.9-0.8
		c-0.4,0.2-0.9,0.3-1.3,0.3c-0.9,0-1.5-0.8-2.1-1.4c-1.7-1.6-4.2-2-6.3-3c-0.3-0.1-0.6-0.4-0.8-0.7c-0.2-0.6,0.3-1.2,0.8-1.6l3.6-3
		c4-3.3,8.9-5.8,10.7-10.6c0.2-0.6,0.5-1.3,0.9-1.8c0.1-0.2,0.3-0.3,0.5-0.4c0.8-0.5,1.8-0.7,2.7-0.5c1.1,0.3,2.2,0.7,3.2,1.4
		c1.6,1,3.1,2,4.6,3.1c1.5,1.1,2.9,2.2,4.2,3.4c2.3,2.2,4.2,4.8,6.4,7.2s4.6,4.6,7.6,5.7c3,1.1,6.6,1.1,9.2-0.8
		c3-2.2,3.9-6.1,4.7-9.7c1.6-1.6,2.1-4,2.9-6.2c0.5-1.4,1.2-2.6,1.7-4c0.7-1.6,1.2-3.2,1.7-4.9c0.6-1.6,1-3.4,1.2-5.1
		c0.2-2.7-0.5-5.7,0.2-8.2c1-0.2,1.9-0.8,2.9-1.1c1.5-0.5,3.1-0.4,4.7-0.4h0.1c0.5,0.1,1.1-0.1,1.5-0.4c0.5-0.4,0.6-1.2,0.6-1.9
		C444.6,749.1,444.5,747.3,443.3,746.2z M379.6,671.2c-0.4,0.1-0.7,0.1-1.1,0.1L379.6,671.2z"/>
	<path class="st5" d="M381.3,699c-0.5,0.5-1.2,0.8-1.8,1l-3.1,1.1c-1.7,0.6-3.5,1.2-5.2,1c-1-0.1-5.3-0.8-5.9-1.5
		c-1-1.2,2.5-3,3.6-4c0.3-0.2,0.5-0.4,0.7-0.7c0.4-0.5,0.4-1.3,0.3-2c-0.2-1.7-0.3-3.4-0.2-5.2c0-0.4,0.1-0.8,0.2-1.2
		c0.4-2,2.3-1.3,3.8-0.7c1.8,0.6,3.5,1.3,5.2,2.2c0.5,0.3,0.9,0.6,1.3,1.1c0.7,1,0.4,2.3,0.3,3.5c-0.1,1-0.1,1.9,0.5,2.6
		c0.3,0.3,0.6,0.6,0.8,0.9C382,697.7,381.8,698.5,381.3,699z"/>
	<path class="st5" d="M338.2,667.3c0.4-1.9,0.5-4,1.1-5.9c0.4-1.3,0.8-2.5,1.4-3.7l1.9-4.5c0.2-0.5,0.5-1,0.9-1.4
		c0.5-0.3,1-0.4,1.5-0.4c1.9-0.1,3.9,0.5,5.2,1.9c1.3,1.4,1.7,3.6,0.7,5.2c-1.2,1.9-3.9,2.3-5.5,3.9c-1,1-1.5,2.5-1.8,3.9
		c-0.8,3.7-0.5,7.5-0.8,11.3c-0.1,1.2-0.3,2.5-1.3,3.1c-0.6,0.3-1.3,0.4-2,0.4l-2.9,0c-0.5,0-2.2,0.3-2.6-0.1
		c-0.6-0.6,0.7-3.8,1-4.5c0.5-1.6,1.2-3.1,1.8-4.6C337.3,670.6,338.2,668.8,338.2,667.3z"/>
	<path class="st6" d="M397.8,805.4c-0.7,2.5-2.7,4.5-3.7,6.9c-1.5,3.6-0.8,8.1-3,11.3c-0.7,1-1.6,1.9-2.5,2.6
		c-0.5,0.5-1.1,0.9-1.8,1.2c-0.7,0.4-1.4,0.5-2.1,0.3c-0.9-0.3-1.5-1.3-1.6-2.3c0-0.3,0-0.6,0-1c0.1-0.7,0.2-1.3,0.4-1.9
		c0.5-1.8,1.1-3.6,1.6-5.3c0.3-1,0.5-2,0.6-3c0.1-1.1-0.6-2.5-0.3-3.6c0.1-0.5,0.6-0.9,0.9-1.3c0.3-0.6,0.6-1.2,0.8-1.8
		c0.4-1.2,0.6-2.5,1.4-3.6c0.5-0.6,1.1-1.2,1.7-1.6c0.5-0.4,1-0.7,1.6-0.9c0.6-0.1,1.2-0.1,1.8,0.1c0.7,0.2,1.5,0.4,2.2,0.6h0
		c0.9,0.3,1.8,0.8,2.1,1.7C397.9,804.4,397.9,804.9,397.8,805.4z"/>
	<path class="st6" d="M444.6,751.4c0,0.7-0.1,1.4-0.6,1.9c-0.5,0.3-1,0.4-1.5,0.4h-0.1c-1.6,0-3.2-0.1-4.7,0.4
		c-1.1,0.4-2.2,1.1-3.3,1.2c-1.6,0.2-3.1-0.7-4.6-1.5c-1.4-0.7-2.7-1.4-4.2-2c-0.9-0.4-2.8-0.6-3.3-1.6c-0.2-0.5-0.3-1-0.4-1.5
		c-0.1-0.2-0.2-0.4-0.3-0.6c-0.3-0.4-0.4-0.9-0.5-1.5c0-0.5,0.2-1,0.5-1.4c0.7-0.9,1.8-1.4,2.9-1.5c1.1-0.1,2.2,0,3.3,0.2l10.8,1.6
		c0.8,0.1,1.7,0.2,2.5,0.4c0.8,0.1,1.5,0.5,2.1,0.9C444.5,747.8,444.6,749.7,444.6,751.4z"/>
	<path class="st7" d="M435.1,754.2c-1.3,2.8-0.4,6.1-0.6,9.2c-0.2,1.7-0.6,3.4-1.2,5.1c-0.5,1.6-1,3.3-1.7,4.9
		c-0.5,1.3-1.2,2.6-1.7,4c-0.8,2.1-1.3,4.6-2.9,6.2c-0.7,3.6-1.7,7.5-4.7,9.7c-2.6,1.9-6.2,2-9.2,0.8c-3-1.1-5.4-3.3-7.6-5.7
		c-2.1-2.4-4.1-5-6.4-7.2c-1.3-1.2-2.7-2.4-4.2-3.4c-1.5-1.1-3-2.1-4.6-3.1c-1-0.7-2-1.1-3.2-1.4c-0.9-0.2-1.9,0-2.7,0.5
		c-0.2,0.1-0.3,0.3-0.5,0.4c-0.4,0.5-0.7,1.2-0.9,1.8c-1.8,4.8-6.8,7.3-10.8,10.6l-3.6,3c-0.5,0.4-1,1-0.8,1.6
		c0.2,0.3,0.4,0.5,0.8,0.7c2.1,1,4.6,1.5,6.3,3c0.6,0.6,1.2,1.3,2.1,1.4c0.5,0,0.9-0.1,1.3-0.3c1.3-0.4,2.8-0.1,3.9,0.8
		c0.3,0.3,0.7,0.5,1.1,0.7c0.3,0.1,0.7,0.1,1,0.1c0.9-0.1,1.9-0.1,2.8,0.3c0.8,0.4,1.5,1.4,2.5,1.5c0.5,0,1.1-0.1,1.5-0.1
		c0.3,0,0.5,0.1,0.6,0.4c0.1,0.2,0.2,0.5,0.2,0.8c0.2,0.6,0.8,1,1.2,1.5c0.6,0.8,0.7,1.8,0.6,2.8c-0.2,3.1-1.6,6-3.9,8.1
		c-0.6,0.7-1.5,1.1-2.4,1.3c-0.9,0.2-1.9-0.2-2.3-1c-0.1-0.3-0.2-0.7-0.4-1c-0.7-0.8-2.3,0-2.9-0.8c-0.4-0.5-0.1-1.3-0.5-1.9
		c-0.4-0.5-1.3-0.4-2-0.5c-0.8,0-1.6-0.4-2.4-0.6c-1.3-0.3-2.7-0.2-4-0.3c-1.1-0.1-2.2-0.3-3.3-0.5l-5.6-1.1
		c-3.6-0.7-7.1-1.5-10.5-2.8c-1.3-0.5-2.6-1.1-3.5-2.2c-0.7-0.9-1.2-2-1.4-3.2c-0.8-4.7,3.4-8.7,4-13.4c0.2-1.7,0.9-3.3,1.5-5
		c1.2-2.9,2.4-5.7,3.6-8.6c0.2-0.5,0.4-1,0.7-1.5c0.5-0.6,1.1-1.2,1.7-1.7c1.7-1.5,2.9-3.5,3.4-5.6c0-0.2,0.1-0.5,0.3-0.7
		c0.2-0.1,0.3-0.2,0.5-0.3c0.6-0.4,0.9-1.2,0.7-2c0.6,0,1-0.5,1-1.1c0-0.2,0-0.5,0-0.7c0.1-0.2,0.4-0.3,0.5-0.5
		c0.3-0.3,0.2-0.8,0.1-1.2c0-0.3,0-0.5,0-0.8c0.1-0.9,0.5-1.8,1.2-2.5c1.1-1,2.5-0.8,4-1c1.4-0.3,2.9-0.8,4.2-1.3
		c3.8-1.5,7.8-2.4,11.9-2.8c4.1-0.3,8.2,0.3,12,1.9c0.6,0.2,1.1,0.5,1.6,0.9c0.3,0.3,0.6,0.6,0.8,1c0.2,0.5,0.4,0.9,0.6,1.3
		c0.5,0.6,1.4,0.8,1.9,1.5c0.5,0.6,0.6,1.6,1,2.4c0.6,1.1,2,1.6,2.4,2.7c0.1,0.4,0.1,0.8,0.2,1.2c0.2,1,0.9,1.7,1.6,2.5
		c2.3,2.8,3.8,6.1,4.3,9.7c0.1-2.2,1.6-4.2,3.5-5.4c0.5-0.3,1.1-0.7,1.2-1.3c0.1-0.8-0.6-1.4-0.6-2.2c0.1-0.4,0.2-0.7,0.4-1
		c0.8-1.2,1.8-2.4,2.8-3.5c0.5-0.6,1.1-1.3,0.9-2.1c-0.2-0.6-0.8-0.9-1.1-1.4c-0.4-0.6-0.4-1.4,0-2c0.3-0.4,0.8-0.7,0.9-1.2
		c0.2-0.6-0.2-1.2-0.1-1.8c0.2-0.5,0.5-0.9,0.9-1.2c0.6-0.5,1.2-1,2-1.3c1.2-0.4,2.5-0.3,3.7-0.1c2.1,0.3,4.4,0.7,5.5,2.4
		C435.2,751.4,435.6,753,435.1,754.2z"/>
	<path class="st8" d="M444.6,751.4c0,0.7-0.1,1.4-0.6,1.9c-0.5,0.3-1,0.4-1.5,0.4h-0.1c0.2-0.9,1.3-1.4,1.5-2.4
		c0.1-0.6-0.1-1.2-0.5-1.6c-0.9-1.3-2.5-2-4-2.5c-4.2-1.5-8.8-1.8-13.2-1c-1.2,0.2-2.4,0.6-3.5,1.1c-0.4,0.2-0.7,0.5-1.1,0.7
		c-0.3-0.4-0.4-0.9-0.5-1.5c0-0.5,0.2-1,0.5-1.4c0.7-0.9,1.8-1.4,2.9-1.5c1.1-0.1,2.2,0,3.3,0.2l10.8,1.6c0.8,0.1,1.7,0.2,2.5,0.4
		c0.8,0.1,1.5,0.5,2.1,0.9C444.5,747.8,444.6,749.7,444.6,751.4z"/>
	<path class="st8" d="M397.8,805.4c-0.7,2.5-2.7,4.5-3.7,6.9c-1.5,3.6-0.8,8.1-3,11.3c-0.7,1-1.6,1.9-2.5,2.6
		c-0.5,0.5-1.1,0.9-1.8,1.2c-0.7,0.4-1.4,0.5-2.1,0.3c-0.9-0.3-1.5-1.3-1.6-2.3c0-0.3,0-0.6,0-1l0,0.1c0.4,0.9,1,1.9,2,2.1
		c0.7,0.1,1.5-0.2,2-0.7c1.5-1.2,2.3-2.9,3.1-4.6c0.6-1.2,1.1-2.5,1.5-3.8c0.2-0.7,0.3-1.5,0.4-2.3c0.8-3.6,3.7-6.6,4.3-10.3
		c0.1-0.3,0.1-0.5,0-0.8c-0.1-0.3-0.2-0.7-0.4-1c-0.2-0.3-0.3-0.7-0.3-1.1c0.9,0.3,1.8,0.8,2.1,1.7C398,804.4,398,804.9,397.8,805.4
		z"/>
	<path class="st8" d="M391.2,799.1c-0.4,1.1-1.1,2-2,2.7c-1.3,1-2.7,1.6-4.3,1.8c-0.7,0.2-1.5,0.2-2.2,0c-1-0.3-1.7-1.3-2.7-1.5
		c-0.7-0.2-1.5,0-2.2-0.1c-1.3-0.2-2.3-1.2-3.3-2c-3.2-2.4-7.4-3.2-10.6-5.6c-0.1-0.1-0.3-0.2-0.3-0.4c-0.1-0.2-0.1-0.3-0.1-0.5
		c0-1.5,0.3-2.9,1-4.2c0.5-0.9,1.1-1.8,1.8-2.6c2.9-3.5,5.8-7.1,9.2-10c1.4-1.2,3-2.4,4.8-3c1-0.3,3-0.6,4.2-0.1
		c-0.2,0.1-0.3,0.3-0.5,0.4c-0.4,0.5-0.7,1.2-0.9,1.8c-1.9,4.8-6.8,7.3-10.8,10.6l-3.6,3c-0.5,0.4-1,1-0.8,1.6
		c0.2,0.3,0.4,0.5,0.8,0.7c2.1,1,4.6,1.5,6.3,3c0.6,0.6,1.2,1.3,2.1,1.4c0.5,0,0.9-0.1,1.3-0.3c1.3-0.4,2.8-0.1,3.9,0.8
		c0.3,0.3,0.7,0.5,1.1,0.7c0.3,0.1,0.7,0.1,1,0.1c0.9-0.1,1.9-0.1,2.8,0.3c0.8,0.4,1.5,1.4,2.5,1.5
		C390.1,799.2,390.7,799.1,391.2,799.1z"/>
	<path class="st6" d="M350.7,739.4c-0.8,0.5-1.7,1.1-2.1,2.1c-0.3,0.8-0.1,1.6-0.5,2.4s-1.1,1.3-1.3,2c-0.1,0.6,0.1,1.2,0,1.8
		c-0.1,0.3-0.2,0.6-0.2,0.9c0,0.7,0.5,1.2,1.1,1.6c2.4,1.5,5.3,1.9,8,0.9c1.2-0.4,2.2-1.2,3.4-1.7c1.1-0.6,2.4-0.9,3.6-0.9
		c0.7,0.1,1.4,0.3,2.1,0.4c0.7,0.1,1.5-0.1,2-0.6c0.2-0.3,0.4-0.7,0.4-1c0.6-2.4,0.3-5-0.2-7.4s-1.5-4.8-2.1-7.2
		c-0.4-1.8-0.8-3.6-1.5-5.3c-0.7-1.7-2-3.3-3.7-3.9c-0.1-0.1-0.3-0.1-0.4-0.1c-0.1,0-0.2,0.1-0.3,0.2c-1.4,1.4-2.4,3.2-3,5.1
		c-0.7,2.1-0.9,4.3-1.5,6.5c-0.3,0.9-0.6,2.1-1.3,2.7C352.5,738.5,351.5,738.9,350.7,739.4z"/>
	<path class="st8" d="M367.3,747.2c-0.1,0.4-0.2,0.7-0.5,1c-0.5,0.5-1.3,0.7-2,0.6c-0.7-0.1-1.4-0.4-2.1-0.4
		c-1.3-0.1-2.5,0.2-3.6,0.9c-1.1,0.6-2.2,1.3-3.4,1.7c-1.7,0.6-3.6,0.8-5.3,0.3c-0.9-0.2-1.8-0.6-2.6-1.2c-0.6-0.4-1.1-0.9-1.1-1.6
		c0.1-0.3,0.1-0.6,0.2-0.9c0.1-0.6-0.1-1.2,0-1.8c0.2-0.8,0.9-1.3,1.3-2c0.3-0.7,0.2-1.6,0.5-2.4c0.3-0.9,1.2-1.5,2.1-2.1
		c0.8-0.5,1.8-1,2.5-1.6c0.1-0.1,0.2-0.2,0.2-0.3c0.5-0.7,0.8-1.6,1-2.4c0.6-2.1,0.8-4.3,1.5-6.5c0.6-1.9,1.7-3.6,3-5.1
		c0.1-0.1,0.2-0.2,0.3-0.2c0.1,0,0.3,0,0.4,0.1c1.7,0.7,3,2.2,3.7,3.9c0.7,1.7,1.1,3.5,1.5,5.3c0.6,2.4,1.5,4.8,2.1,7.2
		C367.6,742.2,367.9,744.8,367.3,747.2z"/>
	<path class="st8" d="M380.4,693.6c-4.3,1.4-8.9-0.7-10.7-4.8c0-0.4,0.1-0.8,0.2-1.2c0.4-2,2.3-1.3,3.8-0.7c1.8,0.6,3.5,1.3,5.2,2.2
		c0.5,0.3,0.9,0.6,1.3,1.1C380.7,691.1,380.5,692.4,380.4,693.6z"/>
	<circle class="st5" cx="377.7" cy="684.8" r="8.8"/>
	<path class="st8" d="M401.6,750.5c0,0.7-1,1-1.7,0.9c-2.6-0.2-5.2-0.9-7.8-0.7c-3.3,0.3-6.3,2.1-9.6,2.3c-1.3,0.1-2.6-0.1-3.8,0.1
		c-1.6,0.3-3.1,1.3-4.7,1.4c-1.4,0.1-2.9-0.4-4.3-0.4c-1,0.1-2,0.3-2.9,0.8c0.1-0.9,0.5-1.8,1.2-2.5c1.1-1,2.5-0.8,4-1
		c1.4-0.3,2.9-0.8,4.2-1.3c3.8-1.5,7.8-2.4,11.9-2.8c4.1-0.3,8.2,0.3,12,1.9c0.6,0.2,1.1,0.5,1.6,0.9
		C401.6,750.3,401.6,750.4,401.6,750.5z"/>
	<path class="st9" d="M373.7,700.8l-3.6-1.3l-1.5-0.6c-0.6-0.3-1.3-0.4-1.9-0.5c-1.7-0.1-3.3,1-4.3,2.5c-0.9,1.5-1.3,3.2-1.6,4.9
		c-0.4,2.3-0.7,4.7-1,7c-0.3,2.1-0.5,4.3-0.5,6.4c0.1,5.4,1.3,10.8,2.5,16.1c0.6,2.3,1.1,4.7,1.4,7.1c0.1,1,0.2,2,0.3,3
		c0.1,1.1,0.3,2.2,0.5,3.3l1.1,6.3c1.3-0.9,2.8-1.8,4.4-1.8c1.4-0.1,2.9,0.5,4.3,0.4c1.6-0.1,3.1-1.1,4.7-1.4c1.3-0.2,2.6,0,3.8-0.1
		c3.3-0.2,6.3-2,9.6-2.3c2.6-0.2,5.2,0.5,7.8,0.7c0.7,0,1.7-0.2,1.7-0.9c0-0.5-0.5-0.8-1-1.1c-2.1-1.3-4.1-2.7-6-4.3
		c-1.7-1.4-3.5-2.8-4.7-4.6c-2.9-4.5-1.9-10.5-4.3-15.2c-2-3.8,0-8.8,0-13.1c0-2.1,0-4.3-0.5-6.4c-0.3-1.2-0.7-2.3-1.2-3.4l-1.7-4.3
		c0-0.1-0.1-0.2-0.2-0.3c-0.1-0.1-0.3-0.1-0.4-0.1c-1-0.1-2,0.3-2.8,0.9c-0.8,0.7-1.3,1.6-2.1,2.3
		C375.8,700.6,374.7,701.2,373.7,700.8z"/>
	<path class="st6" d="M379.4,698.3c0.3-1.2,0.6-2.5,1.4-3.4c0.8-0.9,2.3-1.4,3.3-0.8c1.2,0.8,1.2,2.5,2.2,3.5c0.9,0.8,2.2,0.9,3.4,1
		c2.2,0.2,4.3,0.7,6.3,1.5c0.4,0.1,0.7,0.3,1,0.6c0.5,0.6,0.4,1.6,0.7,2.4c0.4,1,1.4,1.6,1.8,2.6c0.4,1.1,0,2.3-0.4,3.5
		c-0.7,2-1.1,4.2-1.7,6.2c-0.6,2.1-1.6,4.1-3.1,5.6c-0.7,0.7-1.7,1.3-2.5,0.9l-0.3,2.4c-0.1,0.5-0.1,1,0,1.6c0.1,0.5,0.5,0.9,1,1.1
		c0.1,0.4,0.5,0.6,0.8,0.8c1,0.7,1.3,2.1,0.6,3.1c0,0,0,0,0,0c-0.3,0.4-0.7,0.7-0.8,1.1c-0.2,0.6,0.3,1.3,0.8,1.7
		c0.6,0.4,1.2,0.5,1.8,0.9c1.2,0.7,1.9,2.1,2.3,3.4c0.3,1,0.6,2.1,1.3,2.8c0.3,0.3,0.6,0.5,0.9,0.8c0.5,0.6,0.8,1.3,0.8,2
		c0.1,0.9-0.1,1.9-0.6,2.6c-0.9,1.3-2.5,1.6-4,2.2c-2.3,1-4.3,2.7-6.3,4.1c-0.8,0.7-1.8,1.1-2.9,1.4c-1.4,0.2-2.8-0.4-4.3-0.5
		c-0.9,0-1.7,0.1-2.5,0.3l-2.6,0.6c0.1-2-1-4.1-1.6-6c-1.2-3.7-1.4-7.6-1.1-11.4c0.3-3.8,1.1-7.6,1.8-11.4c0.5-2.6,0.5-5.4,1.3-8
		c0.8-2.5,1.9-4.8,2.3-7.4C381.2,706,378.5,702.4,379.4,698.3z"/>
	<path class="st6" d="M399.4,706.5c0.2,0.4,0.4,0.9,0.5,1.4c0.2,0.8,0.6,1.5,1.1,2.1c0.4,0.4,0.8,0.8,1.2,1.3
		c0.4,0.8,0.3,1.7,0.4,2.5c0.2,0.9,0.9,1.7,0.9,2.6c0,0.3,0,0.5,0.1,0.8c0.3,1.1,1.9,1.3,2.2,2.4c0.2,0.7-0.2,1.4-0.1,2.2
		c0.1,0.2,0.1,0.5,0,0.7c-0.1,0.3-0.3,0.5-0.5,0.6c-1.5,1.4-2.5,3.2-2.9,5.1c-0.4,2-0.6,3.9-0.7,5.9L400,732
		c-0.2-0.3-0.4-0.5-0.7-0.7c-0.2-0.1-0.5-0.2-0.7-0.3c-0.7-0.4-0.9-1.2-1.2-1.9c-0.7-1.9-1.7-3.8-3.1-5.3c-0.7-0.8-1.5-1.6-1.7-2.7
		c0-0.5,0-1,0.1-1.5c0.4-2.9,0.9-5.8,2.3-8.4c0.7-1.2,1.5-2.3,2.1-3.5C397.7,706.9,398.3,704.8,399.4,706.5z"/>
	<path class="st6" d="M356,709.2c0,0.4-0.1,0.7-0.3,1.1c-0.3,0.4-0.9,0.6-1.4,0.4c-0.5-0.1-1-0.3-1.4-0.7c-1.2-0.8-2.5-1.5-3.7-2.3
		c-0.7-0.4-1.3-0.9-2-1.4c-1-0.8-1.8-1.7-2.6-2.7c-2.1-2.6-4-5.5-6.4-7.9c-0.6-0.7-1.3-1.3-1.9-2c-0.9-1-1.6-2.1-2.3-3.2
		c-0.7-1-1.4-2.1-1.3-3.4c0.1-0.7,0.4-1.3,0.5-2c0.1-0.7-0.2-1.5-0.8-1.7c-0.1,0-0.2,0-0.2,0c-0.1,0-0.3,0-0.4-0.1
		c-0.6-0.3-0.5-1.2-0.1-1.7s1.1-0.8,1.5-1.3c0.2-0.3,0.4-0.6,0.6-0.9c0.3-0.3,0.6-0.4,1-0.5c2.5-0.7,5.2-0.8,7.8-0.3
		c0.4,0.1,0.9,0.3,1.1,0.7c0.1,0.2,0.1,0.4,0,0.6c-0.2,0.9-0.3,1.8-0.3,2.6c0,0.2,0,0.4,0,0.6c0.2,1.9,1.4,3.4,2.6,4.9
		c1.4,1.7,2.8,3.5,4.2,5.2c0.8,1,1.6,1.9,2.6,2.7c0.9,0.7,2,1.3,2.7,2.3c0.6,0.8,0.4,1.8,0.4,2.7C356.2,703.7,356.2,706.5,356,709.2
		z"/>
	<path class="st5" d="M411.9,727.6c0.4-0.4,0.8-0.9,1.2-1.4c0.4-0.6,0.7-1.3,0.9-2l2.5-7.2c0.4-1.1,0.8-2.3,1.3-3.4
		c0.5-1.2,1.2-2.4,1.7-3.5c1.5-3.1,2.6-6.3,3.4-9.6c0.1-0.5,0.2-0.9,0.1-1.4c-0.1-0.8-0.7-1.4-1.2-1.9c-0.6-0.6-1.2-1.1-1.9-1.5
		c-0.7-0.4-1.5-0.6-2.3-0.4c-1.1,0.3-1.8,1.5-2.1,2.6s-0.2,2.3-0.3,3.5c-0.2,1.7-0.7,3.3-0.9,5c-0.1,1,0,2-0.1,2.9
		c-0.2,1.3-0.7,2.5-1.3,3.6c-1.4,2.7-3.4,5-5.7,7c-0.6,0.5-1.2,1-1.7,1.6c-0.4,0.6-0.7,1.3-0.8,2c-0.3,1.1-0.2,2.3,0.4,3.3
		c0.7,1.2,2.1,1.8,3.4,2C410.2,729.4,410.6,728.8,411.9,727.6z"/>
	<path class="st6" d="M377.8,672c0.8-1.5,2.3-2.3,4-2.2c1.6,0.3,3,1.5,3.5,3.1c0.2,0.7,0.3,1.4,0.7,1.9c0.5,0.8,1.6,1.1,2.3,1.7
		c0.9,0.8,1.4,2,1.5,3.3c0,1.3-0.2,2.5-0.6,3.7c-0.2,0.5-0.3,1-0.4,1.5c-0.1,0.5-0.1,1-0.2,1.5c-0.2,1.3-0.9,2.5-2,3.3
		c-0.2,0.1-0.3,0.2-0.5,0.2c-0.3,0-0.6-0.4-0.7-0.8c-0.7-2-0.5-4.5-1.8-6.1c-0.6-0.6-1.3-1.2-2.1-1.6c-0.3-0.2-0.7-0.3-1.1-0.4
		c-0.6,0-1.1,0.2-1.5,0.6c-0.9,0.6-2,1.1-3,1.3c-1.1,0.3-2.3,0-3.1-0.7c-0.6-0.5-1.1-1.3-1.7-1.6c-0.7-0.4-1.4-0.4-2-0.6
		c-1.5-0.7-2.3-2.4-1.6-4c0.1-0.2,0.2-0.4,0.4-0.6c0.4-0.5,1.1-0.8,1.5-1.4c0.5-0.8,0.5-1.8,0.7-2.7c0.3-1.2,1.1-2.1,2.2-2.6
		c1.1-0.4,2.3-0.1,3.1,0.7c0.4,0.4,0.8,0.9,1.2,1.3c0.9,0.8,2.1,1.2,3.3,0.9"/>
	<path class="st8" d="M385,736.8c-0.5,0.5-0.7,1.2-0.5,1.9c0.1,0.2,4.6-0.7,5.1-0.7c1.2-0.2,3.3-0.1,4.1-1.2c1.4-1.9-3-1.5-3.8-1.4
		C388.4,735.4,386.2,735.6,385,736.8z"/>
	<path class="st6" d="M343.7,680c-0.2,0.9-0.3,1.8-0.3,2.6c-1.3,0.3-2.7-0.2-4-0.6l-3.6-1.2c-0.5-0.3-1.1-0.2-1.4,0.3
		c-0.6,0.6-1.4,1.8-2.2,2.4c-0.1,0-0.3,0-0.4-0.1c-0.6-0.3-0.5-1.2-0.1-1.7c0.4-0.5,1.1-0.8,1.5-1.3c0.2-0.3,0.4-0.6,0.6-0.9
		c0.3-0.3,0.6-0.4,1-0.5c2.5-0.7,5.2-0.8,7.8-0.3c0.4,0.1,0.9,0.3,1.1,0.7C343.8,679.6,343.8,679.8,343.7,680z"/>
	<path class="st8" d="M343.7,680c-0.2,0.9-0.3,1.8-0.3,2.6c-1.3,0.3-2.7-0.2-4-0.6l-3.6-1.2c-0.5-0.3-1.1-0.2-1.4,0.3
		c-0.6,0.6-1.4,1.8-2.2,2.4c-0.1,0-0.3,0-0.4-0.1c-0.6-0.3-0.5-1.2-0.1-1.7c0.4-0.5,1.1-0.8,1.5-1.3c0.2-0.3,0.4-0.6,0.6-0.9
		c0.3-0.3,0.6-0.4,1-0.5c2.5-0.7,5.2-0.8,7.8-0.3c0.4,0.1,0.9,0.3,1.1,0.7C343.8,679.6,343.8,679.8,343.7,680z"/>
	<path class="st8" d="M377,763.5c0.6,0.2,1.3,0.5,1.5,1.2l-5.1-1.3l-2.6-0.7c-0.5-0.1-2.1-0.3-2.4-0.6c-0.4-0.5,1.1-0.2,1.4-0.1
		c0.9,0.1,1.7,0.3,2.6,0.4C373.9,762.6,375.4,763.1,377,763.5z"/>
	<path class="st8" d="M379,768c-0.4-0.3-1.7-0.3-2.2-0.4c-0.8-0.2-1.6-0.4-2.3-0.7c-1.6-0.5-3.1-1.1-4.8-1.5
		c-0.3-0.1-1.3-0.1-1.3-0.5c0-0.4,1-0.5,1.3-0.5c1.4-0.1,3.2,0.6,4.6,1C375.9,766.1,377.5,767,379,768z"/>
	<path class="st8" d="M375.7,759.5c-1.6-0.4-3.1-1.4-4.7-1.6c-0.4,0-0.9-0.1-1.2-0.4c-0.2-0.2-0.3-0.4-0.4-0.7
		c1.1-0.1,2.4,0.4,3.4,0.9c0.6,0.2,1.1,0.5,1.6,0.9C374.8,758.7,375.3,759.4,375.7,759.5z"/>
	<path class="st6" d="M406.5,720.1c-0.6,3.8,1.7,7.4,5.4,8.5c-0.2,1-1.3,1.6-2.1,2.4c-1.1,1-1.6,2.6-2.9,3.4
		c-1.4,0.9-3.2,0.5-4.8,0.2c-0.1,0-0.3-0.1-0.4-0.2c0-0.1-0.1-0.1-0.1-0.2c-0.5-1.9-0.9-4-0.3-6c0.4-1.7,1.5-3.1,2.3-4.5
		C404.5,722.2,404.6,720.6,406.5,720.1z"/>
	<path class="st6" d="M367.2,694.9c-1.7,0.1-3.4,0.6-4.8,1.5c-1,0.6-2,1.3-3.1,1.2c-0.7-0.1-1.3-0.4-2-0.3c-0.4,0.1-0.7,0.3-1,0.6
		c-0.3,0.2-0.7,0.3-1.1,0.2l-0.4,6.1c-0.2,2.3-0.3,4.7,0.2,6.9c0.3,1.2,0.9,2.2,1,3.4c0.1,1.2,0,2.4,0,3.6c0.1,1.1,0.3,2.2,0.4,3.3
		c0.1,2.1-0.4,4.1-0.9,6.1c-0.7,3-1.2,6-2.6,8.7c-0.4,0.7-0.9,1.5-0.9,2.3c0,0.1,0,0.2,0,0.3c-0.4,0.2-0.8,0.5-1.2,0.7
		c-0.8,0.5-1.7,1.1-2.1,2.1c-0.3,0.8-0.1,1.6-0.5,2.4c-0.3,0.7-1.1,1.3-1.3,2c-0.1,0.6,0.1,1.2,0,1.8c-0.1,0.3-0.2,0.6-0.2,0.9
		c0,0.7,0.5,1.2,1.1,1.6c0.8,0.5,1.7,0.9,2.6,1.2l2.6-10.4l0,0c2.4-4.4,4.4-9.1,5.9-13.8c0.4-1.6,1-3.1,1.7-4.6
		c0.5-0.8,0.9-1.7,1.3-2.6c0.4-1.1,0.4-2.3,0.6-3.5c0.2-1.4,0.6-2.7,1-4c0.5-1.4,1-2.8,1.1-4.3c0.1-2.1-0.6-4.4,0.2-6.3
		c0.3-0.7,0.8-1.4,1.3-2c1.1-1.4,2.2-2.8,3.3-4.2C369,694.9,368.1,694.9,367.2,694.9z"/>
	<g class="st10">
		<path d="M379.6,670.6l-0.5,0l-0.1,0C379.2,670.7,379.4,670.6,379.6,670.6z"/>
		<path d="M389.6,679.7c-0.1,0.9-0.3,1.7-0.6,2.6c-0.2,0.5-0.3,1-0.4,1.5c-0.1,0.5-0.1,1-0.2,1.5c-0.2,1.3-0.9,2.5-2,3.3
			c-0.2,0.1-0.3,0.2-0.5,0.2c-0.3,0-0.6-0.4-0.7-0.8c-0.7-2-0.5-4.5-1.8-6.1c-0.6-0.6-1.3-1.2-2.1-1.6c-0.3-0.2-0.7-0.3-1.1-0.4
			c-0.6,0-1.1,0.2-1.5,0.6c-0.9,0.6-2,1.1-3,1.3c-1.1,0.3-2.3,0-3.1-0.7c-0.6-0.5-1.1-1.3-1.7-1.6c-0.7-0.4-1.4-0.4-2-0.6
			c-0.8-0.4-1.5-1.1-1.7-2c0-0.1,0-0.1,0-0.2c-0.1,0.5-0.1,1,0,1.5c0.2,0.9,0.9,1.6,1.7,2c0.7,0.3,1.4,0.3,2,0.6
			c0.6,0.4,1.1,1.1,1.7,1.6c0.9,0.7,2,0.9,3.1,0.7c1.1-0.3,2.1-0.7,3-1.3c0.4-0.3,1-0.5,1.5-0.6c0.4,0.1,0.7,0.2,1.1,0.4
			c0.8,0.4,1.5,0.9,2.1,1.6c1.3,1.6,1.1,4.1,1.8,6.1c0.1,0.4,0.3,0.8,0.7,0.8c0.2,0,0.4-0.1,0.6-0.2c1.1-0.8,1.8-2,2-3.3
			c0.1-0.5,0.1-1,0.2-1.5c0.1-0.5,0.3-1,0.4-1.5c0.4-1.2,0.6-2.4,0.6-3.7C389.6,679.9,389.6,679.8,389.6,679.7z"/>
	</g>
	<path class="st11" d="M361.8,715l-0.3,4c0,0.5-1.1,13.5-8.8,28.7c-6.6,13-19.4,30-43.7,39.5c-1.9,0.7-3.9,1.4-5.9,2.1l-2.3-7.1
		c5.7-1.8,11.2-4.2,16.4-7.2c12.3-7.1,22-17.3,28.6-30.4c3.6-7,6.1-14.4,7.5-22.1h-27.6V715H361.8z"/>
	<path class="st12" d="M306.1,787.2c24.2-9.5,37.1-26.5,43.7-39.5c7.7-15.2,8.7-28.1,8.8-28.7l0.3-4h3.1l-0.3,4
		c0,0.5-1.1,13.5-8.8,28.7c-6.6,13-19.4,29.9-43.7,39.5c-1.9,0.7-3.9,1.4-5.9,2.1l-0.3-0.9C304.1,788,305.1,787.6,306.1,787.2z"/>
	<path class="st11" d="M257.6,782.2l-2.3,7.1c-2-0.7-4-1.3-5.9-2.1c-24.2-9.5-37.1-26.5-43.7-39.5c-7.7-15.2-8.7-28.1-8.8-28.7
		l-0.3-4h35.9v7.5h-27.6c1.4,7.7,4,15.1,7.5,22.1c6.7,13.1,16.3,23.3,28.6,30.4C246.4,778,251.9,780.4,257.6,782.2z"/>
	<path class="st12" d="M252.4,787.2c-24.2-9.5-37.1-26.5-43.7-39.5c-7.7-15.2-8.7-28.1-8.8-28.7l-0.3-4h-3.1l0.3,4
		c0,0.5,1.1,13.5,8.8,28.7c6.6,13,19.4,29.9,43.7,39.5c1.9,0.7,3.9,1.4,5.9,2.1l0.3-0.9C254.5,788,253.4,787.6,252.4,787.2z"/>
	<path class="st11" d="M320.7,851v40.3h-82.9V851l2.6-3.5c26.9-9.5,32.3-34.4,33.4-44.3c0.2-1.4,0.3-2.7,0.3-4.1h10.3
		c0,1.4,0.1,2.7,0.3,4.1c1.1,9.8,6.6,34.7,33.4,44.3L320.7,851z"/>
	<rect x="237.8" y="851" class="st8" width="82.9" height="5.1"/>
	<path class="st12" d="M244.8,847.5c26.9-9.5,32.3-34.4,33.4-44.3c0.2-1.4,0.3-2.7,0.3-4.1h-4.4c0,1.4-0.1,2.7-0.3,4.1
		c-1.1,9.8-6.6,34.7-33.4,44.3l-2.6,3.5v40.3h4.4V851L244.8,847.5z"/>
	<path class="st8" d="M225.2,715h7.4v7.5h-6.8C225.6,720,225.4,717.5,225.2,715z"/>
	<path class="st8" d="M257.6,782.2l-2.3,7.1c-2-0.7-4-1.3-5.9-2.1c-3.1-3.8-5.9-7.9-8.2-12.2C246.4,778,251.9,780.4,257.6,782.2z"/>
	<path class="st8" d="M300.9,782.2c5.7-1.8,11.2-4.2,16.4-7.2c-2.4,4.3-5.1,8.4-8.2,12.2c-1.9,0.7-3.9,1.4-5.9,2.1L300.9,782.2z"/>
	<path class="st8" d="M333.3,715c-0.2,2.5-0.4,5-0.7,7.5h-6.8V715H333.3z"/>
	<path class="st8" d="M284.7,803.2c-3.6,0.7-7.2,0.7-10.8,0c0.2-1.4,0.3-2.7,0.3-4.1h10.3C284.4,800.5,284.5,801.9,284.7,803.2z"/>
	<path class="st11" d="M226.1,702.6c0.2,55.4,23.9,100.2,53.2,100.2s53-44.8,53.2-100.2H226.1z"/>
	<path class="st12" d="M235.5,702.6h-9.5c0.2,55.4,23.9,100.2,53.2,100.2c1.6,0,3.2-0.1,4.7-0.4C257,797.9,235.7,755,235.5,702.6z"
		/>
	<rect x="251.1" y="866.4" class="st6" width="56.4" height="14.5"/>
	<polygon class="st12" points="253.7,868.4 307.5,868.4 307.5,866.4 251.1,866.4 251.1,880.9 253.7,880.9 	"/>
	
		<linearGradient id="SVGID_3_" gradientUnits="userSpaceOnUse" x1="140.7669" y1="5.9613" x2="238.4815" y2="5.9613" gradientTransform="matrix(1 0 0 -1 -42.035 792.42)">
		<stop  offset="0" style="stop-color:#808080;stop-opacity:0.25"/>
		<stop  offset="0.54" style="stop-color:#808080;stop-opacity:0.12"/>
		<stop  offset="1" style="stop-color:#808080;stop-opacity:0.1"/>
	</linearGradient>
	<path class="st13" d="M196,756.1c-1-0.3-7-5.1-7.4-7.2s3.2-22.1,3.2-22.1s-0.3,0-0.9-0.1v-0.3l0.7-26.2c0,0,3-17.6-2.7-16.6
		c-5.8,1-2.1,16.6-2.1,16.6s-0.7,7.9-1.1,10.3c-0.4,2.3-2.5,11.6-1.1,14.5c0.1,0.1,0.1,0.2,0.2,0.3l0,0c0,0,0.2,9.9-2.3,11.3
		c-2.4,1.3-3.4,7.8-3.4,8.4l-0.1-0.1l0,0c-0.7-0.4-1.3-1-1.8-1.7c-0.1-0.1-0.1-0.1-0.1-0.2c3.4-3.8,3.2-9.5-0.3-13.1
		c-0.8-0.8-1.7-1.5-2.7-2c0-0.8-0.2-1.7-0.6-2.4c-1.1-2.4-7.5-5.6-12-5.7c-2.1-0.1-3.8,0.5-4.4,2.1c-0.3,0.8-0.2,1.8-0.4,2.6
		c-0.3,1.8-1.4,3.1-2.8,4.2c-0.6-0.7-1.2-1.3-1.9-1.8c-1.5-1.1-4.4-4.8-4.4-4.8s-9.1-9.5-9.8-12.1c-0.7-2.6-9.8-18.2-11.8-15.5
		c-2,2.7,7,14.5,7,14.5s1.7,4.3,3,5.7c1.3,1.5,11.4,16.1,11.4,16.1l0.5,1c-2.1,1.1-4.1,2.6-4.8,4.8c-1,3.3,1.2,6.6,2.7,9.7
		c3,6,3.4,13.7-0.4,19.2c-3.4,4.8-9.4,7.1-15,9.2c2.7,2.1,6.1,3.2,9.5,3.2c-1.3,3.7-5.9,5-9.8,5.7c2,2,5,2.7,7.8,3.1
		c1.4,0.2,2.8,0.3,4.2,0.3h0.3l0.3,0c0.5,0,1-0.1,1.4-0.2c2-0.4,4-1.5,5-3.3c0.9-1.5,1.2-3.6,2.8-4.4c0.4-0.2,0.9-0.3,1.3-0.3h0
		c0.3,0,0.6,0,0.9,0l6.7,0.1c0.3,0,0.6,0,0.8,0c1.9,0,3.9-0.4,4.8-1.9c0.4-0.8,0.6-1.6,0.6-2.4c0.1-2.1,0-4.3,0.1-6.4
		c0.6,3.9,1.2,9.9-0.3,12.1c-1.1,1.7-2.5,3.2-4.1,4.5c-0.4,0.3-0.8,0.7-1.1,1.1c-0.2,0.2-0.3,0.2-0.3,0.2l-0.1,0.4
		c-0.5,0.8-0.9,1.6-1.1,2.5c-0.1,0.2-0.1,0.5-0.1,0.7c0.2,0.3-1.1,1.6-0.7,2.1c-3.1,3.7-3.7,9.2-3.7,9.2l-5.7,8.7
		c-2.9,7.7-7.3,8.5-7.3,8.5s-10.3-6.9-10.6-7.3c-0.3-0.3-4.2-2-4.2-2c-0.5-0.8-1.2-1.5-2-1.9c-1.4-0.6-1.5-2.6-1.5-2.6
		c-0.2-4.9-3-5.3-3-5.3c-2.3-0.2-4.1,0.2-5.5,1l-0.4,0c-2,0.2-4.4,0.3-7,0.5c-7.3,0.5-9.1,5.2-9.1,5.2s-0.9,1,0.3,2.1
		c1.2,1.1,8.8,0,9.1,0c-0.6,0.1-1.2,0-1.7-0.1c1.2,0,2.8-0.1,4.2-0.1h0.3c-0.1,0.7-0.1,1.5-0.1,2.2c0,1.4,3.9,2.3,3.9,2.3l11.8,10.6
		c0,0,7.4,3.3,12.2,8.1s8.9,0.7,8.9,0.7c5-1.2,19.4-18.7,19.5-18.7l0,0c0,0.5,0.3,17.5,0.9,20.9l0,0c0,0.2,0.1,0.3,0.1,0.5
		c0.7,1.5-0.2,5.5-0.6,7.2c-0.2,1.4-0.3,2.8-0.3,4.3c0,0-5.4,20.7-5,22.5c0.4,1.8-2.9,10.3-2.9,10.3v7l0.6,0
		c-0.1,0.1-0.1,0.2-0.2,0.4l0,0.1c0,0,3.6,0.8,6,0.6c2.4-0.2,6.6,1.9,6.6,1.9s1.4,0.7,5.8,0.9c4.3,0.3,4.3-1.9,4.3-1.9
		c-0.5-3-7.4-4-7.6-4c-0.6-0.3-1.1-0.7-1.5-1.1l-0.1-0.1c0-0.1,0.1-0.1,0.1-0.2c0.7-3-3.3-4.3-3.3-4.3V877
		c2.6-1.4,3.2-10.6,3.2-10.6s4-11.5,4.5-13.4c0.6-1.9,0-4.8,0-4.8l0.4-2.5c0,0,0.8-1.7,0.8-2c0.1-0.9,0.4-1.7,1-2.4
		c0.6-0.7-0.7-2.5-0.7-2.5l1.1-2.9v-3.2l2.6-11.7c0,0,2.8-13.6,1.8-18s1.1-6.7,1.1-6.7c-0.2,0.1-0.4,0.2-0.6,0.3
		c0.3-0.6,0.5-1.2,0.7-1.9l5.9,0.7v0.1h2.1c0,0-0.7-8.4-0.7-11.7c0-3.4,2.3-15.5,2.3-15.5S197,756.5,196,756.1z M169.6,746.4
		c0,0.3,0,0.7-0.1,1l-0.1,0.2l-0.2-0.2l-0.3,0.4l-0.1,0c-0.6-0.3-0.9-2-1.3-1.6l-0.1,0c-0.1-0.1-0.2-0.1-0.3,0l-0.1,0.1
		c0-0.1,0-0.3,0-0.4c0.8,0.2,1.6,0.3,2.5,0.3C169.7,746.3,169.6,746.3,169.6,746.4z M189.4,785.3h0.1l-0.2,0.6
		C189.3,785.6,189.4,785.5,189.4,785.3z M167.7,885l-0.8-0.2l0.4-0.1L167.7,885L167.7,885L167.7,885z M176,883.8
		c-0.3-0.1-0.5-0.3-0.8-0.5C175.3,883.4,175.6,883.5,176,883.8z"/>
	<polygon class="st14" points="192.3,777 187,790.8 188.3,790.8 183.3,794.8 192.3,796 	"/>
	<polygon class="st8" points="192.3,777 187,790.8 185.6,790.5 183.3,794.8 192.3,796 	"/>
	<polygon class="st14" points="184,785.9 192.3,785.9 195.4,760.6 184,760.6 	"/>
	<polygon class="st8" points="184,785.9 192.3,785.9 195.4,760.6 184,760.6 	"/>
	<path class="st15" d="M167.7,766.6l1.8-0.3l4.1-0.7c0,0,12.4-2.8,15-3c1.6-0.2,3.1-0.6,4.5-1.3c0.7-0.3,1.1-0.5,1.1-0.5l-4.5-8.2
		l-7-5.2c0,0-4.4-0.9-6.3-3.5c-0.8-1.1-1.1-2.6-0.6-3.9c1.1-3.5-6.8,3.4-6.8,3.4s0.1,1.6,0,3.8c0,0.4,0,0.8-0.1,1.3
		c0,0.3,0,0.6-0.1,0.9c-0.2,2.1-0.6,4.2-1.4,5.5C165.7,758,167.7,766.6,167.7,766.6z"/>
	<path class="st8" d="M169.2,747.3h0.2c0.3,0,0.6-0.7,0.9-0.7c2.5-0.2,4.7-0.8,6.3-2.5c-0.8-1.1-1.1-2.6-0.6-3.9
		c1.1-3.5-6.8,3.4-6.8,3.4S169.3,745.2,169.2,747.3z"/>
	<path class="st15" d="M159.5,737.4c0,5.3,4.3,9.6,9.6,9.6c0,0,0,0,0,0c0.3,0,0.6,0,0.9,0c5.3-0.5,9.2-5.2,8.6-10.5
		c-0.5-5.3-5.2-9.2-10.5-8.6C163.3,728.3,159.5,732.4,159.5,737.4L159.5,737.4z"/>
	<path class="st6" d="M156.6,722.7c-0.3,0.8-0.2,1.7-0.3,2.6c-0.5,3.1-3.6,5-6.5,6.3c-2.9,1.3-6.1,2.9-7,5.9c-1,3.3,1.2,6.5,2.7,9.6
		c3,6,3.4,13.6-0.4,19c-3.4,4.8-9.3,7.1-14.9,9.1c2.7,2.1,6,3.2,9.4,3.1c-1.3,3.7-5.8,5-9.7,5.6c2,2,5,2.7,7.7,3.1
		c2,0.3,4.1,0.5,6.2,0.1c2-0.4,4-1.5,5-3.3c0.9-1.5,1.2-3.6,2.8-4.4c0.7-0.3,1.5-0.4,2.3-0.3l6.6,0.1c2.1,0,4.5-0.2,5.5-1.9
		c0.4-0.7,0.6-1.6,0.6-2.4c0.3-4.3-0.5-8.9,1.2-12.8c0.5-1.2-2.9-3.1-2.5-4.3c1.2-4.3,1.6-7.8,1.5-12.3c0-3.5,2.3-6.5,4.2-9.5
		c1.9-2.9,3.4-6.7,2-9.8C171.1,722.8,158.6,717.6,156.6,722.7z"/>
	<path class="st15" d="M165.4,883.7l1.7,1.1l0.3,0.2l0,0l2,1.3l4.7,0.8l4.1-0.3c0,0,1.2-2.5-0.7-2.4c-0.6,0-1.2-0.2-1.7-0.5
		l-0.3-0.1l0,0c-0.3-0.1-0.5-0.3-0.8-0.5l0,0c-0.5-0.3-1.1-0.7-1.5-1c-0.6-0.5-1-0.8-1-0.8L165.4,883.7z"/>
	<path class="st8" d="M167.1,884.8l0.3,0.2l0,0l2,1.3l4.7,0.8l4.1-0.3c0,0,1.2-2.5-0.7-2.4c-0.6,0-1.2-0.2-1.7-0.5
		c0.3,0.3,0.6,0.5,0.6,0.8c0.1,0.6-3,1.8-3,1.8l-4.4-1.2c0,0-0.7-0.2-1.8-0.5L167.1,884.8L167.1,884.8z"/>
	<path class="st6" d="M159.6,885.9c0,0,3.6,0.8,6,0.6c2.4-0.2,6.6,1.9,6.6,1.9s1.4,0.7,5.7,0.9s4.3-1.9,4.3-1.9c-0.5-3-7.3-4-7.5-4
		l0,0l0,0l0,0c0.1,0,0.4,0.2,0.8,0.5l0,0c0.5,0.3,1,0.7,1,1.1c0.1,0.6-3,1.8-3,1.8l-4.4-1.2c0,0-0.7-0.2-1.8-0.5h-0.1
		c-1.5-0.4-3-0.7-4.6-0.9C160.8,883.8,159.8,885.4,159.6,885.9C159.6,885.8,159.6,885.9,159.6,885.9z"/>
	<path class="st15" d="M103.1,806.8l1.9,1.5c0,0,0.6,0,1.4-0.1h0.3c1.2,0,2.8-0.1,4.2-0.1c0.9,0,1.8,0,2.7,0.1
		c0.9,0.3,2.6-5.4,2.6-5.4l-1.9-0.4l-0.6-0.1l-0.4-0.1l-1.6-0.4l-4.7,0.5l-3.3,2.1L103.1,806.8z"/>
	<path class="st8" d="M103.1,806.8l1.9,1.5c0,0,0.6,0,1.4-0.1c-0.4-0.1-0.7-0.4-0.9-0.8c-1.2-3.4,4.9-4.9,4.9-4.9l2.8-0.1l0.6,0h0.4
		l-0.6-0.1l-0.4-0.1l-1.6-0.4l-4.7,0.5l-3.3,2.1L103.1,806.8z"/>
	<path class="st6" d="M99.4,808.4c1.2,1.1,8.7,0,9,0c-0.6,0.1-1.2,0-1.7-0.1c-0.6-0.1-1-0.4-1.3-0.9c-1.2-3.4,4.9-4.9,4.9-4.9
		l2.8-0.1l0.5,0l6.9-0.3l0.3-1.9c0,0-2.2,0.2-5.8,0.5c-2,0.2-4.4,0.3-7,0.5c-7.3,0.5-9,5.2-9,5.2S98.2,807.3,99.4,808.4z"/>
	<path class="st15" d="M184,725.9c0,0.1,0.1,0.2,0.2,0.3l1.7,2.5l4.4,0.4l0-1.7l0.7-26.1c0,0,3-17.5-2.7-16.5s-2.1,16.5-2.1,16.5
		s-0.7,7.8-1.1,10.2C184.6,713.7,182.6,723,184,725.9z"/>
	<path class="st15" d="M174.2,790.6l1.2,2.1l2.8,4.8c0,0,5,1.9,6.3,0.4c0.7-0.8,1.5-3.5,2-5.7c0.4-1.8,0.7-3.4,0.7-3.4L174.2,790.6z
		"/>
	<path class="st8" d="M174.2,790.6l1.2,2.1c0.1-0.1,0.1-0.1,0.2-0.2c1.4-1.8,7.6-0.4,10.9-0.3c0.4-1.8,0.7-3.4,0.7-3.4L174.2,790.6z
		"/>
	<path class="st8" d="M110.9,808.1c0.9,0,1.8,0,2.7,0.1c0.9,0.3,2.6-5.4,2.6-5.4l-2.5-0.6l6.9-0.3l0.3-1.9c0,0-2.2,0.2-5.8,0.5
		c-0.7,0.4-1.4,1-1.9,1.6l-0.1,0.1C111.6,804.1,111.1,806.4,110.9,808.1z"/>
	<path class="st8" d="M165.4,883.7l1.9,1.3c2.9-0.5,5.5-1.3,5.8-2.6c0,0,0,0,0-0.1c-0.6-0.5-1-0.8-1-0.8L165.4,883.7z"/>
	<path class="st8" d="M159.6,885.8c2.6-0.1,5.1-0.4,7.6-0.8c-1.5-0.4-3-0.7-4.6-1C160.8,883.8,159.8,885.4,159.6,885.8z"/>
	<path class="st6" d="M111.1,810.4c0,1.4,3.9,2.3,3.9,2.3l11.8,10.5c0,0,7.4,3.3,12.1,8.1s8.9,0.7,8.9,0.7
		c5-1.2,19.3-18.6,19.3-18.6s0.3,19.8,1,21.3c0.7,1.5-0.2,5.4-0.6,7.1c-0.2,1.4-0.3,2.8-0.3,4.3c0,0-5.4,20.6-4.9,22.4
		c0.4,1.8-2.9,10.2-2.9,10.2v7c0,0,13.2-0.5,13.9-3.5c0.7-3-3.3-4.3-3.3-4.3V877c2.6-1.3,3.1-10.6,3.1-10.6s3.9-11.4,4.5-13.3
		c0.6-1.9,0-4.8,0-4.8l0.4-2.5c0,0,0.8-1.7,0.8-2c0.1-0.9,0.4-1.7,1-2.4c0.6-0.7-0.7-2.5-0.7-2.5l1.1-2.9v-3.2l2.6-11.6
		c0,0,2.7-13.5,1.8-17.9c-1-4.4,1.1-6.7,1.1-6.7c-4.5,2.4-6.8-2.9-7.5-5.1c-0.2-0.6-0.3-1-0.3-1s-6.2-2.3-11.9-1.7
		c-1.2,0.1-2.3,0.3-3.4,0.7c-6.4,2.3-7.4,11.8-7.4,11.8l-5.7,8.6c-2.9,7.7-7.3,8.5-7.3,8.5s-10.3-6.9-10.6-7.2c-0.3-0.3-4.2-2-4.2-2
		c-0.5-0.8-1.2-1.5-2-1.8c-1.3-0.6-1.5-2.6-1.5-2.6c-0.2-4.9-3-5.3-3-5.3C111,798.7,111.1,809,111.1,810.4z"/>
	<rect x="168.1" y="764.2" class="st14" width="6" height="18.8"/>
	<rect x="168.1" y="764.2" class="st8" width="6" height="18.8"/>
	<path class="st8" d="M184,725.8C184,725.8,184,725.8,184,725.8c0,0.1,0.1,0.2,0.2,0.3l1.7,2.5l4.4,0.4l0-1.7
		C188.9,727.2,185.8,726.8,184,725.8z"/>
	<path class="st14" d="M184.1,726.2c0,0,0.2,9.9-2.2,11.2c-2.5,1.3-3.4,8.4-3.4,8.4s7.5,4.9,9.1,7.1c1.7,2.2,5.5,7.3,4.7,8.5
		c-0.8,1.2,1.9,6.8,1.9,6.8s-4.9,10.1-3.8,13.9c1.1,3.8,1.2,13.9,1.2,13.9h2.1c0,0-0.7-8.3-0.7-11.7c0-3.4,2.2-15.4,2.2-15.4
		s1-11.8,0-12.1s-6.9-5-7.4-7.2c-0.4-2.1,3.1-22,3.1-22S186.5,727.5,184.1,726.2z"/>
	<path class="st8" d="M168,762.5c0.2,1.4,0.7,2.7,1.5,3.8l4.1-0.7c0,0,12.4-2.8,15-3c1.6-0.2,3.1-0.6,4.5-1.3
		c-1-3.5-2.9-6.6-5.6-9.1l-1.6-1.5c-2.3-2.2-5-3.9-8-5.1c0.2,0.2,13.2,11.3,10.4,13.5s-10.6-3.1-10.6-3.1l-8.7-7.5l-0.3-0.3
		l-0.5,0.8c0.3,0.1,0.5,0.2,0.8,0.4c3,1.6,5.2,4.4,6.2,7.6C177,763,168,762.5,168,762.5z"/>
	<path class="st16" d="M165.3,790.5c0,0,8.3,4.6,10.3,2c0.4-0.6,1.4-0.8,2.5-0.9c-0.2-0.6-0.3-1-0.3-1s-6.2-2.3-11.9-1.7
		C165.5,789.9,165.3,790.5,165.3,790.5z"/>
	<path class="st17" d="M169.1,748.2l9.1,7.8c0,0,7.7,5.3,10.6,3.1c2.9-2.2-10.4-13.5-10.4-13.5l0,0c2.9,1.2,5.6,2.9,8,5.1l1.6,1.5
		c4.2,3.8,5.1,3.8,5.2,9.5c0,1.4-0.4,3.4-0.8,3.8c-1.3,1.3-2.3,10.9-2.1,12c0.2,1.1-2.5,10.8-1.6,13.5c0.9,2.7-11-1.3-13,1.2
		s-10.3-2-10.3-2s4.6-11.8,5.7-12.6c1.1-0.8,2.5-6.8,0-9.6c-2.5-2.8-2.7-5.5-2.7-5.5s9,0.6,7.2-5.5c-1-3.5-3.5-6.5-6.9-8
		L169.1,748.2z"/>
	<path class="st8" d="M181.2,768c0,0-3.5,6.6-8,8.3c-0.1,0.1-0.3,0.1-0.4,0.1C168.1,777.8,181.6,770,181.2,768z"/>
	<path class="st15" d="M132.6,710c0,0,1.7,4.3,3,5.7c1.3,1.5,11.3,16,11.3,16l0.8,1.8l0.7,1.5l6.4-0.7l0.4-2.6l-0.2-0.3
		c-0.6-0.8-2.4-2.8-3.6-3.7c-1.5-1.1-4.4-4.8-4.4-4.8s-9.1-9.4-9.7-12s-9.8-18-11.8-15.4S132.6,710,132.6,710z"/>
	<g class="st10">
		<path d="M151.1,779.3c-0.8-0.1-1.5,0-2.3,0.3c-1.6,0.8-1.9,2.8-2.8,4.4c-1,1.8-3,2.9-5,3.3c-0.4,0.1-0.8,0.1-1.2,0.2
			c1.3,0.1,2.6,0.1,3.9-0.2c2-0.4,4-1.5,5-3.3c0.9-1.5,1.2-3.6,2.8-4.4c0.4-0.2,0.9-0.3,1.3-0.3L151.1,779.3z"/>
		<path d="M166.7,745.6c0-3.5,2.3-6.5,4.1-9.5c1.9-2.9,3.4-6.7,2-9.8c-1.3-2.7-8.9-6.3-13.3-5.6c4.3,0.6,9.6,3.4,10.7,5.6
			c1.5,3.2-0.1,6.9-2,9.8c-1.9,2.9-4.2,6-4.1,9.5c0,4.5-0.3,7.9-1.5,12.3c-0.4,1.3,3.1,3.1,2.5,4.3c-1.8,4-0.9,8.5-1.2,12.8
			c0,0.8-0.2,1.7-0.6,2.4c-0.9,1.4-2.7,1.8-4.4,1.9h1.5c2,0,4.5-0.2,5.5-1.9c0.4-0.7,0.6-1.6,0.6-2.4c0.3-4.3-0.5-8.9,1.2-12.8
			c0.5-1.2-2.9-3.1-2.5-4.3C166.4,753.5,166.7,750.1,166.7,745.6z"/>
	</g>
	<path class="st8" d="M147.8,733.5l0.7,1.5l6.4-0.7l0.4-2.6l-0.2-0.3C154.4,731.8,149.3,734.3,147.8,733.5z"/>
	<path class="st8" d="M171.4,750.4c0,0-1.6-2.5-2.5-1.8c-0.9,0.7-1.2-2-1.8-1.6c-0.5,0.4-2,1.7-2.6,0c-0.5-1.4-5.8-10.2-8-13.7
		c-0.6-0.9-0.9-1.5-0.9-1.5s-6,3-7.5,2v2.1l1.2,0.1l6.6,12.3c0,0,2.1,3.3,1.9,4.5s2.7,6.2,3.1,6.5c0.4,0.3,5.3,5.9,5.3,5.9
		s2.5,12.1,0.3,15.5c-2.1,3.4-5.8,5.8-5.8,5.8s-1.1,3.2-0.9,3.6c0.2,0.3-1.3,1.8-0.6,2.2s1.6,3.6,1.6,3.6s3.1-5,4.8-5.8
		s3.9-11.1,3.9-11.1s0.6-6.1,0.7-10S170,750.4,171.4,750.4z"/>
	<path class="st14" d="M171,750.4c0,0-1.6-2.5-2.5-1.8c-0.9,0.7-1.2-2-1.8-1.6s-2,1.7-2.6,0c-0.5-1.4-5.8-10.2-8-13.7l-0.9-1.5
		c0,0-6,3-7.5,2v2.1l1.2,0.1l6.6,12.3c0,0,2.1,3.3,1.9,4.5c-0.1,1.2,2.6,6.2,3.1,6.5c0.5,0.3,5.3,5.9,5.3,5.9s2.5,12.1,0.3,15.5
		c-1.1,1.7-2.5,3.2-4.1,4.5c-1.3,1.1-2.2,2.6-2.6,4.2c-0.1,0.2-0.1,0.5-0.1,0.7c0.2,0.3-1.3,1.8-0.6,2.2c0.7,0.4,1.6,3.6,1.6,3.6
		s3.1-5,4.8-5.8c1.7-0.8,3.9-11.1,3.9-11.1s0.6-6.1,0.7-10C169.9,765.1,169.7,750.4,171,750.4z"/>
	<path class="st8" d="M155.7,801.3c0,0,4.7,0.9,6.6,2.2c1.9,1.4-7.2-2.1-7.2-2.1L155.7,801.3z"/>
	<path class="st8" d="M167,813.3c0,0,4.9,4.1,4,7.8c-0.9,3.7-3.1,13-3.1,13L167,813.3z"/>
	<path class="st8" d="M124,805.4c0,0-6.9,0.8-6.5,1.7s6.5-0.8,6.5-0.8V805.4z"/>
	<path class="st8" d="M177.2,839.4c0,0,0.4,0.6-2.1,0c-2.6-0.6-0.7-2.3-0.7-2.3L177.2,839.4z"/>
	<path class="st8" d="M176.3,847.2c0,0-3.5,0.6-5.4,0C169,846.6,176.3,847.2,176.3,847.2z"/>
	<path class="st8" d="M169.1,877.4c0,0-0.6-0.7-3.7,0.6c-3.1,1.2-4.3,1.3-5.2,0.9C159.3,878.5,169.1,877.4,169.1,877.4z"/>
	<path class="st8" d="M172.5,804.5l-4.4,6.1C168.1,810.5,170.5,805.2,172.5,804.5z"/>
	<path class="st8" d="M164,748.6c0,0-0.2,2-3,2.8c-2.8,0.8-3.4,1.4-3.4,1.4"/>
	<path class="st8" d="M156.7,733.9c0,0-3.7,2.6-7.6,2.1"/>
	<path class="st8" d="M159.5,790.4c0,0,1.1,0.7,3.7-2.3"/>
	<path class="st8" d="M186.6,758.8c0.1-0.5-0.3-1.1-0.6-1.5l-0.7-0.9c-0.1-0.2-0.3-0.3-0.5-0.5c-0.4-0.3-1-0.4-1.5-0.7"/>
	<path class="st3" d="M422.6,605.6c0,0-37-2.2-32.7,23.7c0,0-0.9,4.6,3.3,6.7c0,0,0.1-1.9,3.8-1.3c1.3,0.2,2.7,0.3,4,0.2
		c1.8-0.1,3.5-0.8,4.9-2l0,0c0,0,10.4-4.3,14.5-21.3c0,0,3-3.7,2.9-4.7l-6.2,2.7c0,0,2.1,4.5,0.4,8.3c0,0-0.2-8.1-1.4-7.9
		c-0.2,0-3.2,1.6-3.2,1.6s3.7,7.8,0.9,13.6c0,0,1.1-9.7-2-13l-4.4,2.6c0,0,4.3,8.1,1.4,14.7c0,0,0.7-10.1-2.3-14.1l-4,3.1
		c0,0,4,8,1.6,13.5c0,0-0.3-11.8-2.4-12.7c0,0-3.5,3.1-4,4.3c0,0,2.8,5.8,1,8.9c0,0-1.1-7.9-1.9-7.9c0,0-3.5,5.2-3.8,8.8
		c0,0,0.1-5.3,3-9.3c0,0-3.4,0.6-5.3,2.8c0,0,0.5-3.7,6.2-4c0,0,2.9-4,3.6-4.2c0,0-5.6-0.5-9,1c0,0,3-3.5,10-1.9l3.9-3.2
		c0,0-7.4-1-10.5,0.1c0,0,3.6-3.1,11.6-0.8l4.3-2.6c0,0-6.3-1.4-10-0.9c0,0,4-2.1,11.3,0.2l3.1-1.4c0,0-4.6-0.9-6-1.1
		c-1.3-0.1-1.4-0.5-1.4-0.5c2.9-0.5,5.9-0.2,8.7,1C416.2,608.4,422.7,606,422.6,605.6z"/>
	<path class="st3" d="M377,612.2c0,0-16.7-1-14.7,10.7c0,0-0.4,2.1,1.5,3c0,0,0-0.9,1.7-0.6c0.6,0.1,1.2,0.1,1.8,0.1
		c0.8-0.1,1.6-0.4,2.2-0.9l0,0c0,0,4.7-1.9,6.5-9.6c0,0,1.3-1.7,1.3-2.1l-2.8,1.2c0,0,1,2,0.2,3.7c0,0-0.1-3.7-0.6-3.6
		c-0.1,0-1.5,0.7-1.5,0.7s1.7,3.5,0.4,6.1c0,0,0.5-4.4-0.9-5.9l-2,1.2c0,0,1.9,3.7,0.6,6.7c0,0,0.3-4.6-1-6.4l-1.8,1.4
		c0,0,1.8,3.6,0.7,6.1c0,0-0.1-5.3-1.1-5.7c0,0-1.6,1.4-1.8,2c0,0,1.2,2.6,0.5,4c0,0-0.5-3.6-0.9-3.6c0,0-1.6,2.4-1.7,4
		c0.1-1.5,0.5-2.9,1.4-4.2c-0.9,0.2-1.7,0.6-2.4,1.2c0,0,0.2-1.7,2.8-1.8c0,0,1.3-1.8,1.6-1.9c0,0-2.5-0.2-4.1,0.5
		c0,0,1.3-1.6,4.5-0.9l1.8-1.5c0,0-3.3-0.4-4.7,0c0,0,1.6-1.4,5.2-0.4l1.9-1.2c0,0-2.8-0.6-4.5-0.4c0,0,1.8-1,5.1,0.1l1.4-0.6
		c0,0-2.1-0.4-2.7-0.5c-0.6-0.1-0.6-0.2-0.6-0.2c1.3-0.2,2.7-0.1,3.9,0.4C374,613.4,377,612.3,377,612.2z"/>
	<ellipse class="st11" cx="435.3" cy="888.6" rx="17.7" ry="3"/>
	<path class="st11" d="M442.6,883.7c0.8-0.7,1.4-1.5,1.7-2.5c0.2-1-0.2-2.2-1.2-2.6c-1.1-0.4-2.2,0.3-3.1,1.1
		c-0.9,0.8-1.9,1.6-3,1.5c1.2-1.1,1.7-2.7,1.4-4.3c-0.1-0.3-0.2-0.6-0.4-0.9c-0.6-0.6-1.7-0.4-2.4,0.1c-2.3,1.6-2.9,4.7-2.9,7.5
		c-0.2-1,0-2.1,0-3.1c0-1-0.3-2.2-1.2-2.7c-0.5-0.3-1.1-0.4-1.8-0.4c-1,0-2.2,0.1-2.9,0.8c-0.9,0.9-0.6,2.5,0.1,3.5
		c0.8,1,1.9,1.7,3,2.4c0.9,0.5,1.6,1.2,2.1,2c0.1,0.1,0.1,0.2,0.2,0.4h6.4C440.1,885.7,441.4,884.8,442.6,883.7z"/>
</g>
<g>
	<title>settings</title>
	<path class="st18" d="M273.1,25.6c-9.7,2.5-18.2,9.2-26.6,18c5.9,5.4,6.3,14.5,0.9,20.4c-5.2,5.7-13.9,6.3-19.9,1.4
		c-9.9,11.9-20.8,24.4-34,34.8c-33.7,26.4,35.6,74.6,79.6,74.6s79.6-33.4,79.6-74.6S315.5,14.6,273.1,25.6z"/>
	<ellipse class="st6" cx="285.5" cy="170.5" rx="87.9" ry="5.8"/>
	<ellipse class="st8" cx="288" cy="170" rx="30.3" ry="3.2"/>
	<path class="st11" d="M362.2,164.1c0,5.5-3.3,7.5-7.4,7.5c-0.1,0-0.2,0-0.3,0c-0.2,0-0.4,0-0.6,0c-3.7-0.3-6.5-2.3-6.5-7.5
		c0-5.3,6.8-12.1,7.3-12.6l0,0c0,0,0,0,0,0S362.2,158.5,362.2,164.1z"/>
	<path class="st6" d="M354.6,170.7l2.7-3.8l-2.7,4.2l0,0.4c-0.2,0-0.4,0-0.6,0l0.3-5.5l0,0l0,0l0-0.5l-2.7-4.2l2.7,3.8l0,0.1
		l0.2-4.2l-2.3-4.3l2.3,3.6l0.2-8.7l0,0v0l0,6.9l2.3-2.7l-2.3,3.3l-0.1,3.8l2.2-3.6l-2.2,4.2l0,2.1l3.1-5l-3.1,5.7L354.6,170.7z"/>
	<circle class="st19" cx="274.9" cy="60.5" r="9"/>
	<polygon class="st20" points="295.8,140.4 300.6,159.9 305.4,159.1 300.6,136.8 	"/>
	<path class="st19" d="M302.3,158.7c0,0-2.8,0.9-2.4,1.6c0.4,0.6,0.4,4.5-0.9,5.9s-4.4,5.8-0.8,5.9s7.2-2.2,7.2-2.2v-4.1l0.6,3.7
		h0.6v-4.2c0,0,1.6-2.7,0.6-4.2c-0.9-1.6-1.5-2.9-2.7-2.8C303.4,158.5,302.3,158.7,302.3,158.7z"/>
	<polygon class="st20" points="276.7,157 276,161.2 281.4,161.2 281.4,157 	"/>
	<path class="st19" d="M277.2,160.2c0,0-1.6-0.2-2,2s-4.7,5.3-6.2,5.8c-1.6,0.5-1.6,2,0.5,2.3c2,0.3,7.2,0.5,8.4-1.2
		c0.8-1.1,1.8-2.1,3-3l-0.8,4.4h1.4c0,0,1.2-4.2,2.5-5.6c1.2-1.4-2.5-4.7-3.1-4.7L277.2,160.2z"/>
	<path class="st20" d="M269.6,93.2c0,0-1.1,3-3,3.4c-1.9,0.5-15.8,3.7-15.8,3.7s-12.2,0.3-8.4,3c3.7,2.7,9.8,0,9.8,0
		s17.8-2.2,19.2-4.5c0.9-1.6,1.7-3.3,2.3-5L269.6,93.2z"/>
	<path class="st19" d="M275.5,80c0,0-8.9,14.5-7.8,14.8c1.1,0.3,11.2,3.6,11.7,2.3s0.5-7,0.5-7L275.5,80z"/>
	<path class="st8" d="M275.5,80c0,0-8.9,14.5-7.8,14.8c1.1,0.3,11.2,3.6,11.7,2.3s0.5-7,0.5-7L275.5,80z"/>
	<path class="st20" d="M298.6,76.6l20.1,10.3c0,0,11.4,3,8.9,5.3c-2.5,2.3-10.6-2-10.6-2L294.7,80L298.6,76.6z"/>
	<path class="st20" d="M272.8,68.5c0,0,3.9,5.9,3.6,7.3c0,0,0.3,0.9-0.2,1.6s-0.3,4.4-0.3,4.4l1.6,2.2l2-6.7l0.9-7.2
		c0,0-2.1-2.9-1.8-4.3C279,64.4,272.8,68.5,272.8,68.5z"/>
	<path class="st19" d="M285.2,102.2c0,0-8.7,23.4-8.7,33.7c0,10.3-3.3,22-0.8,23.1c2.5,1.1,15.1,1.2,15.4,0s-1.6-52-2.5-54
		S285.2,102.2,285.2,102.2z"/>
	<path class="st8" d="M285.2,102.2c0,0-8.7,23.4-8.7,33.7c0,10.3-3.3,22-0.8,23.1c2.5,1.1,15.1,1.2,15.4,0s-1.6-52-2.5-54
		S285.2,102.2,285.2,102.2z"/>
	<circle class="st20" cx="274.9" cy="63.7" r="5.8"/>
	<path class="st19" d="M276.6,81.1l-0.4-3.5c0,0-1.3,1.8-1.3,3.2c0,1.4-0.8,6.4,2.5,9.5c3.3,3.1,3.9,3.7,4.1,4.4
		c0.2,0.6,0.9,0.6,0.9,0.6l4.5,18.3c0,0,1.4,48.5,3.6,49.1c2.2,0.6,8.9,0,9.4-0.8c0.5-0.8-0.8-21.5-0.8-21.5s3.4,18.4,4.7,18.4
		s2-2.7,1.7-2.8c-0.3-0.2-2.2-12.2-3-15.9c-0.8-3.7-0.5-35.4-0.5-35.4s2.5-4.1-6.1-12c0,0-5.5-15.9-5.8-15.9s-6.4-8.6-6.4-8.6
		s-3.4,0-4.1,2C279.1,72.2,276.6,81.1,276.6,81.1z"/>
	<path class="st19" d="M281.9,69.4l1.9-1.2c0,0,7.8,4.7,13.3,5s5.3,3.4,3.1,5.6c-2.2,2.2-10.8,9.7-11.1,7.8S281.9,69.4,281.9,69.4z"
		/>
	<ellipse class="st19" cx="274.9" cy="58" rx="6.2" ry="3.7"/>
	<circle class="st19" cx="275.6" cy="51.4" r="3.7"/>
	<path class="st19" d="M270.6,49.4c0-1.9,1.4-3.5,3.4-3.7c-0.1,0-0.3,0-0.4,0c-2.1,0-3.7,1.7-3.7,3.7c0,2.1,1.7,3.7,3.7,3.7
		c0.1,0,0.3,0,0.4,0C272,52.9,270.6,51.3,270.6,49.4z"/>
	
		<rect x="246.8" y="95.3" transform="matrix(0.9861 -0.1659 0.1659 0.9861 -15.8586 49.5337)" class="st6" width="83.6" height="48.8"/>
	<path class="st21" d="M314.2,104.6l-54.8,9.1c-0.6,0.1-1.2-0.3-1.3-0.9c-0.1-0.6,0.3-1.2,0.9-1.3c0,0,0,0,0,0l54.8-9.1
		c0.6-0.1,1.2,0.3,1.3,0.9C315.2,103.9,314.8,104.5,314.2,104.6L314.2,104.6z"/>
	<circle class="st11" cx="299.1" cy="105.9" r="4.7"/>
	<path class="st21" d="M316.2,116.8l-54.8,9.1c-0.6,0.1-1.2-0.3-1.3-0.9c-0.1-0.6,0.3-1.2,0.9-1.3c0,0,0,0,0,0l54.8-9.1
		c0.6-0.1,1.2,0.3,1.3,0.9C317.2,116.1,316.8,116.7,316.2,116.8z"/>
	<circle class="st11" cx="276.3" cy="122.3" r="4.7"/>
	<path class="st21" d="M318.3,129l-54.8,9.1c-0.6,0.1-1.2-0.3-1.3-0.9s0.3-1.2,0.9-1.3l54.8-9.1c0.6-0.1,1.2,0.3,1.3,0.9
		C319.3,128.3,318.9,128.9,318.3,129C318.3,129,318.3,129,318.3,129z"/>
	<circle class="st11" cx="295.4" cy="131.7" r="4.7"/>
	<circle class="st22" cx="236.8" cy="54.3" r="10.3"/>
</g>
</svg>
