<?xml version="1.0" encoding="utf-8"?>
<!-- Generator: Adobe Illustrator 23.0.2, SVG Export Plug-In . SVG Version: 6.00 Build 0)  -->
<svg version="1.1" id="Calque_1" xmlns="http://www.w3.org/2000/svg" xmlns:xlink="http://www.w3.org/1999/xlink" x="0px" y="0px"
	 viewBox="0 0 566.9 890.1" style="enable-background:new 0 0 566.9 890.1;" xml:space="preserve">
<style type="text/css">
	.st0{fill:#2498A0;}
	.st1{fill:#337A7C;}
	.st2{fill:none;}
	.st3{fill:#FFFFFF;}
	.st4{font-family:'Bungee-Regular';}
	.st5{font-size:41px;}
	.st6{opacity:0.1;fill:#FFFFFF;enable-background:new    ;}
	.st7{fill:#F7BCC6;}
	.st8{fill:url(#SVGID_1_);}
	.st9{fill:url(#SVGID_2_);}
	.st10{fill:url(#SVGID_3_);}
	.st11{fill:url(#SVGID_4_);}
	.st12{fill:url(#SVGID_5_);}
	.st13{fill:#DEE4EE;}
	.st14{opacity:5.000000e-02;fill:#020203;enable-background:new    ;}
	.st15{opacity:0.5;fill:#EFF4F8;enable-background:new    ;}
	.st16{fill:#020203;}
	.st17{fill:url(#SVGID_6_);}
	.st18{fill:#555562;}
	.st19{fill:#F1F1F4;}
	.st20{fill:url(#SVGID_7_);}
	.st21{fill:#57B785;}
	.st22{fill:url(#SVGID_8_);}
	.st23{fill:#EA5488;}
	.st24{fill:url(#SVGID_9_);}
	.st25{font-size:33px;}
</style>
<rect class="st0" width="566.9" height="890.1"/>
<rect x="75" y="247.3" class="st1" width="427.4" height="4.2"/>
<rect x="65.8" y="293.7" class="st2" width="439.2" height="99.7"/>
<text transform="matrix(1 0 0 1 147.0469 318.2055)" class="st3 st4 st5">Suivez les </text>
<text transform="matrix(1 0 0 1 112.4424 367.4055)" class="st3 st4 st5">instructions</text>
<rect x="75" y="409.2" class="st1" width="427.4" height="4.2"/>
<rect x="68.2" y="512" class="st2" width="439.2" height="394.8"/>
<g>
	<title>accept_terms</title>
	<path class="st6" d="M170.3,129.4c0.7,7.4,4.8,14,7.4,21.1c3.6,10,3.9,20.8,1,31c-0.6,2.1-1.4,4.2-1.4,6.3
		c0,7.4,8.4,12.3,16.1,15.5c19.4,8.2,39.7,14.4,60.4,18.3c6.8,1.3,15.3,1.8,19.5-3c2.1-2.3,2.6-5.3,4.1-7.9
		c3.9-6.6,13.2-9.2,21.7-10.7c10.2-1.8,20.4-3,30.7-3.5c10.4-0.6,22.1-1.1,29-7.9c4.4-4.3,5.6-10.3,5.8-15.9
		c0.6-18.5-8.3-38.5,3.1-54.5c4.8-6.7,12.5-11.6,17.2-18.4c6.8-9.8,6.2-22.2,1.6-32.6s-12.8-19.3-20.9-27.9
		c-2.7-2.9-5.5-5.8-9.5-7.2c-4.2-1.4-8.9-0.7-13.4-0.1c-20.4,3-41.5,6.2-58.6,16.4c-8.5,5.1-15.6,11.7-23.1,17.7
		c-16.3,13.1-35.3,25.1-56.9,30.3C186.5,100.6,168.7,111.9,170.3,129.4z"/>
	<path class="st7" d="M236.9,76.9c0,0-14.1-2.5,0,16.6V76.9z"/>
	
		<linearGradient id="SVGID_1_" gradientUnits="userSpaceOnUse" x1="450.5168" y1="1347.85" x2="450.5168" y2="1480.8347" gradientTransform="matrix(1 0 0 -1 -161.3354 1560.0269)">
		<stop  offset="0" style="stop-color:#808181;stop-opacity:0.25"/>
		<stop  offset="0.54" style="stop-color:#808181;stop-opacity:0.12"/>
		<stop  offset="1" style="stop-color:#808181;stop-opacity:0.1"/>
	</linearGradient>
	<path class="st8" d="M333.6,173.5c0,0-2-2.3-7.7-0.9c-2.8-2.6-6.2-6.4-6.3-9.2c-1.1,0.4-2.3,0.8-3.4,1.3
		c-4.8-5.3-10.9-13.8-10.6-21.9c0.4-13.3-8.7-36.2-8.7-36.2s0.8-9.4-0.7-17.1c-1-5.2-2.9-9.7-6.8-10.1c-0.6-0.1-1.2,0-1.8,0.2
		c-7.1,2.4-2.7,25.1-2.7,25.1l-6.1,19l-36,19.2c0,0,21.8,28.7,32.4,29.7c0,0,7.8,8.2,13.4,15.4c-2,2.7-3,4.4-3,4.4l5.4,7.8
		c-2.2,3-5.4,8.9,1.5,11.6c9.5,3.8,30.5-13.5,30.5-13.5S341.5,186.1,333.6,173.5z"/>
	
		<linearGradient id="SVGID_2_" gradientUnits="userSpaceOnUse" x1="394.6354" y1="1466.3269" x2="394.6354" y2="1483.2954" gradientTransform="matrix(1 0 0 -1 -161.3354 1560.0269)">
		<stop  offset="0" style="stop-color:#808181;stop-opacity:0.25"/>
		<stop  offset="0.54" style="stop-color:#808181;stop-opacity:0.12"/>
		<stop  offset="1" style="stop-color:#808181;stop-opacity:0.1"/>
	</linearGradient>
	<path class="st9" d="M236.5,76.8c0,0-14.4-2.5,0,16.9V76.8z"/>
	
		<linearGradient id="SVGID_3_" gradientUnits="userSpaceOnUse" x1="394.4987" y1="1453.4999" x2="394.4987" y2="1465.1588" gradientTransform="matrix(1 0 0 -1 -161.3354 1560.0269)">
		<stop  offset="0" style="stop-color:#808181;stop-opacity:0.25"/>
		<stop  offset="0.54" style="stop-color:#808181;stop-opacity:0.12"/>
		<stop  offset="1" style="stop-color:#808181;stop-opacity:0.1"/>
	</linearGradient>
	<path class="st10" d="M233.2,94.9c0,0-5.3,0-5.2,6.5c0,2.2,1.5,4.2,3.6,4.9c1.1,0.4,2.3,0.3,3.4-0.2c2.9-1.4,4.2-5,2.7-7.9
		c-0.3-0.5-0.6-1-1-1.4C235.8,95.7,234.5,95,233.2,94.9z"/>
	
		<linearGradient id="SVGID_4_" gradientUnits="userSpaceOnUse" x1="395.3888" y1="1441.0707" x2="395.3888" y2="1452.3016" gradientTransform="matrix(1 0 0 -1 -161.3354 1560.0269)">
		<stop  offset="0" style="stop-color:#808181;stop-opacity:0.25"/>
		<stop  offset="0.54" style="stop-color:#808181;stop-opacity:0.12"/>
		<stop  offset="1" style="stop-color:#808181;stop-opacity:0.1"/>
	</linearGradient>
	<path class="st11" d="M235.7,108.1c-0.5-0.2-1-0.4-1.5-0.4c0,0-5.1,1.3-4.2,7.4c0,0,0.4,4.4,4.9,3.8c3-0.4,3.4-4.4,3.3-6.9
		C238.2,110.3,237.2,108.8,235.7,108.1z"/>
	
		<linearGradient id="SVGID_5_" gradientUnits="userSpaceOnUse" x1="395.1898" y1="1421.5269" x2="395.1898" y2="1436.0706" gradientTransform="matrix(1 0 0 -1 -161.3354 1560.0269)">
		<stop  offset="0" style="stop-color:#808181;stop-opacity:0.25"/>
		<stop  offset="0.54" style="stop-color:#808181;stop-opacity:0.12"/>
		<stop  offset="1" style="stop-color:#808181;stop-opacity:0.1"/>
	</linearGradient>
	<path class="st12" d="M235.9,124.3c-0.4-0.2-0.8-0.3-1.3-0.4c-0.6,0.3-1.1,0.7-1.6,1.2c-0.8,0.7-1.6,1.5-2.2,2.4
		c-1.9,2.8-2.5,6.9,4.6,11V133c0.9-0.8,1.6-1.8,2.2-2.9C238.8,128,238,125.4,235.9,124.3z"/>
	<path class="st13" d="M285.1,190.4c0,0,13.1-21.8,33.2-28.4l-1,11.8l-16.7,16.6L285.1,190.4z"/>
	<path class="st14" d="M285.1,190.4c0,0,13.1-21.8,33.2-28.4l-1,11.8l-16.7,16.6L285.1,190.4z"/>
	<path class="st3" d="M291.9,196.2c0,0-9.3,9.5,0,13.3c9.3,3.7,29.8-13.3,29.8-13.3s17.8-11.8,10.2-24.2
		C331.9,172,323.2,162,291.9,196.2z"/>
	<path class="st7" d="M320.3,168.6c0,0-27.1,31.5-26.7,26.9c0.1-1.3-1.4-4-3.6-7c-5.4-7.5-15-17.6-15-17.6
		c-10.4-1-31.7-29.2-31.7-29.2l35.2-18.9l6-18.6c0,0-4.3-22.3,2.6-24.7c0.6-0.2,1.1-0.2,1.7-0.2c0.3,0,0.5,0.1,0.8,0.1
		c3.3,0.8,5,4.9,5.8,9.7v0.1c1.4,7.6,0.6,16.8,0.6,16.8s8.9,22.6,8.5,35.6c-0.3,8.7,6.9,17.9,11.6,22.9
		C318.6,167.1,320.3,168.6,320.3,168.6z"/>
	<path class="st14" d="M282.8,151.9c0,0,0.4-19.7-3.1-24.7S247.8,143,247.8,143S277.2,146.5,282.8,151.9z"/>
	<path class="st14" d="M291.9,158.9c0,0,12.8-7.6,12.6-19.7"/>
	<path class="st14" d="M285.1,166.2c0,0-3.5,5-10.2,4.8"/>
	<path class="st14" d="M320.3,168.6c0,0-27.1,31.5-26.7,26.9c0.1-1.3-1.4-4-3.6-7c15-5.2,23.2-18,26.3-23.9
		C318.6,167.1,320.3,168.6,320.3,168.6z"/>
	<path class="st13" d="M327.7,174.4c0,0.1,0,0.1,0,0.2c-0.4,2.1-0.7,4.2-1.1,6.3c-0.1,0.7-0.3,1.3-0.5,2c-0.6,1.7-1.5,3.3-2.6,4.7
		c-8.3,10.5-29.3,15.9-29.3,15.9l-0.1-0.1l-9-12.9c23.8-4.6,33.2-28.4,33.2-28.4c0.2,4,7.3,10.2,9.1,11.7
		C327.6,173.9,327.7,174.1,327.7,174.4L327.7,174.4z"/>
	<path class="st15" d="M295.4,89.2c-6-0.8-6.5-5.9-6-9.6c0.1,0,0.1,0,0.2-0.1C292.8,80.3,294.6,84.4,295.4,89.2z"/>
	<path class="st14" d="M327.7,174.4c0,0.1,0,0.1,0,0.2c-0.4,2.1-0.7,4.2-1.1,6.3c-0.1,0.7-0.3,1.3-0.5,2l-0.5,1.4l-1.2,2.1l-0.9,1.2
		c-8.3,10.5-29.3,15.9-29.3,15.9l-0.1-0.1c0.7-0.3,14.8-6.1,20.5-11.4c5.4-5,12-16.4,12.9-18C327.7,174.1,327.7,174.2,327.7,174.4z"
		/>
	<path class="st16" d="M324.8,185.3"/>
	
		<linearGradient id="SVGID_6_" gradientUnits="userSpaceOnUse" x1="422.1854" y1="1414.8269" x2="422.1854" y2="1515.8269" gradientTransform="matrix(1 0 0 -1 -161.3354 1560.0269)">
		<stop  offset="0" style="stop-color:#808181;stop-opacity:0.25"/>
		<stop  offset="0.54" style="stop-color:#808181;stop-opacity:0.12"/>
		<stop  offset="1" style="stop-color:#808181;stop-opacity:0.1"/>
	</linearGradient>
	<path class="st17" d="M282,44.2h-42.3c-2.3,0-4.2,1.9-4.2,4.2l0,0V141c0,2.3,1.9,4.2,4.2,4.2l0,0H282c2.3,0,4.2-1.9,4.2-4.2l0,0
		V48.4C286.1,46.1,284.3,44.2,282,44.2z"/>
	<path class="st18" d="M238.6,45h44.5c1.5,0,2.7,1.2,2.7,2.7V142c0,1.5-1.2,2.7-2.7,2.7h-44.5c-1.5,0-2.7-1.2-2.7-2.7V47.6
		C235.9,46.2,237.1,45,238.6,45z"/>
	<rect x="239.6" y="54.3" class="st19" width="42.5" height="81.2"/>
	<path class="st3" d="M255.8,49.2c0.2,0,0.4,0.2,0.4,0.4S256,50,255.8,50s-0.4-0.2-0.4-0.4S255.6,49.2,255.8,49.2z"/>
	<path class="st3" d="M258,49.2h8c0.1,0,0.2,0.1,0.2,0.2v0.3c0,0.1-0.1,0.2-0.2,0.2h-8c-0.1,0-0.2-0.1-0.2-0.2v-0.3
		C257.7,49.3,257.8,49.2,258,49.2z"/>
	<circle class="st3" cx="260.6" cy="139.3" r="2.7"/>
	<path class="st7" d="M233.7,94.7c0,0-5.2,0-5,6.4c0,2.2,1.4,4.1,3.5,4.8c1.1,0.4,2.3,0.3,3.3-0.2c2.9-1.4,4.1-4.9,2.6-7.8
		C237.3,96.1,235.6,94.9,233.7,94.7z"/>
	<path class="st15" d="M233.7,98c0,0-4.8,3.3-0.6,6.2C233.1,104.2,232.7,98.4,233.7,98z"/>
	<path class="st7" d="M234.8,107.3c0,0-5,1.2-4.1,7.3c0,0,0.4,4.4,4.8,3.7c3-0.4,3.3-4.4,3.3-6.8c0-1.6-1-3.1-2.4-3.8
		C235.8,107.4,235.3,107.3,234.8,107.3z"/>
	<path class="st15" d="M234.5,110c0,0-4.8,1.9,0,7C234.5,117,232.3,112.1,234.5,110z"/>
	<path class="st7" d="M236,132.2v5.4c-7-4.1-6.4-8.1-4.5-10.8c0.6-0.9,1.3-1.6,2.1-2.3c0.5-0.4,1-0.8,1.5-1.1c0.4,0,0.9,0.1,1.3,0.4
		c2.1,1.1,2.8,3.7,1.7,5.7C237.6,130.4,236.9,131.4,236,132.2z"/>
	<path class="st15" d="M232.5,129.5c0,0-0.5-1.3-1-2.7c0.6-0.9,1.3-1.6,2.1-2.3C235,126.7,232.5,129.5,232.5,129.5z"/>
	<path class="st14" d="M295.4,106.2c0,0-5.4,6-7,6.6"/>
	
		<linearGradient id="SVGID_7_" gradientUnits="userSpaceOnUse" x1="421.4913" y1="1470.0958" x2="421.4913" y2="1481.428" gradientTransform="matrix(1 0 0 -1 -161.3354 1560.0269)">
		<stop  offset="0" style="stop-color:#808181;stop-opacity:0.25"/>
		<stop  offset="0.54" style="stop-color:#808181;stop-opacity:0.12"/>
		<stop  offset="1" style="stop-color:#808181;stop-opacity:0.1"/>
	</linearGradient>
	<path class="st20" d="M274.6,82.3h-20.4v0.2c-1-3-4.2-4.6-7.1-3.6s-4.6,4.2-3.6,7.1s4.2,4.6,7.1,3.6c1.7-0.6,3.1-1.9,3.6-3.6v0.2
		h20.4l2.5-2L274.6,82.3z M248.9,88.8c-2.5,0-4.6-2-4.6-4.6c0-2.5,2-4.6,4.6-4.6c2.5,0,4.6,2,4.6,4.6
		C253.4,86.8,251.4,88.8,248.9,88.8L248.9,88.8L248.9,88.8z"/>
	<path class="st21" d="M249,78.7c-3.1,0-5.6,2.5-5.6,5.6s2.5,5.6,5.6,5.6s5.6-2.5,5.6-5.6l0,0C254.6,81.2,252.1,78.7,249,78.7z
		 M249,79.8c2.5,0,4.5,2,4.5,4.5s-2,4.5-4.5,4.5s-4.5-2-4.5-4.5S246.5,79.8,249,79.8L249,79.8"/>
	<polygon class="st21" points="274.4,86.2 254.3,86.2 254.3,82.3 274.4,82.3 276.9,84.3 	"/>
	
		<linearGradient id="SVGID_8_" gradientUnits="userSpaceOnUse" x1="421.4913" y1="1455.3286" x2="421.4913" y2="1466.6609" gradientTransform="matrix(1 0 0 -1 -161.3354 1560.0269)">
		<stop  offset="0" style="stop-color:#808181;stop-opacity:0.25"/>
		<stop  offset="0.54" style="stop-color:#808181;stop-opacity:0.12"/>
		<stop  offset="1" style="stop-color:#808181;stop-opacity:0.1"/>
	</linearGradient>
	<path class="st22" d="M274.6,97h-20.4v0.2c-1-3-4.2-4.6-7.1-3.6s-4.6,4.2-3.6,7.1s4.2,4.6,7.1,3.6c1.7-0.6,3.1-1.9,3.6-3.6v0.2
		h20.4l2.5-2L274.6,97z M248.9,103.6c-2.5,0-4.6-2-4.6-4.6c0-2.5,2-4.6,4.6-4.6c2.5,0,4.6,2,4.6,4.6
		C253.4,101.6,251.4,103.6,248.9,103.6L248.9,103.6L248.9,103.6z"/>
	<path class="st23" d="M249,93.5c-3.1,0-5.6,2.5-5.6,5.6s2.5,5.6,5.6,5.6s5.6-2.5,5.6-5.6l0,0C254.6,96,252.1,93.5,249,93.5z
		 M249,94.5c2.5,0,4.5,2,4.5,4.5s-2,4.5-4.5,4.5s-4.5-2-4.5-4.5S246.6,94.5,249,94.5L249,94.5"/>
	<polygon class="st23" points="274.4,101 254.3,101 254.3,97.1 274.4,97.1 276.9,99 	"/>
	
		<linearGradient id="SVGID_9_" gradientUnits="userSpaceOnUse" x1="411.5854" y1="1472.8932" x2="411.5854" y2="1480.6262" gradientTransform="matrix(1 0 0 -1 -161.3354 1560.0269)">
		<stop  offset="0" style="stop-color:#808181;stop-opacity:0.25"/>
		<stop  offset="0.54" style="stop-color:#808181;stop-opacity:0.12"/>
		<stop  offset="1" style="stop-color:#808181;stop-opacity:0.1"/>
	</linearGradient>
	<path class="st24" d="M255.2,80.3l-0.8-0.8c-0.2-0.2-0.4-0.2-0.6,0l0,0l-5,5l-2.1-2.1c-0.2-0.2-0.4-0.2-0.6,0l0,0l-0.8,0.8
		c-0.2,0.2-0.2,0.4,0,0.6l0,0l3.2,3.2c0.2,0.2,0.4,0.2,0.6,0l0,0l6.1-6.1C255.4,80.8,255.4,80.5,255.2,80.3L255.2,80.3L255.2,80.3z"
		/>
	<path class="st21" d="M255,80.2l-0.8-0.8c-0.2-0.2-0.4-0.2-0.6,0l-4.8,4.7l-2-2c-0.2-0.2-0.4-0.2-0.6,0l-0.8,0.8
		c-0.2,0.2-0.2,0.4,0,0.6l3.1,3.1c0.2,0.2,0.4,0.2,0.6,0l5.8-5.8C255.1,80.6,255.1,80.4,255,80.2L255,80.2z"/>
</g>
<text transform="matrix(1 0 0 1 46.2042 471.2059)" class="st3 st4 st25">Appuyez en fonction des </text>
<text transform="matrix(1 0 0 1 44.5042 510.8059)" class="st3 st4 st25">instructions au centre, </text>
<text transform="matrix(1 0 0 1 85.5042 550.4059)" class="st3 st4 st25">mais méfiez-vous du </text>
<text transform="matrix(1 0 0 1 155.7042 590.0059)" class="st3 st4 st25">professeur x </text>
<text transform="matrix(1 0 0 1 66.1042 629.6059)" class="st3 st4 st25">et de ses instructions</text>
<text transform="matrix(1 0 0 1 162.9042 669.2059)" class="st3 st4 st25"> trompeuses.</text>
<text transform="matrix(1 0 0 1 139.1042 748.4059)" class="st3 st4 st25">Une erreur et </text>
<text transform="matrix(1 0 0 1 82.0042 788.0059)" class="st3 st4 st25">on recommence tout !</text>
</svg>
