<?xml version="1.0" encoding="utf-8"?>
<!-- Generator: Adobe Illustrator 23.0.2, SVG Export Plug-In . SVG Version: 6.00 Build 0)  -->
<svg version="1.1" id="d73490ac-7a9f-41f3-9c2f-a04fe0e68190"
	 xmlns="http://www.w3.org/2000/svg" xmlns:xlink="http://www.w3.org/1999/xlink" x="0px" y="0px" viewBox="0 0 976.7 840.3"
	 style="enable-background:new 0 0 976.7 840.3;" xml:space="preserve">
<style type="text/css">
	.st0{opacity:0.1;fill:#FFFFFF;enable-background:new    ;}
	.st1{fill:url(#SVGID_1_);}
	.st2{fill:#3A3768;}
	.st3{fill:#3F3D56;}
	.st4{fill:#F86D70;}
	.st5{fill:#A1616A;}
	.st6{fill:#EE8E9E;}
	.st7{opacity:5.000000e-02;enable-background:new    ;}
	.st8{opacity:0.1;}
	.st9{fill:#FFFFFF;}
	.st10{opacity:0.1;enable-background:new    ;}
	.st11{fill:#EFB7B9;}
	.st12{fill:#4C4981;}
	.st13{fill:#444053;}
	.st14{fill:#925978;}
	.st15{fill:none;stroke:#444053;stroke-miterlimit:10;}
	.st16{fill:url(#SVGID_2_);}
	.st17{fill:#2D293D;}
	.st18{opacity:5.000000e-02;}
	.st19{fill:#FFCDD3;}
	.st20{fill:#DCE6F2;}
</style>
<title>gaming</title>
<g>
	<title>compose music</title>
	<circle class="st0" cx="876.4" cy="456.7" r="19.4"/>
	<circle class="st0" cx="945.7" cy="370.2" r="32.5"/>
	<circle class="st0" cx="400.9" cy="148.9" r="19.4"/>
	<circle class="st0" cx="623.4" cy="171.2" r="19.4"/>
	<circle class="st0" cx="25.2" cy="416.5" r="32.5"/>
	<path class="st0" d="M537.9,231.3c-58-2.2-113.3-22.3-166.1-44.3s-105.1-46.4-161.7-58.1c-36.4-7.5-78.1-8.6-107.4,12.4
		c-28.3,20.2-37.4,55-42.3,87.4c-3.7,24.3-5.9,49.9,4.3,72.7c7,15.8,19.5,29.1,28.1,44.2c30,52.7,8.8,117.7-23.7,169.2
		c-15.2,24.1-32.9,47.2-44.7,72.9c-11.8,25.7-17.2,55.1-7,81.4c10.2,26,34.5,45.5,60.9,59.2c53.5,27.9,116.6,35.9,178.1,40.3
		c136.1,10,273,5.7,409.5,1.3c50.5-1.6,101.2-3.2,150.9-11.7c27.6-4.7,56.1-12.1,76.1-29.9c25.4-22.7,31.7-61,14.7-89.4
		C879,591.2,800,579.4,780,528.2c-11-28.2,0.3-59.5,16.3-85.6c34.3-56,91.8-105.2,94.8-169.2c2.1-43.9-25.5-88-68.3-108.8
		c-44.8-21.8-106.9-19.1-139.9,17C648.9,218.9,589.1,233.2,537.9,231.3z"/>
	
		<linearGradient id="SVGID_1_" gradientUnits="userSpaceOnUse" x1="1012.4387" y1="309.2941" x2="1149.3011" y2="309.2941" gradientTransform="matrix(-1 0 0 -1 1878.9399 875.84)">
		<stop  offset="0" style="stop-color:#808080;stop-opacity:0.25"/>
		<stop  offset="0.54" style="stop-color:#808080;stop-opacity:0.12"/>
		<stop  offset="1" style="stop-color:#808080;stop-opacity:0.1"/>
	</linearGradient>
	<path class="st1" d="M729.6,478.7c0.1,1.1,0.5,2.2,1.2,3.1c1.3,1.6,3,3,4.8,4.1v4.9c0,0,14.3,12,17.3,16.5
		c2.8,4.3,5.7,8.7,9.8,11.9c1,0.9,2.3,1.6,3.6,1.9h0.2c-0.4,0.4-0.9,0.7-1.4,0.9c0.2,1.8,1.9,3.1,3.7,2.8c0.1,0,0.1,0,0.2,0
		c0.7-0.2,1.3-0.5,1.9-1l5.7-3.7c0.9-0.6,1.8-1.2,2.6-2c1.1-1.1,1.8-2.4,2.8-3.5c1.8-1.9,4.3-3,5.6-5.2c0.8-1.4,0.9-3.1,1.4-4.6
		c0.3-1,0.8-2,1.1-3c0.2-0.6,0.3-1.2,0.4-1.8c0.2,0.2,0.4,0.3,0.6,0.5c0.4-0.3,1.3,0.5,1.1,1c-0.2,0.5-0.7,0.8-0.8,1.3
		c-0.4,1.1,1.1,2,1.6,3c0.6,1,0.3,2.4,0.3,3.6c0.1,1.2,0.6,2.6,0.8,4c0.4,3.1-1.1,6.4,0,9.4c-1.4,0-2.6,0.9-2.9,2.3
		c-0.3,1.3-0.2,2.7,0.1,4c-1.8,1-2.8,3-2.7,5c0.1,0.3,0,0.6-0.1,0.9c-0.1,0.1-0.3,0.2-0.5,0.3c-1.9,0.8-3.1,2.6-3.1,4.7
		c0,0.3,0,0.7-0.1,1c-0.2,0.3-0.4,0.6-0.7,0.8c-1.4,1.1-2.2,2.8-2.2,4.6c-0.1,1.2,0.5,2.4,1.5,3h0.1c-3,2.6-4.9,6.3-5.4,10.2
		c-0.2,3.5,0,7.1,0.7,10.6h0.3c0,0.1,0,0.2,0,0.2s0,0.1,0,0.1c0.1,0.5,0.3,1,0.5,1.5c1.1,2.5,1.8,5.1,1.9,7.9c0,0.7,0.1,1.3,0.3,2
		c0.3,0.6,0.6,1.2,1,1.7c1.2,1.9,1.5,4.3,1.9,6.5c0.5,2.9,1.3,5.8,2.3,8.6c1.4,3.8,3.2,7.7,2.6,11.7c-0.2,0.9-0.4,1.9-0.4,2.9
		c0.2,1.1,0.6,2.1,1.1,3c0.5,0.9,0.9,1.8,1.3,2.8c0,0.6,0.2,1.1,0.6,1.5c0.1,0.3,0.2,0.6,0.3,0.9c0.1,0.3,0.2,0.5,0.2,0.7
		c0.1,0.4,0.2,0.8,0.3,1.2l-0.1,0.9v0.9c-0.1,0.3-0.2,0.6-0.4,0.8c-0.1,0.1-0.2,0.2-0.2,0.3l-0.2,0.2c-0.1,0.1-0.2,0.2-0.2,0.3l0,0
		c-0.1,0.3-0.2,0.7-0.1,1c0,0.1,0.1,0.3,0.1,0.4c0.2,1,0.5,1.9,0.7,2.9c0.1,0.3,0.2,0.6,0.2,0.9c0.2,0.8,0.4,1.5,0.6,2.3v0.1
		l0.1,0.5l0.5,1.8c0.1,0.4,0.2,0.7,0.3,1.1l0.4,1.3c0.3,1,0.6,2.1,0.9,3.1c3.2,10.6,6.6,21.1,8.8,31.9c0.2,0.8,0.6,1.4,1.3,1.9
		c0.7,0.5,1.4,0.9,2.2,1.2c0.2,1.6,0.7,3.5,0.8,4.5c0.2,3.1,0.3,6.5-0.8,9.3c-0.2,0-0.5,0-0.7,0.2c-0.7,0.7-1.4,1.4-2.1,2.2
		l-4.2,4.5c-0.4,0.4-0.7,0.7-1,1.2c-0.6,1-0.8,2.2-0.4,3.3c0.4,1.1,1.1,2,2.2,2.6c0.2,0.1,0.5,0.2,0.7,0.4c0.1,0.1,0.3,0.2,0.4,0.4
		c0.3,0.1,0.6,0.2,0.9,0.2c2.4-0.1,4.8-0.5,7.1-1.2c1.1-0.2,2.1-0.6,2.9-1.4c0.5-0.6,0.8-1.2,1-1.9l0.8-2.3c0.6-1.4,1-2.9,1.3-4.3
		c0.3-1.5,0.2-3-0.2-4.5c-0.1,0.1-0.2,0.2-0.2,0.4c0.2-1.3,0.4-2.6,0.6-3.9c0.1-0.4,0.1-0.8,0.2-1.2c0.3,3.5-0.2,7-0.1,10.5
		c-0.2,0.6-0.3,1.3-0.3,2c0.2,3.2,1.6,6.7,4.2,8.6c0.4,0.3,0.9,0.6,1.4,0.7c0.5,0.1,1,0.1,1.5,0c1.9-0.1,3.8-0.4,5.6-1.1
		c1.8-0.7,3.3-2,4-3.8c0.3-0.9,0.4-1.8,0.4-2.8c0-1,0-2-0.3-2.9c-0.4-1.2-0.9-2.3-1.5-3.4c-0.7-1.6-1.2-3.3-1.7-5l-0.8-2.8
		c-0.2-0.8-0.4-1.6-0.7-2.4c-0.2-0.7-0.5-1.4-1-1.9c-0.3-0.3-0.5-0.3-0.7-0.1c0-0.1,0-0.2,0-0.3c0.1-1.1,0.2-2.2,0.2-3.3
		c-0.2-1.8-1.6-3.3-2.6-4.9c-0.5-0.8-0.8-1.7-1-2.6c-0.1-0.2-0.1-0.4-0.1-0.6c0.2-0.1,0.3-0.2,0.5-0.3l1.6,0.9
		c-1.4-10.6-0.7-21.7-4.8-31.5c-1.8-4.3-5.2-8.8-4.9-13.4c-1.6-1.4-1.7-3.7-0.4-5.3c0.2-0.3,0.5-0.5,0.8-0.7c0.7-0.4,1.5-0.6,2-1.2
		c0.2-0.4,0.4-0.7,0.5-1.2c2.3-9.1,5.2-18,8.9-26.6c0.8-1.9,1.6-3.8,2.5-5.6l2.8-6.3l3.4-7.7c1.1-2.6,2.3-5.6,1.2-8.2
		c-0.4-1-1.2-2-1.1-3.1c0.2-0.7,0.4-1.4,0.7-2.1c0.1-0.7,0.1-1.5-0.2-2.2c-0.2-1-0.5-1.9-0.7-2.9c0.7,0.1,1.5,0.2,2.2,0.4
		c0.4-0.7-0.3-1.6-0.7-2.3c-0.5-1-0.8-2.1-0.8-3.2l-0.9-9c-0.2-1.2-0.2-2.5-0.1-3.8c0.2-1.3,0.7-2.6,1-3.9c0.5-2.5,0-5.2,0.2-7.7
		c0.2-2.3,0.6-4.5,1.2-6.7c0.1-0.3,0.2-0.7,0.2-1c0.4,0.1,0.9,0.2,1.3,0.2h0.4h0.1h0.4h0.2c0.2,0,0.3-0.1,0.5-0.1h0.1
		c0.2-0.1,0.4-0.1,0.5-0.2c-0.2-0.5-0.4-0.9-0.6-1.4c-0.1-0.2-0.2-0.4-0.2-0.6c-0.1-0.2-0.2-0.5-0.3-0.8c-0.1-0.3-0.2-0.5-0.3-0.7
		c-0.1-0.2-0.1-0.4-0.2-0.6c-0.1-0.2-0.2-0.6-0.3-0.9c-0.1-0.3-0.2-0.6-0.2-0.9l0.1-0.3c0.5,0.4,0.9,0.7,1.5,1
		c1.8,3.1,3.4,6.3,4.9,9.5c0.2-0.3,0.4-0.7,0.5-1.2c0.2,0.3,0.4,0.6,0.6,0.8c0.6,0.6,1.3,1.1,2.1,1.5c0.7,0.5,1.6,0.8,2.5,0.9
		c1.2,0,2.3-0.5,3.2-1.4c2.6-2.3,3.9-5.7,5.1-9c1.7-4.3,3-8.7,3.9-13.2c0.7-4.9,0.4-9.9,1.8-14.7c-1.2-2.5-2-5.2-3.4-7.6
		c-0.9-1.4-1.7-2.9-2.4-4.4c-1.3-3.3-1.5-6.9-0.4-10.3c-0.5-0.3-1.2-0.3-1.6,0.1c-0.4,0.4-0.8,0.9-1,1.4c-0.8,1.9-1.1,4-1,6
		c0.1,0.5,0,1-0.2,1.5c-0.4,0.5-1,0.7-1.6,0.7c-1.3-0.1-2.5-0.3-3.7-0.7c-3.4-0.9-6.8-1.2-10.3-1c-0.3-0.3-0.6-0.6-0.9-0.9l-0.4-0.3
		l-0.4-0.3L839,467c-0.1-0.1-0.3-0.2-0.4-0.3c-0.5-0.4-0.8-1-0.9-1.6c0-0.1,0-0.2,0-0.2c0-0.1,0-0.1,0-0.2c0-0.2,0.1-0.4,0.2-0.6
		c0.1-0.1,0.1-0.3,0.2-0.4l0.1-0.2c0-0.1,0.1-0.1,0.1-0.2c0.1-0.2,0.2-0.5,0.3-0.8c0.1-0.3,0.1-0.5,0.2-0.8c0-0.3,0.1-0.5,0.1-0.8
		c0-0.3,0-0.5,0-0.8c0-0.3,0-0.3,0-0.4c-0.1-0.5-0.2-1.1-0.3-1.6c-0.1-0.4-0.3-0.8-0.4-1.1c-0.2-0.5-0.5-1-0.8-1.4
		c-0.6-0.9-1.2-1.8-1.9-2.6l-0.5-0.6l-0.5-0.6c-0.6-0.6-1.1-1.2-1.6-1.9c-0.4-0.5-0.7-1-0.9-1.6c-0.1-0.2-0.1-0.4-0.2-0.6
		c-0.1-0.4-0.1-0.7-0.2-1.1c0-0.1,0-0.2,0-0.4c0-0.5,0-1,0.1-1.5c0.1-0.7,0.2-1.4,0.3-2.1c0.1-0.5,0.1-1,0.2-1.4
		c0-0.2,0.1-0.5,0.1-0.7c0.1-0.5,0.1-1,0.1-1.4c0.1-1.4,0.1-2.8-0.2-4.2c-0.1-0.5-0.2-0.9-0.4-1.3c-0.2-0.6-0.5-1.1-0.9-1.6
		c-1.3-1.7-3-3.1-5-3.9c-1.5-0.6-3-1.1-4.6-1.5c-0.6-0.1-1.2-0.3-1.9-0.3c-9.3-1.5-19.2,1.3-25.1,9c-3.1,4-5.7,8.4-6.8,13.3
		c-1.1,4.9-0.6,10.3,2.1,14.5c1.2,1.8,2.7,3.3,3.7,5.1c0.8,1.5,1.3,3.2,2.3,4.7c1.2,1.9,2.9,3.3,5,4.2l-0.4,0.4
		c-0.9-0.1-1.9-0.1-2.8,0.1c-1,0.2-1.9,0.5-2.8,0.6c-1.2,0.2-2.4-0.1-3.6,0.1c-2.2,0.3-4,1.8-5.7,3.3c-2,1.7-4.1,3.7-4.2,6.3v0.1
		l-1.3,1.8c-0.3,0.4-0.6,0.8-0.8,1.3c-0.5,1.2-0.2,2.7-0.5,4c-0.2,0.8-0.6,1.7-1,2.4c-1.3,2.3-2.8,4.6-4.5,6.7
		c-0.8,1.1-1.7,2-2.8,2.8c-0.9,0.6-1.9,0.9-2.9,0.8c-1.5-0.7-3-1.7-4.3-2.8c-1.4-1.4-2.7-3-3.8-4.7c-2.1-3.1,4.5,6.1,2.3,3
		L742.4,471c-0.4-1.5-0.6-3-0.8-4.5c0-0.6-0.2-1.4-0.8-1.4c-0.3,0-0.5,0.1-0.7,0.3c-0.9,0.8-1.4,2.1-1.2,3.3c-1-0.2-2,0-2.9,0.5
		c-0.8,0.5-0.9,1.6-0.4,2.3c0,0,0,0,0,0v0.2c-0.5,0.3-0.8,0.8-0.7,1.3c-1-0.3-2.1-0.3-3.1,0.2c-0.9,0.5-1.3,2.1-0.4,2.7
		C730.3,476.5,729.6,477.6,729.6,478.7z M849.5,483.3c0.6,0.2,1.1,0.3,1.7,0.4c1.8,0.4,3.5,1,5.2,1.8c0.5,0.2,1,0.5,1.4,1
		c0.3,0.8,0.3,1.8-0.2,2.5l-2.4,6.4c-0.4,1-0.7,2-1.2,3c-0.2,0.4-0.4,0.8-0.6,1.1c-0.1-0.2-0.1-0.4-0.2-0.6c-0.7-1.9-1.3-3.9-1.7-6
		c-0.4-1.7-0.7-3.5-1-5.3C850.3,486.2,849.9,484.7,849.5,483.3L849.5,483.3z M847,478.3l0.2,0.1c0.2,0.1,0.4,0.2,0.6,0.4
		c0.1,0.3,0.1,0.6,0,0.9L847,478.3z M842.7,472.1l2.8,0.4c0.7,0,1.3,0.3,1.9,0.7c0.6,0.4,0.7,1.2,0.3,1.8c-0.2,0.2-0.4,0.3-0.6,0.4
		c-0.6,0.4-0.8,1.2-0.7,1.9c-0.5-0.9-1-1.7-1.6-2.5c-0.6-0.7-1.2-1.4-1.9-1.9C842.9,472.6,842.8,472.3,842.7,472.1z M815.5,675.9
		c0.3,0,0.7,0,1,0c-0.2,0.8-0.2,1.7-0.2,2.5L815.5,675.9z"/>
	<path class="st2" d="M819.3,428c4.9,0.8,10.4,2.7,12.3,7.3c1.4,3.5,0.3,7.4,0,11.2c-0.1,1-0.1,2,0.1,3c0.5,1.5,1.4,2.9,2.6,4.1
		c1.5,1.6,2.8,3.3,3.7,5.2c1,2,1.1,4.2,0.3,6.3c-0.3,0.5-0.5,1.1-0.6,1.6c-0.1,1.3,1.3,2.1,2.3,2.9c3.7,3.1,3.5,8.6,3.6,13.4
		c0.1,9.8,2.3,19.5,6.4,28.4c-3.2,1.6-7,1.1-9.7-1.3c0.5,2.2,1.3,4.3,2.2,6.3c-3.1,1.5-6.9-1-8.5-4.1s-1.8-6.7-2.9-10
		c-1.1-3.3-3.1-6.2-4-9.5c-0.2-1.1-0.6-2.2-1.1-3.2c-0.6-0.7-1.2-1.2-2-1.7c-3.2-2.3-5.7-5.6-6.9-9.4c-3.8,0.9-7.7,1.7-11.7,1.3
		c-3.9-0.3-7.9-2.1-9.9-5.5c-0.9-1.5-1.4-3.2-2.3-4.7c-1-1.8-2.6-3.4-3.7-5.1c-2.7-4.2-3.2-9.6-2.1-14.5c1.1-4.9,3.7-9.3,6.8-13.3
		C800.1,429.4,810,426.5,819.3,428z"/>
	<path class="st3" d="M819.3,428c4.9,0.8,10.4,2.7,12.3,7.3c1.4,3.5,0.3,7.4,0,11.2c-0.1,1-0.1,2,0.1,3c0.5,1.5,1.4,2.9,2.6,4.1
		c1.5,1.6,2.8,3.3,3.7,5.2c1,2,1.1,4.2,0.3,6.3c-0.3,0.5-0.5,1.1-0.6,1.6c-0.1,1.3,1.3,2.1,2.3,2.9c3.7,3.1,3.5,8.6,3.6,13.4
		c0.1,9.8,2.3,19.5,6.4,28.4c-3.2,1.6-7,1.1-9.7-1.3c0.5,2.2,1.3,4.3,2.2,6.3c-3.1,1.5-6.9-1-8.5-4.1s-1.8-6.7-2.9-10
		c-1.1-3.3-3.1-6.2-4-9.5c-0.2-1.1-0.6-2.2-1.1-3.2c-0.6-0.7-1.2-1.2-2-1.7c-3.2-2.3-5.7-5.6-6.9-9.4c-3.8,0.9-7.7,1.7-11.7,1.3
		c-3.9-0.3-7.9-2.1-9.9-5.5c-0.9-1.5-1.4-3.2-2.3-4.7c-1-1.8-2.6-3.4-3.7-5.1c-2.7-4.2-3.2-9.6-2.1-14.5c1.1-4.9,3.7-9.3,6.8-13.3
		C800.1,429.4,810,426.5,819.3,428z"/>
	<path class="st4" d="M850.3,489.5c0.3,1.8,0.6,3.5,1,5.3c0.4,2,1,4,1.7,5.9c0.4,0.8,0.6,1.8,0.5,2.7c-0.1,0.6-0.3,1.1-0.7,1.6
		c-2.3,4-5.3,7.8-5.5,12.4c-0.1,1.1,0,2.4-0.6,3.3c-1.7-3.7-3.7-7.4-5.7-10.9c-2.2-3.7-4.6-7.5-5.2-11.7c-0.2-2-0.2-4,0.1-6
		c0.2-2.3,0.9-4.4,2.2-6.3c1.5-1.9,5.6-4.9,8.2-4.3C849.3,482.2,849.9,487,850.3,489.5z"/>
	<path class="st5" d="M771.1,511c-2.9-1.2-5.9-2.5-8.3-4.6c-1.4-1.4-2.7-3-3.8-4.7l-6.9-10c-1.6-2.4-3.3-4.9-3.7-7.7
		c-4.1-4.3-6.5-9.8-6.9-15.7c0-0.6-0.2-1.4-0.8-1.4c-0.3,0-0.5,0.1-0.7,0.3c-0.9,0.8-1.4,2.1-1.2,3.3c-1-0.2-2,0-2.9,0.5
		c-0.8,0.6-1,2.1-0.2,2.5c-0.6,0.2-1,0.8-0.9,1.4c-1-0.3-2.2-0.3-3.1,0.2c-0.9,0.5-1.3,2.1-0.4,2.7c-1.1,0.4-1.8,1.5-1.8,2.6
		c0.1,1.1,0.5,2.2,1.2,3.1c2.7,3.6,7.4,5,10.4,8.2c1,1.1,1.9,2.3,2.7,3.6l8.9,13.6c2.8,4.3,5.7,8.7,9.8,11.9c1,0.9,2.3,1.6,3.6,1.9
		c1.4,0.3,2.8-0.1,3.8-1.1c0.9-1,1-2.5,1.1-3.8C771.3,515.7,770.9,513.3,771.1,511z"/>
	<path class="st3" d="M801,699.5c-0.4,0.4-0.7,0.7-1,1.2c-0.6,1-0.8,2.2-0.4,3.3c0.4,1.1,1.1,2,2.2,2.6c0.2,0.1,0.5,0.2,0.7,0.4
		c0.1,0.1,0.3,0.2,0.4,0.4c0.3,0.1,0.6,0.2,0.9,0.2c2.4-0.1,4.8-0.5,7.1-1.2c1.1-0.2,2.1-0.6,2.9-1.4c0.5-0.6,0.8-1.2,1-1.9l0.8-2.3
		c0.5-1.4,1-2.9,1.3-4.3c0.3-1.5,0.2-3-0.2-4.5c-0.2,0.3-0.3,0.6-0.3,0.9c-0.2,1.6-0.9,3.1-1.8,4.3c-0.2,0.3-0.4,0.6-0.7,0.9
		c-0.6,0.5-1.3,0.8-2.1,0.9c-1.5,0.3-3,0.5-4.5,0.6c-0.2,0-0.4,0-0.6-0.1c-0.2-0.1-0.4-0.4-0.5-0.6c-0.2-0.6-0.2-1.2,0-1.8
		c0.4-1.1,1.5-1.9,2.1-3c0.4-0.8-0.2-1.7-1-1c-0.7,0.7-1.4,1.4-2.1,2.2L801,699.5z"/>
	<path class="st6" d="M808.7,683.4c0.2,3.8,0.4,7.8-1.6,11c-0.7,1.1-1.7,2.1-2.6,3.2c-0.5,0.5-0.8,1.2-0.9,1.9
		c-0.1,1.4,1.2,2.6,2.5,2.8c1.4,0.1,2.8-0.1,4.1-0.6c1.2-0.3,2.4-0.9,3.5-1.6c1.8-1.5,2.3-4,2.6-6.3l0.8-5.4
		c0.3-1.3,0.4-2.6,0.3-3.9c-0.2-1.4-0.5-2.9-1-4.2l-1.4-4c-0.1-0.4-0.3-0.7-0.6-1c-0.3-0.2-0.7-0.2-1-0.2c-1.3,0.1-4.6,0.5-5.3,1.9
		C807.4,678.1,808.6,681.9,808.7,683.4z"/>
	<path class="st7" d="M808.7,683.4c0.2,3.8,0.4,7.8-1.6,11c-0.7,1.1-1.7,2.1-2.6,3.2c-0.5,0.5-0.8,1.2-0.9,1.9
		c-0.1,1.4,1.2,2.6,2.5,2.8c1.4,0.1,2.8-0.1,4.1-0.6c1.2-0.3,2.4-0.9,3.5-1.6c1.8-1.5,2.3-4,2.6-6.3l0.8-5.4
		c0.3-1.3,0.4-2.6,0.3-3.9c-0.2-1.4-0.5-2.9-1-4.2l-1.4-4c-0.1-0.4-0.3-0.7-0.6-1c-0.3-0.2-0.7-0.2-1-0.2c-1.3,0.1-4.6,0.5-5.3,1.9
		C807.4,678.1,808.6,681.9,808.7,683.4z"/>
	<path class="st3" d="M779.1,572C779.1,572.1,779.1,572.1,779.1,572c0.1,0.6,0.2,1.1,0.5,1.6c1.1,2.5,1.8,5.1,1.9,7.8
		c0,0.7,0.1,1.3,0.3,2c0.3,0.6,0.6,1.2,1,1.7c1.2,1.9,1.5,4.3,1.9,6.5c0.5,2.9,1.3,5.8,2.3,8.6c1.4,3.8,3.2,7.7,2.6,11.7
		c-0.2,0.9-0.4,1.9-0.4,2.9c0.2,1.1,0.6,2.1,1.1,3c0.5,0.9,0.9,1.8,1.3,2.8c0.4,1,0.8,2.1,1.1,3.1c0.4,1.3,0.6,2.8-0.2,3.8
		c-0.3,0.3-0.5,0.5-0.7,0.8c-0.2,0.5-0.2,1,0,1.5c0.5,2,1,4.1,1.6,6.1c0.4,1.6,0.9,3.2,1.4,4.8c3.5,11.6,7.4,23.1,9.7,35
		c0.3,1.7,2.5,2.9,4.2,3.3c1.7,0.4,3.5-0.1,4.9-1.3c0.1-0.1,0.2-0.2,0.3-0.3c1.8-1.9,2-4.9,1.9-7.5c-0.6-12.2-6.8-23.4-9.7-35.3
		c-1.1-4.3-1.7-8.7-1.9-13.1c-0.7-14.8-1-30.4,3.2-44.5c0.9-2.9,1.9-6.3,0.3-9c-1-1.7-2.8-2.7-4.6-3.4c-7.4-2.9-15.7-2.7-23,0.6
		c0,0.3,0,0.6,0,0.9c0.2,1.4,0,2.8-0.5,4.1C779.3,570.8,779.2,571.4,779.1,572z"/>
	<path class="st3" d="M829.7,687.2l0.8,2.8c0.4,1.7,1,3.4,1.7,5c0.6,1.1,1.1,2.2,1.5,3.4c0.2,1,0.3,1.9,0.3,2.9
		c0,0.9-0.1,1.9-0.4,2.8c-0.7,1.8-2.2,3.2-4,3.8c-1.8,0.6-3.7,1-5.6,1c-0.5,0.1-1,0.1-1.5,0c-0.5-0.2-1-0.4-1.4-0.7
		c-2.6-1.9-3.9-5.4-4.2-8.6c0.1-0.7,0.2-1.5,0.4-2.2c0.2-0.3,2.2,0.8,1.3,1.8c-1.2,1.4,2.4,0.7,4.2,0.5c0.8-0.1,1.6-0.2,2.4-0.4
		l3-0.6c1-0.2,2.1-0.5,2.4-1.5c0.3-0.9-0.4-2.1-1-3c-1.6-2.4-2-5.4-2.3-8.2c-0.1-0.6-0.8-4.2,0.7-3.1c0.5,0.5,0.8,1.2,1,1.9
		C829.2,685.6,829.5,686.4,829.7,687.2z"/>
	<path class="st7" d="M792.5,627.7c0.9-1,0.6-2.6,0.2-3.8c-0.1-0.5-0.3-1-0.4-1.4l11.7-4c0,1,0.1,2.1,0.1,3.1
		c0.2,4.4,0.8,8.8,1.9,13.1c2.9,11.9,9.1,23.1,9.7,35.3c0.1,2.8-0.2,6-2.2,7.9c-1.3,1.2-3.1,1.7-4.9,1.3c-1.7-0.4-3.9-1.6-4.2-3.3
		c-2.3-11.9-6.3-23.4-9.7-35c-1.1-3.6-2-7.2-2.9-10.9c-0.2-0.5-0.2-1,0-1.4C792,628.2,792.2,627.9,792.5,627.7z"/>
	<path class="st6" d="M824.9,674.3c0.9,1.6,2.3,3,2.6,4.8c0,1.1-0.1,2.2-0.2,3.3c0,0.9,0.2,1.8,0.5,2.7c1.1,4.1,2.5,8.2,3.9,12.2
		c0.2,0.5,0.4,1.1,0.3,1.7c-0.3,0.9-1,1.7-1.9,1.9c-2.8,1.2-5.9,1.1-9,1c-0.9,0-1.8-0.2-2.5-0.6c-1.1-0.7-1.4-2.2-1.4-3.5
		c-0.2-3.8,0.4-7.6,0-11.4c-0.1-1.4-0.4-2.7-0.7-4.1c-0.4-1.9-0.3-3.9,0.2-5.7c0.5-1.3,1.2-2.5,2.1-3.6c0.8-1.2,1.8-2.2,3-3
		c0.4-0.2,1.4-0.9,1.7-0.5c0.2,0.2,0.1,0.8,0.1,1c0,0.4,0.1,0.8,0.2,1.2C824.1,672.6,824.4,673.5,824.9,674.3z"/>
	<path class="st7" d="M802.3,576.8c0.5,0.8,0.5,1.8,0.2,2.7c-0.4,1.6-1,3.2-1.6,4.8c-0.9,2.8-1.5,5.7-2,8.7
		c-0.5,2.6-1.5,5.6-1.1,8.2c-3.2,6.1-5.3,12.7-6.3,19.6c-0.2,1.7,3.6,4,3.6,5.8c-0.1,3.5-2.9,3.8-0.9,6.6c0.1,0.1-0.8,3.3-0.7,3.4
		c0.8,1,1.9,1.8,2.8,2.8c1.2,1.3,2.2,2.8,3,4.3c5.4,9.7,13.1,20.6,10.7,31.4c-0.1,0.8,0.3,1.6,1,1.9c0.7,0.3,1.5,0.5,2.3,0.5h0.4
		c1.8-1.9,2-4.9,1.9-7.5c-0.6-12.2-6.8-23.4-9.7-35.3c-1.1-4.3-1.7-8.7-1.9-13.1c-0.7-14.8-1-30.4,3.2-44.5c0.9-2.9,1.9-6.3,0.3-9
		c-1-1.7-2.8-2.7-4.6-3.4c-7.4-2.9-15.7-2.7-23,0.6c0,0.3,0,0.6,0,0.9c0.2,1.4,0,2.8-0.5,4.1c-0.3,0.6-0.4,1.2-0.5,1.8
		c0,0-0.2-2.4-0.2-2.3c4.8,0.7,9.8,3.8,14.6,4.5c2.5,0.3,4.9,0.8,7.3,1.6C801.4,575.9,801.9,576.3,802.3,576.8z"/>
	<path class="st3" d="M835.5,550.7c0.6,2.1,1.2,4.1,1.7,6.2c0.2,0.7,0.3,1.5,0.2,2.2c-0.3,0.7-0.5,1.4-0.7,2.1
		c-0.1,1.1,0.7,2.1,1.1,3.1c1.1,2.6-0.1,5.6-1.2,8.2l-3.4,7.7l-2.8,6.3c-0.8,1.9-1.6,3.7-2.4,5.6c-3.6,8.6-6.6,17.5-8.9,26.5
		c-0.1,0.4-0.2,0.8-0.5,1.2c-0.5,0.6-1.3,0.8-2,1.2c-1.7,1.1-2.2,3.5-1.1,5.2c0.2,0.3,0.4,0.6,0.7,0.8c-0.4,4.6,3.1,9.1,4.9,13.4
		c4.1,9.9,3.4,20.9,4.8,31.5l-1.6-0.9c-1.5,0.7-1.5,2.9-2.3,4.3c-1.2,2.2-4.3,2.5-6.8,2.3c-0.8,0-1.6-0.2-2.3-0.5
		c-0.7-0.4-1.1-1.1-1-1.9c2.4-10.8-5.4-21.7-10.7-31.4c-0.8-1.6-1.8-3-3-4.3c-0.9-1-2-1.8-2.8-2.8c-2.4-2.8-2.7-6.8-2.5-10.5
		c0.4-8.7,2.7-17.2,6.7-24.8c-0.4-2.7,0.6-5.6,1.1-8.2c0.5-2.9,1.1-5.8,2-8.7c0.5-1.6,1.2-3.1,1.6-4.8c0.3-0.9,0.2-1.9-0.2-2.7
		c-0.4-0.5-0.9-0.8-1.5-1c-2.4-0.8-4.8-1.3-7.3-1.6l-16.5-2.4c-0.5-3.4-1.1-7.2-0.7-10.6c0.8-6.5,5.4-11.8,11.7-13.6
		c0.7-0.3,1.5-0.2,2.1,0.1C806.4,545,821.5,546,835.5,550.7z"/>
	<path class="st5" d="M820.6,461.5c-0.2,1.6,0,3.3,0.7,4.7c0.5,0.8,1.1,1.5,1.9,2.1c1.6,1.3,3.4,2.2,5.4,2.7
		c1.2,0.3,2.5,0.5,3.2,1.4c1.2,1.4,0.4,3.5-0.6,5c-1.7,2.7-4.1,5.1-7.1,5.9c-2.4,0.7-5,0.3-7.5,0.7c-1.8,0.3-3.5,1.1-5.3,1.5
		c-5.1,1.2-10.6-0.3-14.3-4c2.6-2,5.4-4.2,6.8-7.2c1-2.2,1.1-4.6,0.5-6.9c-0.6-2.3-2.1-4.5-1.6-6.7c0.4-2.3,2.7-3.9,4.9-4.7
		c2-0.6,4.1-1,6.2-1.3c1.2-0.2,8.5-1.8,9-1c0.3,0.5-1.3,3.1-1.5,3.7C820.9,458.8,820.6,460.2,820.6,461.5z"/>
	<path class="st7" d="M820.6,461.5c-0.2,1.6,0,3.3,0.7,4.7c0.5,0.8,1.1,1.5,1.9,2.1c1.6,1.3,3.4,2.2,5.4,2.7
		c1.2,0.3,2.5,0.5,3.2,1.4c1.2,1.4,0.4,3.5-0.6,5c-1.7,2.7-4.1,5.1-7.1,5.9c-2.4,0.7-5,0.3-7.5,0.7c-1.8,0.3-3.5,1.1-5.3,1.5
		c-5.1,1.2-10.6-0.3-14.3-4c2.6-2,5.4-4.2,6.8-7.2c1-2.2,1.1-4.6,0.5-6.9c-0.6-2.3-2.1-4.5-1.6-6.7c0.4-2.3,2.7-3.9,4.9-4.7
		c2-0.6,4.1-1,6.2-1.3c1.2-0.2,8.5-1.8,9-1c0.3,0.5-1.3,3.1-1.5,3.7C820.9,458.8,820.6,460.2,820.6,461.5z"/>
	<circle class="st5" cx="811.3" cy="452" r="15"/>
	<path class="st4" d="M819.2,476.7l-10.1,1.7c-2.5,0.5-5,0.8-7.6,0.8c-1.4-0.1-2.8-0.1-4.2,0c-1,0.2-1.9,0.5-2.8,0.6
		c-1.2,0.2-2.4-0.1-3.6,0.1c-2.2,0.3-4,1.8-5.7,3.3c-2,1.7-4.1,3.7-4.2,6.3c0,0.3,0,0.6,0.1,0.9c0.2,0.3,0.4,0.6,0.8,0.8
		c1.9,1.5,2.9,3.8,4.2,5.8c1.4,2.1,3.1,3.9,5,5.4c0.4-0.3,1.3,0.5,1.1,1c-0.2,0.5-0.7,0.8-0.8,1.3c-0.4,1.1,1.1,2,1.6,3
		c0.6,1.1,0.3,2.4,0.4,3.6c0.1,1.2,0.6,2.6,0.8,4c0.4,3.1-1.1,6.4,0,9.3c-1.4,0-2.6,0.9-2.9,2.3c-0.3,1.3-0.2,2.7,0.1,4
		c-1.8,1-2.8,3-2.7,5c0.2,0.5-0.1,1-0.5,1.2c0,0-0.1,0-0.1,0c-1.9,0.8-3.1,2.6-3.1,4.7c0,0.3,0,0.7-0.1,1c-0.2,0.3-0.4,0.6-0.7,0.8
		c-1.4,1.1-2.2,2.8-2.2,4.6c-0.1,1.2,0.5,2.3,1.5,3c2.2,1,4.5,1.6,6.8,2c2.2,0.5,4.4,0.9,6.6,1.2c2.1,0.2,4.1,0.2,6.2,0.2l13.6-0.1
		c3.8,0,7.6,0,11.4-0.3c3.6-0.2,7.2-0.7,10.6,0.3c0.4-0.7-0.3-1.6-0.7-2.3c-0.5-1-0.8-2.1-0.8-3.2l-0.9-9c-0.2-1.2-0.2-2.5-0.1-3.7
		c0.2-1.3,0.7-2.6,1-3.9c0.5-2.5,0-5.2,0.2-7.7c0.2-2.3,0.6-4.5,1.2-6.7l2.7-11.1c0.3-1.9,0.8-3.7,1.3-5.6
		c2.1-5.3,4.2-10.6,6.5-15.8c0.2-0.5,0.1-1-0.1-1.4l-2.2-4c-0.6-1.1-1.3-2.2-2.1-3.3c-1.9-2.4-4.6-4-7.6-4.7c-3-0.6-6.1-0.1-8.8,1.3
		c-1,0.6-2,1.2-3.1,1.8C823.4,475.9,821.2,476.8,819.2,476.7z"/>
	<path class="st4" d="M783.2,486.6l-3.5,4.7c-0.3,0.4-0.6,0.8-0.8,1.3c-0.5,1.2-0.2,2.7-0.5,4c-0.2,0.8-0.6,1.7-1,2.4
		c-1.3,2.3-2.8,4.6-4.5,6.7c-0.8,1.1-1.7,2-2.8,2.8c-1.1,0.8-2.5,1-3.8,0.7c0.5,0.2,1,0.6,1.2,1.1c1.3,2.7,1.6,5.8,0.9,8.8
		c-0.2,1-0.5,2-1,2.9c-0.5,0.9-1.3,1.6-2.3,1.9c0.2,1.8,1.9,3.1,3.7,2.8c0.1,0,0.1,0,0.2,0c0.7-0.2,1.3-0.5,1.9-1l5.7-3.7
		c1-0.6,1.8-1.2,2.6-2c1.1-1.1,1.8-2.4,2.8-3.5c1.8-1.9,4.3-3,5.6-5.2c0.8-1.4,0.9-3.1,1.4-4.6c0.3-1,0.8-1.9,1.1-2.9
		c0.8-3.2,0.4-6.6-1.2-9.5C787.5,491.3,785.3,489,783.2,486.6z"/>
	<path class="st2" d="M796.5,443.4c1.4-2.2,3.2-4,5.3-5.5c2.8-2.1,6-3.8,9.5-4c1.5-0.1,2.9,0.2,4.3,0.7c0.1-4.2,1.1-7,3.8-6.6
		c4.9,0.8,10.4,2.7,12.3,7.3c1.4,3.5,0.3,7.4,0,11.2c-0.1,1-0.1,2,0.1,3c0.5,1.5,1.4,2.9,2.6,4.1c1.5,1.6,2.8,3.3,3.7,5.2
		c1,2,1.1,4.2,0.3,6.3c-0.3,0.5-0.5,1.1-0.6,1.6c-0.1,1.3,1.3,2.1,2.3,2.9c3.7,3.1,3.5,8.6,3.6,13.4c0.1,9.8,2.3,19.5,6.4,28.4
		c-3.2,1.6-7,1.1-9.7-1.3c0.5,2.2,1.3,4.3,2.2,6.3c-3.1,1.5-6.9-1-8.5-4.1s-1.8-6.7-2.9-10c-1.1-3.3-3.1-6.2-4-9.5
		c-0.2-1.1-0.6-2.2-1.1-3.2c-0.6-0.7-1.2-1.2-2-1.7c-3.2-2.3,1.5-19.8,0.3-23.6c-1.9,0.4-5.3-8.6-7.3-17.8c-1.4,0.5-2.8,0.6-4.3,0.4
		c-0.5-0.1-1-0.1-1.5-0.1c-0.5,0.1-0.9,0.3-1.3,0.5c-1.4,0.9-3,1.7-4.5,2.3c-3.2,1.2-6.8,1-10.3,0.9
		C794.6,448.2,795.1,445.6,796.5,443.4z"/>
	<path class="st3" d="M796.5,443.4c1.4-2.2,3.2-4,5.3-5.5c2.8-2.1,6-3.8,9.5-4c1.5-0.1,2.9,0.2,4.3,0.7c0.1-4.2,1.1-7,3.8-6.6
		c4.9,0.8,10.4,2.7,12.3,7.3c1.4,3.5,0.3,7.4,0,11.2c-0.1,1-0.1,2,0.1,3c0.5,1.5,1.4,2.9,2.6,4.1c1.5,1.6,2.8,3.3,3.7,5.2
		c1,2,1.1,4.2,0.3,6.3c-0.3,0.5-0.5,1.1-0.6,1.6c-0.1,1.3,1.3,2.1,2.3,2.9c3.7,3.1,3.5,8.6,3.6,13.4c0.1,9.8,2.3,19.5,6.4,28.4
		c-3.2,1.6-7,1.1-9.7-1.3c0.5,2.2,1.3,4.3,2.2,6.3c-3.1,1.5-6.9-1-8.5-4.1s-1.8-6.7-2.9-10c-1.1-3.3-3.1-6.2-4-9.5
		c-0.2-1.1-0.6-2.2-1.1-3.2c-0.6-0.7-1.2-1.2-2-1.7c-3.2-2.3,1.5-19.8,0.3-23.6c-1.9,0.4-5.3-8.6-7.3-17.8c-1.4,0.5-2.8,0.6-4.3,0.4
		c-0.5-0.1-1-0.1-1.5-0.1c-0.5,0.1-0.9,0.3-1.3,0.5c-1.4,0.9-3,1.7-4.5,2.3c-3.2,1.2-6.8,1-10.3,0.9
		C794.6,448.2,795.1,445.6,796.5,443.4z"/>
	<g class="st8">
		<path d="M848.1,511.4c-4.2-8.9-6.3-18.6-6.4-28.4c0-4.8,0.1-10.4-3.6-13.4c-1-0.8-2.3-1.6-2.3-2.9c0.1-0.6,0.3-1.1,0.6-1.6
			c0.8-2,0.7-4.3-0.3-6.3c-1-1.9-2.2-3.7-3.7-5.2c-1.2-1.1-2.1-2.5-2.6-4.1c-0.2-1-0.2-2-0.1-3c0.4-3.7,1.5-7.7,0-11.2
			c-1.8-4.5-7-6.4-11.8-7.2c0.4-0.1,0.9-0.2,1.3-0.1c4.9,0.8,10.4,2.7,12.3,7.3c1.4,3.5,0.3,7.4,0,11.2c-0.1,1-0.1,2,0.1,3
			c0.5,1.5,1.4,2.9,2.6,4.1c1.5,1.6,2.8,3.3,3.7,5.2c1,2,1.1,4.2,0.3,6.3c-0.3,0.5-0.5,1.1-0.6,1.6c-0.1,1.3,1.3,2.1,2.3,2.9
			c3.7,3.1,3.5,8.6,3.6,13.4c0.1,9.8,2.3,19.5,6.4,28.4c-1.5,0.8-3.1,1.1-4.8,0.9C846.1,512.2,847.2,511.9,848.1,511.4z"/>
		<path d="M840.6,516.5c-1-2-1.7-4.2-2.2-6.3c0.6,0.6,1.3,1.1,2.1,1.4c0.5,1.7,1.1,3.3,1.8,4.9c-0.9,0.4-1.9,0.6-2.9,0.4
			C839.8,516.8,840.2,516.6,840.6,516.5z"/>
		<path d="M813.8,434.6c-0.9-0.4-1.9-0.6-2.9-0.7h0.3c0.8,0,1.7,0,2.5,0.2C813.8,434.3,813.8,434.5,813.8,434.6z"/>
		<path d="M803.6,449.9c1.6-0.7,3.1-1.4,4.5-2.3c0.4-0.3,0.9-0.4,1.3-0.5c0.5,0,0.9,0,1.4,0.1c-0.3,0.1-0.7,0.3-1,0.5
			c-1.4,0.9-3,1.7-4.5,2.3c-2.4,0.8-5,1.1-7.6,1C799.7,450.9,801.7,450.5,803.6,449.9z"/>
		<path d="M815.2,446.7l0.1,0.4c-0.7,0.1-1.5,0.1-2.2,0.1C813.8,447,814.5,446.9,815.2,446.7z"/>
	</g>
	<path class="st5" d="M846.4,516.1c-0.2,1.6,0.4,3.2,1.5,4.4c0.6,0.6,1.3,1.1,2.1,1.5c0.7,0.5,1.6,0.8,2.5,0.9
		c1.2,0,2.3-0.5,3.2-1.4c2.6-2.3,3.9-5.7,5.1-8.9c1.7-4.3,3-8.7,3.9-13.2c0.7-4.9,0.4-9.9,1.8-14.6c-1.2-2.5-2-5.2-3.4-7.6
		c-0.9-1.4-1.7-2.9-2.4-4.4c-1.3-3.3-1.5-6.9-0.4-10.2c-0.5-0.3-1.2-0.3-1.6,0.1c-0.4,0.4-0.8,0.9-1,1.4c-0.8,1.9-1.1,4-1,6
		c0.1,0.5,0,1-0.2,1.5c-0.4,0.5-1,0.7-1.6,0.7c-1.3-0.1-2.5-0.3-3.7-0.7c-3.7-0.9-7.6-1.3-11.4-0.9c-0.8,0-1.5,0.2-2.2,0.5
		c-0.7,0.4-1.1,1.1-1.1,1.9l9.1,1.3c0.7,0,1.4,0.3,1.9,0.7c0.6,0.4,0.7,1.2,0.3,1.8c-0.2,0.2-0.4,0.3-0.6,0.4
		c-0.8,0.6-1,1.8-0.3,2.6c0.1,0.1,0.2,0.3,0.4,0.4c0.2,0.1,0.4,0.2,0.6,0.4c0.4,0.5-0.1,1.2-0.3,1.8c-0.1,0.9,0.3,1.8,1.1,2.3
		c0.8,0.4,1.6,0.7,2.5,0.9c1.8,0.4,3.5,1,5.2,1.8c0.5,0.2,1,0.5,1.4,1c0.3,0.8,0.3,1.8-0.2,2.5l-2.4,6.4c-0.4,1-0.7,2-1.2,3
		c-0.6,1.2-1.3,2.4-2,3.7c-0.6,1.2-1.1,2.4-1.5,3.6C849.2,510.7,846.8,512.6,846.4,516.1z"/>
	<path class="st9" d="M454.8,269.3V570c-10-3.2-20.5-4.8-31.1-4.8c-44.7,0-81,31.6-81,76.4c0,44.7,36.3,76,81,76
		s81.3-32.9,81.3-80.7V428h235.8v142c-10-3.2-20.5-4.8-31.1-4.8c-44.7,0-81,31.6-81,76.4c0,44.7,36.3,76,81,76
		c44.7,0,81.3-32.9,81.3-80.7V269.3L454.8,269.3z M740.8,381.4H505v-61.9h235.8V381.4z"/>
	<path class="st9" d="M216.3,236.1v201.8c-36.5-21.1-83.2-8.5-104.3,28s-8.5,83.2,28,104.3c36.5,21.1,83.2,8.5,104.3-28
		c6.7-11.6,10.2-24.9,10.2-38.3V312.6h76.6v-76.5H216.3z"/>
	<path class="st9" d="M195.8,709.1c-4.4-2.4-9.1-4-14-5c3.6-0.5,7.1-1.3,10.5-2.4c9.1-2.9,13.7-6.8,10.3-8.7
		c-3.5-1.9-13.6-1.1-22.8,1.8c-3.1,0.9-6,2.2-8.7,3.9c-0.9-2-3.5-4.3-7.5-6.5c-8.1-4.5-19-6.7-24.3-5c-5.3,1.7-3.1,6.7,5,11.1
		c3.9,2.1,8.2,3.7,12.6,4.7c-2.9,0.3-5.8,0.9-8.7,1.5c-9.9,2.4-15.7,6-12.8,8.1c2.8,2.1,13.2,1.8,23.1-0.6c3.6-0.8,7.1-2,10.4-3.7
		c0.8,2.1,3.4,4.5,7.6,6.8c8.1,4.5,19,6.7,24.3,5C206.2,718.6,203.9,713.6,195.8,709.1z"/>
	<path class="st9" d="M253,643.6c-2.1-1.1-4.4-2-6.8-2.4c1.7-0.2,3.4-0.6,5.1-1.1c4.4-1.4,6.7-3.3,5-4.2c-1.7-0.9-6.6-0.5-11.1,0.9
		c-1.5,0.4-2.9,1.1-4.2,1.9c-0.5-1-1.7-2.1-3.6-3.2c-3.9-2.2-9.2-3.2-11.8-2.4s-1.5,3.2,2.4,5.4c1.9,1,4,1.8,6.1,2.3
		c-1.4,0.2-2.8,0.4-4.2,0.8c-4.8,1.1-7.6,2.9-6.2,3.9c1.4,1,6.4,0.9,11.2-0.3c1.8-0.4,3.5-1,5.1-1.8c0.4,1,1.7,2.2,3.7,3.3
		c3.9,2.2,9.2,3.3,11.8,2.4S256.9,645.8,253,643.6z"/>
	<path class="st9" d="M99.3,577.2c-1.3-0.7-2.8-1.2-4.3-1.5c1.1-0.1,2.2-0.4,3.2-0.7c2.8-0.9,4.2-2.1,3.1-2.6
		c-1-0.6-4.1-0.3-6.9,0.5c-0.9,0.3-1.8,0.7-2.7,1.2c-0.5-0.9-1.3-1.6-2.3-2c-2.5-1.4-5.8-2-7.4-1.5c-1.6,0.5-0.9,2,1.5,3.4
		c1.2,0.6,2.5,1.1,3.8,1.4c-0.9,0.1-1.8,0.3-2.6,0.5c-3,0.7-4.8,1.8-3.9,2.4c0.9,0.6,4,0.5,7-0.2c1.1-0.2,2.2-0.6,3.2-1.1
		c0.5,0.9,1.3,1.6,2.3,2.1c2.5,1.4,5.8,2,7.4,1.5C102.4,580,101.7,578.5,99.3,577.2z"/>
	<path class="st10" d="M319.4,236.1V300h-76.6v191.3c0,42.2-34.2,76.5-76.4,76.5c-17.2,0-34-5.8-47.5-16.5
		c26.2,33.1,74.3,38.8,107.4,12.6c18.4-14.5,29.1-36.6,29.1-60V312.6H332v-76.5H319.4z"/>
	<path class="st11" d="M103.4,252.7l0.3,2l8.5,1.2c0,0,0.7-0.5,1.8-1.2c2-1.3,5.4-3.3,8.2-3.8c4.4-0.9,18.6-7.2,14-7.6
		c-4.5-0.4-4.1,0.5-4.1,0.5s-5-4.9-10.2-0.4c-3.9,3.4-12.6,7.1-16.5,8.7C104.1,252.4,103.4,252.7,103.4,252.7z"/>
	<path class="st3" d="M137.2,230.2c1.3-0.5,2.7-0.9,4.1-1c1.4-0.1,2.8,0.3,3.9,1.3c0.5,0.6,0.9,1.3,1.4,1.9
		c2.6,2.8,7.6,0.7,10.7,2.8c1.9,1.3,2.5,3.8,3.2,6.1c0.7,2.2,1.9,4.7,4.2,5.2c1.1,0.1,2.2,0.1,3.3-0.1c1.1-0.2,2.2,0.2,3,1.1
		c1.1,1.6-0.4,4.3,1.1,5.4c1.4,1,3.9-0.4,4.8,1c0.4,0.8,0.2,1.7-0.3,2.3c-0.6,0.6-1.1,1.3-1.6,2c-0.8,1.4-0.2,3.2,1.2,4
		c0.5,0.3,1.1,0.4,1.7,0.3c1-0.1,2-0.6,2.8-0.2c0.5,0.4,0.9,0.9,0.9,1.6c0.1,2.2-1.5,4.2-3.7,4.4c-1.6,0.1-3.2-0.8-4.6-1.5
		s-3.2-1.4-4.7-0.8c-0.7,0.3-1.3,0.8-1.9,1.3c-1.7,1.5-3.7,2.6-5.8,3.5c-1.9,0.7-4,1.2-5.8,0.3c-2-1-3.1-3.5-5.2-4.3
		c-2.1-0.8-4.6,0.7-6.6,1.9c-2,1.2-4.8,2.2-6.6,0.7c-2-1.6-1.4-4.8-2.6-7.1c-0.5-0.8-1.2-1.6-1.9-2.1c-1.4-1-2.9-1.8-4.3-2.9
		c-1.4-1-2.5-2.4-2.9-4.1c-0.4-2,0.6-4.1,1.7-5.8c1.1-1.8,2.4-3.5,2.7-5.5c0.3-1.5,0-3.1,0.3-4.6c0.5-1.8,1.9-3.3,3.7-3.9
		c1-0.3,1.2-0.3,1.7-1.1C135.4,231.2,136.2,230.5,137.2,230.2z"/>
	<g class="st8">
		<path d="M171.2,248c0.2,0.9,0.3,1.8,0.2,2.7C171.1,249.8,171.1,248.9,171.2,248z"/>
		<path d="M175,258.3c-0.2,0.3-0.3,0.6-0.3,1c-0.3-0.8-0.3-1.7,0.1-2.5c0.5-0.7,1-1.3,1.6-1.9c0.2-0.3,0.3-0.6,0.4-0.9l0.1,0.1
			c0.4,0.8,0.2,1.7-0.3,2.3C176,256.9,175.5,257.6,175,258.3z"/>
		<path d="M127.5,255.9c1.4,1,2.9,1.8,4.3,2.9c0.8,0.6,1.5,1.3,1.9,2.1c1.2,2.3,0.6,5.5,2.6,7.1c1.8,1.5,4.6,0.5,6.6-0.7
			s4.4-2.7,6.6-1.9c2.2,0.8,3.2,3.3,5.2,4.3c1.8,0.9,4,0.5,5.8-0.3c2.1-0.8,4.1-2,5.8-3.5c0.6-0.5,1.2-1,1.9-1.3
			c1.5-0.6,3.3,0,4.7,0.8s3,1.6,4.6,1.5c1.9-0.2,3.5-1.7,3.7-3.7c0.1,0.3,0.2,0.5,0.2,0.8c0.1,2.2-1.5,4.2-3.7,4.4
			c-1.6,0.1-3.2-0.8-4.6-1.5c-1.5-0.7-3.2-1.4-4.7-0.8c-0.7,0.3-1.3,0.8-1.9,1.3c-1.7,1.5-3.7,2.6-5.8,3.5c-1.9,0.7-4,1.2-5.8,0.3
			c-2-1-3.1-3.5-5.2-4.3c-2.1-0.8-4.6,0.7-6.6,1.9s-4.8,2.2-6.6,0.7c-2-1.6-1.4-4.8-2.6-7.1c-0.5-0.8-1.2-1.6-1.9-2.1
			c-1.4-1-2.9-1.8-4.3-2.9c-1.4-1-2.5-2.4-2.9-4.1c-0.1-0.4-0.1-0.7-0.1-1.1C125.2,253.7,126.2,255,127.5,255.9z"/>
	</g>
	<path class="st12" d="M131.2,302.4l-3.1,0.7c0,0,3,5,7.7,1.7C140.5,301.5,131.2,302.4,131.2,302.4z"/>
	<path class="st10" d="M131.2,302.4l-3.1,0.7c0,0,3,5,7.7,1.7C140.5,301.5,131.2,302.4,131.2,302.4z"/>
	<path class="st11" d="M197.9,348.8c0,0,4.3,2.2,8.2,4.8c2.9,1.8,5.6,3.8,6.4,5.3c2.1,3.6,12.4,7.5,12.4,7.5l10.2,7.8
		c2.4,0.8,4.7,3.7,5.7,5c0.3,0.4,0.5,0.6,0.5,0.6l4.1-0.5l2.2-2.8c0,0,0.5-6.2-3.7-6.1c-0.8,0-1.6-0.2-2.4-0.6c-4.6-2-11-8.4-11-8.4
		s-10.9-13.6-14.1-14c-0.3-0.1-0.7-0.1-1-0.3c-3.3-1.2-8.1-5.4-8.1-5.4L197.9,348.8z"/>
	<path class="st11" d="M155.8,388.1c1.1,6.5,6,19,7.6,21.6c2,3.2,3,9.7,3,9.7l0.6,4.5c0.1,0.6,0.3,1.2,0.6,1.7
		c0.2,0.3,0.4,0.6,0.6,0.9l8.2-2.5c0,0-0.5-1.9-1.2-4c-0.7-2.2-1.8-4.9-2.8-5.9c-2-2-2.3-8.9-2.3-8.9s-1.7-13.3-2.2-15
		c-0.5-1.6-0.8-3.2-0.9-4.9c-0.1-0.9-0.1-1.9-0.1-3.1c-0.2-3.3-0.6-6.6-1.3-9.9L156,374l-0.3,10.7
		C155.5,385.8,155.5,387,155.8,388.1z"/>
	<path class="st10" d="M240.9,379.2c0.3,0.4,0.5,0.6,0.5,0.6l4.1-0.5l2.2-2.8c0,0,0.5-6.2-3.7-6.1c-0.8,0-1.6-0.2-2.4-0.6
		c-0.3,1.8,1.7,3.4,1.7,3.4s0.9,0.6,0.7,3.5C243.7,378.7,242,379.1,240.9,379.2z"/>
	<path class="st13" d="M240.4,379.6c0.3,1,2.9,2.5,4.6,3.4c0.9,0.4,1.6,0.8,1.7,0.8c0.4,0.2,2.6-2.2,2.9-4.2c0.3-1.9,5.5-8,5.5-8
		c1.1-2.4,1.7-5,1.9-7.6c0.2-2.6-0.9-2.9-2.2-2.3c-0.9,0.5-1.8,1.1-2.5,1.9c-0.9,0.8-2,1.4-3.2,1.6c-1.6,0.4-3.2,1.1-4.6,2
		c-1.3,0.8-2.5,1.8-2.7,2.7c-0.5,1.9,1.7,3.5,1.7,3.5s0.9,0.6,0.7,3.5C244.1,380,240.4,379.5,240.4,379.6z"/>
	<path class="st10" d="M245.1,382.9c0.9,0.4,1.6,0.8,1.7,0.8c0.4,0.2,2.6-2.2,2.9-4.2c0.3-1.9,5.5-8,5.5-8c1.1-2.4,1.7-5,1.9-7.6
		c0.2-2.6-0.9-2.9-2.2-2.3c-0.2,2.1-0.7,6.2-1.8,8.3C251.8,372.6,246.5,380.7,245.1,382.9z"/>
	<path class="st10" d="M167.7,425.4l-0.1,0.2c0.2,0.3,0.4,0.6,0.6,0.9l8.2-2.5c0,0-0.5-1.9-1.2-4c-3.2-0.9-7.9,4.8-7.9,4.8
		L167.7,425.4z"/>
	<path class="st13" d="M167.1,431.5c0,0,6.8,2.4,9.9,2c2.3-0.3,2.4-1.4,2.3-3.6c-0.1-0.7-0.1-1.5-0.2-2.5c-0.2-3.9-1.7-4.7-1.7-4.7
		c-2.6-6.8-10.1,2.3-10.1,2.3l0.4,0.8c-0.5,1.2-0.8,2.4-0.8,3.7C166.9,430.2,167,430.8,167.1,431.5z"/>
	<path class="st10" d="M167.1,431.5c0,0,6.8,2.4,9.9,2c2.3-0.3,2.4-1.4,2.3-3.6c-1.6,1.3-3.6,1.9-5.6,1.6c-2.4-0.3-4.7-1-6.8-2
		C166.9,430.2,167,430.8,167.1,431.5z"/>
	<path class="st11" d="M133.3,265.8l2.7,11.7l0.5,2.4l4.9,0.6l5.1,0.6l5.5-2c0,0,1.5-5.3,0.3-9.2c-0.4-1.4-1.3-2.6-2.6-3.4
		c-0.4-0.2-0.7-0.5-1.1-0.8c-0.4-0.4-0.7-0.8-0.9-1.3c-0.3-0.6-0.4-1.2-0.5-1.9c-0.3-3.1,1.7-6.6,1.7-6.6s-11.7-4-10.8-1.4
		c0.6,1.7-1.1,4.6-2.3,6.4c-0.7,1-1.2,1.7-1.2,1.7L133.3,265.8z"/>
	<circle class="st10" cx="143.9" cy="251.1" r="10.2"/>
	<circle class="st11" cx="143.8" cy="250.7" r="10.2"/>
	<path class="st4" d="M134,304.6c0.5,2.3,2.7,5.8,2.7,5.8l14.2,3.5l10.2-10.7v-0.1c-0.3-1-4.2-13.6-1.4-16.7
		c2.9-3.2,1.8-12.3,1.8-12.3s-5.1-5.8-6.1-7.3c-1-1.4-7.6-2.5-7.6-2.5c0.3,0.4,0.6,0.9,0.9,1.3c0.7,1.1,1.3,2.2,1.6,3.4
		c0.4,1.2,0.4,2.6-0.1,3.7c-0.2,0.3-0.3,0.6-0.3,1c-1.1,4.9-6.2,4.2-8.2,3.7c-0.5-0.1-0.8-0.2-0.8-0.2l-4.9,0.2l-3,0.1
		c0,0,1.4,24,1.1,25.9C133.9,303.8,133.9,304.2,134,304.6z"/>
	<path class="st14" d="M133,278.8l8.8-1.2h-0.2c-0.5-0.1-0.8-0.2-0.8-0.2l-4.9,0.2l-3,0.1C132.9,277.6,132.9,278,133,278.8z"/>
	<polygon class="st14" points="142.9,311.9 146.7,312.8 152.7,312 154.3,310.4 	"/>
	<polygon class="st14" points="149.2,313.4 151,313.9 151.7,313.1 	"/>
	<path class="st10" d="M134,304.6c2.3,0.2,4.4,0.3,4.4,0.3l11.7-0.4v-12.3c-1.4-1.3-3-2.3-4.7-3.1c-2-0.7-4.5-2.9-4-8.6
		c0-0.3,0.1-0.7,0.1-1c0.1-0.6,0.1-1.3,0.1-1.9c0-2.9-1.2-5.6-3.3-7.5c-0.1-0.1-0.1-0.1-0.2-0.2l-1.9-8.9c-0.1,0-0.3,0-0.4,0.1
		c-0.7,1-1.2,1.7-1.2,1.7l-1.4,3.1l2.7,11.7l-3,0.1c0,0,1.4,24,1.1,25.9C133.9,303.8,133.9,304.2,134,304.6z"/>
	<path class="st13" d="M138,305l11.7-0.4v-12.3c-1.4-1.3-3-2.3-4.7-3.1c-2.2-0.8-4.7-3.1-3.9-9.6c0.6-3.5-0.6-7.1-3.1-9.5l-0.2-0.2
		l-1.9-8.9c-1.2,0.1-2.3,0.7-3,1.7c-0.2,0.4-0.4,0.7-0.7,1c-0.5,0.8-1.5,1.1-2.4,0.7c-1.2-0.5-6.6-2.8-7.8-0.6
		c-1.2,2.2-1.4,15.3-1.4,15.3c1.8,1.4,3,3.4,3.5,5.7c0.8,3.8,2.2,3.8,2.2,3.8l1.5,10.8c0,0,1.3,2.3,0.3,3.6"/>
	<path class="st13" d="M132.2,263.7l2,6l3.8,0.3l-0.2-0.2l-1.9-8.9c-1.2,0.1-2.3,0.7-3,1.7C132.7,263.1,132.4,263.4,132.2,263.7z"/>
	<path class="st10" d="M103.4,252.7l0.3,2l8.5,1.2c0,0,0.7-0.5,1.8-1.2c-0.9-0.2-5.1-1.1-7.3-1.8c-0.8-0.3-1.4-0.5-1.4-0.6
		c0-0.1,0.1-0.2,0.2-0.3C104.1,252.4,103.4,252.7,103.4,252.7z"/>
	<path class="st13" d="M93.4,265.4c0,0,9.6,7.3,15.6,8.5c0,0,8.4,2.5,11.7,5.4l3.6-13.8l-2.2-1.5c0,0-2.6,1.6-4.9,1.1
		s-4.8-0.9-4.8-0.9c-2-0.7-4-1.3-6.1-1.7c-1.6-0.1-1-2.2,0.7-3.3c0.2-0.1,0.4-0.3,0.7-0.4c0.6,0.9,1.8,1.1,2.7,0.6
		c0.6-0.4,1.1-0.9,1.6-1.5l0,0c0.7-0.8,1.3-1.7,1.8-2.7c0,0-5-1.1-7.5-1.8c-0.8-0.3-1.4-0.5-1.4-0.6c-0.1-0.6,4.5-2.4,4.5-2.4
		s-3.9-1.9-5.5-0.5c0,0,1,0.8,0.2,1.5c-0.8,0.8-10.8,8.4-10.8,8.4S88.4,262.1,93.4,265.4z"/>
	<path class="st10" d="M101.7,258.3l5.3,0.8c0.2-0.1,0.4-0.3,0.7-0.4c0.6,0.9,1.8,1.1,2.7,0.6c0.6-0.4,1.1-0.9,1.6-1.5l0,0
		c0.5-0.7,1-1.5,1.5-2.3c0,0-5-1.1-7.5-1.8L101.7,258.3z"/>
	<path class="st13" d="M102,257.8l5.7,0.8c0.6,0.9,1.8,1.1,2.7,0.6c1.6-0.9,3.4-4.2,3.4-4.2s-5-1.1-7.5-1.8L102,257.8z"/>
	<path class="st10" d="M207.3,341.7l-9.4,7.1c0,0,4.3,2.2,8.2,4.8c3.5-2.3,6.7-4.5,9.2-6.5C212.1,346,207.3,341.7,207.3,341.7z"/>
	<path class="st10" d="M155.8,388.1c2.4-0.3,4.7-0.8,6.9-1.6c0,0,1.7-0.4,4.3-1.2c-0.1-0.9-0.1-1.9-0.1-3.1
		c-0.2-3.3-0.6-6.6-1.3-9.9L156,374l-0.3,10.7C155.5,385.8,155.5,387,155.8,388.1z"/>
	<path class="st13" d="M138.7,344.8c1.9,2.8,7.2,14.9,7.2,14.9c1.2,2.1,2.5,4.2,4,6.2c2.1,2.6,3.5,8.5,5.1,13.3
		c1.6,4.7-0.5,3.8-0.2,6.3c0.2,2.4,9.2-0.7,9.2-0.7s18.3-4,23.9-15.2c5.6-11.2,28-21.4,32.5-27.7c4.5-6.3-1.3-3.7-1.1-7.1
		c0.2-3.4-2.4-6.3-2.4-6.3s-8.4-2.4-9.8-4c-1.4-1.7-8.1-5.8-8.1-5.8s-6.4-2.8-7.2-3.7c-0.8-1-8.3-3.9-10.7-4.5
		c-2.3-0.5-4.6-3.9-4.6-3.9s-1.4,0.2-3.5-1.9c-2.1-2-10.9-3.8-10.9-3.8c-15.1,11.1-25.5,9.6-25.5,9.6l-0.2,2.1
		C128.4,322.9,136.8,341.9,138.7,344.8z"/>
	<path class="st10" d="M136.5,312.4c0,0,13,4.3,25.8-11.6c-15.1,11.1-25.5,9.5-25.5,9.5L136.5,312.4z"/>
	<path class="st10" d="M158.9,319.9c0,0,17.5,25.3,18.6,26.2C178.6,347,159.8,319.5,158.9,319.9z"/>
	<path class="st10" d="M150.8,317.9c0,0,12.1,18.8,11.9,21.4C162.7,339.3,151,321.2,150.8,317.9z"/>
	<path class="st10" d="M143.8,323.1c0,0,2.2,10.5-1.1,16.5L143.8,323.1z"/>
	<path class="st10" d="M139.1,323.7c0,0-0.1,9.1-1.2,11L139.1,323.7z"/>
	<polygon class="st10" points="168.8,315.6 184.9,321.9 179,322.7 	"/>
	<path class="st10" d="M137.1,245c0.8,0.5,1.5,1.4,2.4,1.5c0.7,0,1.4-0.1,2-0.5c1.6-0.7,3.4-1.2,5.1-0.7c2.4,0.8,3.7,3.5,6,4.3
		c0.7,0.2,1.5,0.3,2.3,0.1c0.4-0.1,0.9-0.3,1.3-0.5c0.9-0.6,1.6-1.5,1.8-2.5c0.3-1.9-0.3-3.8-1.8-5c-1.5-1.2-3.2-2-5-2.3
		c-4.7-1-9.7-0.7-14.5-0.3c-0.4,0-0.8,0.1-1.1,0.3c-0.7,0.5-2,3.3-1.7,4.2C134.1,244.9,137,244,137.1,245z"/>
	<path class="st3" d="M137,244.7c0.8,0.5,1.5,1.4,2.4,1.5c0.7,0,1.4-0.2,2-0.5c1.6-0.7,3.4-1.2,5.1-0.7c2.4,0.8,3.7,3.5,6,4.3
		c0.7,0.2,1.5,0.3,2.3,0.1c0.4-0.1,0.9-0.3,1.3-0.5c0.9-0.6,1.6-1.5,1.8-2.5c0.3-1.9-0.4-3.8-1.8-5c-1.5-1.2-3.2-1.9-5-2.3
		c-4.7-1.1-9.6-0.7-14.5-0.3c-0.4,0-0.8,0.1-1.1,0.3c-0.7,0.5-2,3.3-1.7,4.2C134.1,244.6,136.9,243.6,137,244.7z"/>
	<path class="st11" d="M199.4,252.2l1.5,6.2l2-1.2l10.9-6.6c0,0,8.2-0.3,8.9-6.9c0.6-6.6-9.1-0.1-9.7,0.4s-1.7,1.4-1.7,1.4
		l-10.1,5.6L199.4,252.2z"/>
	<path class="st10" d="M199.4,252.2l1.5,6.2l2-1.2c-0.4-2.8-1.1-5.4-1.8-6L199.4,252.2z"/>
	<path class="st10" d="M145.8,292.9l2.2,13l13.1-2.7c-0.3-1-4.2-13.6-1.4-16.7c2.9-3.2,1.8-12.3,1.8-12.3s-5.1-5.8-6.1-7.3
		c-1-1.4-7.6-2.5-7.6-2.5c-0.3-0.6-0.4-1.2-0.5-1.9c-0.2,0.4-0.4,0.9-0.5,1.4c0,2.4,1,4,3.5,5.2c0.2,0.1,0.5,0.2,0.7,0.3
		c0.4,0.2,0.8,0.3,1.3,0.5l0.2,0.1c4.2,1.3,5.1,3.8,5.1,3.8c1.5,1.9,2.2,4.4,1.9,6.8C159.2,284.6,145.8,292.9,145.8,292.9z"/>
	<path class="st13" d="M146.5,292.8l2.2,13l14.8-3.1c0,0-0.4-4.9-1.5-6.9c-1-2-0.8-9.8-0.8-9.8c6.3-6.8,3-12.3,3-12.3
		s18.4-3,18.8-3.6c0.3-0.6,6.5-3.9,6.5-3.9s6.7-1.7,7.6-2.7c0.3-0.4,0.7-0.7,1.1-1c0.1-0.1,0.2-0.2,0.4-0.2l0.5,4.3h0.2
		c1.1-0.1,2.1-0.5,2.9-1.1c1.5-1.2-0.4-13.9-1.9-14.4c-0.3-0.1-0.6-0.1-0.9,0c-1.2,0.4-2.2,1-3.2,1.7l-0.3,0.2l-0.1,0.1
		c0,0-8.3,3.3-10,4.8s-14.7,3.4-14.7,3.4s-5.8,1.4-6.6,0.5s-9.6-2.2-10.4-0.9c-0.7,1.3-2.8,1.1-2.8,1.1c-1.5-1.7-2.5-1-3.1-0.1
		c-0.4,0.6-0.6,1.2-0.8,1.9c0,2.6,1.1,4.3,4.2,5.5c0.5,0.2,1,0.4,1.5,0.5c4.2,1.3,5.1,3.8,5.1,3.8c1.5,1.9,2.2,4.4,1.9,6.8
		C159.9,284.5,146.5,292.8,146.5,292.8z"/>
	<path class="st10" d="M199.4,251.2c0.2,0,0.3,0,0.5,0.1c1.5,0.4,3.4,13.2,1.9,14.4c-0.8,0.6-1.7,1-2.6,1.1H199l-0.5-4.3
		c-0.1,0.1-0.2,0.1-0.4,0.2v-0.2c0.8-3.3,0-6.8-2.1-9.5L199.4,251.2z"/>
	<path class="st13" d="M198.5,262.5l0.5,4.3c1.1-0.1,2.2-0.5,3.2-1.2c1.5-1.2-0.4-13.9-1.9-14.4c-1.2-0.4-3.2,1.1-4,1.7
		C198.4,255.5,199.3,259.1,198.5,262.5z"/>
	<path class="st13" d="M151.8,269.3l2.1-2l-5.5-5.4c-0.4,0.6-0.6,1.2-0.8,1.9C147.6,266.4,148.7,268.1,151.8,269.3z"/>
	<path class="st10" d="M136.9,243.9c0.8,0.5,1.5,1.4,2.4,1.5c0.7,0,1.4-0.2,2-0.5c1.6-0.7,3.4-1.2,5.1-0.7c2.4,0.8,3.7,3.5,6,4.3
		c0.7,0.2,1.5,0.3,2.3,0.1c1.5-0.3,2.8-1.5,3.1-3.1c0.1-0.4,0.1-0.8,0.1-1.1c0.1,0.6,0.1,1.3,0,1.9c-0.3,1.1-0.9,2-1.8,2.5
		c-0.4,0.2-0.8,0.4-1.3,0.5c-0.7,0.2-1.5,0.1-2.3-0.1c-2.4-0.8-3.7-3.5-6-4.3c-1.7-0.5-3.5,0-5.1,0.7c-0.6,0.3-1.3,0.5-2,0.5
		c-1-0.1-1.6-1-2.4-1.5c-0.1-1-2.9-0.1-3.3-1.3c0-0.2,0-0.4,0-0.6C134.3,243.7,136.8,242.9,136.9,243.9z"/>
	<path class="st10" d="M145.6,273.2c0,0-1.2,3.3,0.3,4.4c0,0-1.6-4.4-2.6-4.3"/>
	<path class="st11" d="M218.7,241.1c0,0-7.6,6.6-2.1,7.6C222,249.8,218.7,241.1,218.7,241.1z"/>
	<g class="st8">
		<path d="M729.2,422.7H493.4v208.9c0,47.8-36.5,80.7-81.3,80.7c-10.6,0-21.2-1.8-31.2-5.5c13.1,7.2,27.9,11,42.9,10.9
			c44.7,0,81.3-32.9,81.3-80.7V428h224.2V422.7z"/>
		<polygon points="493.4,376 505,376 505,319.5 729.2,319.5 729.2,314.1 493.4,314.1 		"/>
		<path d="M779.4,269.3v362.2c0,47.8-36.5,80.7-81.3,80.7c-10.6,0-21.2-1.8-31.2-5.5c13.1,7.2,27.9,11,42.9,10.9
			c44.7,0,81.3-32.9,81.3-80.7V269.3H779.4z"/>
	</g>
	<path class="st9" d="M512.6,186.6c5.8,12,15.2,25.5,25.9,20.4c10.7-5.2,18.7-27.2,12.9-39.2c-5.8-12-19.2-17.4-29.9-12.2
		C510.8,160.8,506.8,174.7,512.6,186.6z"/>
	<path class="st9" d="M535.4,214.5c0,0,2.1-0.3,1.3-2.1c-0.1-0.2-0.2-0.3-0.3-0.4c-0.4-0.7-0.7-1.4-0.8-2.2
		c-0.1-0.9-0.1-1.9,0.1-2.8l-5.7-0.4c0,0,2.2,1.9,2,2.9c0,0.1-0.1,0.3-0.3,0.3c-0.1,0.1-0.2,0.1-0.4,0.2l-0.4,0.1
		c-1.5,0.5-0.9,1.3-0.9,1.3C530.3,213.9,535.4,214.5,535.4,214.5z"/>
	<path class="st13" d="M531.8,209.9l4,0.6c-0.1-0.2-0.1-0.4-0.1-0.6c-1,0-2.6-0.2-3.6-0.3C532,209.7,531.9,209.8,531.8,209.9z"/>
	<path class="st9" d="M535.4,214.5c0,0,2.1-0.3,1.3-2.1c-0.8,0.2-1.6,0.2-2.5,0.1c-1.4-0.3-2.5-1.2-3.3-2.4
		c-1.5,0.5-0.9,1.3-0.9,1.3C530.3,213.9,535.4,214.5,535.4,214.5z"/>
	<path class="st10" d="M535.4,214.5c0,0,2.1-0.3,1.3-2.1c-0.8,0.2-1.6,0.2-2.5,0.1c-1.4-0.3-2.5-1.2-3.3-2.4
		c-1.5,0.5-0.9,1.3-0.9,1.3C530.3,213.9,535.4,214.5,535.4,214.5z"/>
	<path class="st0" d="M532.4,156.8c0,0,6.4-0.8,8.2,3.5c-0.8-0.1-1.5-0.1-2.3,0.1c-0.5,0.2-1,0.3-1.5,0.3
		C535.8,158.9,534.3,157.6,532.4,156.8z"/>
	<path class="st9" d="M539.2,243.3c0.1-0.1,0.3-0.2,0.4-0.4c0.4-0.4,0.8-0.8,1.4-1.1c0.2-0.1,0.4-0.2,0.6-0.3
		c0.6-0.2,1.2-0.4,1.8-0.5c0.3-0.1,0.6-0.1,0.9-0.1l-0.8-3.9V237l-0.3-1.7c-0.2,0.5-0.5,1-0.8,1.4c-0.4,0.6-0.9,1.2-1.4,1.2
		c-0.1,0-0.3-0.1-0.4-0.2c-0.1-0.1-0.2-0.2-0.3-0.3c-0.1-0.1-0.2-0.3-0.2-0.4c-0.9-1.3-1.5-0.5-1.5-0.5c-1,0.4-1.4,1.6-1.6,2.8
		c0,0.2,0,0.4-0.1,0.5c-0.1,0.9,0,1.7,0.1,2.6C536.9,242.6,537.8,244.5,539.2,243.3z"/>
	<path class="st13" d="M541,241.8c0.2-0.1,0.4-0.2,0.6-0.3c-0.2-0.8-0.4-2.1-0.6-3.1c0-0.1,0-0.1,0-0.2s0-0.2-0.1-0.3
		c-0.1,0-0.3-0.1-0.4-0.2l0.1,0.6v0.2L541,241.8z"/>
	<path class="st9" d="M539.2,243.3c-0.4-0.7-0.7-1.5-0.8-2.3c0-0.5,0-1,0.2-1.5c0-0.1,0.1-0.3,0.1-0.4c0.2-0.7,0.6-1.4,1.1-1.9
		c-0.9-1.3-1.5-0.5-1.5-0.5c-1,0.4-1.4,1.6-1.6,2.8c0,0.2,0,0.4-0.1,0.5c-0.1,0.9,0,1.7,0.1,2.6
		C536.9,242.6,537.8,244.5,539.2,243.3z"/>
	<path class="st10" d="M539.2,243.3c-0.4-0.7-0.7-1.5-0.8-2.3c0-0.5,0-1,0.2-1.5c0-0.1,0.1-0.3,0.1-0.4c0.2-0.7,0.6-1.4,1.1-1.9
		c-0.9-1.3-1.5-0.5-1.5-0.5c-1,0.4-1.4,1.6-1.6,2.8c0,0.2,0,0.4-0.1,0.5c-0.1,0.9,0,1.7,0.1,2.6
		C536.9,242.6,537.8,244.5,539.2,243.3z"/>
	<path class="st9" d="M500.5,206.4c4.8,3.1,10.4,6.1,15.7,7.7c4.1,1.2,8,1.6,11.3,0.6c1.4-0.5,2.7-1.2,3.8-2.2
		c0.7-0.7,1.4-1.4,1.9-2.3c3.8-5.9,3.7-16.3,0.7-25.4c-2.1-6.3-5.6-11.8-10.2-14.8c-11.2-7.2-25.4-4.8-31.9,5.2
		C485.4,185.2,489.3,199.2,500.5,206.4z"/>
	<path class="st10" d="M500.5,206.4c4.8,3.1,10.4,6.1,15.7,7.7c4.1,1.2,8,1.6,11.3,0.6c1.4-0.5,2.7-1.2,3.8-2.2
		c0.7-0.7,1.4-1.4,1.9-2.3c3.8-5.9,3.7-16.3,0.7-25.4c-2.1-6.3-5.6-11.8-10.2-14.8c-11.2-7.2-25.4-4.8-31.9,5.2
		C485.4,185.2,489.3,199.2,500.5,206.4z"/>
	<path class="st9" d="M528.4,218.4c1.4,2,6.2-0.1,6.2-0.1s1.6-1.4,0-2.4c-0.1-0.1-0.3-0.2-0.4-0.3c-0.5-0.3-1-0.6-1.4-1
		c-0.1-0.1-0.3-0.3-0.4-0.5c-0.4-0.5-0.7-1-1-1.6c-0.1-0.3-0.3-0.5-0.3-0.8l-5.1,2.7c0.5,0.1,1.1,0.2,1.6,0.4c0.7,0.2,1.4,0.6,1.6,1
		c0.1,0.1,0.1,0.3,0,0.4c-0.1,0.1-0.1,0.2-0.2,0.3c-0.1,0.1-0.2,0.2-0.3,0.3C527.5,218.1,528.4,218.4,528.4,218.4z"/>
	<path class="st13" d="M529,216.2l3.7-1.6c-0.1-0.1-0.3-0.3-0.4-0.5c-0.9,0.5-2.3,1.2-3.2,1.7C529.1,215.9,529.1,216.1,529,216.2z"
		/>
	<path class="st9" d="M528.4,218.4c1.4,2,6.2-0.1,6.2-0.1s1.6-1.4,0-2.4c-0.6,0.6-1.3,1.1-2.1,1.4c-1.3,0.4-2.8,0.3-4.1-0.3
		C527.5,218.1,528.4,218.4,528.4,218.4z"/>
	<path class="st10" d="M528.4,218.4c1.4,2,6.2-0.1,6.2-0.1s1.6-1.4,0-2.4c-0.6,0.6-1.3,1.1-2.1,1.4c-1.3,0.4-2.8,0.3-4.1-0.3
		C527.5,218.1,528.4,218.4,528.4,218.4z"/>
	<path class="st0" d="M501.8,170.6c0,0,5-4,8.8-1.3c-0.7,0.3-1.4,0.7-1.9,1.3c-0.3,0.4-0.7,0.8-1.1,1
		C505.9,170.6,503.8,170.2,501.8,170.6z"/>
	<g class="st8">
		<path d="M555.9,212.4l-1.2-5.6c-0.2,0.5-0.5,1-0.8,1.4c0,1.5,0.4,3,1.1,4.3C555.3,212.5,555.6,212.4,555.9,212.4z"/>
		<path d="M550.9,214.8c0.1-0.1,0.3-0.2,0.4-0.4c0.4-0.4,0.8-0.8,1.4-1.1c0.2-0.1,0.4-0.2,0.6-0.3c0.6-0.2,1.2-0.4,1.8-0.5
			c0.3-0.1,0.6-0.1,0.9-0.1l-1.2-5.6c-0.2,0.5-0.5,1-0.8,1.4c-0.4,0.6-0.9,1.2-1.4,1.2c-0.1,0-0.3-0.1-0.4-0.2
			c-0.1-0.1-0.2-0.2-0.3-0.3c-0.1-0.1-0.2-0.3-0.2-0.4c-0.9-1.3-1.5-0.5-1.5-0.5c-2.3,0.8-1.6,6-1.6,6S549.5,216,550.9,214.8z"/>
		<path d="M552.6,213.3c0.2-0.1,0.4-0.2,0.6-0.3c-0.2-1-0.5-2.6-0.7-3.6c-0.1,0-0.3-0.1-0.4-0.2L552.6,213.3z"/>
		<path d="M550.9,214.8c-0.4-0.7-0.7-1.5-0.8-2.4c0-1.4,0.5-2.8,1.4-3.8c-0.9-1.3-1.5-0.5-1.5-0.5c-2.3,0.8-1.6,6-1.6,6
			S549.5,216,550.9,214.8z"/>
		<path class="st10" d="M550.9,214.8c-0.4-0.7-0.7-1.5-0.8-2.4c0-1.4,0.5-2.8,1.4-3.8c-0.9-1.3-1.5-0.5-1.5-0.5
			c-2.3,0.8-1.6,6-1.6,6S549.5,216,550.9,214.8z"/>
	</g>
	<path class="st9" d="M550.2,213.7c0.1-0.1,0.3-0.2,0.4-0.4c0.4-0.4,0.8-0.8,1.4-1.1c0.2-0.1,0.4-0.2,0.6-0.3
		c0.6-0.2,1.2-0.4,1.8-0.5c0.3-0.1,0.6-0.1,0.9-0.1l-1.2-5.6c-0.2,0.5-0.5,1-0.8,1.4c-0.4,0.6-0.9,1.2-1.4,1.2
		c-0.1,0-0.3-0.1-0.4-0.2c-0.1-0.1-0.2-0.2-0.3-0.3c-0.1-0.1-0.2-0.3-0.2-0.4c-0.9-1.3-1.5-0.5-1.5-0.5c-2.3,0.8-1.6,6-1.6,6
		S548.7,214.9,550.2,213.7z"/>
	<path class="st13" d="M551.9,212.2c0.2-0.1,0.4-0.2,0.6-0.3c-0.2-1-0.5-2.6-0.7-3.6c-0.1,0-0.3-0.1-0.4-0.2L551.9,212.2z"/>
	<path class="st9" d="M550.2,213.7c-0.4-0.7-0.7-1.5-0.8-2.3c0-1.4,0.5-2.8,1.5-3.8c-0.9-1.3-1.5-0.5-1.5-0.5c-2.3,0.8-1.6,6-1.6,6
		S548.7,214.9,550.2,213.7z"/>
	<path class="st10" d="M550.2,213.7c-0.4-0.7-0.7-1.5-0.8-2.3c0-1.4,0.5-2.8,1.5-3.8c-0.9-1.3-1.5-0.5-1.5-0.5c-2.3,0.8-1.6,6-1.6,6
		S548.7,214.9,550.2,213.7z"/>
	<g class="st8">
		<path d="M545.5,197.4c1.3,0.8,2.7,1.3,4.1,1.5c0.1-0.3,0.3-0.5,0.4-0.8l-5.3-2.2C545.1,196.4,545.3,196.9,545.5,197.4z"/>
		<path d="M547.3,205.1c0,0,2.1,0.3,1.9-1.5c0-0.2-0.1-0.3-0.1-0.5c-0.1-0.6-0.2-1.2-0.1-1.7c0-0.2,0-0.4,0.1-0.6
			c0.2-0.9,0.5-1.8,1-2.6l-5.3-2.2c0.3,0.5,0.5,0.9,0.7,1.4c0.3,0.7,0.5,1.5,0.2,1.9c-0.1,0.1-0.2,0.2-0.4,0.2c-0.1,0-0.3,0-0.4,0
			h-0.5c-1.6,0-1.2,0.9-1.2,0.9C542.6,202.9,547.3,205.1,547.3,205.1z"/>
		<path d="M545.3,199.5l3.6,1.8c0-0.2,0-0.4,0.1-0.6c-1-0.4-2.4-1-3.4-1.4C545.6,199.4,545.5,199.5,545.3,199.5z"/>
		<path d="M547.3,205.1c0,0,2.1,0.3,1.9-1.5c-0.8-0.1-1.6-0.3-2.4-0.7c-1.2-0.8-2-2-2.3-3.3c-1.6,0-1.2,0.9-1.2,0.9
			C542.6,202.9,547.3,205.1,547.3,205.1z"/>
		<path class="st10" d="M547.3,205.1c0,0,2.1,0.3,1.9-1.5c-0.8-0.1-1.6-0.3-2.4-0.7c-1.2-0.8-2-2-2.3-3.3c-1.6,0-1.2,0.9-1.2,0.9
			C542.6,202.9,547.3,205.1,547.3,205.1z"/>
	</g>
	<path class="st9" d="M546.9,204.6c0,0,2.1,0.3,1.9-1.5c0-0.2-0.1-0.3-0.1-0.5c-0.1-0.6-0.2-1.2-0.1-1.7c0-0.2,0-0.4,0.1-0.6
		c0.1-0.6,0.3-1.2,0.6-1.8c0.1-0.3,0.3-0.5,0.4-0.8l-5.3-2.2c0.3,0.5,0.5,1,0.7,1.5c0.3,0.7,0.5,1.5,0.2,1.9
		c-0.1,0.1-0.2,0.2-0.4,0.2c-0.1,0-0.3,0-0.4,0h-0.5c-1.6,0-1.2,0.9-1.2,0.9C542.3,202.3,546.9,204.6,546.9,204.6z"/>
	<path class="st13" d="M545,199l3.6,1.8c0-0.2,0-0.4,0.1-0.6c-1-0.4-2.4-1-3.4-1.4C545.2,198.8,545.1,198.9,545,199z"/>
	<path class="st9" d="M546.9,204.6c0,0,2.1,0.3,1.9-1.5c-0.8-0.1-1.6-0.3-2.4-0.7c-1.2-0.8-2-2-2.3-3.3c-1.6,0-1.2,0.9-1.2,0.9
		C542.3,202.3,546.9,204.6,546.9,204.6z"/>
	<path class="st10" d="M546.9,204.6c0,0,2.1,0.3,1.9-1.5c-0.8-0.1-1.6-0.3-2.4-0.7c-1.2-0.8-2-2-2.3-3.3c-1.6,0-1.2,0.9-1.2,0.9
		C542.3,202.3,546.9,204.6,546.9,204.6z"/>
	<path class="st9" d="M526.2,229.1c0.2-0.5,0.5-1,0.8-1.4c0.4-0.6,1-1.2,1.4-1.2c0.2,0,0.3,0.1,0.4,0.2c0.1,0.1,0.2,0.2,0.3,0.3
		c0.1,0.2,0.2,0.3,0.2,0.4c0.9,1.3,1.5,0.5,1.5,0.5c2.3-0.8,1.6-5.9,1.6-5.9s-0.9-1.9-2.3-0.7c-0.1,0.1-0.3,0.2-0.4,0.3
		c-0.5,0.6-1.2,1-1.9,1.4c-0.6,0.2-1.2,0.4-1.8,0.5c-0.3,0.1-0.6,0.1-0.9,0.1L526.2,229.1z"/>
	<path class="st13" d="M528.5,226.5c0.2,0,0.3,0.1,0.4,0.2l-0.5-4c-0.2,0.1-0.4,0.2-0.6,0.3C528.1,223.9,528.3,225.5,528.5,226.5z"
		/>
	<path class="st9" d="M529.4,227.4c0.9,1.3,1.5,0.5,1.5,0.5c2.3-0.8,1.6-5.9,1.6-5.9s-0.9-1.9-2.3-0.7c0.4,0.7,0.6,1.5,0.7,2.4
		C530.9,225,530.3,226.3,529.4,227.4z"/>
	<path class="st10" d="M529.4,227.4c0.9,1.3,1.5,0.5,1.5,0.5c2.3-0.8,1.6-5.9,1.6-5.9s-0.9-1.9-2.3-0.7c0.4,0.7,0.6,1.5,0.7,2.4
		C530.9,225,530.3,226.3,529.4,227.4z"/>
	<path class="st10" d="M524.3,236.7c1.7-2.7,2.6-5.8,2.7-9c0.4-0.6,1-1.2,1.4-1.2c0.2,0,0.3,0.1,0.4,0.2c0.1,0.1,0.2,0.2,0.3,0.3
		c0.1,0.2,0.2,0.3,0.2,0.4c0.9,1.3,1.5,0.5,1.5,0.5c2.3-0.8,1.6-5.9,1.6-5.9s-0.9-1.9-2.3-0.7c-0.1,0.1-0.3,0.2-0.4,0.3
		c-0.5,0.6-1.2,1-1.9,1.4c-0.6,0.2-1.2,0.4-1.8,0.5c-0.4-0.9-1-1.7-1.7-2.5c-2.2-2.4-4.9-4.2-8-5.3C517.6,223.6,520,232,524.3,236.7
		z"/>
	<path class="st10" d="M536.9,239.4c0.7-0.1,1.3-0.2,1.9-0.4c0.6-0.2,1.2-0.4,1.7-0.6l0.4-0.2c0.5-0.2,1-0.4,1.4-0.7
		c0.5-0.3,0.7-0.4,1.1-0.6c6.8-3.9,13.4-11.9,16.4-19.9c0.8-2.2,1.4-4.5,1.6-6.8c0.1-1.2,0.1-2.5-0.1-3.7c-0.4-3.5-1.6-7-3.3-10.1
		c-0.2-0.3-0.4-0.6-0.6-1c-4.5-6.9-12-11.1-20-10.3c1.7,5,4.2,9.3,7.7,11.5c0.3,0.7,0.5,1.5,0.2,1.9c-0.1,0.1-0.2,0.2-0.4,0.2
		c-0.1,0-0.3,0-0.4,0h-0.5c-1.6,0-1.2,0.9-1.2,0.9c-0.6,2.4,4,4.6,4,4.6s2.1,0.3,1.9-1.5c0-0.2-0.1-0.3-0.1-0.5
		c-0.1-0.6-0.2-1.2-0.1-1.7c0-0.2,0-0.4,0.1-0.6c0.1-0.6,0.3-1.2,0.6-1.8c1,0.1,2,0.1,3,0c1.4-0.2,2.8-0.6,4.1-1.1
		c-0.2,0.3-0.4,0.6-0.5,0.9c-1.7,2.7-2.6,5.8-2.7,9c-0.4,0.6-0.9,1.2-1.4,1.2c-0.1,0-0.3-0.1-0.4-0.2c-0.1-0.1-0.2-0.2-0.3-0.3
		c-0.1-0.1-0.2-0.3-0.2-0.4c-0.9-1.3-1.5-0.5-1.5-0.5c-2.3,0.8-1.6,6-1.6,6s0.9,1.9,2.3,0.7c0.1-0.1,0.3-0.2,0.4-0.4
		c0.4-0.4,0.8-0.8,1.4-1.1c0.2-0.1,0.4-0.2,0.6-0.3c0.6-0.2,1.2-0.4,1.8-0.5c0.4,0.9,1,1.7,1.7,2.5l0.4,0.4l-0.1,0.1
		c-2.9,2.6-5.5,5.4-8,8.5c-0.7,0.9-1.4,1.9-2,2.9c-0.4,0.7-0.9,1.3-1.2,2c-1.7,2.7-2.6,5.8-2.6,9c-0.4,0.6-0.9,1.2-1.4,1.2
		c-0.1,0-0.3-0.1-0.4-0.2c-0.1-0.1-0.2-0.2-0.3-0.3c-0.1-0.1-0.2-0.3-0.2-0.4c-0.9-1.3-1.5-0.5-1.5-0.5
		C537.5,237,537.1,238.2,536.9,239.4z"/>
	<g class="st8">
		<path d="M547.1,194.6c0.5,0.2,1,0.3,1.5,0.2c0.8,0,1.5,0.2,2.2,0.6c-0.3-4.6-6.6-5.9-6.6-5.9C545.8,190.8,546.8,192.6,547.1,194.6
			z"/>
		<path d="M515.8,211.3c0.1,0.9,0.2,1.9,0.4,2.8c4.1,1.2,8,1.6,11.3,0.6c0.7,0.2,1.4,0.6,1.6,1c0.1,0.1,0.1,0.3,0,0.4
			c-0.1,0.1-0.1,0.2-0.2,0.3c-0.1,0.1-0.2,0.2-0.3,0.3c-1,1.2-0.1,1.5-0.1,1.5c1.4,2,6.2-0.1,6.2-0.1s1.6-1.4,0-2.4
			c-0.1-0.1-0.3-0.2-0.4-0.3c-0.5-0.3-1-0.6-1.4-1c-0.1-0.1-0.3-0.3-0.4-0.5c-0.4-0.5-0.7-1-1-1.6c0.7-0.7,1.4-1.4,1.9-2.3
			c3.8-5.9,3.7-16.3,0.7-25.4C522.3,186.5,514.2,198.3,515.8,211.3z"/>
		<path d="M526.7,237.4c1.2,0.8,2.7,1.3,4.1,1.6c0.1-0.3,0.3-0.5,0.4-0.8l-5.3-2.2C526.2,236.4,526.5,236.9,526.7,237.4z"/>
		<path d="M528.5,245.1c0,0,2.1,0.4,1.9-1.5c0-0.2,0-0.3-0.1-0.5c-0.1-0.6-0.2-1.2-0.1-1.7c0-0.2,0-0.4,0.1-0.6
			c0.1-0.6,0.3-1.2,0.6-1.8c0.1-0.3,0.3-0.5,0.4-0.8l-5.3-2.1c0.3,0.5,0.5,1,0.7,1.5c0.3,0.7,0.5,1.5,0.2,1.9
			c-0.1,0.1-0.2,0.2-0.3,0.2c-0.1,0-0.3,0-0.4,0c-0.1,0-0.3,0-0.4,0c-1.6,0-1.2,0.9-1.2,0.9C523.8,242.8,528.5,245.1,528.5,245.1z"
			/>
		<path d="M526.5,239.5l3.6,1.8c0-0.2,0-0.4,0.1-0.6c-0.9-0.4-2.4-1-3.4-1.4C526.8,239.4,526.7,239.5,526.5,239.5z"/>
		<path d="M528.5,245.1c0,0,2.1,0.3,1.9-1.5c-0.8-0.1-1.6-0.3-2.4-0.7c-1.2-0.8-2-2-2.3-3.3c-1.6,0-1.2,0.9-1.2,0.9
			C523.8,242.8,528.5,245.1,528.5,245.1z"/>
		<path class="st10" d="M528.5,245.1c0,0,2.1,0.3,1.9-1.5c-0.8-0.1-1.6-0.3-2.4-0.7c-1.2-0.8-2-2-2.3-3.3c-1.6,0-1.2,0.9-1.2,0.9
			C523.8,242.8,528.5,245.1,528.5,245.1z"/>
		<path class="st10" d="M547.1,194.6c0.5,0.2,1,0.3,1.5,0.2c0.8,0,1.5,0.2,2.2,0.6c-0.3-4.6-6.6-5.9-6.6-5.9
			C545.8,190.8,546.8,192.6,547.1,194.6z"/>
	</g>
	<path class="st9" d="M517.1,212c1.6,13.2,6.2,29.1,18,27.6s26.5-19.7,24.8-32.9c-1.6-13.2-12.6-22.7-24.4-21.2
		S515.5,198.8,517.1,212z"/>
	<path class="st9" d="M529.8,245.8c0,0,2.1,0.4,1.9-1.5c0-0.2,0-0.3-0.1-0.5c-0.2-0.6-0.2-1.2-0.1-1.7c0-0.2,0.1-0.4,0.1-0.6
		c0.2-0.9,0.5-1.8,1-2.6l-5.3-2.2c0,0,1.5,2.5,0.9,3.4c-0.1,0.1-0.2,0.2-0.4,0.2c-0.1,0-0.3,0-0.4,0h-0.4c-1.6,0-1.2,0.9-1.2,0.9
		C525.1,243.6,529.8,245.8,529.8,245.8z"/>
	<path class="st13" d="M527.8,240.2l3.6,1.8c0-0.2,0.1-0.4,0.1-0.6c-1-0.4-2.4-1-3.4-1.4C528.1,240.1,528,240.2,527.8,240.2z"/>
	<path class="st9" d="M529.8,245.8c0,0,2.1,0.4,1.9-1.5c-0.8-0.1-1.6-0.3-2.4-0.7c-1.2-0.8-2-2-2.3-3.3c-1.6,0-1.2,0.9-1.2,0.9
		C525.1,243.6,529.8,245.8,529.8,245.8z"/>
	<path class="st10" d="M529.8,245.8c0,0,2.1,0.4,1.9-1.5c-0.8-0.1-1.6-0.3-2.4-0.7c-1.2-0.8-2-2-2.3-3.3c-1.6,0-1.2,0.9-1.2,0.9
		C525.1,243.6,529.8,245.8,529.8,245.8z"/>
	<path class="st0" d="M545.5,190.2c0,0,6.3,1.3,6.6,5.9c-0.7-0.4-1.4-0.6-2.2-0.6c-0.5,0-1,0-1.5-0.2
		C548.1,193.3,547.1,191.5,545.5,190.2z"/>
	<path class="st15" d="M530.1,241.4c2.1,0.2,3.7,2,3.5,4.1c0,0.2,0,0.4-0.1,0.6c-0.8,2.6-4,3.5-6.2,5.2s-3.1,4.6-3.4,7.3
		c-0.5,5.3,1.4,10.5,5.2,14.2c1.9,1.9,4.2,3.3,6.1,5.2c2.2,2.4,3.9,5.1,5.2,8c1.2,2.1,2,4.4,2.3,6.7c0.3,3.8-1.6,7.4-3.9,10.4
		c-2.3,3-5,5.8-6.7,9.1c-2.4,4.7-2.8,10.1-1.1,15c0.1,0.4,0.3,0.7,0.6,1c0.3,0.2,0.8,0.2,1-0.1c0,0,0,0,0-0.1"/>
	<path class="st15" d="M541.1,240.7c0.6,0.6,0.6,1.6,0.1,2.3c-0.5,0.7-1.3,1-2.2,1c-1,0-2.1-0.3-3,0.3c-0.6,0.5-0.9,1.2-0.9,1.9
		c0,0.7-0.1,1.5-0.2,2.2c-0.2,0.6-0.5,1.1-1,1.6c-0.5,0.6-1.1,1-1.8,1.3c-1.5,0.6-3.2,0.1-4.8,0.5c-2,0.6-3.1,2.8-3.7,4.8
		c-0.8,2.4-1,5-0.4,7.5c0.5,1.6,1.2,3.1,2,4.6c0.8,1.5,1.3,3.1,1.3,4.8c0,1.7-1,3.3-2.5,4"/>
	<path class="st15" d="M538.6,298.6c-2.4,3.2-3.3,8.3-7.3,9.1c-2,0.4-4.1-0.6-5.9-1.6c-4.2-2.4-8.6-4.8-13.4-5.5s-10.2,0.3-13.4,4
		c-2.2,2.5-3,5.9-4.9,8.6c-2.5,3.3-6,5.6-10,6.6c-4,1-8.1,1.3-12.2,1c-1.5,0-3.2-0.2-4.3-1.2c-0.7-0.8-1.3-1.7-1.8-2.7
		c-1.9-3.3-5.8-5.1-9.6-5.3c-3.8-0.2-7.5,0.9-11,2.3c-1.8,0.7-3.6,1.6-5.5,1.4c-2.7-0.3-4.7-2.4-6.3-4.5
		c-4.3-5.5-7.9-11.4-10.9-17.7"/>
	
		<linearGradient id="SVGID_2_" gradientUnits="userSpaceOnUse" x1="23.6681" y1="299.5055" x2="23.6681" y2="608.1184" gradientTransform="matrix(-1 -4.000000e-02 4.000000e-02 -1 477.808 897.1299)">
		<stop  offset="0" style="stop-color:#808080;stop-opacity:0.25"/>
		<stop  offset="0.54" style="stop-color:#808080;stop-opacity:0.12"/>
		<stop  offset="1" style="stop-color:#808080;stop-opacity:0.1"/>
	</linearGradient>
	<path class="st16" d="M393.9,586.9c1-3.5,1.6-6.6,1.6-6.6c0-2.3,0.6-4.6,1.8-6.6l0-1l0,0l0.3-7.1c-0.4-1.3-1-2.6-1.6-3.8
		c-1.2-2.3,0.4-10.4,0.4-10.4s5.2-11.3,4.3-18.6c-0.9-7.3,10.9-32,10.9-32c0-2.4-0.2-4.8-0.7-7.2c-0.1-0.5-0.1-1-0.1-1.5v-0.1
		c0.3-4.8,4.5-13.7,4.5-13.7l0.2-17.2c0,0-2-10.2,2.4-23.7c1.6-4.7,2.6-8.4,3.3-11.4c0.1-0.3,0.2-0.6,0.2-1
		c-8.1-1.6-14.3-2.8-14.3-2.8s5.5-19.6,8.8-22.9c3.3-3.3,6.3-14.1,6.3-14.1s2.2-13.9-0.3-18.1s-2.6-11.3-2.6-11.3s-6-4.7-6.6-6.7
		c-0.7-2-1.8-6.5-1.7-8.8c0.1-2.3,0.9-4.4,0.7-5.7c-0.2-1.2,2-5.9,1.1-8.1c-0.2-0.7-0.3-1.4-0.3-2.2c0,0,0,0,0-0.1l0,0
		c0.1-1.9,0.3-3.9,0.8-5.8c1.8-1.4,3.9-2.5,6.2-3l0.2-0.5l0.4-1.4c0.2-0.1,0.4-0.2,0.6-0.3V313l0.1-2l-0.8-4.5c-1.6-7.9,9-8.7,9-8.7
		c0.7-1.2,1.8-2.1,3.1-2.5c2.1-0.7-0.1,11.8-1.1,12.6c-0.8,0.6-3.2,4.4-4.4,6.3l0,0l-0.2,0.3c0.2,0.2,0.3,0.3,0.5,0.5l-0.5,2.7
		l-0.1,0.4c0.7,0.9,1.2,1.9,1.6,2.9c0,0-2,2-1.7,4.4c0.1,1.8-0.2,3.7-0.8,5.4c0.1-0.1,1.5-1.5,2.9-1.1c1.3,0.4,5,1.7,5,1.7
		s2.8,0.6,2.5,1.2c-0.3,0.6,1.8,3.4,1.8,3.4l7.9-6.7c0.1-0.2,0.2-0.4,0.2-0.6c0.4-1,0.6-2,0.8-3.1c-0.8-0.2-1.6-0.5-2.4-0.9
		c-0.8-0.3-1.5-0.8-2-1.4c-0.6-1-1-2.1-1.1-3.3c-0.5-2.2-1.7-4.2-2.6-6.3c-1.4-3.6-1.8-7.5-1.1-11.3c0.2-1.2,0.6-2.3,1.3-3.2
		c1.3-1.6,3.6-2.3,5.2-3.5c1.6-1.3,2.8-3.3,4.7-4.3c1.7-0.9,3.8-0.7,5.7-0.3c3.8,0.8,7.3,2.2,10.5,4.3c1.1,0.7,2.3,1.5,3.5,1.3
		c1.1-0.3,2-0.9,2.7-1.8v-0.1l0.1-0.1c0.7,1.8,1.1,3.7,1,5.7c0,0.3,0,0.6-0.1,0.9v0.3c0,0.1,0,0.2,0,0.3l0,0c0,0.1,0,0.3,0,0.4
		c0.1,0.4,0.4,0.8,0.7,1c0.2,0.3,0.4,0.6,0.6,0.9c0-0.1-0.1-0.2-0.1-0.3c0.5,0.7,0.7,1.6,0.7,2.4c0,0.6-0.2,1.2-0.6,1.7
		c-0.4,0.4-0.8,0.7-1.3,0.9c0.9,6-2.1,11.9-7.5,14.7c-0.1,0.2-0.2,0.4-0.3,0.6c-1.2,2.6-1.8,5.4-1.7,8.2c0,0.2,0,0.4,0.1,0.6
		c0.1,0.1,0.2,0.2,0.3,0.3l0,0c0,0,12.4,0.6,15.5-1.9c3-2.5,7.2,6.8,7.2,6.8s4.4,1,5.4,0.2c0.9-0.8,6.1,0.1,6.1,0.1
		c2.2-1.8,5-2.7,7.9-2.5c1.8-1.3,3.8-2.3,5.8-3l0,0h0.1l0,0c0.9-0.3,1.9-0.4,2.8-0.3c0,0,6.3-4.8,8.2-7.5
		c1.9-2.6,10.8-12.4,10.8-12.4l0-0.5l0.2-1.5c0.3,0.1,0.5,0.1,0.8,0.1c0.1-0.1,0.1-0.3,0.2-0.5c0.5-1.4,1.2-2.8,2-4.1
		c0,0,0.1-1.9-0.5-2.3s0.5-7.3,0.5-7.3s6-12.7,10.6-2.9c0,0,9.1,6.6,1,13.6c0,0-3.2,1.4-3.7,2.6c-0.3,0.8-1.5,2.9-2.2,4.3
		c-0.1,0.2-0.3,0.4-0.3,0.6l0.1,0.1l-0.2,1.2l-0.1,0.5c1.5,0.9,2.4,1.8,2.2,2.4c-0.5,1.1-0.8,2.2-1,3.3c0,0-11.4,13.2-13,18.9
		c0,0-29.8,16.1-39.4,17l1.3,8.7c0,0,0.3,5.2,0.1,7.1c-0.2,1.8,0.8,10.3,0.8,10.3s1.2,12.4,2.5,14.2c1.3,1.8,0.8,9.2,0.8,9.2
		c0.2,3.6,0.7,7.1,1.5,10.6c1.2,4.8,0,10.5,0,10.5s4.4,11.3-6.9,3.3c0,0-5.7-0.6-12.2-1c0,0.2,0,0.4,0,0.7c0,0.8,0,1.8-0.1,2.7
		c-0.2,6.4-0.5,15.2-1,21.8c-1,11.7-5.4,34.8-5.4,34.8l-0.4,11.7c0.2,1.1,0.3,2.2,0.2,3.3c-0.1,4.1-1.3,8.1-3.6,11.6l-1.4,7.7
		c0,0-2.3,5-2.5,8.1c0,0.2,0,0.5,0.1,0.7c0.1,0.4,0.1,0.8,0.1,1.2c0,3.5-2.5,11.9-2.5,11.9s-0.5,8.5-1.8,9c-1.1,0.4,1.3,5,2,6.3
		c0-0.1,0-0.2,0.1-0.2l0.2,0.3c0.2,0.7,0.3,1.4,0.3,2.2c0.1,1.2-0.5,2.3-1.5,2.9c-2.5,1.4-3.8,2.6-1.8,3.1c0.8,0.2,1.6,0.3,2.2,0.6
		c0-0.1,0.1-0.2,0.1-0.3c0.6,0.3,0.9,0.9,0.8,1.5c-0.1,1-0.4,2-0.9,2.9c-1,2.2-2.2,4.3-3.7,6.2l-1-0.1c0.1,0.4,0.3,0.7,0.5,1.1
		c0.4,0.5,0.8,1,1.4,1.3c0.5,0.3,1.1,0.6,1.7,0.7c1.4,0.1,2.7,0.8,3.6,1.9c1.2,1.7,1.9,4-0.7,5.8l-9.2,2.8c0,0-15.8,1.4-14.8-2.1
		s1.6-6.6,1.6-6.6c0-2.1,0.6-4.2,1.6-6.1c0.2-0.3,0.4-0.6,0.6-0.9l-0.6-0.1c0,0-0.8-7.8-2.3-9.4c-0.3-0.4-0.4-0.6-0.3-0.8
		c-0.1-0.4,0.3-0.7,0.8-0.8c0,0.1,0.1,0.2,0.1,0.3c0.5-0.1,1-0.1,1.5-0.1c0,0,0.7-4.1-0.9-5.6c-0.3-0.4-0.4-0.8-0.3-1.2
		c0-0.6,0.1-1.1,0.2-1.7l0.1,0.1c1-3.7,4-9.4,4-9.4s0.3-3.7-0.7-5.2s0.9-20.1,0.9-20.1s0-9,1.3-13.2c1.3-4.2-1.1-9.2-1.1-9.2v-0.3
		c0,0,0,0,0-0.1l0.2-1.4v0.1c0.3-2.4,1-6.7,1.4-8.7c0.6-2.8,0.5-16.4,0.5-16.4l-2.1-5.9l-4.5,9.9l-4.8,13.1c0,0-2.3,2.7-2.4,5.6
		c0,0.1,0,0.3,0,0.4c0,0.3,0,0.6,0,0.9c0,1.7-0.5,3.3-1.5,4.7c0,0-1.4,6.3-3.2,7.8c-1.8,1.5-2,4.6-2,4.6s-2.5,9.1-3.6,10.6
		c-0.9,1.3-1.1,5-1.1,6.2l0,0c0,0.2,0,0.3,0,0.3s-0.4,3.3-0.5,6c0,0.3,0,0.7,0,1c0,0,0-0.1,0-0.1c0,0.7,0,1.5,0.2,2.2
		c0,0,0,0.1,0,0.1v-0.5c0.4,1.9,0.5,3.8,0.4,5.7c-0.1,3.3-0.7,7.2-2.8,9.4c-3.6,3.8-5.7,3.2-5.7,3.2s1.5,5,3.5,6.1
		c0.1,0,0.2,0.1,0.2,0.1c0-0.1,0-0.2,0.1-0.3c0.4,0.5,0.6,1.2,0.5,1.9c0.1,2.2-1.4,5.7-2.8,7.2c-0.5,0.5-1.1,0.8-1.8,0.9l0.3,0.2
		c0.3,0.1,0.5,0.3,0.7,0.4c0.3,0.2,0.7,0.3,1,0.3c1.4,0.1,2.7,0.8,3.6,1.9c1.2,1.7,1.9,4-0.7,5.8l-9.3,2.8
		C408.7,588.9,392.9,590.4,393.9,586.9z"/>
	<path class="st17" d="M453.6,595l9-2.8c2.5-1.9,1.8-4.2,0.7-5.8c-0.8-1.1-2.1-1.8-3.4-1.9c-0.6-0.1-1.2-0.3-1.7-0.7
		c-0.5-0.3-1-0.8-1.3-1.3c-0.6-1-0.9-2.2-0.9-3.5c0,0-9.6-3.2-12.4-0.5c-0.5,0.5-0.9,1.1-1.2,1.7c-1,1.9-1.5,4.1-1.5,6.2
		c0,0-0.6,3.1-1.5,6.6C438.4,596.5,453.6,595,453.6,595z"/>
	<path class="st17" d="M410.6,589l9-2.8c2.5-1.9,1.8-4.2,0.7-5.8c-0.8-1.1-2.1-1.8-3.4-1.9c-0.3-0.1-0.7-0.2-1-0.3
		c-0.2-0.1-0.5-0.2-0.7-0.4c-2.4-1.5-2.3-4.7-2.3-4.7s-9.6-3.2-12.3-0.5c-0.4,0.4-0.7,0.8-1,1.2c-1.1,2-1.7,4.3-1.7,6.7
		c0,0-0.6,3.1-1.6,6.6C395.3,590.5,410.6,589,410.6,589z"/>
	<path class="st10" d="M443.6,578.6c-0.5,0.5-0.9,1.1-1.2,1.7l0,0l14.5,2.2c-0.6-1-0.9-2.2-0.9-3.5
		C455.9,579,446.3,575.8,443.6,578.6z"/>
	<path class="st10" d="M399.5,573.8l-0.1,2.7c2.1,3.8,13.1,3.4,16.3,1.7c-0.2-0.1-0.5-0.2-0.7-0.4c-2.4-1.4-2.3-4.7-2.3-4.7
		s-9.6-3.2-12.3-0.5C400.1,573,399.8,573.4,399.5,573.8z"/>
	<path class="st3" d="M398.3,562c0.6,1.2,1.2,2.5,1.6,3.8l-0.4,9.8c2.3,4.2,15.2,3.3,17,1.1c1.8-2.2,3.9-7.9,2-9
		c-1.9-1.1-3.4-6.1-3.4-6.1s2.1,0.6,5.6-3.2c3.5-3.8,2.8-12.6,2.3-14.8c-0.5-2.1,0.4-9.1,0.4-9.1s0.1-4.9,1.1-6.5
		c1-1.6,3.5-10.6,3.5-10.6s0.1-3.1,1.9-4.6c1.8-1.5,3.1-7.8,3.1-7.8c1.1-1.5,1.6-3.4,1.4-5.3c-0.3-3.1,2.3-6.3,2.3-6.3l4.7-13.2
		l4.3-9.9l2,6c0,0,0.1,13.6-0.5,16.4c-0.6,2.8-1.6,10.3-1.6,10.3s2.3,5,1,9.2c-1.3,4.2-1.2,13.2-1.2,13.2s-1.8,18.6-0.9,20.1
		c0.9,1.5,0.7,5.2,0.7,5.2s-5.5,10.7-3.9,12.2c1.6,1.5,0.9,5.6,0.9,5.6s-3.5-0.1-2,1.4c1.4,1.5,2.3,9.3,2.3,9.3l14.9,2.3
		c1.4-1.9,2.6-4,3.6-6.2c2.2-4.5-0.2-4.1-2.2-4.7c-2-0.6-0.7-1.8,1.7-3.1c2.4-1.4,1.2-4.8,1.2-4.8s-3.4-6.2-2.1-6.6s1.7-9,1.7-9
		s2.9-10,2.3-12.8c-0.5-2.7,2.3-9.2,2.3-9.2l1.2-7.7c2.8-4.3,4-9.5,3.3-14.6l0.5-12c0,0,4.3-23.1,5.3-34.8c0.6-7.5,0.9-17.8,1-24.2
		c0.1-3.6,0.1-6,0.1-6l-53.1-7.6c-0.2,2.7-0.6,5.3-1.3,7.9c-0.7,2.9-1.7,6.7-3.2,11.4c-4.4,13.4-2.4,23.7-2.4,23.7l-0.2,17.2
		c0,0-5.1,11.3-4.3,15.3c0.5,2.4,0.7,4.8,0.7,7.2c0,0-11.5,24.7-10.6,32c0.8,7.3-4.2,18.6-4.2,18.6S397.1,559.7,398.3,562z"/>
	<path class="st7" d="M431.2,498.8l-16.1-2.8C415.1,496,423.9,505.8,431.2,498.8z"/>
	<path class="st10" d="M418,480.2c0,0-0.8,5.7,2.7,8C420.7,488.3,414.4,487,418,480.2z"/>
	<path class="st10" d="M419.7,462c0,0,13.2,11.7,18.1,11C442.8,472.2,419.7,462,419.7,462z"/>
	<path class="st10" d="M451.2,504.8c0,0,10.2,2.7,10.4,6.9C461.7,515.9,451.2,504.8,451.2,504.8z"/>
	<path class="st7" d="M446.9,556.3c0,0,14.5,3.3,10.3,5c-3.6,1.3-7.3,2.2-11,2.9C446.1,564.1,441.4,564.2,446.9,556.3z"/>
	<g class="st18">
		<path d="M460,564.3c0.8-0.4,1.3-1.2,1.4-2.1l0.1,0.3c0,0,1.2,3.4-1.2,4.8l-0.8,0.5c-0.4-0.1-0.9-0.2-1.3-0.3
			C456.3,566.9,457.7,565.7,460,564.3z"/>
		<path d="M441.3,562.6c-0.4-0.4-0.3-1.3,0-2.5c0.6,1.1,0.8,2.4,0.7,3.6C441.8,563.2,441.6,562.9,441.3,562.6z"/>
		<path d="M445.9,501.2c0.5,1.5,0.8,3,0.8,4.6c-0.2-1.1-0.6-2.1-1-3.2C445.7,502.6,445.8,502.1,445.9,501.2z"/>
		<path d="M412.8,493.4c-0.1-0.4-0.1-0.9-0.1-1.4c0.1,0.9,0.2,1.8,0.3,2.5C412.9,494.2,412.8,493.8,412.8,493.4z"/>
		<path d="M444.5,545.1c-0.3-0.9-0.3-1.8-0.3-2.8c0.4,1.1,0.6,2.3,0.6,3.5C444.8,545.6,444.7,545.4,444.5,545.1z"/>
		<path d="M440.6,568.3c0.7,2.5,1.2,5.1,1.4,7.6l14.9,2.3c1.4-1.9,2.6-4,3.6-6.2c0.2-0.4,0.3-0.8,0.5-1.1c0.9,0.4,1.2,1.4-0.1,4.1
			c-1,2.2-2.2,4.3-3.6,6.2l-14.9-2.3c0,0-0.8-7.8-2.2-9.4C439.4,568.8,439.9,568.5,440.6,568.3z"/>
		<path d="M461.2,546.9c0,0-0.4,8.5-1.7,9l0,0c-0.6-1.4-0.9-2.8-0.4-3c1.3-0.4,1.7-9,1.7-9s2.9-10,2.3-12.8
			c-0.5-2.7,2.3-9.2,2.3-9.2l1.2-7.7c2.8-4.3,4-9.5,3.3-14.6l0.5-12c0,0,4.4-23.1,5.3-34.8c0.6-7.5,0.9-17.8,1.1-24.2
			c0-1.2,0-2.2,0.1-3.1l0.4,0.1c0,0,0,2.4-0.1,6c-0.1,6.4-0.4,16.7-1,24.2c-1,11.7-5.3,34.8-5.3,34.8l-0.5,12
			c0.7,5.1-0.5,10.3-3.3,14.6l-1.2,7.7c0,0-2.8,6.4-2.3,9.2S461.2,546.9,461.2,546.9z"/>
		<path d="M416.1,573.4c1.3-1.7,2.2-3.7,2.6-5.8c1.5,1.4-0.5,6.7-2.2,8.8s-14.7,3-17-1.1l0.1-2.3
			C402.8,576.3,414.4,575.4,416.1,573.4z"/>
		<path d="M397.9,558.7c0.6,1.2,1.2,2.5,1.6,3.8l-0.1,1.7c-0.3-0.6-0.6-1.5-1.1-2.5C397.9,560.7,397.8,559.6,397.9,558.7
			L397.9,558.7z"/>
		<path d="M415.8,561.3c-0.4-1-0.8-2-1.1-3c0,0,2.1,0.6,5.6-3.2c2.5-2.8,2.9-8.2,2.7-11.8c0.5,2.1,1.2,10.9-2.3,14.8
			C418.4,560.6,416.7,561.2,415.8,561.3z"/>
		<path d="M423.3,534.2c-0.3,2.4-0.5,4.9-0.5,7.3c-0.1-0.5-0.1-0.9-0.2-1.2c-0.5-2.1,0.4-9.1,0.4-9.1s0.1-4.9,1.1-6.5
			c1-1.6,3.5-10.6,3.5-10.6s0.1-3.1,1.9-4.6s3.1-7.8,3.1-7.8c1.1-1.5,1.6-3.4,1.4-5.3c-0.3-3.1,2.3-6.3,2.3-6.3l4.7-13.2l4.3-9.9
			l2,5.9c0,0,0,0.7,0,1.9l-1.6-4.8l-4.3,9.9l-4.7,13.2c0,0-2.6,3.2-2.3,6.3c0.1,1.9-0.4,3.7-1.4,5.3c0,0-1.4,6.3-3.1,7.8
			S428,517,428,517s-2.5,9.1-3.5,10.6S423.3,534.2,423.3,534.2z"/>
	</g>
	<path class="st19" d="M421.7,306.5l0.8,4.5l-0.1,2l-0.1,1.5l5.1,0.7l0.6-1l0,0c1.1-1.9,3.5-5.7,4.3-6.3c1-0.8,3.2-13.2,1.1-12.6
		c-1.3,0.4-2.3,1.3-3,2.5C430.3,297.9,420.2,298.6,421.7,306.5z"/>
	<path class="st10" d="M422.2,314.6l5.1,0.7l0.6-1l0,0c-1.4-1.7-3.7-2.2-5.6-1.2L422.2,314.6z"/>
	<path class="st20" d="M420.8,317l6.7,1.8l0.2-1l0.5-2.7c-1.5-2.1-4.4-2.7-6.5-1.2c0,0,0,0,0,0l-0.4,1.4L420.8,317z"/>
	<path class="st19" d="M531.3,311.3l7.1,4.2l0.7-1.3c0.7-1.4,1.9-3.6,2.2-4.3c0.5-1.2,3.6-2.6,3.6-2.6c7.9-7-0.9-13.5-0.9-13.5
		c-4.4-9.8-10.3,2.9-10.3,2.9s-1,6.8-0.5,7.3c0.5,0.5,0.4,2.3,0.4,2.3c-0.7,1.3-1.4,2.7-1.9,4.1
		C531.4,310.8,531.3,311.3,531.3,311.3z"/>
	<path class="st10" d="M531.3,311.3l7.1,4.2l0.7-1.3c-1-0.9-4.5-4-5.7-3.9c-0.6,0.1-1.1,0.1-1.7,0
		C531.4,310.8,531.3,311.3,531.3,311.3z"/>
	<path class="st20" d="M530.5,313.4l8,4.3l0.2-1.8l0.2-1.2c0,0-4.6-4.2-6-4.1c-0.7,0.1-1.4,0-2.1-0.1l-0.2,1.5L530.5,313.4z"/>
	<path class="st19" d="M440.3,337.3c0,0,35.4,5.4,28.8,3c-4.6-1.7-6.3-4.7-6.6-8c-0.1-2.8,0.5-5.6,1.6-8.2c0.9-2.2,2.1-4.3,3.4-6.3
		c0,0-26.6-16-21.7-2.2c0.8,2.1,1.2,4.3,1.3,6.5c0.1,2.2-0.2,4.4-1,6.5C445.1,332,443.1,335,440.3,337.3z"/>
	<path class="st10" d="M446,315.6c0.8,2.1,1.2,4.3,1.3,6.5c2.5,2.2,5.3,2.2,8.9,2.3c2.8,0.1,5.8,0.9,8.1-0.3
		c0.9-2.2,2.1-4.3,3.4-6.3C467.7,317.8,441,301.8,446,315.6z"/>
	
		<ellipse transform="matrix(0.1602 -0.9871 0.9871 0.1602 77.258 712.1619)" class="st19" cx="457.2" cy="310.7" rx="14.7" ry="14.7"/>
	<path class="st10" d="M440.3,337.3c0,0,35.4,5.4,28.8,3c-4.6-1.7-6.3-4.7-6.6-8c-1.7-2-5.2-3.5-7.5-4.3c-2.1-0.8-4.3-0.9-6.4-0.3
		c-0.8,0.2-1.6,0.6-2.4,1C445.1,332,443.1,335,440.3,337.3z"/>
	<path class="st10" d="M420.8,317l6.7,1.8l0.2-1c-1.4-2.1-4-3.1-6.4-2.5L420.8,317z"/>
	<path class="st10" d="M530.5,313.4l8,4.3l0.2-1.8c-2.6-1.5-5.3-2.8-8.1-4L530.5,313.4z"/>
	<path class="st10" d="M422.8,426.3c13.7,2.7,33.2,6.3,36.3,5.5c2.6-0.7,10.8-0.3,18,0.2c0.1-3.6,0.1-6,0.1-6l-53.1-7.6
		C423.9,421,423.5,423.7,422.8,426.3z"/>
	<path class="st3" d="M409.2,422.5c0,0,45,9.5,50,8.2c4.9-1.3,29.8,1.3,29.8,1.3c10.9,8,6.7-3.3,6.7-3.3s1.2-5.8,0-10.5
		c-0.8-3.5-1.3-7-1.4-10.6c0,0,0.5-7.4-0.8-9.2c-1.3-1.8-2.4-14.2-2.4-14.2s-0.9-8.4-0.7-10.3c0.2-1.8-0.1-7.1-0.1-7.1l-1.3-8.7
		c9.3-0.9,38.1-17.1,38.1-17.1c1.6-5.7,12.6-18.9,12.6-18.9c0.2-1.1,0.5-2.2,1-3.3c0.8-1.9-10.1-6.3-10.1-6.3s-8.7,9.8-10.5,12.5
		s-8,7.5-8,7.5c-0.9-0.1-1.8,0-2.7,0.3h-0.1l0,0c-2,0.7-3.9,1.7-5.7,3c-2.8-0.2-5.5,0.7-7.6,2.5c0,0-5-0.9-5.9-0.1
		c-0.9,0.8-5.2-0.2-5.2-0.2s-4-9.3-6.9-6.8c-2.9,2.5-15,2-15,2c-1.5-2.2-5.4-3.9-7.8-4.8c-2.1-0.8-4.3-0.9-6.4-0.4
		c-0.9,0.2-1.8,0.6-2.6,1.1l-7.6,6.9c0,0-2-2.8-1.7-3.4c0.3-0.6-2.4-1.2-2.4-1.2s-3.6-1.2-4.9-1.7c-1.3-0.4-2.6,1-2.8,1.1
		c0.6-1.7,0.9-3.6,0.8-5.4c-0.3-2.4,1.6-4.4,1.6-4.4c-3.9-10.8-14-2.3-14-2.3s-1.3,5.8-0.4,8c0.9,2.3-1.3,6.9-1.1,8.1
		c0.2,1.2-0.6,3.3-0.7,5.7c-0.1,2.3,1,6.8,1.6,8.8c0.7,2,6.4,6.7,6.4,6.7s0.1,7.1,2.5,11.2s0.3,18.1,0.3,18.1s-2.9,10.8-6.1,14.1
		S409.2,422.5,409.2,422.5z"/>
	<path class="st10" d="M478.4,343.8c0,0,1.5-4,2.8-4.3c1.2-0.4,2.5-0.9,3.6-1.5l-0.7-1.6c0,0-4.7,1.1-5.5,2.4
		C477.8,340.2,478.4,343.8,478.4,343.8z"/>
	<path class="st10" d="M503.6,335.7c0.2,1.2,11.2,2.8,11.2,2.8l-5.4-5.8l0,0h-0.1l0,0C507.2,333.4,505.3,334.5,503.6,335.7z"/>
	<path class="st10" d="M477,377.3c0.1-0.1-29.1,33.9-49.9,12.8C427.2,390.1,461.1,396,477,377.3z"/>
	<path class="st10" d="M484.6,359.6c-1.9,3.9-4.2,7.5-6.9,10.8c-3,3.7-6.5,6.8-10.5,9.4C467.2,379.8,484.3,361.9,484.6,359.6z"/>
	<path class="st10" d="M490.8,340.5c0,0-3.2,11.9-10.6,15.7L490.8,340.5z"/>
	<path class="st10" d="M495,341.9c0.1-0.2,2.1,9.6-9.8,14.5C485.2,356.4,490.3,354.9,495,341.9z"/>
	<path class="st10" d="M422.6,331c0.2,0-5.9,3.6-7.6,5.3C415,336.3,419.1,330.6,422.6,331z"/>
	<path class="st3" d="M460.6,324.2c-0.1,0.8-0.6,1.5-1.2,1.9c-0.4,0.2-0.9,0.3-1.4,0.3c-4.5,0.1-9.2,0.1-13.2-1.8
		c-0.8-0.3-1.4-0.8-2-1.4c-0.6-1-0.9-2.1-1-3.3c-0.5-2.2-1.7-4.2-2.5-6.3c-1.4-3.6-1.7-7.5-1-11.2c0.2-1.2,0.6-2.3,1.2-3.2
		c1.3-1.6,3.4-2.3,5.1-3.5s2.7-3.3,4.6-4.3c1.7-0.9,3.7-0.7,5.6-0.3c3.6,0.8,7.1,2.2,10.2,4.3c1,0.7,2.2,1.5,3.4,1.3
		c1.1-0.3,2-1,2.6-1.9c0.8,2,1.1,4.3,0.9,6.4c-0.1,0.3-0.1,0.6,0,1c0.1,0.4,0.4,0.7,0.6,1c1.1,1.3,1.7,3.4,0.5,4.6
		c-0.5,0.6-1.2,0.8-1.7,1.4c-0.9,1-0.7,2.5-0.7,3.8c0,0.5-0.1,0.9-0.4,1.3c-0.5,0.4-1.2,0.6-1.8,0.4c-0.6-0.2-1.3-0.3-1.9-0.3
		c-0.7,0.2-1.3,0.6-1.7,1.2C462.5,318.2,461.6,321,460.6,324.2z"/>
	<g class="st8">
		<path d="M442.3,322c0.5,0.6,1.2,1.1,2,1.4c4.1,1.9,8.8,1.9,13.2,1.8c0.5,0,1-0.1,1.4-0.3c0.6-0.5,1.1-1.2,1.2-1.9
			c1-3.1,1.9-6,4.1-8.5c0.4-0.6,1-1,1.7-1.2c0.7,0,1.3,0.1,1.9,0.3c0.6,0.2,1.3,0.1,1.8-0.4c0.3-0.4,0.4-0.8,0.4-1.3
			c0-1.3-0.2-2.8,0.7-3.8c0.5-0.6,1.2-0.8,1.7-1.4c0.7-0.8,0.8-2,0.4-2.9c0.7,1.3,1,2.9,0.1,3.9c-0.5,0.5-1.2,0.8-1.7,1.4
			c-0.9,1-0.6,2.5-0.7,3.8c0,0.5-0.1,0.9-0.4,1.3c-0.5,0.4-1.2,0.6-1.8,0.4c-0.6-0.2-1.3-0.3-1.9-0.3c-0.7,0.2-1.3,0.6-1.7,1.2
			c-2.2,2.6-3.1,5.4-4.1,8.6c-0.1,0.8-0.6,1.5-1.2,1.9c-0.4,0.2-0.9,0.3-1.4,0.3c-4.5,0.1-9.2,0.1-13.2-1.8c-0.8-0.3-1.4-0.8-2-1.4
			c-0.3-0.4-0.5-0.8-0.6-1.2L442.3,322z"/>
		<path d="M471.8,301.7c-0.2-0.2-0.3-0.5-0.4-0.8c-0.1-0.3-0.1-0.6,0-1c0.2-1.8,0-3.6-0.5-5.4l0.1-0.1c0.8,2,1.1,4.3,0.9,6.4
			C471.8,301.2,471.7,301.5,471.8,301.7z"/>
	</g>
	<path class="st10" d="M462.9,333.2c0,0-18.5,1.7-20-1.1"/>
	<path class="st10" d="M427.5,324.2c0,0-10.2-0.4-12.6,3.4"/>
</g>
</svg>
