<?xml version="1.0" encoding="utf-8"?>
<!-- Generator: Adobe Illustrator 23.0.2, SVG Export Plug-In . SVG Version: 6.00 Build 0)  -->
<svg version="1.1" id="Calque_1" xmlns="http://www.w3.org/2000/svg" xmlns:xlink="http://www.w3.org/1999/xlink" x="0px" y="0px"
	 viewBox="0 0 566.9 890.1" style="enable-background:new 0 0 566.9 890.1;" xml:space="preserve">
<style type="text/css">
	.st0{fill:#2498A0;}
	.st1{fill:#337A7C;}
	.st2{fill:none;}
	.st3{fill:#FFFFFF;}
	.st4{font-family:'Bungee-Regular';}
	.st5{font-size:38.1391px;}
	.st6{font-size:37px;}
	.st7{font-size:26px;}
	.st8{letter-spacing:18;}
	.st9{opacity:0.1;fill:#E7AB25;enable-background:new    ;}
	.st10{fill:url(#SVGID_1_);}
	.st11{fill:#BE6F73;}
	.st12{fill:#403E56;}
	.st13{fill:#66627D;}
	.st14{opacity:0.1;fill:#020203;enable-background:new    ;}
	.st15{fill:#E3E8F4;}
	.st16{opacity:0.1;}
	.st17{fill:#020203;}
	.st18{fill:#E7AB25;}
	.st19{opacity:0.1;fill:#FFFFFF;enable-background:new    ;}
	.st20{fill:url(#SVGID_2_);}
	.st21{fill:#ED6D72;}
	.st22{fill:#F7BEBE;}
	.st23{fill:#454153;}
	.st24{fill:#E8E9F0;}
</style>
<rect x="-0.6" y="-0.4" class="st0" width="566.9" height="890.1"/>
<rect x="73.3" y="244.9" class="st1" width="427.4" height="4.2"/>
<rect x="64.1" y="260.3" class="st2" width="439.2" height="138.5"/>
<text transform="matrix(1 0 0 1 140.6557 310.374)" class="st3 st4 st5">Remporte le </text>
<text transform="matrix(1 0 0 1 65.9557 356.174)" class="st3 st4 st5">maximum de niveaux</text>
<rect x="73.3" y="406.9" class="st1" width="427.4" height="4.2"/>
<rect x="68.5" y="581.4" class="st2" width="439.2" height="324"/>
<text transform="matrix(1 0 0 1 89.6748 481.9739)" class="st3 st4 st6">Remporte le plus </text>
<text transform="matrix(1 0 0 1 94.5748 526.3739)" class="st3 st4 st6">de niveaux, mais </text>
<text transform="matrix(1 0 0 1 140.9748 570.7739)" class="st3 st4 st6">méfie-toi du </text>
<text transform="matrix(1 0 0 1 106.7748 615.1739)" class="st3 st4 st6">professeur x. il </text>
<text transform="matrix(1 0 0 1 143.1748 659.5739)" class="st3 st4 st6">augmente la </text>
<text transform="matrix(1 0 0 1 76.2748 703.9739)" class="st3 st4 st6">difficulté niveau </text>
<text transform="matrix(1 0 0 1 129.1748 748.3739)" class="st3 st4 st6">après niveau !</text>
<text transform="matrix(1 0 0 1 121.0865 544.129)" class="st3 st4 st7"> </text>
<text transform="matrix(1 0 0 1 235.6865 544.129)" class="st3 st4 st7"> </text>
<text transform="matrix(1 0 0 1 365.2865 544.129)" class="st3 st4 st7"> </text>
<text transform="matrix(1 0 0 1 406.5864 544.129)" class="st3 st4 st7"> </text>
<text transform="matrix(1 0 0 1 483.6864 544.129)" class="st3 st4 st7"> </text>
<text transform="matrix(1 0 0 1 158.0865 575.329)" class="st3 st4 st7 st8"> </text>
<text transform="matrix(1 0 0 1 368.9866 575.329)" class="st3 st4 st7 st8"> </text>
<g>
	<title>winners</title>
	<path class="st9" d="M322.2,169.1c7.3-0.4,16.5-5.4,23.5-7.6c8.4-2.6,16.8-5.1,25.3-7.5c29.4-8.4,59.2-15.5,89.2-21.4
		c2.8-0.6,5.6-1.1,8.4-1.6c-4.4-9.5-11.2-17.6-19.7-23.7c0.2-2.1,0.3-4.2,0.3-6.2c0-33-26.3-59.7-58.8-59.7c-10,0-19.8,2.6-28.6,7.5
		c-23-15.1-53-24.3-85.9-24.3c-46.7,0-87.7,18.5-110.9,46.3l109.1,18.4l66.9,11.3c-76.3,2.3-152.8,4.5-228.9-0.8
		c-20.7,20-24.3,51.9-8.7,76.1l0,0c0,1.2,0,2.4,0.1,3.6c1.9,0.6,3.8,1.1,5.5,1.4c26.9,5.7,54.1,10.5,81.4,14.3
		c-20.1,12.4-44.6,14.2-67.8,19.4c11.2,9.3,26.5,15,43.3,15h250.3c27.1,0,49.1-18.9,49.1-42.2l0,0c4.1-6.7,6.8-14.1,8-21.9
		C423.4,170.5,372.6,166.3,322.2,169.1z"/>
	<path class="st9" d="M473.9,155.7c0.1-19.5-9.4-37.8-25.3-49c0.2-2.1,0.3-4.2,0.3-6.2c0-33-26.3-59.7-58.8-59.7
		c-10,0-19.8,2.6-28.6,7.5c-23-15.1-53-24.3-85.9-24.3c-53.4,0-99.4,24.2-119.8,59c-1.1-0.1-2.3-0.1-3.4-0.1
		c-32.5,0-58.8,26.7-58.8,59.7c0,11.6,3.3,23,9.7,32.8l0,0c0,29.7,28,53.7,62.5,53.7h250.3c27.1,0,49.1-18.9,49.1-42.2l0,0
		C470.9,177.5,473.9,166.7,473.9,155.7z"/>
	
		<linearGradient id="SVGID_1_" gradientUnits="userSpaceOnUse" x1="404.3071" y1="-231.8971" x2="404.3071" y2="-365.6451" gradientTransform="matrix(1 0 0 1 -42.0354 412.4569)">
		<stop  offset="0" style="stop-color:#808181;stop-opacity:0.25"/>
		<stop  offset="0.54" style="stop-color:#808181;stop-opacity:0.12"/>
		<stop  offset="1" style="stop-color:#808181;stop-opacity:0.1"/>
	</linearGradient>
	<path class="st10" d="M404.1,119.2c-0.5-0.4-1-0.6-1.6-0.7s-1.3-0.2-1.9-0.3l-8.2-1.2c-0.8-0.2-1.7-0.2-2.5-0.1s-1.6,0.5-2.2,1.1
		c-0.2,0.3-0.4,0.7-0.4,1.1s0.2,0.8,0.4,1.1c0.1,0.2,0.1,0.3,0.2,0.5c0.1,0.4,0.2,0.7,0.3,1.1c0,0.1,0.1,0.2,0.1,0.2s0,0,0,0.1
		c-0.1,0.5,0.2,0.9,0.1,1.4c-0.1,0.4-0.5,0.6-0.7,0.9c-0.3,0.5-0.3,1.1,0,1.5c0.2,0.4,0.7,0.6,0.8,1.1c0.2,0.6-0.3,1.1-0.7,1.6
		c-0.8,0.8-1.4,1.7-2.1,2.6c-0.2,0.2-0.3,0.5-0.3,0.8c0,0.6,0.5,1.1,0.4,1.7c-0.1,0.5-0.5,0.7-0.9,1c-1.4,0.9-2.5,2.4-2.7,4.1
		c-0.4-2.7-1.5-5.2-3.2-7.3c-0.5-0.6-1-1.1-1.2-1.9c-0.1-0.3-0.1-0.6-0.2-0.9c-0.3-0.9-1.4-1.3-1.9-2.1c-0.3-0.6-0.3-1.3-0.7-1.8
		c-0.4-0.5-1.1-0.6-1.4-1.1c-0.2-0.3-0.3-0.7-0.5-1c-0.1-0.3-0.4-0.5-0.6-0.7c0,0-0.1-0.1-0.2-0.1c0.1-0.1,0.2-0.2,0.2-0.4
		c0-0.4-0.4-0.6-0.7-0.8c-0.4-0.2-0.9-0.5-1.3-0.8c0.4-0.2,0.8-0.5,1.1-0.9c0.4-0.6,0.5-1.3,0.4-2c0-0.6-0.2-1.1-0.6-1.5
		c-0.2-0.2-0.5-0.4-0.7-0.6c-0.6-0.6-0.8-1.4-1-2.1c-0.3-1-0.8-2-1.7-2.6c-0.4-0.3-1-0.4-1.4-0.6c-0.4-0.3-0.8-0.8-0.6-1.3
		c0.1-0.3,0.4-0.6,0.6-0.8c0.5-0.8,0.3-1.8-0.4-2.3c-0.2-0.2-0.5-0.3-0.6-0.6c-0.4-0.1-0.7-0.4-0.8-0.8c-0.1-0.4-0.1-0.8,0-1.2
		c0.1-0.6,0.2-1.2,0.3-1.8c0.3,0.1,0.6,0.1,0.9,0c0.3,0.5,0.6,0.9,1,1.3c1,1.2,1.8,2.6,2.3,4c0.2,0.5,0.4,1.1,0.9,1.4
		c0.2,0.1,0.4,0.1,0.5,0.2c0.2,0.1,0.4,0.3,0.5,0.5c0.4,0.5,0.8,1.1,1.2,1.6v0.1c0,0,0,0.1,0.1,0.1c0.1,0.1,0.2,0.1,0.3,0.1
		c1.2,0.3,2.6,0.5,3.7-0.1c1-0.6,1.4-1.8,2.2-2.6c0.6-0.6,1.4-1,1.6-1.8c-0.2-0.1-0.4-0.1-0.6-0.2c0.2-0.2,0.3-0.4,0.6-0.6
		c0.3-0.3,0.6-0.7,0.9-1.1c0.3-0.5,0.5-1,0.7-1.5c0.6-1.8,1.3-3.7,1.9-5.5c0.3-0.9,0.6-1.7,1-2.6s0.9-1.8,1.3-2.7
		c1.1-2.3,2-4.8,2.6-7.3c0.1-0.3,0.1-0.7,0.1-1.1c-0.1-0.6-0.5-1-0.9-1.4c-0.4-0.5-0.9-0.8-1.4-1.2c-0.5-0.3-1.2-0.4-1.8-0.3
		c-0.9,0.2-1.4,1.1-1.6,2s-0.1,1.8-0.2,2.7c-0.1,1.3-0.6,2.5-0.7,3.8c-0.1,0.7,0,1.5-0.1,2.2c-0.2,1-0.5,1.9-1,2.8
		c-1.1,2-2.5,3.8-4.3,5.3c-0.2,0.2-0.4,0.3-0.6,0.5c0-0.1,0-0.3,0-0.4c-0.1,0-0.3,0.1-0.4,0.1c0-0.2,0-0.3,0-0.5
		c-0.3-0.8-1.4-1-1.7-1.8c0-0.2-0.1-0.4-0.1-0.6c-0.1-0.7-0.6-1.3-0.7-2c-0.2-0.6,0-1.3-0.3-1.9c-0.3-0.4-0.5-0.7-0.9-1
		c-0.4-0.5-0.7-1-0.8-1.6c0-0.2-0.1-0.3-0.1-0.5c0.1-0.4,0-0.7-0.1-1.1c-0.3-0.8-1.1-1.2-1.4-2c-0.2-0.6-0.1-1.3-0.5-1.8
		c-0.2-0.2-0.5-0.4-0.8-0.5c-1.5-0.6-3.1-1-4.7-1.1c-0.9-0.1-1.9-0.1-2.6-0.8c-0.8-0.7-0.8-2.1-1.7-2.7c-0.8-0.5-1.9-0.1-2.5,0.6
		c-0.1,0.1-0.2,0.2-0.3,0.3c-0.1-0.4-0.1-0.9-0.1-1.4c0-0.1,0-0.2,0-0.3c1.5-0.5,2.8-1.5,3.6-2.8l0,0v0.1c0.1,0.2,0.2,0.5,0.5,0.5
		l0,0c0.2,0,0.3-0.1,0.4-0.1c0.2-0.1,0.4-0.3,0.6-0.5c0.1-0.1,0.2-0.2,0.2-0.3c0.2-0.2,0.3-0.4,0.4-0.7c0.2-0.4,0.3-0.7,0.3-1.1
		c0.1-0.4,0.1-0.8,0.1-1.2c0.1-0.3,0.1-0.6,0.2-0.9c0-0.1,0.1-0.2,0.1-0.3c0-0.1,0.1-0.2,0.1-0.3c0.2-0.7,0.3-1.4,0.3-2.1
		c0-0.1,0-0.2,0-0.4c0-0.9-0.4-1.8-1.1-2.5c-0.6-0.5-1.3-0.7-1.7-1.3c-0.3-0.4-0.3-1-0.5-1.5c-0.4-1.2-1.4-2.1-2.6-2.4
		c-0.7-0.1-1.5,0.1-2.1,0.6l0,0l0,0l0,0c-0.3,0.3-0.6,0.6-0.8,0.9c-0.4-0.1-0.8-0.3-1.2-0.7c-0.3-0.3-0.6-0.7-0.9-1
		c-0.6-0.6-1.5-0.8-2.4-0.5c-0.8,0.3-1.5,1.1-1.7,1.9c-0.2,0.7-0.1,1.5-0.5,2c-0.3,0.4-0.8,0.7-1.1,1.1c-0.2,0.3-0.4,0.6-0.4,0.9
		l0,0c0,0.2-0.1,0.4-0.1,0.6l0,0c0,0.1,0,0.2,0,0.2l0,0c0,0.1,0,0.2,0.1,0.3l0,0c0.1,0.3,0.3,0.6,0.5,0.9s0.5,0.4,0.8,0.6
		c0.1,0,0.3,0.1,0.4,0.1l0.4,0.1h0.1c-1,1.8-1,4-0.2,5.9c0,0.1,0,0.2,0,0.3c-0.1,1.3,0,2.6,0.2,3.9c0,0.5,0.1,1.1-0.2,1.5
		c-0.1,0.2-0.3,0.3-0.5,0.4c0.2-0.2,0.4-0.5,0.5-0.7c-0.5-0.5-1.2-0.5-1.9-0.5c-1.3,0.1-2.5,0.5-3.7,1.1c-0.7,0.4-1.5,1-2.4,0.9
		c-0.5-0.1-1-0.3-1.5-0.2c-0.3,0.1-0.5,0.3-0.8,0.5c-0.2,0.1-0.4,0.2-0.6,0.2c-0.5-0.6-1.3-1.1-2-1.6c-0.7-0.6-1.4-1.3-1.9-2.1
		c-1.1-1.3-2.2-2.6-3.2-3.9c-0.9-1.1-1.8-2.3-2-3.7c0-0.1,0-0.3,0-0.4c0-0.7,0.1-1.3,0.3-2c0-0.2,0-0.3,0-0.5
		c-0.1-0.3-0.5-0.5-0.8-0.5l0,0c0-0.3,0.1-0.5,0.1-0.8c0.2-2.9,0-5.8,0.6-8.6c0.2-1.1,0.6-2.2,1.4-2.9c1.2-1.2,3.2-1.5,4.2-3
		c0.8-1.2,0.5-2.9-0.5-4s-2.5-1.5-3.9-1.4c-0.4,0-0.8,0.1-1.1,0.3c-0.3,0.3-0.6,0.6-0.7,1.1l-1.4,3.5c-0.4,0.9-0.8,1.8-1,2.8
		c-0.4,1.5-0.5,3-0.8,4.5c0,1.1-0.7,2.5-1.1,3.6c-0.4,1.2-0.9,2.3-1.3,3.5c-0.1,0.3-0.4,1.2-0.7,2c-0.1,0-0.2,0.1-0.2,0.2
		c-0.2,0.2-0.3,0.5-0.5,0.7c-0.3,0.4-0.8,0.6-1.1,1s-0.4,1.1,0.1,1.3c0.1,0,0.2,0.1,0.3,0.1c0.1,0,0.1,0,0.2,0
		c0.5,0.1,0.7,0.8,0.6,1.3s-0.3,1-0.4,1.5c-0.1,0.9,0.4,1.8,1,2.5c0.5,0.8,1.1,1.6,1.8,2.4c0.5,0.5,1,1,1.5,1.5c1.8,1.8,3.2,4,4.8,6
		c0.6,0.8,1.2,1.5,2,2.1c0.5,0.4,1,0.7,1.5,1l2.8,1.8c0.3,0.2,0.7,0.4,1.1,0.5c0.1,0,0.2,0,0.4,0c0,0.1,0,0.2,0,0.2
		c0.2,0.9,0.7,1.7,0.7,2.5c0.1,0.9,0,1.8,0,2.7c0.1,0.8,0.2,1.7,0.3,2.5c0.1,1.6-0.3,3.1-0.7,4.7c-0.6,2.2-0.9,4.5-2,6.6
		c-0.3,0.6-0.7,1.1-0.7,1.8c0,0.1,0,0.2,0,0.2l0,0l-0.5,0.3c-0.1,0.1-0.3,0.2-0.4,0.3c-0.6,0.4-1.3,0.9-1.6,1.6
		c-0.2,0.6-0.1,1.2-0.4,1.8c0,0,0,0,0,0.1c-0.3,0.5-0.8,0.9-0.9,1.5l0,0c-0.1,0.4,0.1,0.9,0,1.3l0,0c-0.1,0.2-0.1,0.4-0.2,0.7
		c0,0.1,0,0.1,0,0.2c0.1,0.3,0.2,0.5,0.4,0.6c0.1,0.1,0.2,0.2,0.4,0.3c0.1,0.1,0.3,0.2,0.4,0.3h0.1c0.1,0.1,0.3,0.1,0.4,0.2h0.1
		c0.1,0.1,0.3,0.1,0.5,0.2h0.1c0.1,0,0.2,0.1,0.4,0.1h0.1h0.1l0.3,0.1h0.1c0.1,0,0.3,0,0.4,0.1h0.1c0.1,0,0.2,0,0.3,0h0.2
		c0.1,0,0.2,0,0.3,0h0.1c0.2,0,0.3,0,0.5,0l0,0c0.1,0,0.3,0,0.4-0.1h0.1c0.1,0,0.3-0.1,0.4-0.1h0.1c0.2,0,0.3-0.1,0.5-0.2
		c0.5-0.2,1-0.5,1.5-0.8c0.3-0.2,0.7-0.4,1-0.5c0.2-0.1,0.5-0.2,0.8-0.3c0.6-0.3,1.3-0.4,2-0.3c0.3,0,0.7,0.1,1,0.2v0.1
		c0.3,1.6,0.5,3.2,0.8,4.8c0.4-0.3,0.9-0.6,1.4-0.8c-0.1,0.2-0.1,0.5-0.2,0.7c0,0.2,0,0.4,0,0.6c0,0.3,0.1,0.7-0.1,0.9
		c-0.1,0.2-0.3,0.2-0.4,0.4c0,0.2-0.1,0.4,0,0.5c0,0.4-0.4,0.8-0.8,0.8c0.2,0.6,0,1.2-0.5,1.5c-0.1,0.1-0.3,0.2-0.4,0.3
		s-0.2,0.3-0.2,0.5c-0.4,1.6-1.3,3.1-2.6,4.3c-0.5,0.4-0.9,0.8-1.3,1.3c-0.2,0.4-0.4,0.7-0.6,1.1c-0.9,2.2-1.8,4.3-2.7,6.5
		c-0.5,1.2-1,2.4-1.2,3.8c-0.4,3.6-3.6,6.6-3,10.2c0.1,0.9,0.5,1.7,1,2.4c0.7,0.8,1.7,1.3,2.7,1.6c2.6,1,5.3,1.5,8,2.1l4.2,0.9
		c0.8,0.2,1.7,0.3,2.5,0.4c1,0.1,2.1,0,3.1,0.2c0.6,0.2,1.2,0.5,1.8,0.5c0.5,0,1.2-0.1,1.5,0.4c0.3,0.4,0.1,1,0.4,1.4
		c0.5,0.6,1.7,0,2.2,0.6c0.1,0.2,0.3,0.5,0.3,0.7c0.1,0.2,0.2,0.3,0.3,0.4c0,0.2,0,0.4,0,0.6c-0.1,0.8-0.2,1.5-0.5,2.3
		c-0.4,1.3-0.8,2.7-1.2,4.1c-0.2,0.5-0.3,1-0.3,1.5c0,0.2,0,0.5,0,0.7c0.1,0.7,0.5,1.5,1.2,1.7c0.5,0.1,1.1,0.1,1.6-0.2
		c0.5-0.2,0.9-0.5,1.3-0.9c0.7-0.6,1.4-1.2,1.9-2c1.7-2.5,1.1-5.9,2.3-8.6c0.8-1.8,2.3-3.3,2.8-5.3c0.1-0.4,0.1-0.8,0-1.1
		c-0.2-0.7-0.9-1-1.6-1.3l0,0c-0.5-0.2-1.1-0.4-1.7-0.5c-0.1,0-0.3-0.1-0.4-0.1c-0.3-0.3-0.6-0.6-0.7-1c0-0.2-0.1-0.4-0.2-0.6
		c-0.1-0.2-0.3-0.3-0.5-0.3c-0.3,0-0.8,0.1-1.1,0.1c-0.7-0.1-1.2-0.8-1.9-1.1c-0.7-0.3-1.4-0.3-2.1-0.2c-0.3,0-0.5,0-0.8,0
		c-0.3-0.1-0.6-0.3-0.8-0.5c-0.8-0.6-1.9-0.9-2.9-0.6c-0.3,0.1-0.7,0.2-1,0.2c-0.6,0-1.1-0.6-1.6-1.1c-1.3-1.2-3.2-1.5-4.8-2.3
		c-0.2-0.1-0.4-0.3-0.6-0.5c-0.2-0.5,0.2-0.9,0.6-1.2l2.7-2.3c3-2.5,6.7-4.4,8.1-8c0.1-0.5,0.4-1,0.7-1.4c0.1-0.1,0.2-0.2,0.4-0.3
		c0.6-0.4,1.3-0.5,2-0.4c0.9,0.2,1.7,0.5,2.4,1.1c1.2,0.7,2.3,1.5,3.5,2.3c1.1,0.8,2.2,1.7,3.2,2.6c1.7,1.7,3.2,3.6,4.8,5.4
		c1.6,1.8,3.5,3.5,5.7,4.3s5,0.8,6.9-0.6c2.2-1.7,3-4.6,3.5-7.4c1.2-1.2,1.6-3,2.2-4.7c0.4-1,0.9-2,1.3-3c0.5-1.2,0.9-2.4,1.3-3.7
		c0.4-1.2,0.7-2.5,0.9-3.8c0.2-2.1-0.4-4.3,0.2-6.2c0.8-0.2,1.5-0.6,2.2-0.9c1.1-0.4,2.3-0.3,3.5-0.3h0.1c0.4,0,0.8-0.1,1.2-0.3
		c0.4-0.3,0.5-0.9,0.5-1.4C405.2,121.4,405.1,120,404.1,119.2z M356,62.5c-0.3,0.1-0.6,0.1-0.8,0.1L356,62.5z"/>
	<path class="st11" d="M357.3,83.5c-0.4,0.3-0.9,0.6-1.4,0.7l-2.4,0.8c-1.3,0.5-2.6,0.9-4,0.8c-0.8-0.1-4-0.6-4.5-1.2
		c-0.7-0.9,1.9-2.3,2.8-3c0.2-0.1,0.4-0.3,0.6-0.5c0.3-0.4,0.3-1,0.2-1.5c-0.2-1.3-0.2-2.6-0.2-3.9c0-0.3,0.1-0.6,0.1-0.9
		c0.3-1.5,1.8-1,2.9-0.6c1.4,0.4,2.7,1,3.9,1.7c0.4,0.2,0.7,0.5,1,0.8c0.5,0.7,0.3,1.7,0.2,2.7c-0.1,0.7-0.1,1.4,0.4,2
		c0.2,0.2,0.4,0.4,0.6,0.7C357.8,82.5,357.7,83.1,357.3,83.5z"/>
	<path class="st11" d="M324.7,59.5c0.3-1.5,0.4-3,0.8-4.5c0.3-0.9,0.6-1.9,1-2.8l1.5-3.4c0.1-0.4,0.4-0.8,0.7-1
		c0.3-0.2,0.7-0.3,1.1-0.3c1.4-0.1,2.9,0.4,3.9,1.4c1,1.1,1.3,2.8,0.5,4c-0.9,1.5-3,1.7-4.2,3c-0.8,0.8-1.2,1.9-1.4,2.9
		c-0.6,2.8-0.4,5.7-0.6,8.5c-0.1,0.9-0.2,1.9-1,2.4c-0.5,0.2-1,0.3-1.5,0.3h-2.2c-0.4,0-1.7,0.2-1.9,0c-0.4-0.5,0.5-2.9,0.7-3.4
		c0.4-1.2,0.9-2.3,1.3-3.5C324,62.1,324.7,60.7,324.7,59.5z"/>
	<path class="st12" d="M369.8,164c-0.5,1.9-2,3.4-2.8,5.2c-1.2,2.7-0.6,6.1-2.3,8.6c-0.5,0.8-1.2,1.4-1.9,2
		c-0.4,0.3-0.9,0.6-1.3,0.9c-0.5,0.3-1.1,0.3-1.6,0.2c-0.7-0.2-1.1-1-1.2-1.7c0-0.2,0-0.5,0-0.7c0.1-0.5,0.2-1,0.3-1.5
		c0.4-1.3,0.8-2.7,1.2-4c0.2-0.7,0.4-1.5,0.5-2.3c0-0.8-0.5-1.9-0.3-2.7c0.1-0.4,0.5-0.7,0.7-1c0.3-0.4,0.4-0.9,0.6-1.4
		c0.3-0.9,0.5-1.9,1-2.7c0.4-0.5,0.8-0.9,1.3-1.2c0.4-0.3,0.8-0.6,1.2-0.7c0.4-0.1,0.9-0.1,1.3,0.1c0.6,0.1,1.1,0.3,1.7,0.5l0,0
		c0.7,0.2,1.4,0.6,1.6,1.3C369.9,163.2,369.9,163.6,369.8,164z"/>
	<path class="st12" d="M405.1,123.1c0,0.5-0.1,1.1-0.5,1.4c-0.3,0.2-0.8,0.3-1.2,0.3h-0.1c-1.2,0-2.4-0.1-3.5,0.3
		c-0.9,0.3-1.6,0.8-2.5,0.9c-1.2,0.1-2.4-0.5-3.5-1.1c-1-0.6-2.1-1.1-3.1-1.5c-0.7-0.3-2.1-0.5-2.5-1.2c-0.1-0.4-0.2-0.7-0.3-1.1
		c-0.1-0.2-0.1-0.3-0.2-0.5c-0.2-0.3-0.3-0.7-0.4-1.1c0-0.4,0.1-0.8,0.4-1.1c0.5-0.6,1.3-1.1,2.2-1.1c0.8-0.1,1.7,0,2.5,0.1l8.2,1.2
		c0.6,0.1,1.3,0.2,1.9,0.3c0.6,0.1,1.1,0.3,1.6,0.7C405.1,120.4,405.2,121.8,405.1,123.1z"/>
	<path class="st13" d="M397.9,125.2c-1,2.1-0.3,4.6-0.5,6.9c-0.2,1.3-0.4,2.6-0.9,3.8c-0.4,1.2-0.8,2.5-1.3,3.7c-0.4,1-0.9,2-1.3,3
		c-0.6,1.6-1,3.4-2.2,4.7c-0.6,2.7-1.3,5.7-3.5,7.3c-1.9,1.4-4.7,1.5-6.9,0.6c-2.3-0.9-4.1-2.5-5.7-4.3s-3.1-3.7-4.8-5.4
		c-1-0.9-2.1-1.8-3.2-2.6s-2.3-1.6-3.5-2.3c-0.7-0.5-1.5-0.9-2.4-1c-0.7-0.1-1.4,0-2,0.4c-0.1,0.1-0.3,0.2-0.4,0.3
		c-0.3,0.4-0.5,0.9-0.7,1.4c-1.4,3.6-5.1,5.5-8.1,8l-2.7,2.3c-0.4,0.3-0.8,0.8-0.6,1.2c0.1,0.2,0.3,0.4,0.6,0.5
		c1.6,0.8,3.5,1.1,4.8,2.3c0.5,0.4,0.9,1,1.6,1.1c0.3,0,0.7-0.1,1-0.2c1-0.3,2.1-0.1,2.9,0.6c0.2,0.2,0.5,0.4,0.8,0.5
		c0.2,0.1,0.5,0.1,0.8,0c0.7,0,1.5-0.1,2.1,0.2s1.2,1.1,1.9,1.1c0.4,0,0.8-0.1,1.1-0.1c0.2,0,0.4,0.1,0.5,0.3s0.1,0.4,0.2,0.6
		c0.1,0.5,0.6,0.8,0.9,1.1c0.5,0.6,0.5,1.4,0.5,2.1c-0.2,2.3-1.2,4.5-2.9,6.1c-0.5,0.5-1.1,0.8-1.8,1c-0.7,0.1-1.4-0.2-1.8-0.8
		c-0.1-0.3-0.2-0.5-0.3-0.7c-0.5-0.6-1.7,0-2.2-0.6c-0.3-0.4-0.1-1-0.4-1.4s-1-0.3-1.5-0.4c-0.6,0-1.2-0.3-1.8-0.5
		c-1-0.3-2-0.2-3.1-0.2c-0.8-0.1-1.7-0.2-2.5-0.4l-4.2-0.9c-2.7-0.5-5.4-1.1-8-2.1c-1-0.4-2-0.8-2.7-1.6c-0.6-0.7-0.9-1.5-1-2.4
		c-0.6-3.5,2.6-6.6,3-10.2c0.1-1.3,0.7-2.5,1.2-3.7c0.9-2.2,1.8-4.3,2.7-6.5c0.1-0.4,0.3-0.8,0.6-1.2c0.4-0.5,0.8-0.9,1.3-1.3
		c1.3-1.1,2.2-2.6,2.6-4.3c0-0.2,0.1-0.4,0.2-0.5s0.2-0.2,0.4-0.2c0.5-0.3,0.7-0.9,0.5-1.5c0.4,0,0.8-0.4,0.8-0.8c0-0.2,0-0.4,0-0.5
		c0.1-0.2,0.3-0.3,0.4-0.4c0.2-0.2,0.1-0.6,0.1-0.9c0-0.2,0-0.4,0-0.6c0.1-0.7,0.4-1.4,0.9-1.9c0.8-0.8,1.9-0.6,3-0.8
		c1.1-0.2,2.2-0.6,3.2-1c2.9-1.1,5.9-1.8,9-2.1c3.1-0.2,6.2,0.3,9.1,1.4c0.4,0.2,0.8,0.4,1.2,0.7c0.3,0.2,0.5,0.4,0.6,0.7
		c0.1,0.4,0.3,0.7,0.5,1c0.4,0.5,1,0.6,1.4,1.1s0.4,1.2,0.7,1.8c0.5,0.8,1.5,1.2,1.9,2.1c0.1,0.3,0.1,0.6,0.2,0.9
		c0.2,0.7,0.7,1.3,1.2,1.9c1.7,2.1,2.9,4.6,3.2,7.3c0.1-1.7,1.2-3.2,2.7-4.1c0.4-0.2,0.8-0.5,0.9-1c0.1-0.6-0.5-1.1-0.4-1.7
		c0-0.3,0.2-0.6,0.3-0.8c0.6-0.9,1.3-1.8,2.1-2.6c0.4-0.4,0.9-1,0.7-1.6c-0.1-0.4-0.6-0.7-0.8-1.1c-0.3-0.5-0.3-1.1,0-1.5
		c0.2-0.3,0.6-0.5,0.7-0.9s-0.2-0.9-0.1-1.4c0.1-0.4,0.4-0.7,0.7-0.9c0.4-0.4,0.9-0.7,1.5-1c0.9-0.3,1.9-0.2,2.8-0.1
		c1.6,0.2,3.3,0.5,4.2,1.9C398.1,123.1,398.4,124.3,397.9,125.2z"/>
	<path class="st14" d="M405.1,123.1c0,0.5-0.1,1.1-0.5,1.4c-0.3,0.2-0.8,0.3-1.2,0.3h-0.1c0.1-0.7,1-1.1,1.1-1.8
		c0.1-0.4-0.1-0.9-0.4-1.2c-0.7-1-1.9-1.5-3-1.9c-3.2-1.1-6.7-1.4-10-0.7c-0.9,0.1-1.8,0.4-2.6,0.8c-0.3,0.2-0.5,0.4-0.8,0.6
		c-0.2-0.3-0.3-0.7-0.4-1.1c0-0.4,0.1-0.8,0.4-1.1c0.5-0.6,1.3-1.1,2.2-1.1c0.8-0.1,1.7,0,2.5,0.1l8.2,1.2c0.6,0.1,1.3,0.2,1.9,0.3
		c0.6,0.1,1.1,0.3,1.6,0.7C405.1,120.4,405.2,121.8,405.1,123.1z"/>
	<path class="st14" d="M369.8,164c-0.5,1.9-2,3.4-2.8,5.2c-1.2,2.7-0.6,6.1-2.3,8.6c-0.5,0.8-1.2,1.4-1.9,2
		c-0.4,0.3-0.9,0.6-1.3,0.9c-0.5,0.3-1.1,0.3-1.6,0.2c-0.7-0.2-1.1-1-1.2-1.7c0-0.2,0-0.5,0-0.7v0.1c0.3,0.7,0.8,1.4,1.5,1.6
		c0.6,0,1.1-0.2,1.5-0.5c1.1-0.9,1.7-2.2,2.3-3.5c0.5-0.9,0.9-1.9,1.1-2.9c0.1-0.6,0.2-1.1,0.3-1.7c0.6-2.7,2.8-5,3.3-7.8
		c0-0.2,0-0.4,0-0.6c-0.1-0.3-0.2-0.5-0.3-0.7c-0.1-0.3-0.2-0.5-0.3-0.8c0.7,0.2,1.4,0.6,1.6,1.3C369.9,163.2,369.9,163.6,369.8,164
		z"/>
	<path class="st14" d="M364.7,159.2c-0.3,0.8-0.8,1.5-1.5,2c-0.9,0.7-2.1,1.2-3.2,1.4c-0.5,0.1-1.1,0.1-1.7,0
		c-0.7-0.3-1.3-0.9-2-1.1c-0.5-0.1-1.1,0-1.7-0.1c-1-0.1-1.7-0.9-2.5-1.5c-2.4-1.8-5.6-2.4-8-4.2c-0.1-0.1-0.2-0.2-0.3-0.3
		c0-0.1-0.1-0.2,0-0.4c0-1.1,0.3-2.2,0.7-3.2c0.4-0.7,0.8-1.4,1.4-2c2.2-2.7,4.4-5.3,7-7.6c1.1-0.9,2.3-1.8,3.7-2.2
		c0.8-0.2,2.3-0.5,3.2-0.1c-0.1,0.1-0.3,0.2-0.4,0.3c-0.3,0.4-0.5,0.9-0.7,1.4c-1.4,3.6-5.1,5.5-8.1,8l-2.7,2.3
		c-0.4,0.3-0.8,0.8-0.6,1.2c0.1,0.2,0.3,0.4,0.6,0.5c1.6,0.8,3.5,1.1,4.8,2.3c0.5,0.4,0.9,1,1.6,1.1c0.3,0,0.7-0.1,1-0.2
		c1-0.3,2.1-0.1,2.9,0.6c0.2,0.2,0.5,0.4,0.8,0.5c0.2,0.1,0.5,0.1,0.8,0c0.7,0,1.5-0.1,2.1,0.2s1.2,1.1,1.9,1.1
		C364,159.3,364.4,159.2,364.7,159.2z"/>
	<path class="st12" d="M334.2,114.1c-0.6,0.4-1.3,0.9-1.6,1.6c-0.2,0.6-0.1,1.2-0.4,1.8c-0.3,0.6-0.8,0.9-1,1.5
		c-0.1,0.4,0.1,0.9,0,1.3c-0.1,0.2-0.1,0.5-0.2,0.7c0,0.5,0.4,0.9,0.8,1.2c1.8,1.2,4,1.4,6,0.7c0.9-0.3,1.7-0.9,2.5-1.3
		c0.8-0.5,1.8-0.7,2.7-0.7c0.5,0.1,1.1,0.3,1.6,0.3c0.5,0.1,1.1-0.1,1.5-0.5c0.2-0.2,0.3-0.5,0.3-0.8c0.5-1.8,0.3-3.8-0.2-5.6
		c-0.4-1.8-1.1-3.6-1.6-5.4c-0.3-1.4-0.6-2.7-1.1-4c-0.6-1.3-1.5-2.5-2.8-3c-0.1-0.1-0.2-0.1-0.3,0c-0.1,0-0.2,0.1-0.2,0.2
		c-1,1.1-1.8,2.4-2.3,3.8c-0.5,1.6-0.7,3.3-1.1,4.9c-0.2,0.7-0.5,1.6-1,2.1C335.5,113.4,334.8,113.7,334.2,114.1z"/>
	<path class="st14" d="M346.7,120c-0.1,0.3-0.2,0.6-0.3,0.8c-0.4,0.4-1,0.6-1.5,0.4c-0.5-0.1-1.1-0.3-1.6-0.3c-1,0-1.9,0.2-2.7,0.7
		c-0.9,0.4-1.7,1-2.5,1.3c-1.3,0.5-2.7,0.6-4,0.2c-0.7-0.2-1.4-0.5-2-0.9c-0.4-0.3-0.8-0.7-0.8-1.2c0-0.2,0.1-0.5,0.2-0.7
		c0.1-0.4-0.1-0.9,0-1.3c0.1-0.6,0.7-1,1-1.5s0.2-1.2,0.4-1.8c0.3-0.7,0.9-1.2,1.6-1.6c0.6-0.4,1.4-0.7,1.9-1.2
		c0.1-0.1,0.1-0.2,0.2-0.2c0.4-0.6,0.6-1.2,0.8-1.8c0.5-1.6,0.6-3.3,1.1-4.9c0.5-1.4,1.2-2.7,2.3-3.8c0.1-0.1,0.1-0.1,0.2-0.2
		c0.1,0,0.2,0,0.3,0c1.3,0.5,2.2,1.7,2.8,3s0.8,2.7,1.1,4c0.5,1.8,1.1,3.6,1.6,5.4C346.9,116.2,347.2,118.1,346.7,120z"/>
	<path class="st14" d="M356.6,79.4c-3.2,1-6.7-0.5-8.1-3.7c0-0.3,0.1-0.6,0.1-0.9c0.3-1.5,1.8-1,2.9-0.6c1.4,0.4,2.7,1,3.9,1.7
		c0.4,0.2,0.7,0.5,1,0.8C356.9,77.5,356.7,78.5,356.6,79.4z"/>
	<circle class="st11" cx="354.6" cy="72.8" r="6.6"/>
	<path class="st14" d="M372.6,122.4c0,0.6-0.7,0.7-1.3,0.7c-2-0.1-3.9-0.7-5.9-0.5c-2.5,0.2-4.8,1.6-7.3,1.7c-1,0-1.9-0.1-2.9,0.1
		c-1.2,0.2-2.3,1-3.6,1.1c-1.1,0.1-2.2-0.3-3.2-0.3c-0.8,0-1.5,0.3-2.2,0.6c0.1-0.7,0.4-1.4,0.9-1.9c0.8-0.8,1.9-0.6,3-0.8
		c1.1-0.2,2.2-0.6,3.2-1c2.9-1.1,5.9-1.8,9-2.1c3.1-0.2,6.2,0.2,9.1,1.4c0.4,0.2,0.8,0.4,1.2,0.7
		C372.6,122.3,372.6,122.4,372.6,122.4z"/>
	<path class="st15" d="M351.5,84.9l-2.7-1l-1.1-0.4c-0.5-0.2-1-0.3-1.4-0.4c-1.3-0.1-2.5,0.8-3.2,1.9s-1,2.4-1.2,3.7
		c-0.3,1.8-0.6,3.5-0.8,5.3c-0.2,1.6-0.3,3.2-0.3,4.8c0.1,4.1,0.9,8.2,1.9,12.2c0.5,1.8,0.8,3.6,1.1,5.4c0.1,0.8,0.1,1.5,0.2,2.3
		s0.2,1.7,0.4,2.5l0.8,4.8c1-0.7,2.1-1.3,3.4-1.4c1.1,0,2.2,0.4,3.2,0.3c1.2-0.1,2.4-0.9,3.6-1.1c1-0.2,1.9,0,2.9-0.1
		c2.5-0.1,4.8-1.5,7.3-1.7c2-0.2,3.9,0.4,5.9,0.5c0.6,0,1.3-0.1,1.3-0.7c0-0.4-0.4-0.6-0.7-0.8c-1.6-1-3.1-2-4.5-3.2
		c-1.3-1-2.6-2.1-3.5-3.5c-2.2-3.4-1.4-7.9-3.3-11.5c-1.5-2.9,0-6.7,0-9.9c0-1.6,0-3.3-0.4-4.8c-0.2-0.9-0.5-1.7-0.9-2.6l-1.3-3.3
		c0-0.1-0.1-0.2-0.2-0.2c-0.1-0.1-0.2-0.1-0.3-0.1c-0.8,0-1.5,0.2-2.1,0.7s-1,1.2-1.6,1.7C353.2,84.7,352.3,85.2,351.5,84.9z"/>
	<path class="st12" d="M355.8,83c0.2-0.9,0.4-1.9,1.1-2.6c0.6-0.7,1.7-1.1,2.5-0.6c0.9,0.6,0.9,1.9,1.7,2.7c0.7,0.6,1.7,0.7,2.6,0.8
		c1.6,0.1,3.2,0.5,4.7,1.1c0.3,0.1,0.6,0.3,0.8,0.5c0.4,0.5,0.3,1.2,0.5,1.8c0.3,0.8,1.1,1.2,1.4,2s0,1.8-0.3,2.6
		c-0.5,1.5-0.8,3.2-1.3,4.7c-0.5,1.6-1.2,3.1-2.3,4.3c-0.5,0.5-1.3,1-1.9,0.7l-0.3,1.8c-0.1,0.4-0.1,0.8,0,1.2
		c0.1,0.4,0.4,0.7,0.8,0.8c0,0.3,0.4,0.4,0.6,0.6c0.8,0.5,1,1.6,0.4,2.3l0,0c-0.2,0.3-0.5,0.5-0.6,0.8c-0.1,0.5,0.2,1,0.6,1.3
		s0.9,0.4,1.4,0.6c0.9,0.5,1.4,1.6,1.7,2.6c0.2,0.8,0.4,1.6,1,2.1c0.2,0.2,0.5,0.4,0.7,0.6c0.4,0.4,0.6,1,0.6,1.5
		c0.1,0.7-0.1,1.4-0.4,2c-0.7,1-1.9,1.2-3,1.7c-1.8,0.7-3.2,2-4.8,3.1c-0.6,0.5-1.4,0.9-2.2,1c-1.1,0.1-2.1-0.3-3.2-0.4
		c-0.6,0-1.3,0.1-1.9,0.3l-2,0.4c0.1-1.5-0.7-3.1-1.2-4.6c-0.9-2.8-1.1-5.7-0.9-8.6s0.8-5.8,1.4-8.6c0.4-2,0.4-4.1,1-6
		s1.4-3.7,1.7-5.6C357.2,88.8,355.1,86.1,355.8,83z"/>
	<path class="st12" d="M371,89.2c0.2,0.3,0.3,0.7,0.4,1.1c0.2,0.6,0.4,1.1,0.8,1.6c0.3,0.3,0.6,0.6,0.9,1c0.3,0.6,0.2,1.3,0.3,1.9
		c0.2,0.7,0.6,1.3,0.7,2c0,0.2,0,0.4,0.1,0.6c0.2,0.8,1.4,1,1.7,1.8c0.2,0.5-0.1,1.1-0.1,1.6c0,0.2,0.1,0.3,0,0.5s-0.2,0.4-0.4,0.5
		c-1.1,1.1-1.9,2.4-2.2,3.9c-0.3,1.5-0.5,3-0.5,4.5l-1.3-1.7c-0.1-0.2-0.3-0.4-0.5-0.5s-0.4-0.1-0.5-0.2c-0.5-0.3-0.7-0.9-0.9-1.4
		c-0.5-1.5-1.3-2.8-2.3-4c-0.5-0.6-1.1-1.2-1.3-2.1c0-0.4,0-0.7,0.1-1.1c0.3-2.2,0.7-4.4,1.7-6.3c0.5-0.9,1.1-1.7,1.6-2.6
		C369.7,89.5,370.1,87.9,371,89.2z"/>
	<path class="st12" d="M338.2,91.2c0,0.3-0.1,0.6-0.2,0.8c-0.3,0.3-0.7,0.4-1.1,0.3s-0.7-0.3-1.1-0.5c-0.9-0.6-1.9-1.2-2.8-1.8
		c-0.5-0.3-1-0.7-1.5-1c-0.7-0.6-1.4-1.3-2-2.1c-1.6-2-3-4.2-4.8-6c-0.5-0.5-1-1-1.5-1.5c-0.6-0.8-1.2-1.6-1.8-2.4
		c-0.5-0.8-1.1-1.6-1-2.5c0.1-0.5,0.3-1,0.4-1.5s-0.1-1.1-0.6-1.3c-0.1,0-0.1,0-0.2,0s-0.2,0-0.3-0.1c-0.5-0.2-0.4-0.9-0.1-1.3
		s0.8-0.6,1.1-1c0.1-0.2,0.3-0.5,0.5-0.7s0.5-0.3,0.8-0.4c1.9-0.6,3.9-0.6,5.9-0.2c0.3,0.1,0.7,0.2,0.8,0.5c0,0.2,0,0.3,0,0.5
		c-0.1,0.7-0.2,1.3-0.3,2c0,0.1,0,0.3,0,0.4c0.2,1.4,1.1,2.6,2,3.7c1.1,1.3,2.1,2.6,3.2,3.9c0.6,0.8,1.2,1.4,1.9,2.1
		c0.7,0.6,1.5,1,2,1.7c0.4,0.6,0.3,1.4,0.3,2C338.3,87.1,338.3,89.2,338.2,91.2z"/>
	<path class="st11" d="M380.4,105.1c0.3-0.3,0.6-0.7,0.9-1c0.3-0.5,0.5-1,0.7-1.5l1.9-5.5c0.3-0.9,0.6-1.7,1-2.6s0.9-1.8,1.3-2.7
		c1.1-2.3,2-4.7,2.6-7.2c0.1-0.3,0.1-0.7,0.1-1.1c-0.1-0.6-0.5-1-0.9-1.4c-0.4-0.5-0.9-0.8-1.4-1.2c-0.5-0.3-1.2-0.4-1.8-0.3
		c-0.9,0.2-1.4,1.1-1.6,2s-0.1,1.8-0.2,2.7c-0.1,1.3-0.6,2.5-0.7,3.8c-0.1,0.7,0,1.5-0.1,2.2c-0.2,1-0.5,1.9-1,2.7
		c-1.1,2-2.5,3.8-4.3,5.3c-0.5,0.4-0.9,0.8-1.3,1.2c-0.3,0.5-0.5,1-0.6,1.5c-0.2,0.8-0.1,1.7,0.3,2.5c0.5,0.9,1.6,1.3,2.6,1.5
		C379.2,106.5,379.5,106.1,380.4,105.1z"/>
	<path class="st12" d="M354.6,63.1c0.6-1.1,1.8-1.7,3-1.6c1.2,0.2,2.3,1.1,2.6,2.3c0.2,0.5,0.2,1,0.5,1.5c0.4,0.6,1.2,0.8,1.7,1.3
		c0.7,0.6,1.1,1.5,1.1,2.5s-0.1,1.9-0.4,2.8c-0.1,0.4-0.2,0.8-0.3,1.2c-0.1,0.4-0.1,0.8-0.1,1.2c-0.1,1-0.7,1.9-1.5,2.5
		c-0.1,0.1-0.3,0.1-0.4,0.1c-0.3,0-0.4-0.3-0.5-0.6c-0.5-1.5-0.4-3.4-1.4-4.6c-0.4-0.5-1-0.9-1.6-1.2c-0.2-0.2-0.5-0.3-0.8-0.3
		c-0.4,0-0.8,0.2-1.2,0.4c-0.7,0.5-1.5,0.8-2.3,1s-1.7,0-2.4-0.5c-0.5-0.4-0.8-0.9-1.3-1.2s-1-0.3-1.5-0.5c-1.2-0.5-1.7-1.8-1.2-3
		c0.1-0.2,0.2-0.3,0.3-0.5c0.3-0.4,0.8-0.6,1.1-1.1c0.4-0.6,0.3-1.4,0.5-2c0.2-0.9,0.8-1.6,1.7-1.9c0.8-0.3,1.7-0.1,2.4,0.5
		c0.3,0.3,0.6,0.7,0.9,1c0.7,0.6,1.6,0.9,2.5,0.7"/>
	<path class="st14" d="M360.1,112c-0.4,0.4-0.5,0.9-0.4,1.4c0.1,0.2,3.5-0.5,3.9-0.6c0.9-0.1,2.5-0.1,3.1-0.9
		c1.1-1.5-2.3-1.1-2.9-1.1C362.6,111,361,111.2,360.1,112z"/>
	<path class="st12" d="M328.9,69.2c-0.1,0.7-0.2,1.3-0.3,2c-1,0.2-2-0.1-3-0.5l-2.7-0.9c-0.3-0.2-0.8-0.1-1.1,0.2
		c-0.4,0.5-1.1,1.3-1.7,1.8c-0.1,0-0.2,0-0.3-0.1c-0.5-0.2-0.4-0.9-0.1-1.3s0.8-0.6,1.1-1c0.1-0.2,0.3-0.5,0.5-0.7s0.5-0.3,0.8-0.4
		c1.9-0.6,3.9-0.6,5.9-0.2c0.3,0.1,0.7,0.2,0.8,0.5C328.9,68.8,328.9,69,328.9,69.2z"/>
	<path class="st14" d="M328.9,69.2c-0.1,0.7-0.2,1.3-0.3,2c-1,0.2-2-0.1-3-0.5l-2.7-0.9c-0.3-0.2-0.8-0.1-1.1,0.2
		c-0.4,0.5-1.1,1.3-1.7,1.8c-0.1,0-0.2,0-0.3-0.1c-0.5-0.2-0.4-0.9-0.1-1.3s0.8-0.6,1.1-1c0.1-0.2,0.3-0.5,0.5-0.7s0.5-0.3,0.8-0.4
		c1.9-0.6,3.9-0.6,5.9-0.2c0.3,0.1,0.7,0.2,0.8,0.5C328.9,68.8,328.9,69,328.9,69.2z"/>
	<path class="st14" d="M354,132.3c0.5,0.2,1,0.4,1.2,0.9l-3.8-1l-2-0.5c-0.4-0.1-1.6-0.2-1.8-0.5c-0.3-0.4,0.8-0.1,1.1-0.1
		c0.6,0.1,1.3,0.2,1.9,0.3C351.7,131.6,352.9,132,354,132.3z"/>
	<path class="st14" d="M355.5,135.7c-0.3-0.2-1.3-0.2-1.7-0.3c-0.6-0.1-1.2-0.3-1.8-0.5c-1.2-0.4-2.4-0.8-3.6-1.1
		c-0.2,0-1-0.1-1-0.3c0-0.3,0.8-0.4,1-0.4c1.1-0.1,2.4,0.4,3.5,0.8C353.2,134.3,354.4,134.9,355.5,135.7z"/>
	<path class="st14" d="M353.1,129.2c-1.2-0.3-2.3-1.1-3.6-1.2c-0.3,0-0.6-0.1-0.9-0.3c-0.1-0.1-0.3-0.3-0.3-0.5
		c0.8,0,1.8,0.3,2.6,0.6c0.4,0.2,0.8,0.4,1.2,0.6C352.4,128.7,352.8,129.1,353.1,129.2z"/>
	<path class="st12" d="M376.3,99.5c-0.4,2.9,1.3,5.6,4.1,6.4c-0.2,0.8-1,1.2-1.6,1.8c-0.8,0.8-1.2,2-2.2,2.6
		c-1.1,0.7-2.4,0.4-3.7,0.1c-0.1,0-0.2-0.1-0.3-0.1c0,0,0-0.1-0.1-0.1c-0.4-1.5-0.7-3-0.3-4.5c0.3-1.3,1.1-2.3,1.8-3.4
		S374.9,99.8,376.3,99.5z"/>
	<path class="st12" d="M346.6,80.4c-1.3,0.1-2.5,0.5-3.7,1.1c-0.7,0.4-1.5,1-2.4,0.9c-0.5-0.1-1-0.3-1.5-0.2
		c-0.3,0.1-0.5,0.3-0.8,0.5c-0.2,0.2-0.6,0.2-0.8,0.1l-0.3,4.6c-0.1,1.7-0.2,3.5,0.2,5.2c0.2,0.9,0.7,1.7,0.7,2.5
		c0.1,0.9,0,1.8,0,2.7c0.1,0.8,0.2,1.6,0.3,2.5c0.1,1.6-0.3,3.1-0.7,4.6c-0.6,2.2-0.9,4.5-2,6.6c-0.3,0.6-0.7,1.1-0.7,1.8
		c0,0.1,0,0.2,0,0.2c-0.3,0.2-0.6,0.4-0.9,0.5c-0.6,0.4-1.3,0.9-1.6,1.6c-0.2,0.6-0.1,1.2-0.4,1.8c-0.3,0.6-0.8,1-1,1.5
		c-0.1,0.4,0.1,0.9,0,1.3c-0.1,0.2-0.1,0.5-0.2,0.7c0,0.5,0.4,0.9,0.8,1.2c0.6,0.4,1.3,0.7,2,0.9l2-7.9l0,0
		c1.8-3.3,3.3-6.8,4.5-10.5c0.3-1.2,0.8-2.3,1.3-3.4c0.4-0.6,0.7-1.3,1-2c0.3-0.8,0.3-1.7,0.5-2.6c0.2-1,0.4-2,0.8-3
		c0.4-1.1,0.8-2.1,0.8-3.3c0.1-1.6-0.5-3.3,0.1-4.8c0.3-0.6,0.6-1.1,1-1.5c0.9-1.1,1.6-2.2,2.5-3.2C348,80.4,347.3,80.4,346.6,80.4z
		"/>
	<g class="st16">
		<path class="st17" d="M356,62h-0.4l0,0C355.7,62.1,355.8,62.1,356,62z"/>
		<path class="st17" d="M363.6,68.9c-0.1,0.7-0.2,1.3-0.4,1.9c-0.1,0.4-0.2,0.8-0.3,1.2c-0.1,0.4-0.1,0.8-0.1,1.2
			c-0.1,1-0.7,1.9-1.5,2.5c-0.1,0.1-0.3,0.1-0.4,0.1c-0.3,0-0.4-0.3-0.5-0.6c-0.5-1.5-0.4-3.4-1.4-4.6c-0.4-0.5-1-0.9-1.6-1.2
			c-0.2-0.2-0.5-0.3-0.8-0.3c-0.4,0-0.8,0.2-1.2,0.4c-0.7,0.5-1.5,0.8-2.3,1s-1.7,0-2.4-0.5c-0.5-0.4-0.8-0.9-1.3-1.2
			s-1-0.3-1.5-0.5c-0.6-0.3-1.1-0.8-1.3-1.5v-0.1c-0.1,0.4-0.1,0.8,0,1.1c0.2,0.7,0.7,1.2,1.3,1.5c0.5,0.2,1.1,0.2,1.5,0.5
			s0.8,0.9,1.3,1.2c0.7,0.5,1.5,0.7,2.4,0.5c0.8-0.2,1.6-0.5,2.3-1c0.3-0.3,0.7-0.4,1.2-0.4c0.3,0,0.6,0.1,0.8,0.3
			c0.6,0.3,1.1,0.7,1.6,1.2c1,1.2,0.8,3.1,1.4,4.6c0.1,0.3,0.3,0.6,0.5,0.6s0.3-0.1,0.4-0.2c0.8-0.6,1.4-1.5,1.5-2.5
			c0.1-0.4,0.1-0.8,0.1-1.2c0.1-0.4,0.2-0.8,0.3-1.2C363.5,70.8,363.7,69.9,363.6,68.9C363.6,69,363.6,69,363.6,68.9z"/>
	</g>
	<path class="st18" d="M342.6,95.6l-0.2,3c0,0.4-0.8,10.2-6.6,21.7c-5,9.8-14.7,22.6-33,29.8c-1.4,0.6-2.9,1.1-4.5,1.6l-1.7-5.4
		c4.3-1.4,8.5-3.2,12.4-5.4c9.3-5.4,16.6-13.1,21.7-23c2.7-5.3,4.6-10.9,5.7-16.7h-20.8v-5.7L342.6,95.6L342.6,95.6z"/>
	<path class="st19" d="M300.4,150.2c18.3-7.2,28-20,33-29.8c5.8-11.5,6.6-21.3,6.6-21.7l0.2-3h2.3l-0.2,3c0,0.4-0.8,10.2-6.6,21.7
		c-5,9.8-14.7,22.6-33,29.8c-1.4,0.6-2.9,1.1-4.5,1.6l-0.2-0.7C298.9,150.8,299.7,150.5,300.4,150.2z"/>
	<path class="st18" d="M263.8,146.4l-1.7,5.4c-1.5-0.5-3-1-4.5-1.6c-18.3-7.2-28-20-33-29.8c-5.8-11.5-6.6-21.3-6.6-21.7l-0.2-3
		h27.1v5.7H224c1.1,5.8,3,11.4,5.7,16.7c5.1,9.9,12.3,17.6,21.7,23C255.3,143.2,259.5,145,263.8,146.4z"/>
	<path class="st19" d="M259.8,150.2c-18.3-7.2-28-20-33-29.8c-5.8-11.5-6.6-21.3-6.6-21.7l-0.2-3h-2.3l0.2,3
		c0,0.4,0.8,10.2,6.6,21.7c5,9.8,14.7,22.6,33,29.8c1.4,0.6,2.9,1.1,4.5,1.6l0.2-0.7C261.4,150.8,260.6,150.5,259.8,150.2z"/>
	<path class="st18" d="M311.5,198.4v30.5h-62.7v-30.5l2-2.7c20.3-7.2,24.4-26,25.3-33.5c0.1-1,0.2-2.1,0.2-3.1h7.8
		c0,1,0.1,2.1,0.2,3.1c0.8,7.4,5,26.3,25.3,33.5L311.5,198.4z"/>
	<rect x="248.8" y="198.4" class="st14" width="62.7" height="3.8"/>
	<path class="st19" d="M254.1,195.8c20.3-7.2,24.4-26,25.3-33.5c0.1-1,0.2-2.1,0.2-3.1h-3.3c0,1-0.1,2.1-0.2,3.1
		c-0.8,7.4-5,26.3-25.3,33.5l-2,2.7V229h3.3v-30.5L254.1,195.8z"/>
	<path class="st14" d="M239.3,95.6h5.6v5.7h-5.1C239.6,99.4,239.4,97.5,239.3,95.6z"/>
	<path class="st14" d="M263.8,146.4l-1.7,5.4c-1.5-0.5-3-1-4.5-1.6c-2.4-2.9-4.4-6-6.2-9.2C255.3,143.2,259.5,145,263.8,146.4z"/>
	<path class="st14" d="M296.5,146.4c4.3-1.4,8.5-3.2,12.4-5.4c-1.8,3.3-3.9,6.3-6.2,9.2c-1.4,0.6-2.9,1.1-4.5,1.6L296.5,146.4z"/>
	<path class="st14" d="M321,95.6c-0.1,1.9-0.3,3.8-0.5,5.7h-5.1v-5.7H321z"/>
	<path class="st14" d="M284.2,162.3c-2.7,0.5-5.5,0.5-8.2,0c0.1-1,0.2-2.1,0.2-3.1h7.8C284,160.2,284.1,161.3,284.2,162.3z"/>
	<path class="st18" d="M239.9,86.2C240,128.1,258,162,280.1,162s40.1-33.9,40.2-75.8H239.9z"/>
	<path class="st19" d="M247.1,86.2H240c0.1,41.9,18.1,75.8,40.2,75.8c1.2,0,2.4-0.1,3.6-0.3C263.3,158.3,247.2,125.9,247.1,86.2z"/>
	<rect x="258.8" y="210.1" class="st12" width="42.7" height="11"/>
	<polygon class="st19" points="260.8,211.6 301.5,211.6 301.5,210.1 258.8,210.1 258.8,221.1 260.8,221.1 	"/>
	
		<linearGradient id="SVGID_2_" gradientUnits="userSpaceOnUse" x1="185.6703" y1="-262.7156" x2="259.5296" y2="-262.7156" gradientTransform="matrix(1 0 0 1 -42.0354 412.4569)">
		<stop  offset="0" style="stop-color:#808181;stop-opacity:0.25"/>
		<stop  offset="0.54" style="stop-color:#808181;stop-opacity:0.12"/>
		<stop  offset="1" style="stop-color:#808181;stop-opacity:0.1"/>
	</linearGradient>
	<path class="st20" d="M217.2,126.7c-0.8-0.3-5.3-3.8-5.6-5.5s2.4-16.7,2.4-16.7s-0.3,0-0.7,0v-0.2l0.6-19.8c0,0,2.3-13.3-2-12.5
		c-4.4,0.8-1.6,12.5-1.6,12.5s-0.5,6-0.8,7.8c-0.3,1.7-1.9,8.8-0.8,10.9c0,0.1,0.1,0.2,0.1,0.2l0,0c0,0,0.2,7.5-1.7,8.5
		c-1.8,1-2.5,5.9-2.6,6.3h-0.1l0,0c-0.5-0.3-1-0.8-1.4-1.3c0,0-0.1-0.1-0.1-0.2c2.5-2.9,2.5-7.2-0.2-9.9c-0.6-0.6-1.3-1.1-2.1-1.5
		c0-0.6-0.2-1.3-0.4-1.8c-0.9-1.8-5.7-4.3-9.1-4.3c-1.6,0-2.9,0.4-3.3,1.6c-0.2,0.6-0.2,1.3-0.3,2c-0.2,1.3-1.1,2.4-2.2,3.2
		c-0.4-0.5-0.9-1-1.4-1.4c-1.1-0.9-3.3-3.7-3.3-3.7s-6.9-7.2-7.4-9.1c-0.5-2-7.4-13.7-9-11.7c-1.5,2.1,5.3,11,5.3,11
		s1.3,3.2,2.3,4.3s8.6,12.2,8.6,12.2l0.4,0.8c-1.6,0.9-3.1,1.9-3.6,3.6c-0.8,2.5,0.9,5,2.1,7.3c2.3,4.5,2.6,10.3-0.3,14.5
		c-2.6,3.7-7.1,5.4-11.4,6.9c2,1.6,4.6,2.4,7.2,2.4c-1,2.8-4.4,3.8-7.4,4.3c1.5,1.5,3.8,2,5.9,2.4c1,0.2,2.1,0.3,3.2,0.2h0.3h0.3
		c0.4,0,0.7-0.1,1.1-0.1c1.5-0.3,3-1.2,3.8-2.5c0.7-1.2,0.9-2.7,2.1-3.3c0.3-0.1,0.7-0.2,1-0.2l0,0c0.2,0,0.5,0,0.7,0h5
		c0.2,0,0.4,0,0.6,0c1.4,0,2.9-0.3,3.7-1.5c0.3-0.6,0.5-1.2,0.5-1.8c0.1-1.6,0-3.2,0-4.8c0.4,2.9,0.9,7.5-0.2,9.2
		c-0.9,1.3-1.9,2.4-3.1,3.4c-0.3,0.3-0.6,0.5-0.8,0.8c-0.2,0.1-0.3,0.2-0.3,0.2l-0.1,0.3c-0.4,0.6-0.7,1.2-0.8,1.9
		c-0.1,0.2-0.1,0.4-0.1,0.5c0.1,0.2-0.8,1.2-0.6,1.6c-2.4,2.8-2.8,7-2.8,7l-4.3,6.6c-2.2,5.8-5.5,6.4-5.5,6.4s-7.8-5.2-8-5.5
		s-3.2-1.5-3.2-1.5c-0.4-0.6-0.9-1.1-1.5-1.4c-1-0.4-1.1-2-1.1-2c-0.1-3.7-2.3-4-2.3-4c-1.8-0.1-3.1,0.2-4.1,0.7h-0.3
		c-1.5,0.1-3.3,0.3-5.3,0.4c-5.5,0.4-6.9,4-6.9,4s-0.7,0.8,0.2,1.6s6.6,0,6.9,0c-0.4,0-0.9,0-1.3-0.1c0.9,0,2.1-0.1,3.2-0.1h0.3
		c-0.1,0.6-0.1,1.1-0.1,1.7c0,1.1,2.9,1.7,2.9,1.7l9,8c0,0,5.6,2.5,9.2,6.1s6.8,0.5,6.8,0.5c3.8-0.9,14.7-14.1,14.7-14.1l0,0
		c0,0.4,0.2,13.2,0.7,15.8l0,0c0,0.1,0,0.3,0.1,0.4c0.5,1.1-0.2,4.1-0.5,5.4c-0.2,1.1-0.3,2.2-0.2,3.2c0,0-4.1,15.6-3.8,17
		s-2.2,7.8-2.2,7.8v5.3h0.4c-0.1,0.1-0.1,0.2-0.2,0.3v0.1c0,0,2.7,0.6,4.6,0.4c1.8-0.2,5,1.4,5,1.4s1.1,0.5,4.4,0.7s3.3-1.4,3.3-1.4
		c-0.4-2.3-5.6-3-5.7-3c-0.4-0.3-0.8-0.5-1.1-0.8l-0.1-0.1c0,0,0-0.1,0.1-0.2c0.6-2.3-2.5-3.2-2.5-3.2v-0.6c2-1,2.4-8.1,2.4-8.1
		s3-8.7,3.4-10.1c0.4-1.4,0-3.6,0-3.6l0.3-1.9c0,0,0.6-1.3,0.6-1.5c0.1-0.6,0.3-1.3,0.7-1.8c0.5-0.6-0.5-1.9-0.5-1.9l0.9-2.2v-2.4
		l2-8.8c0,0,2.1-10.3,1.4-13.6c-0.7-3.4,0.9-5.1,0.9-5.1c-0.1,0.1-0.3,0.1-0.4,0.2c0.2-0.5,0.4-0.9,0.5-1.4l4.5,0.6v0.1h1.6
		c0,0-0.5-6.3-0.5-8.9c0-2.5,1.7-11.7,1.7-11.7S217.9,127,217.2,126.7z M197.3,119.3c0,0.2,0,0.5,0,0.8l-0.1,0.1l-0.2-0.1l-0.2,0.3
		h-0.1c-0.4-0.2-0.7-1.5-1-1.2l0,0c-0.1-0.1-0.1-0.1-0.2,0l-0.1,0.1c0-0.1,0-0.2,0-0.3C196,119.2,196.6,119.2,197.3,119.3
		C197.3,119.2,197.3,119.3,197.3,119.3z M212.2,148.7L212.2,148.7l-0.1,0.4C212.1,149,212.2,148.9,212.2,148.7z M195.8,224.1
		l-0.6-0.2l0.3-0.1L195.8,224.1L195.8,224.1L195.8,224.1z M202,223.2c-0.2-0.1-0.4-0.2-0.6-0.4C201.5,222.9,201.8,223,202,223.2z"/>
	<polygon class="st21" points="214.4,142.5 210.4,152.9 211.3,152.9 207.6,156 214.4,156.8 	"/>
	<polygon class="st14" points="214.4,142.5 210.4,152.9 209.3,152.7 207.6,156 214.4,156.8 	"/>
	<polygon class="st21" points="208.1,149.2 214.4,149.2 216.7,130.1 208.1,130.1 	"/>
	<polygon class="st14" points="208.1,149.2 214.4,149.2 216.7,130.1 208.1,130.1 	"/>
	<path class="st22" d="M195.7,134.6l1.4-0.2l3.1-0.5c0,0,9.4-2.1,11.3-2.3c1.2-0.2,2.3-0.5,3.4-1c0.5-0.2,0.8-0.4,0.8-0.4l-3.4-6.2
		l-5.3-3.9c0,0-3.3-0.7-4.7-2.6c-0.6-0.8-0.8-2-0.4-3c0.9-2.7-5.1,2.5-5.1,2.5s0.1,1.2,0,2.8c0,0.3,0,0.6-0.1,1c0,0.2,0,0.4-0.1,0.7
		c-0.1,1.6-0.4,3.2-1,4.2C194.3,128.1,195.7,134.6,195.7,134.6z"/>
	<path class="st14" d="M196.9,120h0.1c0.2,0,0.4-0.5,0.7-0.5c1.9-0.2,3.6-0.6,4.8-1.9c-0.6-0.8-0.8-2-0.4-2.9
		c0.9-2.7-5.1,2.5-5.1,2.5S197,118.5,196.9,120z"/>
	<path class="st22" d="M189.6,112.5c0,4,3.3,7.3,7.3,7.3l0,0c0.2,0,0.5,0,0.7,0c4-0.4,6.9-4,6.5-8s-4-6.9-8-6.5
		C192.5,105.6,189.6,108.8,189.6,112.5L189.6,112.5z"/>
	<path class="st12" d="M187.4,101.4c-0.2,0.6-0.2,1.3-0.3,2c-0.4,2.4-2.8,3.8-4.9,4.8c-2.2,1-4.6,2.2-5.3,4.4
		c-0.8,2.5,0.9,4.9,2,7.3c2.2,4.5,2.6,10.3-0.3,14.4c-2.6,3.7-7,5.4-11.3,6.9c2,1.6,4.5,2.4,7.1,2.4c-1,2.8-4.4,3.7-7.3,4.3
		c1.5,1.5,3.7,2,5.9,2.3c1.5,0.2,3.1,0.4,4.7,0.1c1.5-0.3,3-1.1,3.8-2.5c0.7-1.2,0.9-2.7,2.1-3.3c0.5-0.2,1.1-0.3,1.7-0.2l5,0.1
		c1.6,0,3.4-0.1,4.2-1.4c0.3-0.6,0.5-1.2,0.5-1.8c0.2-3.3-0.4-6.7,0.9-9.7c0.4-0.9-2.2-2.3-1.9-3.3c0.9-3.3,1.2-5.9,1.2-9.3
		c0-2.6,1.7-4.9,3.1-7.2s2.6-5,1.5-7.4C198.4,101.5,188.9,97.6,187.4,101.4z"/>
	<path class="st22" d="M194,223.2l1.3,0.8l0.2,0.1l0,0l1.5,1l3.5,0.6l3.1-0.2c0,0,0.9-1.9-0.5-1.8c-0.4,0-0.9-0.1-1.3-0.4l-0.2-0.1
		l0,0c-0.2-0.1-0.4-0.2-0.6-0.4l0,0c-0.4-0.3-0.8-0.5-1.1-0.8c-0.5-0.4-0.8-0.6-0.8-0.6L194,223.2z"/>
	<path class="st14" d="M195.3,224l0.2,0.1l0,0l1.5,1l3.5,0.6l3.1-0.2c0,0,0.9-1.9-0.5-1.8c-0.4,0-0.9-0.1-1.3-0.4
		c0.2,0.2,0.5,0.4,0.5,0.6c0.1,0.5-2.3,1.3-2.3,1.3l-3.3-0.9C196.7,224.3,196.1,224.1,195.3,224L195.3,224L195.3,224z"/>
	<path class="st12" d="M189.6,224.8c0,0,2.7,0.6,4.5,0.4c1.8-0.2,5,1.4,5,1.4s1.1,0.5,4.3,0.7c3.3,0.2,3.3-1.4,3.3-1.4
		c-0.4-2.3-5.5-3-5.7-3l0,0l0,0l0,0c0.1,0,0.3,0.2,0.6,0.4l0,0c0.4,0.2,0.8,0.6,0.8,0.8c0.1,0.5-2.3,1.3-2.3,1.3l-3.3-0.9
		c0,0-0.6-0.2-1.3-0.4h-0.1c-1.1-0.3-2.3-0.5-3.5-0.7C190.5,223.3,189.8,224.5,189.6,224.8C189.7,224.8,189.7,224.8,189.6,224.8z"/>
	<path class="st22" d="M146.9,165l1.4,1.1c0,0,0.4,0,1,0h0.2c0.9,0,2.1-0.1,3.2-0.1c0.7,0,1.4,0,2,0.1c0.7,0.3,2-4.1,2-4.1l-1.4-0.3
		l-0.5-0.1l-0.3-0.1l-1.2-0.3l-3.6,0.4l-2.5,1.6L146.9,165z"/>
	<path class="st14" d="M146.9,165l1.4,1.1c0,0,0.4,0,1,0c-0.3-0.1-0.5-0.3-0.7-0.6c-0.9-2.6,3.7-3.7,3.7-3.7l2.2-0.1h0.4h0.3
		l-0.5-0.1l-0.3-0.1l-1.2-0.3l-3.6,0.4l-2.5,1.6L146.9,165z"/>
	<path class="st12" d="M144.1,166.2c0.9,0.8,6.6,0,6.8,0c-0.4,0-0.9,0-1.3-0.1c-0.4-0.1-0.8-0.3-1-0.7c-0.9-2.6,3.7-3.7,3.7-3.7
		l2.2-0.1h0.4l5.2-0.2l0.3-1.4c0,0-1.7,0.2-4.4,0.4c-1.5,0.1-3.3,0.3-5.3,0.4c-5.5,0.4-6.8,3.9-6.8,3.9S143.2,165.4,144.1,166.2z"/>
	<path class="st22" d="M208.1,103.8c0,0.1,0.1,0.2,0.1,0.2l1.3,1.9l3.3,0.3v-1.3l0.6-19.7c0,0,2.3-13.2-2-12.5s-1.6,12.5-1.6,12.5
		s-0.5,5.9-0.8,7.7C208.6,94.6,207,101.6,208.1,103.8z"/>
	<path class="st22" d="M200.7,152.7l0.9,1.6l2.1,3.6c0,0,3.8,1.4,4.8,0.3c0.5-0.6,1.1-2.6,1.5-4.3c0.3-1.4,0.6-2.5,0.6-2.5
		L200.7,152.7z"/>
	<path class="st14" d="M200.7,152.7l0.9,1.6c0.1-0.1,0.1-0.1,0.2-0.2c1.1-1.4,5.7-0.3,8.3-0.2c0.3-1.4,0.6-2.5,0.6-2.5L200.7,152.7z
		"/>
	<path class="st14" d="M152.8,166c0.7,0,1.4,0,2,0.1c0.7,0.3,2-4.1,2-4.1l-1.9-0.5l5.2-0.2l0.3-1.4c0,0-1.7,0.2-4.4,0.4
		c-0.6,0.3-1,0.7-1.5,1.2l-0.1,0.1C153.4,163,153,164.7,152.8,166z"/>
	<path class="st14" d="M194,223.2l1.5,1c2.2-0.4,4.2-1,4.4-2l0,0c-0.5-0.4-0.8-0.6-0.8-0.6L194,223.2z"/>
	<path class="st14" d="M189.7,224.8c1.9-0.1,3.9-0.3,5.8-0.6c-1.1-0.3-2.3-0.6-3.5-0.7C190.6,223.3,189.8,224.5,189.7,224.8z"/>
	<path class="st12" d="M153,167.7c0,1.1,2.9,1.7,2.9,1.7l8.9,7.9c0,0,5.6,2.5,9.1,6.1c3.6,3.6,6.7,0.5,6.7,0.5
		c3.8-0.9,14.6-14.1,14.6-14.1s0.3,15,0.8,16.1s-0.2,4.1-0.5,5.4c-0.2,1.1-0.3,2.1-0.2,3.2c0,0-4.1,15.5-3.7,16.9s-2.2,7.7-2.2,7.7
		v5.3c0,0,10-0.4,10.5-2.6c0.5-2.2-2.5-3.2-2.5-3.2V218c2-1,2.4-8,2.4-8s3-8.6,3.4-10.1s0-3.6,0-3.6l0.3-1.9c0,0,0.6-1.3,0.6-1.5
		c0.1-0.6,0.3-1.3,0.7-1.8c0.5-0.6-0.5-1.9-0.5-1.9l0.8-2.2v-2.4l2-8.8c0,0,2.1-10.2,1.4-13.6c-0.7-3.3,0.8-5,0.8-5
		c-3.4,1.8-5.1-2.2-5.7-3.9c-0.1-0.4-0.2-0.7-0.2-0.7s-4.7-1.7-9-1.3c-0.9,0.1-1.8,0.3-2.6,0.5c-4.8,1.7-5.6,8.9-5.6,8.9l-4.3,6.5
		c-2.2,5.8-5.5,6.4-5.5,6.4s-7.8-5.2-8-5.5s-3.2-1.5-3.2-1.5c-0.3-0.6-0.9-1.1-1.5-1.4c-1-0.4-1.1-2-1.1-2c-0.1-3.7-2.3-4-2.3-4
		C152.9,158.9,153,166.6,153,167.7z"/>
	<rect x="196.1" y="132.8" class="st21" width="4.6" height="14.2"/>
	<rect x="196.1" y="132.8" class="st14" width="4.6" height="14.2"/>
	<path class="st14" d="M208.1,103.8L208.1,103.8c0,0.1,0.1,0.2,0.1,0.3l1.3,1.9l3.3,0.3V105C211.8,104.8,209.4,104.6,208.1,103.8z"
		/>
	<path class="st21" d="M208.2,104c0,0,0.2,7.5-1.7,8.5s-2.6,6.3-2.6,6.3s5.7,3.7,6.9,5.4c1.3,1.6,4.2,5.5,3.6,6.5
		c-0.6,0.9,1.4,5.2,1.4,5.2s-3.7,7.6-2.9,10.5s0.9,10.5,0.9,10.5h1.6c0,0-0.5-6.3-0.5-8.8s1.7-11.6,1.7-11.6s0.8-8.9,0-9.1
		c-0.8-0.3-5.3-3.8-5.6-5.4s2.4-16.6,2.4-16.6S210,105,208.2,104z"/>
	<path class="st14" d="M196,131.5c0.2,1,0.5,2,1.1,2.9l3.1-0.5c0,0,9.4-2.1,11.3-2.3c1.2-0.2,2.3-0.5,3.4-1c-0.7-2.6-2.2-5-4.2-6.9
		l-1.2-1.1c-1.8-1.6-3.8-2.9-6-3.8c0.1,0.1,10,8.5,7.8,10.2s-8-2.4-8-2.4l-6.6-5.7l-0.2-0.2l-0.4,0.6c0.2,0.1,0.4,0.2,0.6,0.3
		c2.3,1.2,3.9,3.3,4.7,5.8C202.8,131.9,196,131.5,196,131.5z"/>
	<path class="st23" d="M194,152.7c0,0,6.3,3.5,7.8,1.5c0.3-0.4,1-0.6,1.9-0.7c-0.1-0.4-0.2-0.7-0.2-0.7s-4.7-1.7-9-1.3
		C194.1,152.2,194,152.7,194,152.7z"/>
	<path class="st24" d="M196.9,120.7l6.9,5.9c0,0,5.8,4,8,2.4s-7.8-10.2-7.8-10.2l0,0c2.2,0.9,4.3,2.2,6,3.8l1.2,1.1
		c3.1,2.9,3.8,2.9,4,7.2c0,1.1-0.3,2.6-0.6,2.8c-1,1-1.7,8.2-1.6,9.1c0.2,0.8-1.9,8.2-1.2,10.2s-8.3-1-9.8,0.9s-7.8-1.5-7.8-1.5
		s3.5-8.9,4.3-9.5s1.9-5.2,0-7.3s-2-4.2-2-4.2s6.8,0.4,5.4-4.2c-0.8-2.7-2.7-4.9-5.2-6.1L196.9,120.7z"/>
	<path class="st14" d="M206,135.7c0,0-2.6,5-6,6.2c-0.1,0-0.2,0.1-0.3,0.1C196.1,143.1,206.3,137.2,206,135.7z"/>
	<path class="st22" d="M169.2,91.8c0,0,1.3,3.2,2.3,4.3s8.6,12.1,8.6,12.1l0.6,1.3l0.5,1.1l4.8-0.5l0.3-1.9l-0.2-0.2
		c-0.5-0.6-1.8-2.1-2.7-2.8c-1.1-0.8-3.3-3.6-3.3-3.6s-6.9-7.1-7.4-9.1c-0.5-1.9-7.4-13.6-8.9-11.6
		C162.4,82.9,169.2,91.8,169.2,91.8z"/>
	<g class="st16">
		<path class="st17" d="M183.2,144.2c-0.6-0.1-1.2,0-1.7,0.2c-1.2,0.6-1.4,2.2-2.1,3.3c-0.8,1.3-2.3,2.2-3.8,2.5
			c-0.3,0.1-0.6,0.1-0.9,0.1c1,0.1,2,0.1,2.9-0.1c1.5-0.3,3-1.1,3.8-2.5c0.7-1.2,0.9-2.7,2.1-3.3c0.3-0.1,0.7-0.2,1-0.2H183.2z"/>
		<path class="st17" d="M195.1,118.7c0-2.6,1.7-4.9,3.1-7.2c1.4-2.2,2.6-5,1.5-7.4c-1-2-6.7-4.8-10.1-4.2c3.3,0.4,7.3,2.6,8.1,4.2
			c1.1,2.4-0.1,5.2-1.5,7.4c-1.4,2.2-3.1,4.5-3.1,7.2c0,3.4-0.2,6-1.2,9.3c-0.3,0.9,2.3,2.4,1.9,3.3c-1.3,3-0.7,6.4-0.9,9.7
			c0,0.6-0.2,1.3-0.5,1.8c-0.7,1.1-2,1.4-3.4,1.4h1.2c1.5,0,3.4-0.1,4.2-1.4c0.3-0.6,0.5-1.2,0.5-1.8c0.2-3.3-0.4-6.7,0.9-9.7
			c0.4-0.9-2.2-2.3-1.9-3.3C194.8,124.7,195.1,122.1,195.1,118.7z"/>
	</g>
	<path class="st14" d="M180.7,109.6l0.5,1.1l4.8-0.5l0.3-1.9l-0.2-0.2C185.7,108.3,181.9,110.2,180.7,109.6z"/>
	<path class="st14" d="M198.5,122.3c0,0-1.2-1.9-1.9-1.4s-0.9-1.5-1.3-1.2s-1.5,1.3-2,0c-0.4-1.1-4.4-7.7-6-10.4
		c-0.4-0.7-0.7-1.1-0.7-1.1s-4.6,2.3-5.7,1.5v1.6l0.9,0.1l5,9.3c0,0,1.6,2.5,1.5,3.4s2,4.7,2.4,4.9c0.3,0.3,4,4.5,4,4.5
		s1.9,9.2,0.3,11.7c-1.6,2.5-4.4,4.4-4.4,4.4s-0.8,2.5-0.7,2.7c0.1,0.3-1,1.4-0.5,1.7s1.2,2.7,1.2,2.7s2.4-3.8,3.7-4.4
		c1.3-0.6,2.9-8.4,2.9-8.4s0.5-4.6,0.5-7.6C197.7,133.5,197.5,122.3,198.5,122.3z"/>
	<path class="st21" d="M198.3,122.3c0,0-1.2-1.9-1.9-1.4s-0.9-1.5-1.3-1.2c-0.4,0.3-1.5,1.3-2,0c-0.4-1.1-4.4-7.7-6-10.4l-0.7-1.1
		c0,0-4.6,2.3-5.7,1.5v1.6l0.9,0.1l5,9.3c0,0,1.6,2.5,1.5,3.4s2,4.7,2.4,4.9c0.4,0.3,4,4.5,4,4.5s1.9,9.2,0.3,11.7
		c-0.8,1.3-1.9,2.4-3.1,3.4c-1,0.8-1.7,1.9-2,3.2c-0.1,0.2-0.1,0.4-0.1,0.5c0.1,0.3-1,1.4-0.5,1.7s1.2,2.7,1.2,2.7s2.4-3.8,3.7-4.4
		c1.3-0.6,2.9-8.4,2.9-8.4s0.5-4.6,0.5-7.6C197.4,133.5,197.3,122.3,198.3,122.3z"/>
	<path class="st14" d="M186.7,160.9c0,0,3.6,0.7,5,1.7s-5.4-1.6-5.4-1.6L186.7,160.9z"/>
	<path class="st14" d="M195.2,169.9c0,0,3.7,3.1,3,5.9c-0.7,2.8-2.4,9.8-2.4,9.8L195.2,169.9z"/>
	<path class="st14" d="M162.8,164c0,0-5.2,0.6-4.9,1.2c0.3,0.7,4.9-0.6,4.9-0.6V164z"/>
	<path class="st14" d="M202.9,189.7c0,0,0.3,0.4-1.6,0c-1.9-0.4-0.5-1.7-0.5-1.7L202.9,189.7z"/>
	<path class="st14" d="M202.3,195.5c0,0-2.7,0.4-4.1,0S202.3,195.5,202.3,195.5z"/>
	<path class="st14" d="M196.8,218.4c0,0-0.5-0.5-2.8,0.4s-3.3,1-3.9,0.7C189.4,219.2,196.8,218.4,196.8,218.4z"/>
	<path class="st14" d="M199.4,163.2l-3.3,4.6C196.1,167.8,197.9,163.8,199.4,163.2z"/>
	<path class="st14" d="M193,121c0,0-0.1,1.5-2.3,2.1c-2.1,0.6-2.5,1.1-2.5,1.1"/>
	<path class="st14" d="M187.4,109.9c0,0-2.8,2-5.7,1.6"/>
	<path class="st14" d="M189.6,152.6c0,0,0.8,0.5,2.8-1.7"/>
	<path class="st14" d="M210,128.7c0.1-0.4-0.2-0.8-0.5-1.1l-0.6-0.7c-0.1-0.1-0.2-0.3-0.4-0.4c-0.3-0.3-0.8-0.3-1.1-0.6"/>
	<path class="st9" d="M388.5,12.8c0,0-28-1.7-24.7,17.9c0,0-0.7,3.5,2.5,5c0,0,0-1.5,2.9-1c1,0.2,2,0.2,3,0.1
		c1.4-0.1,2.7-0.6,3.7-1.5l0,0c0,0,7.9-3.3,10.9-16.1c0,0,2.3-2.8,2.2-3.5l-4.7,2c0,0,1.6,3.4,0.3,6.2c0,0-0.2-6.1-1.1-6
		c-0.2,0-2.5,1.2-2.5,1.2s2.8,5.9,0.7,10.2c0,0,0.8-7.3-1.5-9.8l-3.3,1.9c0,0,3.2,6.1,1,11.1c0,0,0.6-7.7-1.7-10.7l-3,2.4
		c0,0,3,6,1.2,10.2c0,0-0.2-8.9-1.8-9.6c0,0-2.6,2.3-3,3.3c0,0,2.1,4.4,0.8,6.7c0,0-0.8-6-1.4-6c0,0-2.6,3.9-2.9,6.6
		c0,0,0.1-4,2.3-7c0,0-2.5,0.4-4,2.1c0,0,0.4-2.8,4.7-3c0,0,2.2-3,2.7-3.2c0,0-4.2-0.4-6.8,0.8c0,0,2.3-2.6,7.6-1.4l3-2.4
		c0,0-5.6-0.8-7.9,0.1c0,0,2.7-2.3,8.7-0.6l3.2-1.9c0,0-4.8-1-7.6-0.7c0,0,3-1.6,8.5,0.1l2.3-1c0,0-3.5-0.7-4.5-0.8
		s-1.1-0.4-1.1-0.4c2.2-0.4,4.5-0.1,6.5,0.7C383.7,15,388.6,13.2,388.5,12.8z"/>
	<path class="st9" d="M354,17.8c0,0-12.6-0.8-11.2,8.1c0,0-0.3,1.6,1.1,2.3c0,0,0-0.7,1.3-0.4c0.5,0.1,0.9,0.1,1.4,0.1
		c0.6,0,1.2-0.3,1.7-0.7l0,0c0,0,3.6-1.5,4.9-7.3c0,0,1-1.3,1-1.6l-2.1,0.9c0,0,0.7,1.5,0.2,2.8c0,0-0.1-2.8-0.5-2.7
		c-0.1,0-1.1,0.5-1.1,0.5s1.3,2.7,0.3,4.6c0,0,0.4-3.3-0.7-4.4l-1.5,0.9c0,0,1.5,2.8,0.5,5c0,0,0.3-3.5-0.8-4.8l-1.4,1.1
		c0,0,1.4,2.7,0.5,4.6c0,0-0.1-4-0.8-4.3c0,0-1.2,1.1-1.4,1.5c0,0,0.9,2,0.4,3c0,0-0.4-2.7-0.7-2.7c0,0-1.2,1.8-1.3,3
		c0.1-1.1,0.4-2.2,1-3.2c-0.7,0.1-1.3,0.5-1.8,0.9c0,0,0.2-1.3,2.1-1.4c0,0,1-1.3,1.2-1.4c0,0-1.9-0.2-3.1,0.4c0,0,1-1.2,3.4-0.7
		l1.3-1.1c0,0-2.5-0.3-3.6,0c0,0,1.2-1.1,4-0.3l1.5-0.9c0,0-2.1-0.5-3.4-0.3c0,0,1.4-0.7,3.9,0.1l1-0.5c0,0-1.6-0.3-2-0.4
		c-0.5,0-0.5-0.2-0.5-0.2c1-0.2,2-0.1,3,0.3C351.8,18.8,354,18,354,17.8z"/>
	<ellipse class="st18" cx="398.1" cy="226.9" rx="13.4" ry="2.3"/>
	<path class="st18" d="M403.7,223.2c0.6-0.5,1.1-1.2,1.3-1.9c0.2-0.8-0.2-1.7-0.9-2c-0.8-0.3-1.7,0.3-2.4,0.8
		c-0.7,0.6-1.4,1.2-2.3,1.1c0.9-0.8,1.3-2.1,1.1-3.3c0-0.2-0.1-0.5-0.3-0.7c-0.5-0.5-1.3-0.3-1.8,0.1c-1.7,1.2-2.2,3.6-2.2,5.7
		c-0.2-0.8,0-1.6,0-2.3c0-0.8-0.2-1.7-0.9-2.1c-0.4-0.2-0.9-0.3-1.3-0.3c-0.8,0-1.6,0-2.2,0.6c-0.7,0.7-0.5,1.9,0.1,2.7
		s1.4,1.3,2.3,1.8c0.6,0.4,1.2,0.9,1.6,1.5c0,0.1,0.1,0.2,0.1,0.3h4.9C401.7,224.7,402.8,224,403.7,223.2z"/>
</g>
</svg>
